%
M48
M72
T01C0.02362
T02C0.03543
T03C0.03937
%
T01
X20550Y180550
X46800Y180550
X56800Y169300
X71800Y160550
X83050Y174300
X88050Y181800
X108050Y173050
X118050Y169300
X109300Y159300
X106800Y141800
X135550Y146800
X146800Y154300
X153050Y156800
X160550Y155550
X159300Y141800
X178050Y126800
X128050Y98050
X113050Y104300
X109300Y111800
X75550Y136800
X55550Y149300
X35550Y153050
X20550Y153050
X76800Y11800
X113050Y16800
X121800Y26800
X184300Y155550
X165550Y184300
X161800Y191800
X146800Y186800
X141800Y164300
T02
X165206Y116800
X153394Y116800
T03
X46800Y191800
X56800Y191800
X76800Y191800
X86800Y191800
X96800Y191800
X106800Y191800
X116800Y191800
X126800Y191800
X125520Y140737
X115520Y140737
X115520Y130737
X115520Y120737
X125520Y120737
X125520Y130737
X71800Y116800
X71800Y126800
X61800Y126800
X61800Y116800
X51800Y116800
X51800Y126800
X41800Y126800
X41800Y116800
X31800Y116800
X31800Y126800
M30
