G75*
%MOIN*%
%OFA0B0*%
%FSLAX25Y25*%
%IPPOS*%
%LPD*%
%AMOC8*
5,1,8,0,0,1.08239X$1,22.5*
%
%ADD10C,0.01600*%
%ADD11C,0.07000*%
%ADD12C,0.06600*%
%ADD13R,0.06337X0.06337*%
%ADD14C,0.06337*%
%ADD15C,0.00000*%
%ADD16C,0.04362*%
D10*
X0049044Y0005737D02*
X0049044Y0104162D01*
X0051844Y0104105D02*
X0108869Y0104105D01*
X0108869Y0103468D02*
X0109505Y0101932D01*
X0110250Y0101187D01*
X0110250Y0019913D01*
X0109505Y0019168D01*
X0108869Y0017632D01*
X0108869Y0015968D01*
X0109505Y0014432D01*
X0110682Y0013255D01*
X0112218Y0012619D01*
X0113882Y0012619D01*
X0115418Y0013255D01*
X0116595Y0014432D01*
X0117231Y0015968D01*
X0117231Y0017632D01*
X0116595Y0019168D01*
X0115850Y0019913D01*
X0115850Y0101187D01*
X0116595Y0101932D01*
X0117231Y0103468D01*
X0117231Y0105132D01*
X0116595Y0106668D01*
X0115418Y0107845D01*
X0113882Y0108481D01*
X0112218Y0108481D01*
X0110682Y0107845D01*
X0109505Y0106668D01*
X0108869Y0105132D01*
X0108869Y0103468D01*
X0109267Y0102506D02*
X0051844Y0102506D01*
X0051844Y0100908D02*
X0110250Y0100908D01*
X0110250Y0099309D02*
X0051844Y0099309D01*
X0051844Y0097711D02*
X0110250Y0097711D01*
X0110250Y0096112D02*
X0051844Y0096112D01*
X0051844Y0094514D02*
X0110250Y0094514D01*
X0110250Y0092915D02*
X0051844Y0092915D01*
X0051844Y0091317D02*
X0110250Y0091317D01*
X0110250Y0089718D02*
X0051844Y0089718D01*
X0051844Y0088120D02*
X0110250Y0088120D01*
X0110250Y0086521D02*
X0051844Y0086521D01*
X0051844Y0084923D02*
X0110250Y0084923D01*
X0110250Y0083324D02*
X0051844Y0083324D01*
X0051844Y0081726D02*
X0110250Y0081726D01*
X0110250Y0080127D02*
X0051844Y0080127D01*
X0051844Y0078529D02*
X0110250Y0078529D01*
X0110250Y0076930D02*
X0051844Y0076930D01*
X0051844Y0075332D02*
X0110250Y0075332D01*
X0110250Y0073733D02*
X0051844Y0073733D01*
X0051844Y0072134D02*
X0110250Y0072134D01*
X0110250Y0070536D02*
X0051844Y0070536D01*
X0051844Y0068937D02*
X0110250Y0068937D01*
X0110250Y0067339D02*
X0051844Y0067339D01*
X0051844Y0065740D02*
X0110250Y0065740D01*
X0110250Y0064142D02*
X0051844Y0064142D01*
X0051844Y0062543D02*
X0110250Y0062543D01*
X0110250Y0060945D02*
X0051844Y0060945D01*
X0051844Y0059346D02*
X0110250Y0059346D01*
X0110250Y0057748D02*
X0051844Y0057748D01*
X0051844Y0056149D02*
X0110250Y0056149D01*
X0110250Y0054551D02*
X0051844Y0054551D01*
X0051844Y0052952D02*
X0110250Y0052952D01*
X0110250Y0051354D02*
X0051844Y0051354D01*
X0051844Y0049755D02*
X0110250Y0049755D01*
X0110250Y0048157D02*
X0051844Y0048157D01*
X0051844Y0046558D02*
X0110250Y0046558D01*
X0110250Y0044960D02*
X0051844Y0044960D01*
X0051844Y0043361D02*
X0110250Y0043361D01*
X0110250Y0041763D02*
X0051844Y0041763D01*
X0051844Y0040164D02*
X0110250Y0040164D01*
X0110250Y0038566D02*
X0051844Y0038566D01*
X0051844Y0036967D02*
X0110250Y0036967D01*
X0110250Y0035369D02*
X0051844Y0035369D01*
X0051844Y0033770D02*
X0110250Y0033770D01*
X0110250Y0032172D02*
X0051844Y0032172D01*
X0051844Y0030573D02*
X0110250Y0030573D01*
X0110250Y0028975D02*
X0051844Y0028975D01*
X0051844Y0027376D02*
X0110250Y0027376D01*
X0110250Y0025778D02*
X0051844Y0025778D01*
X0051844Y0024179D02*
X0110250Y0024179D01*
X0110250Y0022581D02*
X0051844Y0022581D01*
X0051844Y0020982D02*
X0054914Y0020982D01*
X0056103Y0021368D02*
X0053018Y0020366D01*
X0051844Y0019309D01*
X0051844Y0105502D01*
X0050818Y0107978D01*
X0050818Y0107978D01*
X0048923Y0109874D01*
X0046447Y0110899D01*
X0005737Y0110899D01*
X0005515Y0110921D01*
X0005105Y0111091D01*
X0004792Y0111405D01*
X0004622Y0111814D01*
X0004600Y0112036D01*
X0004600Y0194713D01*
X0004622Y0194935D01*
X0004792Y0195345D01*
X0005105Y0195659D01*
X0005515Y0195829D01*
X0005737Y0195850D01*
X0043355Y0195850D01*
X0042307Y0194802D01*
X0041500Y0192854D01*
X0041500Y0190746D01*
X0042307Y0188798D01*
X0043798Y0187307D01*
X0045746Y0186500D01*
X0047854Y0186500D01*
X0049802Y0187307D01*
X0051293Y0188798D01*
X0051921Y0190313D01*
X0052074Y0189842D01*
X0052438Y0189127D01*
X0052910Y0188478D01*
X0053478Y0187910D01*
X0054127Y0187438D01*
X0054842Y0187074D01*
X0055606Y0186826D01*
X0056399Y0186700D01*
X0056616Y0186700D01*
X0056616Y0191616D01*
X0056984Y0191616D01*
X0056984Y0186700D01*
X0057201Y0186700D01*
X0057994Y0186826D01*
X0058758Y0187074D01*
X0059473Y0187438D01*
X0060122Y0187910D01*
X0060690Y0188478D01*
X0061162Y0189127D01*
X0061526Y0189842D01*
X0061774Y0190606D01*
X0061900Y0191399D01*
X0061900Y0191616D01*
X0056984Y0191616D01*
X0056984Y0191984D01*
X0061900Y0191984D01*
X0061900Y0192201D01*
X0061774Y0192994D01*
X0061526Y0193758D01*
X0061162Y0194473D01*
X0060690Y0195122D01*
X0060122Y0195690D01*
X0059902Y0195850D01*
X0073698Y0195850D01*
X0073478Y0195690D01*
X0072910Y0195122D01*
X0072438Y0194473D01*
X0072074Y0193758D01*
X0071826Y0192994D01*
X0071700Y0192201D01*
X0071700Y0191984D01*
X0076616Y0191984D01*
X0076616Y0191616D01*
X0071700Y0191616D01*
X0071700Y0191399D01*
X0071826Y0190606D01*
X0072074Y0189842D01*
X0072438Y0189127D01*
X0072910Y0188478D01*
X0073478Y0187910D01*
X0074127Y0187438D01*
X0074842Y0187074D01*
X0075606Y0186826D01*
X0076399Y0186700D01*
X0076616Y0186700D01*
X0076616Y0191616D01*
X0076984Y0191616D01*
X0076984Y0186700D01*
X0077201Y0186700D01*
X0077994Y0186826D01*
X0078758Y0187074D01*
X0079473Y0187438D01*
X0080122Y0187910D01*
X0080690Y0188478D01*
X0081162Y0189127D01*
X0081526Y0189842D01*
X0081774Y0190606D01*
X0081800Y0190767D01*
X0081826Y0190606D01*
X0082074Y0189842D01*
X0082438Y0189127D01*
X0082910Y0188478D01*
X0083478Y0187910D01*
X0084127Y0187438D01*
X0084842Y0187074D01*
X0085606Y0186826D01*
X0086399Y0186700D01*
X0086616Y0186700D01*
X0086616Y0191616D01*
X0081700Y0191616D01*
X0076984Y0191616D01*
X0076984Y0191984D01*
X0086616Y0191984D01*
X0086616Y0191616D01*
X0086984Y0191616D01*
X0086984Y0186700D01*
X0087201Y0186700D01*
X0087994Y0186826D01*
X0088758Y0187074D01*
X0089473Y0187438D01*
X0090122Y0187910D01*
X0090690Y0188478D01*
X0091162Y0189127D01*
X0091526Y0189842D01*
X0091679Y0190313D01*
X0092307Y0188798D01*
X0093798Y0187307D01*
X0094000Y0187223D01*
X0094000Y0183743D01*
X0094426Y0182714D01*
X0103869Y0173271D01*
X0103869Y0172218D01*
X0104505Y0170682D01*
X0105682Y0169505D01*
X0107218Y0168869D01*
X0108882Y0168869D01*
X0110418Y0169505D01*
X0111595Y0170682D01*
X0112231Y0172218D01*
X0112231Y0173882D01*
X0111595Y0175418D01*
X0110418Y0176595D01*
X0108882Y0177231D01*
X0107829Y0177231D01*
X0099600Y0185460D01*
X0099600Y0187223D01*
X0099802Y0187307D01*
X0101293Y0188798D01*
X0101800Y0190022D01*
X0102307Y0188798D01*
X0103798Y0187307D01*
X0105746Y0186500D01*
X0107854Y0186500D01*
X0109802Y0187307D01*
X0111293Y0188798D01*
X0111800Y0190022D01*
X0112307Y0188798D01*
X0113798Y0187307D01*
X0115746Y0186500D01*
X0117854Y0186500D01*
X0119802Y0187307D01*
X0121293Y0188798D01*
X0121800Y0190022D01*
X0122307Y0188798D01*
X0123798Y0187307D01*
X0125746Y0186500D01*
X0127854Y0186500D01*
X0129802Y0187307D01*
X0131293Y0188798D01*
X0132100Y0190746D01*
X0132100Y0192854D01*
X0131293Y0194802D01*
X0130245Y0195850D01*
X0194713Y0195850D01*
X0194935Y0195829D01*
X0195345Y0195659D01*
X0195659Y0195345D01*
X0195829Y0194935D01*
X0195850Y0194713D01*
X0195850Y0112036D01*
X0195829Y0111814D01*
X0195659Y0111405D01*
X0195345Y0111091D01*
X0194935Y0110921D01*
X0194713Y0110899D01*
X0138255Y0110899D01*
X0135779Y0109874D01*
X0133884Y0107978D01*
X0132858Y0105502D01*
X0132858Y0019491D01*
X0130195Y0021029D01*
X0130195Y0021029D01*
X0126969Y0021368D01*
X0123884Y0020366D01*
X0121474Y0018196D01*
X0121474Y0018196D01*
X0120155Y0015233D01*
X0120155Y0011989D01*
X0121474Y0009026D01*
X0123884Y0006856D01*
X0123884Y0006856D01*
X0126969Y0005854D01*
X0130195Y0006193D01*
X0132858Y0007731D01*
X0132858Y0005737D01*
X0132836Y0005515D01*
X0132667Y0005105D01*
X0132353Y0004792D01*
X0131943Y0004622D01*
X0131721Y0004600D01*
X0052981Y0004600D01*
X0052759Y0004622D01*
X0052349Y0004792D01*
X0052036Y0005105D01*
X0051866Y0005515D01*
X0051844Y0005737D01*
X0051844Y0007913D01*
X0053018Y0006856D01*
X0053018Y0006856D01*
X0056103Y0005854D01*
X0059328Y0006193D01*
X0062137Y0007814D01*
X0062137Y0007815D01*
X0064044Y0010438D01*
X0064718Y0013611D01*
X0064718Y0013611D01*
X0064044Y0016784D01*
X0062137Y0019408D01*
X0059328Y0021029D01*
X0056103Y0021368D01*
X0056103Y0021368D01*
X0053018Y0020366D02*
X0053018Y0020366D01*
X0051927Y0019384D02*
X0051844Y0019384D01*
X0051918Y0013611D02*
X0051920Y0013752D01*
X0051926Y0013893D01*
X0051936Y0014033D01*
X0051950Y0014173D01*
X0051968Y0014313D01*
X0051989Y0014452D01*
X0052015Y0014591D01*
X0052044Y0014729D01*
X0052078Y0014865D01*
X0052115Y0015001D01*
X0052156Y0015136D01*
X0052201Y0015270D01*
X0052250Y0015402D01*
X0052302Y0015533D01*
X0052358Y0015662D01*
X0052418Y0015789D01*
X0052481Y0015915D01*
X0052547Y0016039D01*
X0052618Y0016162D01*
X0052691Y0016282D01*
X0052768Y0016400D01*
X0052848Y0016516D01*
X0052932Y0016629D01*
X0053018Y0016740D01*
X0053108Y0016849D01*
X0053201Y0016955D01*
X0053296Y0017058D01*
X0053395Y0017159D01*
X0053496Y0017257D01*
X0053600Y0017352D01*
X0053707Y0017444D01*
X0053816Y0017533D01*
X0053928Y0017618D01*
X0054042Y0017701D01*
X0054158Y0017781D01*
X0054277Y0017857D01*
X0054398Y0017929D01*
X0054520Y0017999D01*
X0054645Y0018064D01*
X0054771Y0018127D01*
X0054899Y0018185D01*
X0055029Y0018240D01*
X0055160Y0018292D01*
X0055293Y0018339D01*
X0055427Y0018383D01*
X0055562Y0018424D01*
X0055698Y0018460D01*
X0055835Y0018492D01*
X0055973Y0018521D01*
X0056111Y0018546D01*
X0056251Y0018566D01*
X0056391Y0018583D01*
X0056531Y0018596D01*
X0056672Y0018605D01*
X0056812Y0018610D01*
X0056953Y0018611D01*
X0057094Y0018608D01*
X0057235Y0018601D01*
X0057375Y0018590D01*
X0057515Y0018575D01*
X0057655Y0018556D01*
X0057794Y0018534D01*
X0057932Y0018507D01*
X0058070Y0018477D01*
X0058206Y0018442D01*
X0058342Y0018404D01*
X0058476Y0018362D01*
X0058610Y0018316D01*
X0058742Y0018267D01*
X0058872Y0018213D01*
X0059001Y0018156D01*
X0059128Y0018096D01*
X0059254Y0018032D01*
X0059377Y0017964D01*
X0059499Y0017893D01*
X0059619Y0017819D01*
X0059736Y0017741D01*
X0059851Y0017660D01*
X0059964Y0017576D01*
X0060075Y0017489D01*
X0060183Y0017398D01*
X0060288Y0017305D01*
X0060391Y0017208D01*
X0060491Y0017109D01*
X0060588Y0017007D01*
X0060682Y0016902D01*
X0060773Y0016795D01*
X0060861Y0016685D01*
X0060946Y0016573D01*
X0061028Y0016458D01*
X0061107Y0016341D01*
X0061182Y0016222D01*
X0061254Y0016101D01*
X0061322Y0015978D01*
X0061387Y0015853D01*
X0061449Y0015726D01*
X0061506Y0015597D01*
X0061561Y0015467D01*
X0061611Y0015336D01*
X0061658Y0015203D01*
X0061701Y0015069D01*
X0061740Y0014933D01*
X0061775Y0014797D01*
X0061807Y0014660D01*
X0061834Y0014522D01*
X0061858Y0014383D01*
X0061878Y0014243D01*
X0061894Y0014103D01*
X0061906Y0013963D01*
X0061914Y0013822D01*
X0061918Y0013681D01*
X0061918Y0013541D01*
X0061914Y0013400D01*
X0061906Y0013259D01*
X0061894Y0013119D01*
X0061878Y0012979D01*
X0061858Y0012839D01*
X0061834Y0012700D01*
X0061807Y0012562D01*
X0061775Y0012425D01*
X0061740Y0012289D01*
X0061701Y0012153D01*
X0061658Y0012019D01*
X0061611Y0011886D01*
X0061561Y0011755D01*
X0061506Y0011625D01*
X0061449Y0011496D01*
X0061387Y0011369D01*
X0061322Y0011244D01*
X0061254Y0011121D01*
X0061182Y0011000D01*
X0061107Y0010881D01*
X0061028Y0010764D01*
X0060946Y0010649D01*
X0060861Y0010537D01*
X0060773Y0010427D01*
X0060682Y0010320D01*
X0060588Y0010215D01*
X0060491Y0010113D01*
X0060391Y0010014D01*
X0060288Y0009917D01*
X0060183Y0009824D01*
X0060075Y0009733D01*
X0059964Y0009646D01*
X0059851Y0009562D01*
X0059736Y0009481D01*
X0059619Y0009403D01*
X0059499Y0009329D01*
X0059377Y0009258D01*
X0059254Y0009190D01*
X0059128Y0009126D01*
X0059001Y0009066D01*
X0058872Y0009009D01*
X0058742Y0008955D01*
X0058610Y0008906D01*
X0058476Y0008860D01*
X0058342Y0008818D01*
X0058206Y0008780D01*
X0058070Y0008745D01*
X0057932Y0008715D01*
X0057794Y0008688D01*
X0057655Y0008666D01*
X0057515Y0008647D01*
X0057375Y0008632D01*
X0057235Y0008621D01*
X0057094Y0008614D01*
X0056953Y0008611D01*
X0056812Y0008612D01*
X0056672Y0008617D01*
X0056531Y0008626D01*
X0056391Y0008639D01*
X0056251Y0008656D01*
X0056111Y0008676D01*
X0055973Y0008701D01*
X0055835Y0008730D01*
X0055698Y0008762D01*
X0055562Y0008798D01*
X0055427Y0008839D01*
X0055293Y0008883D01*
X0055160Y0008930D01*
X0055029Y0008982D01*
X0054899Y0009037D01*
X0054771Y0009095D01*
X0054645Y0009158D01*
X0054520Y0009223D01*
X0054398Y0009293D01*
X0054277Y0009365D01*
X0054158Y0009441D01*
X0054042Y0009521D01*
X0053928Y0009604D01*
X0053816Y0009689D01*
X0053707Y0009778D01*
X0053600Y0009870D01*
X0053496Y0009965D01*
X0053395Y0010063D01*
X0053296Y0010164D01*
X0053201Y0010267D01*
X0053108Y0010373D01*
X0053018Y0010482D01*
X0052932Y0010593D01*
X0052848Y0010706D01*
X0052768Y0010822D01*
X0052691Y0010940D01*
X0052618Y0011060D01*
X0052547Y0011183D01*
X0052481Y0011307D01*
X0052418Y0011433D01*
X0052358Y0011560D01*
X0052302Y0011689D01*
X0052250Y0011820D01*
X0052201Y0011952D01*
X0052156Y0012086D01*
X0052115Y0012221D01*
X0052078Y0012357D01*
X0052044Y0012493D01*
X0052015Y0012631D01*
X0051989Y0012770D01*
X0051968Y0012909D01*
X0051950Y0013049D01*
X0051936Y0013189D01*
X0051926Y0013329D01*
X0051920Y0013470D01*
X0051918Y0013611D01*
X0051844Y0006596D02*
X0053820Y0006596D01*
X0049044Y0005737D02*
X0049046Y0005613D01*
X0049052Y0005490D01*
X0049061Y0005366D01*
X0049075Y0005244D01*
X0049092Y0005121D01*
X0049114Y0004999D01*
X0049139Y0004878D01*
X0049168Y0004758D01*
X0049200Y0004639D01*
X0049237Y0004520D01*
X0049277Y0004403D01*
X0049320Y0004288D01*
X0049368Y0004173D01*
X0049419Y0004061D01*
X0049473Y0003950D01*
X0049531Y0003840D01*
X0049592Y0003733D01*
X0049657Y0003627D01*
X0049725Y0003524D01*
X0049796Y0003423D01*
X0049870Y0003324D01*
X0049947Y0003227D01*
X0050028Y0003133D01*
X0050111Y0003042D01*
X0050197Y0002953D01*
X0050286Y0002867D01*
X0050377Y0002784D01*
X0050471Y0002703D01*
X0050568Y0002626D01*
X0050667Y0002552D01*
X0050768Y0002481D01*
X0050871Y0002413D01*
X0050977Y0002348D01*
X0051084Y0002287D01*
X0051194Y0002229D01*
X0051305Y0002175D01*
X0051417Y0002124D01*
X0051532Y0002076D01*
X0051647Y0002033D01*
X0051764Y0001993D01*
X0051883Y0001956D01*
X0052002Y0001924D01*
X0052122Y0001895D01*
X0052243Y0001870D01*
X0052365Y0001848D01*
X0052488Y0001831D01*
X0052610Y0001817D01*
X0052734Y0001808D01*
X0052857Y0001802D01*
X0052981Y0001800D01*
X0131721Y0001800D01*
X0132558Y0004997D02*
X0052144Y0004997D01*
X0056103Y0005854D02*
X0056103Y0005854D01*
X0060026Y0006596D02*
X0124686Y0006596D01*
X0126969Y0005854D02*
X0126969Y0005854D01*
X0130195Y0006193D02*
X0130195Y0006193D01*
X0130892Y0006596D02*
X0132858Y0006596D01*
X0135658Y0005737D02*
X0135656Y0005613D01*
X0135650Y0005490D01*
X0135641Y0005366D01*
X0135627Y0005244D01*
X0135610Y0005121D01*
X0135588Y0004999D01*
X0135563Y0004878D01*
X0135534Y0004758D01*
X0135502Y0004639D01*
X0135465Y0004520D01*
X0135425Y0004403D01*
X0135382Y0004288D01*
X0135334Y0004173D01*
X0135283Y0004061D01*
X0135229Y0003950D01*
X0135171Y0003840D01*
X0135110Y0003733D01*
X0135045Y0003627D01*
X0134977Y0003524D01*
X0134906Y0003423D01*
X0134832Y0003324D01*
X0134755Y0003227D01*
X0134674Y0003133D01*
X0134591Y0003042D01*
X0134505Y0002953D01*
X0134416Y0002867D01*
X0134325Y0002784D01*
X0134231Y0002703D01*
X0134134Y0002626D01*
X0134035Y0002552D01*
X0133934Y0002481D01*
X0133831Y0002413D01*
X0133725Y0002348D01*
X0133618Y0002287D01*
X0133508Y0002229D01*
X0133397Y0002175D01*
X0133285Y0002124D01*
X0133170Y0002076D01*
X0133055Y0002033D01*
X0132938Y0001993D01*
X0132819Y0001956D01*
X0132700Y0001924D01*
X0132580Y0001895D01*
X0132459Y0001870D01*
X0132337Y0001848D01*
X0132214Y0001831D01*
X0132092Y0001817D01*
X0131968Y0001808D01*
X0131845Y0001802D01*
X0131721Y0001800D01*
X0135658Y0005737D02*
X0135658Y0104162D01*
X0132858Y0104105D02*
X0117231Y0104105D01*
X0116994Y0105703D02*
X0132942Y0105703D01*
X0133604Y0107302D02*
X0115961Y0107302D01*
X0112413Y0109000D02*
X0129857Y0109000D01*
X0130886Y0109426D01*
X0131674Y0110214D01*
X0134174Y0112714D01*
X0134600Y0113743D01*
X0134600Y0125014D01*
X0134174Y0126044D01*
X0130890Y0129327D01*
X0131020Y0129643D01*
X0131020Y0131831D01*
X0130183Y0133852D01*
X0128636Y0135400D01*
X0127822Y0135737D01*
X0128636Y0136074D01*
X0130183Y0137622D01*
X0130314Y0137937D01*
X0157700Y0137937D01*
X0158468Y0137619D01*
X0160132Y0137619D01*
X0161668Y0138255D01*
X0162845Y0139432D01*
X0163481Y0140968D01*
X0163481Y0142632D01*
X0162845Y0144168D01*
X0161668Y0145345D01*
X0160132Y0145981D01*
X0158468Y0145981D01*
X0156932Y0145345D01*
X0155755Y0144168D01*
X0155494Y0143537D01*
X0138200Y0143537D01*
X0138663Y0144000D01*
X0152357Y0144000D01*
X0153386Y0144426D01*
X0154174Y0145214D01*
X0160329Y0151369D01*
X0161382Y0151369D01*
X0162918Y0152005D01*
X0164095Y0153182D01*
X0164731Y0154718D01*
X0164731Y0156382D01*
X0164095Y0157918D01*
X0162918Y0159095D01*
X0161382Y0159731D01*
X0159718Y0159731D01*
X0158182Y0159095D01*
X0157081Y0157994D01*
X0156595Y0159168D01*
X0155418Y0160345D01*
X0153882Y0160981D01*
X0152829Y0160981D01*
X0152136Y0161674D01*
X0151107Y0162100D01*
X0145414Y0162100D01*
X0145981Y0163468D01*
X0145981Y0165132D01*
X0145345Y0166668D01*
X0144168Y0167845D01*
X0142632Y0168481D01*
X0140968Y0168481D01*
X0139432Y0167845D01*
X0138687Y0167100D01*
X0106243Y0167100D01*
X0105214Y0166674D01*
X0104426Y0165886D01*
X0101926Y0163386D01*
X0101500Y0162357D01*
X0101500Y0162100D01*
X0094210Y0162100D01*
X0085850Y0170460D01*
X0085850Y0171187D01*
X0086595Y0171932D01*
X0087231Y0173468D01*
X0087231Y0175132D01*
X0086595Y0176668D01*
X0085418Y0177845D01*
X0083882Y0178481D01*
X0082218Y0178481D01*
X0080682Y0177845D01*
X0079505Y0176668D01*
X0078869Y0175132D01*
X0078869Y0173468D01*
X0079505Y0171932D01*
X0080250Y0171187D01*
X0080250Y0168743D01*
X0080676Y0167714D01*
X0090676Y0157714D01*
X0091464Y0156926D01*
X0092493Y0156500D01*
X0103607Y0156500D01*
X0104636Y0156926D01*
X0105429Y0157719D01*
X0105755Y0156932D01*
X0106932Y0155755D01*
X0108468Y0155119D01*
X0110132Y0155119D01*
X0111668Y0155755D01*
X0112413Y0156500D01*
X0148869Y0156500D01*
X0148869Y0155968D01*
X0149505Y0154432D01*
X0150682Y0153255D01*
X0152218Y0152619D01*
X0153659Y0152619D01*
X0150640Y0149600D01*
X0138663Y0149600D01*
X0137918Y0150345D01*
X0136382Y0150981D01*
X0134718Y0150981D01*
X0133182Y0150345D01*
X0132005Y0149168D01*
X0131369Y0147632D01*
X0131369Y0145968D01*
X0132005Y0144432D01*
X0132900Y0143537D01*
X0130314Y0143537D01*
X0130183Y0143852D01*
X0128636Y0145400D01*
X0126614Y0146237D01*
X0124426Y0146237D01*
X0122405Y0145400D01*
X0120858Y0143852D01*
X0120520Y0143038D01*
X0120183Y0143852D01*
X0118636Y0145400D01*
X0116614Y0146237D01*
X0114426Y0146237D01*
X0112405Y0145400D01*
X0110858Y0143852D01*
X0110020Y0141831D01*
X0110020Y0139643D01*
X0110151Y0139327D01*
X0107924Y0137100D01*
X0080460Y0137100D01*
X0079592Y0137968D01*
X0079095Y0139168D01*
X0077918Y0140345D01*
X0076382Y0140981D01*
X0074718Y0140981D01*
X0073182Y0140345D01*
X0072005Y0139168D01*
X0071369Y0137632D01*
X0071369Y0135968D01*
X0072005Y0134432D01*
X0073182Y0133255D01*
X0074718Y0132619D01*
X0076382Y0132619D01*
X0076834Y0132806D01*
X0076926Y0132714D01*
X0077714Y0131926D01*
X0078743Y0131500D01*
X0109640Y0131500D01*
X0110020Y0131657D01*
X0110020Y0129643D01*
X0110858Y0127622D01*
X0112405Y0126074D01*
X0113219Y0125737D01*
X0112405Y0125400D01*
X0110858Y0123852D01*
X0110020Y0121831D01*
X0110020Y0119643D01*
X0110858Y0117622D01*
X0112405Y0116074D01*
X0114426Y0115237D01*
X0116614Y0115237D01*
X0118636Y0116074D01*
X0120183Y0117622D01*
X0120621Y0118679D01*
X0120987Y0117959D01*
X0121478Y0117284D01*
X0122068Y0116694D01*
X0122743Y0116204D01*
X0123486Y0115825D01*
X0124279Y0115568D01*
X0125103Y0115437D01*
X0125336Y0115437D01*
X0125336Y0120553D01*
X0125705Y0120553D01*
X0125705Y0115437D01*
X0125938Y0115437D01*
X0126762Y0115568D01*
X0127555Y0115825D01*
X0128298Y0116204D01*
X0128973Y0116694D01*
X0129000Y0116721D01*
X0129000Y0115460D01*
X0128140Y0114600D01*
X0112413Y0114600D01*
X0111668Y0115345D01*
X0110132Y0115981D01*
X0108468Y0115981D01*
X0106932Y0115345D01*
X0105755Y0114168D01*
X0105119Y0112632D01*
X0105119Y0110968D01*
X0105755Y0109432D01*
X0106932Y0108255D01*
X0108468Y0107619D01*
X0110132Y0107619D01*
X0111668Y0108255D01*
X0112413Y0109000D01*
X0112313Y0108900D02*
X0134806Y0108900D01*
X0133884Y0107978D02*
X0133884Y0107978D01*
X0135779Y0109874D02*
X0135779Y0109874D01*
X0137288Y0110499D02*
X0131959Y0110499D01*
X0133557Y0112097D02*
X0195850Y0112097D01*
X0198650Y0112036D02*
X0198648Y0111912D01*
X0198642Y0111789D01*
X0198633Y0111665D01*
X0198619Y0111543D01*
X0198602Y0111420D01*
X0198580Y0111298D01*
X0198555Y0111177D01*
X0198526Y0111057D01*
X0198494Y0110938D01*
X0198457Y0110819D01*
X0198417Y0110702D01*
X0198374Y0110587D01*
X0198326Y0110472D01*
X0198275Y0110360D01*
X0198221Y0110249D01*
X0198163Y0110139D01*
X0198102Y0110032D01*
X0198037Y0109926D01*
X0197969Y0109823D01*
X0197898Y0109722D01*
X0197824Y0109623D01*
X0197747Y0109526D01*
X0197666Y0109432D01*
X0197583Y0109341D01*
X0197497Y0109252D01*
X0197408Y0109166D01*
X0197317Y0109083D01*
X0197223Y0109002D01*
X0197126Y0108925D01*
X0197027Y0108851D01*
X0196926Y0108780D01*
X0196823Y0108712D01*
X0196717Y0108647D01*
X0196610Y0108586D01*
X0196500Y0108528D01*
X0196389Y0108474D01*
X0196277Y0108423D01*
X0196162Y0108375D01*
X0196047Y0108332D01*
X0195930Y0108292D01*
X0195811Y0108255D01*
X0195692Y0108223D01*
X0195572Y0108194D01*
X0195451Y0108169D01*
X0195329Y0108147D01*
X0195206Y0108130D01*
X0195084Y0108116D01*
X0194960Y0108107D01*
X0194837Y0108101D01*
X0194713Y0108099D01*
X0139595Y0108099D01*
X0139471Y0108097D01*
X0139348Y0108091D01*
X0139224Y0108082D01*
X0139102Y0108068D01*
X0138979Y0108051D01*
X0138857Y0108029D01*
X0138736Y0108004D01*
X0138616Y0107975D01*
X0138497Y0107943D01*
X0138378Y0107906D01*
X0138261Y0107866D01*
X0138146Y0107823D01*
X0138031Y0107775D01*
X0137919Y0107724D01*
X0137808Y0107670D01*
X0137698Y0107612D01*
X0137591Y0107551D01*
X0137485Y0107486D01*
X0137382Y0107418D01*
X0137281Y0107347D01*
X0137182Y0107273D01*
X0137085Y0107196D01*
X0136991Y0107115D01*
X0136900Y0107032D01*
X0136811Y0106946D01*
X0136725Y0106857D01*
X0136642Y0106766D01*
X0136561Y0106672D01*
X0136484Y0106575D01*
X0136410Y0106476D01*
X0136339Y0106375D01*
X0136271Y0106272D01*
X0136206Y0106166D01*
X0136145Y0106059D01*
X0136087Y0105949D01*
X0136033Y0105838D01*
X0135982Y0105726D01*
X0135934Y0105611D01*
X0135891Y0105496D01*
X0135851Y0105379D01*
X0135814Y0105260D01*
X0135782Y0105141D01*
X0135753Y0105021D01*
X0135728Y0104900D01*
X0135706Y0104778D01*
X0135689Y0104655D01*
X0135675Y0104533D01*
X0135666Y0104409D01*
X0135660Y0104286D01*
X0135658Y0104162D01*
X0132858Y0102506D02*
X0116833Y0102506D01*
X0115850Y0100908D02*
X0132858Y0100908D01*
X0132858Y0099309D02*
X0115850Y0099309D01*
X0115850Y0097711D02*
X0132858Y0097711D01*
X0132858Y0096112D02*
X0115850Y0096112D01*
X0115850Y0094514D02*
X0132858Y0094514D01*
X0132858Y0092915D02*
X0115850Y0092915D01*
X0115850Y0091317D02*
X0132858Y0091317D01*
X0132858Y0089718D02*
X0115850Y0089718D01*
X0115850Y0088120D02*
X0132858Y0088120D01*
X0132858Y0086521D02*
X0115850Y0086521D01*
X0115850Y0084923D02*
X0132858Y0084923D01*
X0132858Y0083324D02*
X0115850Y0083324D01*
X0115850Y0081726D02*
X0132858Y0081726D01*
X0132858Y0080127D02*
X0115850Y0080127D01*
X0115850Y0078529D02*
X0132858Y0078529D01*
X0132858Y0076930D02*
X0115850Y0076930D01*
X0115850Y0075332D02*
X0132858Y0075332D01*
X0132858Y0073733D02*
X0115850Y0073733D01*
X0115850Y0072134D02*
X0132858Y0072134D01*
X0132858Y0070536D02*
X0115850Y0070536D01*
X0115850Y0068937D02*
X0132858Y0068937D01*
X0132858Y0067339D02*
X0115850Y0067339D01*
X0115850Y0065740D02*
X0132858Y0065740D01*
X0132858Y0064142D02*
X0115850Y0064142D01*
X0115850Y0062543D02*
X0132858Y0062543D01*
X0132858Y0060945D02*
X0115850Y0060945D01*
X0115850Y0059346D02*
X0132858Y0059346D01*
X0132858Y0057748D02*
X0115850Y0057748D01*
X0115850Y0056149D02*
X0132858Y0056149D01*
X0132858Y0054551D02*
X0115850Y0054551D01*
X0115850Y0052952D02*
X0132858Y0052952D01*
X0132858Y0051354D02*
X0115850Y0051354D01*
X0115850Y0049755D02*
X0132858Y0049755D01*
X0132858Y0048157D02*
X0115850Y0048157D01*
X0115850Y0046558D02*
X0132858Y0046558D01*
X0132858Y0044960D02*
X0115850Y0044960D01*
X0115850Y0043361D02*
X0132858Y0043361D01*
X0132858Y0041763D02*
X0115850Y0041763D01*
X0115850Y0040164D02*
X0132858Y0040164D01*
X0132858Y0038566D02*
X0115850Y0038566D01*
X0115850Y0036967D02*
X0132858Y0036967D01*
X0132858Y0035369D02*
X0115850Y0035369D01*
X0115850Y0033770D02*
X0132858Y0033770D01*
X0132858Y0032172D02*
X0115850Y0032172D01*
X0115850Y0030573D02*
X0132858Y0030573D01*
X0132858Y0028975D02*
X0115850Y0028975D01*
X0115850Y0027376D02*
X0132858Y0027376D01*
X0132858Y0025778D02*
X0115850Y0025778D01*
X0115850Y0024179D02*
X0132858Y0024179D01*
X0132858Y0022581D02*
X0115850Y0022581D01*
X0115850Y0020982D02*
X0125780Y0020982D01*
X0126969Y0021368D02*
X0126969Y0021368D01*
X0130276Y0020982D02*
X0132858Y0020982D01*
X0122784Y0013611D02*
X0122786Y0013752D01*
X0122792Y0013893D01*
X0122802Y0014033D01*
X0122816Y0014173D01*
X0122834Y0014313D01*
X0122855Y0014452D01*
X0122881Y0014591D01*
X0122910Y0014729D01*
X0122944Y0014865D01*
X0122981Y0015001D01*
X0123022Y0015136D01*
X0123067Y0015270D01*
X0123116Y0015402D01*
X0123168Y0015533D01*
X0123224Y0015662D01*
X0123284Y0015789D01*
X0123347Y0015915D01*
X0123413Y0016039D01*
X0123484Y0016162D01*
X0123557Y0016282D01*
X0123634Y0016400D01*
X0123714Y0016516D01*
X0123798Y0016629D01*
X0123884Y0016740D01*
X0123974Y0016849D01*
X0124067Y0016955D01*
X0124162Y0017058D01*
X0124261Y0017159D01*
X0124362Y0017257D01*
X0124466Y0017352D01*
X0124573Y0017444D01*
X0124682Y0017533D01*
X0124794Y0017618D01*
X0124908Y0017701D01*
X0125024Y0017781D01*
X0125143Y0017857D01*
X0125264Y0017929D01*
X0125386Y0017999D01*
X0125511Y0018064D01*
X0125637Y0018127D01*
X0125765Y0018185D01*
X0125895Y0018240D01*
X0126026Y0018292D01*
X0126159Y0018339D01*
X0126293Y0018383D01*
X0126428Y0018424D01*
X0126564Y0018460D01*
X0126701Y0018492D01*
X0126839Y0018521D01*
X0126977Y0018546D01*
X0127117Y0018566D01*
X0127257Y0018583D01*
X0127397Y0018596D01*
X0127538Y0018605D01*
X0127678Y0018610D01*
X0127819Y0018611D01*
X0127960Y0018608D01*
X0128101Y0018601D01*
X0128241Y0018590D01*
X0128381Y0018575D01*
X0128521Y0018556D01*
X0128660Y0018534D01*
X0128798Y0018507D01*
X0128936Y0018477D01*
X0129072Y0018442D01*
X0129208Y0018404D01*
X0129342Y0018362D01*
X0129476Y0018316D01*
X0129608Y0018267D01*
X0129738Y0018213D01*
X0129867Y0018156D01*
X0129994Y0018096D01*
X0130120Y0018032D01*
X0130243Y0017964D01*
X0130365Y0017893D01*
X0130485Y0017819D01*
X0130602Y0017741D01*
X0130717Y0017660D01*
X0130830Y0017576D01*
X0130941Y0017489D01*
X0131049Y0017398D01*
X0131154Y0017305D01*
X0131257Y0017208D01*
X0131357Y0017109D01*
X0131454Y0017007D01*
X0131548Y0016902D01*
X0131639Y0016795D01*
X0131727Y0016685D01*
X0131812Y0016573D01*
X0131894Y0016458D01*
X0131973Y0016341D01*
X0132048Y0016222D01*
X0132120Y0016101D01*
X0132188Y0015978D01*
X0132253Y0015853D01*
X0132315Y0015726D01*
X0132372Y0015597D01*
X0132427Y0015467D01*
X0132477Y0015336D01*
X0132524Y0015203D01*
X0132567Y0015069D01*
X0132606Y0014933D01*
X0132641Y0014797D01*
X0132673Y0014660D01*
X0132700Y0014522D01*
X0132724Y0014383D01*
X0132744Y0014243D01*
X0132760Y0014103D01*
X0132772Y0013963D01*
X0132780Y0013822D01*
X0132784Y0013681D01*
X0132784Y0013541D01*
X0132780Y0013400D01*
X0132772Y0013259D01*
X0132760Y0013119D01*
X0132744Y0012979D01*
X0132724Y0012839D01*
X0132700Y0012700D01*
X0132673Y0012562D01*
X0132641Y0012425D01*
X0132606Y0012289D01*
X0132567Y0012153D01*
X0132524Y0012019D01*
X0132477Y0011886D01*
X0132427Y0011755D01*
X0132372Y0011625D01*
X0132315Y0011496D01*
X0132253Y0011369D01*
X0132188Y0011244D01*
X0132120Y0011121D01*
X0132048Y0011000D01*
X0131973Y0010881D01*
X0131894Y0010764D01*
X0131812Y0010649D01*
X0131727Y0010537D01*
X0131639Y0010427D01*
X0131548Y0010320D01*
X0131454Y0010215D01*
X0131357Y0010113D01*
X0131257Y0010014D01*
X0131154Y0009917D01*
X0131049Y0009824D01*
X0130941Y0009733D01*
X0130830Y0009646D01*
X0130717Y0009562D01*
X0130602Y0009481D01*
X0130485Y0009403D01*
X0130365Y0009329D01*
X0130243Y0009258D01*
X0130120Y0009190D01*
X0129994Y0009126D01*
X0129867Y0009066D01*
X0129738Y0009009D01*
X0129608Y0008955D01*
X0129476Y0008906D01*
X0129342Y0008860D01*
X0129208Y0008818D01*
X0129072Y0008780D01*
X0128936Y0008745D01*
X0128798Y0008715D01*
X0128660Y0008688D01*
X0128521Y0008666D01*
X0128381Y0008647D01*
X0128241Y0008632D01*
X0128101Y0008621D01*
X0127960Y0008614D01*
X0127819Y0008611D01*
X0127678Y0008612D01*
X0127538Y0008617D01*
X0127397Y0008626D01*
X0127257Y0008639D01*
X0127117Y0008656D01*
X0126977Y0008676D01*
X0126839Y0008701D01*
X0126701Y0008730D01*
X0126564Y0008762D01*
X0126428Y0008798D01*
X0126293Y0008839D01*
X0126159Y0008883D01*
X0126026Y0008930D01*
X0125895Y0008982D01*
X0125765Y0009037D01*
X0125637Y0009095D01*
X0125511Y0009158D01*
X0125386Y0009223D01*
X0125264Y0009293D01*
X0125143Y0009365D01*
X0125024Y0009441D01*
X0124908Y0009521D01*
X0124794Y0009604D01*
X0124682Y0009689D01*
X0124573Y0009778D01*
X0124466Y0009870D01*
X0124362Y0009965D01*
X0124261Y0010063D01*
X0124162Y0010164D01*
X0124067Y0010267D01*
X0123974Y0010373D01*
X0123884Y0010482D01*
X0123798Y0010593D01*
X0123714Y0010706D01*
X0123634Y0010822D01*
X0123557Y0010940D01*
X0123484Y0011060D01*
X0123413Y0011183D01*
X0123347Y0011307D01*
X0123284Y0011433D01*
X0123224Y0011560D01*
X0123168Y0011689D01*
X0123116Y0011820D01*
X0123067Y0011952D01*
X0123022Y0012086D01*
X0122981Y0012221D01*
X0122944Y0012357D01*
X0122910Y0012493D01*
X0122881Y0012631D01*
X0122855Y0012770D01*
X0122834Y0012909D01*
X0122816Y0013049D01*
X0122802Y0013189D01*
X0122792Y0013329D01*
X0122786Y0013470D01*
X0122784Y0013611D01*
X0120421Y0011391D02*
X0064246Y0011391D01*
X0064586Y0012990D02*
X0111323Y0012990D01*
X0109441Y0014588D02*
X0064510Y0014588D01*
X0064171Y0016187D02*
X0108869Y0016187D01*
X0108932Y0017785D02*
X0063316Y0017785D01*
X0064044Y0016784D02*
X0064044Y0016784D01*
X0062155Y0019384D02*
X0109721Y0019384D01*
X0110250Y0020982D02*
X0059410Y0020982D01*
X0059328Y0021029D02*
X0059328Y0021029D01*
X0062137Y0019408D02*
X0062137Y0019408D01*
X0062137Y0019408D01*
X0063574Y0009793D02*
X0121133Y0009793D01*
X0121474Y0009026D02*
X0121474Y0009026D01*
X0122398Y0008194D02*
X0062413Y0008194D01*
X0113050Y0016800D02*
X0113050Y0104300D01*
X0110139Y0107302D02*
X0051099Y0107302D01*
X0051761Y0105703D02*
X0109106Y0105703D01*
X0106287Y0108900D02*
X0049897Y0108900D01*
X0048923Y0109874D02*
X0048923Y0109874D01*
X0047414Y0110499D02*
X0105313Y0110499D01*
X0105119Y0112097D02*
X0073405Y0112097D01*
X0073707Y0112196D02*
X0074404Y0112551D01*
X0075037Y0113010D01*
X0075590Y0113563D01*
X0076049Y0114196D01*
X0076404Y0114893D01*
X0076646Y0115637D01*
X0076768Y0116409D01*
X0076768Y0116616D01*
X0071984Y0116616D01*
X0071984Y0111831D01*
X0072191Y0111831D01*
X0072963Y0111954D01*
X0073707Y0112196D01*
X0071984Y0112097D02*
X0071616Y0112097D01*
X0071616Y0111831D02*
X0071616Y0116616D01*
X0071984Y0116616D01*
X0071984Y0116984D01*
X0076768Y0116984D01*
X0076768Y0117191D01*
X0076646Y0117963D01*
X0076404Y0118707D01*
X0076049Y0119404D01*
X0075590Y0120037D01*
X0075037Y0120590D01*
X0074404Y0121049D01*
X0073707Y0121404D01*
X0073009Y0121631D01*
X0075797Y0121631D01*
X0076968Y0122803D01*
X0076968Y0130797D01*
X0075797Y0131968D01*
X0067803Y0131968D01*
X0066631Y0130797D01*
X0066631Y0128642D01*
X0066182Y0129728D01*
X0064728Y0131182D01*
X0062828Y0131968D01*
X0060772Y0131968D01*
X0058872Y0131182D01*
X0057418Y0129728D01*
X0056800Y0128235D01*
X0056182Y0129728D01*
X0054728Y0131182D01*
X0052828Y0131968D01*
X0050772Y0131968D01*
X0048872Y0131182D01*
X0047418Y0129728D01*
X0046800Y0128235D01*
X0046182Y0129728D01*
X0044728Y0131182D01*
X0042828Y0131968D01*
X0040772Y0131968D01*
X0038872Y0131182D01*
X0037418Y0129728D01*
X0036800Y0128235D01*
X0036182Y0129728D01*
X0034728Y0131182D01*
X0034600Y0131235D01*
X0034600Y0148140D01*
X0035329Y0148869D01*
X0036382Y0148869D01*
X0037918Y0149505D01*
X0039095Y0150682D01*
X0039731Y0152218D01*
X0039731Y0153882D01*
X0039095Y0155418D01*
X0037918Y0156595D01*
X0036382Y0157231D01*
X0034718Y0157231D01*
X0033182Y0156595D01*
X0032005Y0155418D01*
X0031369Y0153882D01*
X0031369Y0152829D01*
X0029426Y0150886D01*
X0029000Y0149857D01*
X0029000Y0131235D01*
X0028872Y0131182D01*
X0027418Y0129728D01*
X0026631Y0127828D01*
X0026631Y0125772D01*
X0027418Y0123872D01*
X0028872Y0122418D01*
X0030709Y0121658D01*
X0030637Y0121646D01*
X0029893Y0121404D01*
X0029196Y0121049D01*
X0028563Y0120590D01*
X0028010Y0120037D01*
X0027551Y0119404D01*
X0027196Y0118707D01*
X0026954Y0117963D01*
X0026831Y0117191D01*
X0026831Y0116984D01*
X0031616Y0116984D01*
X0031616Y0116616D01*
X0026831Y0116616D01*
X0026831Y0116409D01*
X0026954Y0115637D01*
X0027196Y0114893D01*
X0027551Y0114196D01*
X0028010Y0113563D01*
X0028563Y0113010D01*
X0029196Y0112551D01*
X0029893Y0112196D01*
X0030637Y0111954D01*
X0031409Y0111831D01*
X0031616Y0111831D01*
X0031616Y0116616D01*
X0031984Y0116616D01*
X0031984Y0111831D01*
X0032191Y0111831D01*
X0032963Y0111954D01*
X0033707Y0112196D01*
X0034404Y0112551D01*
X0035037Y0113010D01*
X0035590Y0113563D01*
X0036049Y0114196D01*
X0036404Y0114893D01*
X0036646Y0115637D01*
X0036768Y0116409D01*
X0036768Y0116616D01*
X0031984Y0116616D01*
X0031984Y0116984D01*
X0036768Y0116984D01*
X0036768Y0117191D01*
X0036646Y0117963D01*
X0036404Y0118707D01*
X0036049Y0119404D01*
X0035590Y0120037D01*
X0035037Y0120590D01*
X0034404Y0121049D01*
X0033707Y0121404D01*
X0032963Y0121646D01*
X0032891Y0121658D01*
X0034728Y0122418D01*
X0036182Y0123872D01*
X0036800Y0125365D01*
X0037418Y0123872D01*
X0038872Y0122418D01*
X0040709Y0121658D01*
X0040637Y0121646D01*
X0039893Y0121404D01*
X0039196Y0121049D01*
X0038563Y0120590D01*
X0038010Y0120037D01*
X0037551Y0119404D01*
X0037196Y0118707D01*
X0036954Y0117963D01*
X0036831Y0117191D01*
X0036831Y0116984D01*
X0041616Y0116984D01*
X0041616Y0116616D01*
X0041984Y0116616D01*
X0041984Y0111831D01*
X0042191Y0111831D01*
X0042963Y0111954D01*
X0043707Y0112196D01*
X0044404Y0112551D01*
X0045037Y0113010D01*
X0045590Y0113563D01*
X0046049Y0114196D01*
X0046404Y0114893D01*
X0046646Y0115637D01*
X0046768Y0116409D01*
X0046768Y0116616D01*
X0041984Y0116616D01*
X0041984Y0116984D01*
X0046768Y0116984D01*
X0046768Y0117191D01*
X0046646Y0117963D01*
X0046404Y0118707D01*
X0046049Y0119404D01*
X0045590Y0120037D01*
X0045037Y0120590D01*
X0044404Y0121049D01*
X0043707Y0121404D01*
X0042963Y0121646D01*
X0042891Y0121658D01*
X0044728Y0122418D01*
X0046182Y0123872D01*
X0046800Y0125365D01*
X0047418Y0123872D01*
X0048872Y0122418D01*
X0050709Y0121658D01*
X0050637Y0121646D01*
X0049893Y0121404D01*
X0049196Y0121049D01*
X0048563Y0120590D01*
X0048010Y0120037D01*
X0047551Y0119404D01*
X0047196Y0118707D01*
X0046954Y0117963D01*
X0046831Y0117191D01*
X0046831Y0116984D01*
X0051616Y0116984D01*
X0051616Y0116616D01*
X0051984Y0116616D01*
X0051984Y0111831D01*
X0052191Y0111831D01*
X0052963Y0111954D01*
X0053707Y0112196D01*
X0054404Y0112551D01*
X0055037Y0113010D01*
X0055590Y0113563D01*
X0056049Y0114196D01*
X0056404Y0114893D01*
X0056646Y0115637D01*
X0056768Y0116409D01*
X0056768Y0116616D01*
X0051984Y0116616D01*
X0051984Y0116984D01*
X0056768Y0116984D01*
X0056768Y0117191D01*
X0056646Y0117963D01*
X0056404Y0118707D01*
X0056049Y0119404D01*
X0055590Y0120037D01*
X0055037Y0120590D01*
X0054404Y0121049D01*
X0053707Y0121404D01*
X0052963Y0121646D01*
X0052891Y0121658D01*
X0054728Y0122418D01*
X0056182Y0123872D01*
X0056800Y0125365D01*
X0057418Y0123872D01*
X0058872Y0122418D01*
X0060709Y0121658D01*
X0060637Y0121646D01*
X0059893Y0121404D01*
X0059196Y0121049D01*
X0058563Y0120590D01*
X0058010Y0120037D01*
X0057551Y0119404D01*
X0057196Y0118707D01*
X0056954Y0117963D01*
X0056831Y0117191D01*
X0056831Y0116984D01*
X0061616Y0116984D01*
X0061616Y0116616D01*
X0061984Y0116616D01*
X0061984Y0111831D01*
X0062191Y0111831D01*
X0062963Y0111954D01*
X0063707Y0112196D01*
X0064404Y0112551D01*
X0065037Y0113010D01*
X0065590Y0113563D01*
X0066049Y0114196D01*
X0066404Y0114893D01*
X0066646Y0115637D01*
X0066768Y0116409D01*
X0066768Y0116616D01*
X0061984Y0116616D01*
X0061984Y0116984D01*
X0066768Y0116984D01*
X0066768Y0117191D01*
X0066646Y0117963D01*
X0066404Y0118707D01*
X0066049Y0119404D01*
X0065590Y0120037D01*
X0065037Y0120590D01*
X0064404Y0121049D01*
X0063707Y0121404D01*
X0062963Y0121646D01*
X0062891Y0121658D01*
X0064728Y0122418D01*
X0066182Y0123872D01*
X0066631Y0124958D01*
X0066631Y0122803D01*
X0067803Y0121631D01*
X0070591Y0121631D01*
X0069893Y0121404D01*
X0069196Y0121049D01*
X0068563Y0120590D01*
X0068010Y0120037D01*
X0067551Y0119404D01*
X0067196Y0118707D01*
X0066954Y0117963D01*
X0066831Y0117191D01*
X0066831Y0116984D01*
X0071616Y0116984D01*
X0071616Y0116616D01*
X0066831Y0116616D01*
X0066831Y0116409D01*
X0066954Y0115637D01*
X0067196Y0114893D01*
X0067551Y0114196D01*
X0068010Y0113563D01*
X0068563Y0113010D01*
X0069196Y0112551D01*
X0069893Y0112196D01*
X0070637Y0111954D01*
X0071409Y0111831D01*
X0071616Y0111831D01*
X0070195Y0112097D02*
X0063405Y0112097D01*
X0061984Y0112097D02*
X0061616Y0112097D01*
X0061616Y0111831D02*
X0061616Y0116616D01*
X0056831Y0116616D01*
X0056831Y0116409D01*
X0056954Y0115637D01*
X0057196Y0114893D01*
X0057551Y0114196D01*
X0058010Y0113563D01*
X0058563Y0113010D01*
X0059196Y0112551D01*
X0059893Y0112196D01*
X0060637Y0111954D01*
X0061409Y0111831D01*
X0061616Y0111831D01*
X0060195Y0112097D02*
X0053405Y0112097D01*
X0051984Y0112097D02*
X0051616Y0112097D01*
X0051616Y0111831D02*
X0051616Y0116616D01*
X0046831Y0116616D01*
X0046831Y0116409D01*
X0046954Y0115637D01*
X0047196Y0114893D01*
X0047551Y0114196D01*
X0048010Y0113563D01*
X0048563Y0113010D01*
X0049196Y0112551D01*
X0049893Y0112196D01*
X0050637Y0111954D01*
X0051409Y0111831D01*
X0051616Y0111831D01*
X0050195Y0112097D02*
X0043405Y0112097D01*
X0041984Y0112097D02*
X0041616Y0112097D01*
X0041616Y0111831D02*
X0041616Y0116616D01*
X0036831Y0116616D01*
X0036831Y0116409D01*
X0036954Y0115637D01*
X0037196Y0114893D01*
X0037551Y0114196D01*
X0038010Y0113563D01*
X0038563Y0113010D01*
X0039196Y0112551D01*
X0039893Y0112196D01*
X0040637Y0111954D01*
X0041409Y0111831D01*
X0041616Y0111831D01*
X0040195Y0112097D02*
X0033405Y0112097D01*
X0031984Y0112097D02*
X0031616Y0112097D01*
X0030195Y0112097D02*
X0004600Y0112097D01*
X0001800Y0112036D02*
X0001802Y0111912D01*
X0001808Y0111789D01*
X0001817Y0111665D01*
X0001831Y0111543D01*
X0001848Y0111420D01*
X0001870Y0111298D01*
X0001895Y0111177D01*
X0001924Y0111057D01*
X0001956Y0110938D01*
X0001993Y0110819D01*
X0002033Y0110702D01*
X0002076Y0110587D01*
X0002124Y0110472D01*
X0002175Y0110360D01*
X0002229Y0110249D01*
X0002287Y0110139D01*
X0002348Y0110032D01*
X0002413Y0109926D01*
X0002481Y0109823D01*
X0002552Y0109722D01*
X0002626Y0109623D01*
X0002703Y0109526D01*
X0002784Y0109432D01*
X0002867Y0109341D01*
X0002953Y0109252D01*
X0003042Y0109166D01*
X0003133Y0109083D01*
X0003227Y0109002D01*
X0003324Y0108925D01*
X0003423Y0108851D01*
X0003524Y0108780D01*
X0003627Y0108712D01*
X0003733Y0108647D01*
X0003840Y0108586D01*
X0003950Y0108528D01*
X0004061Y0108474D01*
X0004173Y0108423D01*
X0004288Y0108375D01*
X0004403Y0108332D01*
X0004520Y0108292D01*
X0004639Y0108255D01*
X0004758Y0108223D01*
X0004878Y0108194D01*
X0004999Y0108169D01*
X0005121Y0108147D01*
X0005244Y0108130D01*
X0005366Y0108116D01*
X0005490Y0108107D01*
X0005613Y0108101D01*
X0005737Y0108099D01*
X0045107Y0108099D01*
X0045231Y0108097D01*
X0045354Y0108091D01*
X0045478Y0108082D01*
X0045600Y0108068D01*
X0045723Y0108051D01*
X0045845Y0108029D01*
X0045966Y0108004D01*
X0046086Y0107975D01*
X0046205Y0107943D01*
X0046324Y0107906D01*
X0046441Y0107866D01*
X0046556Y0107823D01*
X0046671Y0107775D01*
X0046783Y0107724D01*
X0046894Y0107670D01*
X0047004Y0107612D01*
X0047111Y0107551D01*
X0047217Y0107486D01*
X0047320Y0107418D01*
X0047421Y0107347D01*
X0047520Y0107273D01*
X0047617Y0107196D01*
X0047711Y0107115D01*
X0047802Y0107032D01*
X0047891Y0106946D01*
X0047977Y0106857D01*
X0048060Y0106766D01*
X0048141Y0106672D01*
X0048218Y0106575D01*
X0048292Y0106476D01*
X0048363Y0106375D01*
X0048431Y0106272D01*
X0048496Y0106166D01*
X0048557Y0106059D01*
X0048615Y0105949D01*
X0048669Y0105838D01*
X0048720Y0105726D01*
X0048768Y0105611D01*
X0048811Y0105496D01*
X0048851Y0105379D01*
X0048888Y0105260D01*
X0048920Y0105141D01*
X0048949Y0105021D01*
X0048974Y0104900D01*
X0048996Y0104778D01*
X0049013Y0104655D01*
X0049027Y0104533D01*
X0049036Y0104409D01*
X0049042Y0104286D01*
X0049044Y0104162D01*
X0047914Y0113696D02*
X0045686Y0113696D01*
X0046535Y0115294D02*
X0047065Y0115294D01*
X0047125Y0118491D02*
X0046475Y0118491D01*
X0045537Y0120090D02*
X0048063Y0120090D01*
X0050635Y0121688D02*
X0042965Y0121688D01*
X0040635Y0121688D02*
X0032965Y0121688D01*
X0030635Y0121688D02*
X0021033Y0121688D01*
X0020737Y0123083D02*
X0021411Y0119910D01*
X0021411Y0119910D01*
X0020737Y0116738D01*
X0020737Y0116738D01*
X0018830Y0114114D01*
X0018830Y0114114D01*
X0018830Y0114114D01*
X0016021Y0112492D01*
X0016021Y0112492D01*
X0012796Y0112153D01*
X0012796Y0112153D01*
X0009711Y0113155D01*
X0009711Y0113155D01*
X0007301Y0115326D01*
X0007301Y0115326D01*
X0007301Y0115326D01*
X0005981Y0118289D01*
X0005981Y0121532D01*
X0007301Y0124495D01*
X0007301Y0124495D01*
X0009711Y0126665D01*
X0009711Y0126665D01*
X0012796Y0127667D01*
X0012796Y0127667D01*
X0016021Y0127328D01*
X0016021Y0127328D01*
X0018830Y0125707D01*
X0018830Y0125707D01*
X0018830Y0125707D01*
X0020737Y0123083D01*
X0020737Y0123083D01*
X0020588Y0123287D02*
X0028004Y0123287D01*
X0026999Y0124885D02*
X0019427Y0124885D01*
X0017484Y0126484D02*
X0026631Y0126484D01*
X0026737Y0128082D02*
X0004600Y0128082D01*
X0004600Y0126484D02*
X0009510Y0126484D01*
X0007734Y0124885D02*
X0004600Y0124885D01*
X0004600Y0123287D02*
X0006763Y0123287D01*
X0006051Y0121688D02*
X0004600Y0121688D01*
X0004600Y0120090D02*
X0005981Y0120090D01*
X0005981Y0118491D02*
X0004600Y0118491D01*
X0004600Y0116893D02*
X0006603Y0116893D01*
X0007335Y0115294D02*
X0004600Y0115294D01*
X0004600Y0113696D02*
X0009111Y0113696D01*
X0008611Y0119910D02*
X0008613Y0120051D01*
X0008619Y0120192D01*
X0008629Y0120332D01*
X0008643Y0120472D01*
X0008661Y0120612D01*
X0008682Y0120751D01*
X0008708Y0120890D01*
X0008737Y0121028D01*
X0008771Y0121164D01*
X0008808Y0121300D01*
X0008849Y0121435D01*
X0008894Y0121569D01*
X0008943Y0121701D01*
X0008995Y0121832D01*
X0009051Y0121961D01*
X0009111Y0122088D01*
X0009174Y0122214D01*
X0009240Y0122338D01*
X0009311Y0122461D01*
X0009384Y0122581D01*
X0009461Y0122699D01*
X0009541Y0122815D01*
X0009625Y0122928D01*
X0009711Y0123039D01*
X0009801Y0123148D01*
X0009894Y0123254D01*
X0009989Y0123357D01*
X0010088Y0123458D01*
X0010189Y0123556D01*
X0010293Y0123651D01*
X0010400Y0123743D01*
X0010509Y0123832D01*
X0010621Y0123917D01*
X0010735Y0124000D01*
X0010851Y0124080D01*
X0010970Y0124156D01*
X0011091Y0124228D01*
X0011213Y0124298D01*
X0011338Y0124363D01*
X0011464Y0124426D01*
X0011592Y0124484D01*
X0011722Y0124539D01*
X0011853Y0124591D01*
X0011986Y0124638D01*
X0012120Y0124682D01*
X0012255Y0124723D01*
X0012391Y0124759D01*
X0012528Y0124791D01*
X0012666Y0124820D01*
X0012804Y0124845D01*
X0012944Y0124865D01*
X0013084Y0124882D01*
X0013224Y0124895D01*
X0013365Y0124904D01*
X0013505Y0124909D01*
X0013646Y0124910D01*
X0013787Y0124907D01*
X0013928Y0124900D01*
X0014068Y0124889D01*
X0014208Y0124874D01*
X0014348Y0124855D01*
X0014487Y0124833D01*
X0014625Y0124806D01*
X0014763Y0124776D01*
X0014899Y0124741D01*
X0015035Y0124703D01*
X0015169Y0124661D01*
X0015303Y0124615D01*
X0015435Y0124566D01*
X0015565Y0124512D01*
X0015694Y0124455D01*
X0015821Y0124395D01*
X0015947Y0124331D01*
X0016070Y0124263D01*
X0016192Y0124192D01*
X0016312Y0124118D01*
X0016429Y0124040D01*
X0016544Y0123959D01*
X0016657Y0123875D01*
X0016768Y0123788D01*
X0016876Y0123697D01*
X0016981Y0123604D01*
X0017084Y0123507D01*
X0017184Y0123408D01*
X0017281Y0123306D01*
X0017375Y0123201D01*
X0017466Y0123094D01*
X0017554Y0122984D01*
X0017639Y0122872D01*
X0017721Y0122757D01*
X0017800Y0122640D01*
X0017875Y0122521D01*
X0017947Y0122400D01*
X0018015Y0122277D01*
X0018080Y0122152D01*
X0018142Y0122025D01*
X0018199Y0121896D01*
X0018254Y0121766D01*
X0018304Y0121635D01*
X0018351Y0121502D01*
X0018394Y0121368D01*
X0018433Y0121232D01*
X0018468Y0121096D01*
X0018500Y0120959D01*
X0018527Y0120821D01*
X0018551Y0120682D01*
X0018571Y0120542D01*
X0018587Y0120402D01*
X0018599Y0120262D01*
X0018607Y0120121D01*
X0018611Y0119980D01*
X0018611Y0119840D01*
X0018607Y0119699D01*
X0018599Y0119558D01*
X0018587Y0119418D01*
X0018571Y0119278D01*
X0018551Y0119138D01*
X0018527Y0118999D01*
X0018500Y0118861D01*
X0018468Y0118724D01*
X0018433Y0118588D01*
X0018394Y0118452D01*
X0018351Y0118318D01*
X0018304Y0118185D01*
X0018254Y0118054D01*
X0018199Y0117924D01*
X0018142Y0117795D01*
X0018080Y0117668D01*
X0018015Y0117543D01*
X0017947Y0117420D01*
X0017875Y0117299D01*
X0017800Y0117180D01*
X0017721Y0117063D01*
X0017639Y0116948D01*
X0017554Y0116836D01*
X0017466Y0116726D01*
X0017375Y0116619D01*
X0017281Y0116514D01*
X0017184Y0116412D01*
X0017084Y0116313D01*
X0016981Y0116216D01*
X0016876Y0116123D01*
X0016768Y0116032D01*
X0016657Y0115945D01*
X0016544Y0115861D01*
X0016429Y0115780D01*
X0016312Y0115702D01*
X0016192Y0115628D01*
X0016070Y0115557D01*
X0015947Y0115489D01*
X0015821Y0115425D01*
X0015694Y0115365D01*
X0015565Y0115308D01*
X0015435Y0115254D01*
X0015303Y0115205D01*
X0015169Y0115159D01*
X0015035Y0115117D01*
X0014899Y0115079D01*
X0014763Y0115044D01*
X0014625Y0115014D01*
X0014487Y0114987D01*
X0014348Y0114965D01*
X0014208Y0114946D01*
X0014068Y0114931D01*
X0013928Y0114920D01*
X0013787Y0114913D01*
X0013646Y0114910D01*
X0013505Y0114911D01*
X0013365Y0114916D01*
X0013224Y0114925D01*
X0013084Y0114938D01*
X0012944Y0114955D01*
X0012804Y0114975D01*
X0012666Y0115000D01*
X0012528Y0115029D01*
X0012391Y0115061D01*
X0012255Y0115097D01*
X0012120Y0115138D01*
X0011986Y0115182D01*
X0011853Y0115229D01*
X0011722Y0115281D01*
X0011592Y0115336D01*
X0011464Y0115394D01*
X0011338Y0115457D01*
X0011213Y0115522D01*
X0011091Y0115592D01*
X0010970Y0115664D01*
X0010851Y0115740D01*
X0010735Y0115820D01*
X0010621Y0115903D01*
X0010509Y0115988D01*
X0010400Y0116077D01*
X0010293Y0116169D01*
X0010189Y0116264D01*
X0010088Y0116362D01*
X0009989Y0116463D01*
X0009894Y0116566D01*
X0009801Y0116672D01*
X0009711Y0116781D01*
X0009625Y0116892D01*
X0009541Y0117005D01*
X0009461Y0117121D01*
X0009384Y0117239D01*
X0009311Y0117359D01*
X0009240Y0117482D01*
X0009174Y0117606D01*
X0009111Y0117732D01*
X0009051Y0117859D01*
X0008995Y0117988D01*
X0008943Y0118119D01*
X0008894Y0118251D01*
X0008849Y0118385D01*
X0008808Y0118520D01*
X0008771Y0118656D01*
X0008737Y0118792D01*
X0008708Y0118930D01*
X0008682Y0119069D01*
X0008661Y0119208D01*
X0008643Y0119348D01*
X0008629Y0119488D01*
X0008619Y0119628D01*
X0008613Y0119769D01*
X0008611Y0119910D01*
X0001800Y0112036D02*
X0001800Y0194713D01*
X0004740Y0195220D02*
X0042725Y0195220D01*
X0041818Y0193621D02*
X0032871Y0193621D01*
X0031769Y0194258D02*
X0031769Y0194258D01*
X0028544Y0194597D01*
X0028544Y0194597D01*
X0025459Y0193594D01*
X0023049Y0191424D01*
X0021730Y0188461D01*
X0021730Y0185218D01*
X0023049Y0182255D01*
X0023049Y0182255D01*
X0025459Y0180084D01*
X0028544Y0179082D01*
X0031769Y0179421D01*
X0031769Y0179421D01*
X0034578Y0181043D01*
X0034578Y0181043D01*
X0036485Y0183667D01*
X0037159Y0186839D01*
X0036485Y0190012D01*
X0034578Y0192636D01*
X0031769Y0194258D01*
X0034578Y0192636D02*
X0034578Y0192636D01*
X0034578Y0192636D01*
X0035024Y0192023D02*
X0041500Y0192023D01*
X0041633Y0190424D02*
X0036185Y0190424D01*
X0036485Y0190012D02*
X0036485Y0190012D01*
X0036737Y0188826D02*
X0042295Y0188826D01*
X0043990Y0187227D02*
X0037077Y0187227D01*
X0036902Y0185629D02*
X0086368Y0185629D01*
X0085682Y0185345D02*
X0087218Y0185981D01*
X0088882Y0185981D01*
X0090418Y0185345D01*
X0091595Y0184168D01*
X0092231Y0182632D01*
X0092231Y0180968D01*
X0091595Y0179432D01*
X0090418Y0178255D01*
X0088882Y0177619D01*
X0087218Y0177619D01*
X0085682Y0178255D01*
X0084937Y0179000D01*
X0065460Y0179000D01*
X0063350Y0176890D01*
X0063350Y0172493D01*
X0062924Y0171464D01*
X0060981Y0169521D01*
X0060981Y0168468D01*
X0060345Y0166932D01*
X0059168Y0165755D01*
X0057632Y0165119D01*
X0055968Y0165119D01*
X0054432Y0165755D01*
X0053255Y0166932D01*
X0052619Y0168468D01*
X0052619Y0170132D01*
X0053255Y0171668D01*
X0054432Y0172845D01*
X0055968Y0173481D01*
X0057021Y0173481D01*
X0057750Y0174210D01*
X0057750Y0178607D01*
X0058176Y0179636D01*
X0062714Y0184174D01*
X0063743Y0184600D01*
X0084937Y0184600D01*
X0085682Y0185345D01*
X0086616Y0187227D02*
X0086984Y0187227D01*
X0086984Y0188826D02*
X0086616Y0188826D01*
X0086616Y0190424D02*
X0086984Y0190424D01*
X0089059Y0187227D02*
X0093990Y0187227D01*
X0094000Y0185629D02*
X0089732Y0185629D01*
X0091652Y0184030D02*
X0094000Y0184030D01*
X0094708Y0182432D02*
X0092231Y0182432D01*
X0092175Y0180833D02*
X0096307Y0180833D01*
X0097905Y0179235D02*
X0091398Y0179235D01*
X0088924Y0177636D02*
X0099504Y0177636D01*
X0101102Y0176038D02*
X0086856Y0176038D01*
X0087176Y0177636D02*
X0085627Y0177636D01*
X0087231Y0174439D02*
X0102701Y0174439D01*
X0103869Y0172841D02*
X0086971Y0172841D01*
X0085905Y0171242D02*
X0104273Y0171242D01*
X0105543Y0169644D02*
X0086666Y0169644D01*
X0088265Y0168045D02*
X0139916Y0168045D01*
X0143684Y0168045D02*
X0195850Y0168045D01*
X0195850Y0166447D02*
X0145436Y0166447D01*
X0145981Y0164848D02*
X0195850Y0164848D01*
X0195850Y0163250D02*
X0145891Y0163250D01*
X0141800Y0164300D02*
X0106800Y0164300D01*
X0104300Y0161800D01*
X0104300Y0160550D01*
X0103050Y0159300D01*
X0093050Y0159300D01*
X0083050Y0169300D01*
X0083050Y0174300D01*
X0080195Y0171242D02*
X0062702Y0171242D01*
X0063350Y0172841D02*
X0079129Y0172841D01*
X0078869Y0174439D02*
X0063350Y0174439D01*
X0063350Y0176038D02*
X0079244Y0176038D01*
X0080473Y0177636D02*
X0064096Y0177636D01*
X0060550Y0178050D02*
X0064300Y0181800D01*
X0088050Y0181800D01*
X0084541Y0187227D02*
X0079059Y0187227D01*
X0076984Y0187227D02*
X0076616Y0187227D01*
X0076616Y0188826D02*
X0076984Y0188826D01*
X0076984Y0190424D02*
X0076616Y0190424D01*
X0074541Y0187227D02*
X0059059Y0187227D01*
X0056984Y0187227D02*
X0056616Y0187227D01*
X0056616Y0188826D02*
X0056984Y0188826D01*
X0056984Y0190424D02*
X0056616Y0190424D01*
X0054541Y0187227D02*
X0049610Y0187227D01*
X0051305Y0188826D02*
X0052657Y0188826D01*
X0060943Y0188826D02*
X0072657Y0188826D01*
X0071885Y0190424D02*
X0061715Y0190424D01*
X0061900Y0192023D02*
X0071700Y0192023D01*
X0072029Y0193621D02*
X0061571Y0193621D01*
X0060593Y0195220D02*
X0073007Y0195220D01*
X0081715Y0190424D02*
X0081885Y0190424D01*
X0082657Y0188826D02*
X0080943Y0188826D01*
X0090943Y0188826D02*
X0092295Y0188826D01*
X0096800Y0191800D02*
X0096800Y0184300D01*
X0108050Y0173050D01*
X0110975Y0176038D02*
X0195850Y0176038D01*
X0195850Y0177636D02*
X0107424Y0177636D01*
X0105825Y0179235D02*
X0185554Y0179235D01*
X0186024Y0179082D02*
X0186024Y0179082D01*
X0189250Y0179421D01*
X0192059Y0181043D01*
X0193965Y0183667D01*
X0194639Y0186839D01*
X0193965Y0190012D01*
X0192059Y0192636D01*
X0192059Y0192636D01*
X0192059Y0192636D01*
X0189250Y0194258D01*
X0186024Y0194597D01*
X0182939Y0193594D01*
X0180529Y0191424D01*
X0179210Y0188461D01*
X0179210Y0185218D01*
X0180529Y0182255D01*
X0180529Y0182255D01*
X0182939Y0180084D01*
X0182939Y0180084D01*
X0186024Y0179082D01*
X0187477Y0179235D02*
X0195850Y0179235D01*
X0195850Y0180833D02*
X0191696Y0180833D01*
X0192059Y0181043D02*
X0192059Y0181043D01*
X0192059Y0181043D01*
X0193068Y0182432D02*
X0195850Y0182432D01*
X0195850Y0184030D02*
X0194042Y0184030D01*
X0193965Y0183667D02*
X0193965Y0183667D01*
X0194382Y0185629D02*
X0195850Y0185629D01*
X0195850Y0187227D02*
X0194557Y0187227D01*
X0194217Y0188826D02*
X0195850Y0188826D01*
X0195850Y0190424D02*
X0193665Y0190424D01*
X0193965Y0190012D02*
X0193965Y0190012D01*
X0192504Y0192023D02*
X0195850Y0192023D01*
X0195850Y0193621D02*
X0190352Y0193621D01*
X0189250Y0194258D02*
X0189250Y0194258D01*
X0186024Y0194597D02*
X0186024Y0194597D01*
X0183023Y0193621D02*
X0131782Y0193621D01*
X0132100Y0192023D02*
X0181194Y0192023D01*
X0180529Y0191424D02*
X0180529Y0191424D01*
X0180084Y0190424D02*
X0131967Y0190424D01*
X0131305Y0188826D02*
X0179372Y0188826D01*
X0179210Y0187227D02*
X0129610Y0187227D01*
X0123990Y0187227D02*
X0119610Y0187227D01*
X0121305Y0188826D02*
X0122295Y0188826D01*
X0130875Y0195220D02*
X0195711Y0195220D01*
X0198650Y0194713D02*
X0198648Y0194837D01*
X0198642Y0194960D01*
X0198633Y0195084D01*
X0198619Y0195206D01*
X0198602Y0195329D01*
X0198580Y0195451D01*
X0198555Y0195572D01*
X0198526Y0195692D01*
X0198494Y0195811D01*
X0198457Y0195930D01*
X0198417Y0196047D01*
X0198374Y0196162D01*
X0198326Y0196277D01*
X0198275Y0196389D01*
X0198221Y0196500D01*
X0198163Y0196610D01*
X0198102Y0196717D01*
X0198037Y0196823D01*
X0197969Y0196926D01*
X0197898Y0197027D01*
X0197824Y0197126D01*
X0197747Y0197223D01*
X0197666Y0197317D01*
X0197583Y0197408D01*
X0197497Y0197497D01*
X0197408Y0197583D01*
X0197317Y0197666D01*
X0197223Y0197747D01*
X0197126Y0197824D01*
X0197027Y0197898D01*
X0196926Y0197969D01*
X0196823Y0198037D01*
X0196717Y0198102D01*
X0196610Y0198163D01*
X0196500Y0198221D01*
X0196389Y0198275D01*
X0196277Y0198326D01*
X0196162Y0198374D01*
X0196047Y0198417D01*
X0195930Y0198457D01*
X0195811Y0198494D01*
X0195692Y0198526D01*
X0195572Y0198555D01*
X0195451Y0198580D01*
X0195329Y0198602D01*
X0195206Y0198619D01*
X0195084Y0198633D01*
X0194960Y0198642D01*
X0194837Y0198648D01*
X0194713Y0198650D01*
X0005737Y0198650D01*
X0005613Y0198648D01*
X0005490Y0198642D01*
X0005366Y0198633D01*
X0005244Y0198619D01*
X0005121Y0198602D01*
X0004999Y0198580D01*
X0004878Y0198555D01*
X0004758Y0198526D01*
X0004639Y0198494D01*
X0004520Y0198457D01*
X0004403Y0198417D01*
X0004288Y0198374D01*
X0004173Y0198326D01*
X0004061Y0198275D01*
X0003950Y0198221D01*
X0003840Y0198163D01*
X0003733Y0198102D01*
X0003627Y0198037D01*
X0003524Y0197969D01*
X0003423Y0197898D01*
X0003324Y0197824D01*
X0003227Y0197747D01*
X0003133Y0197666D01*
X0003042Y0197583D01*
X0002953Y0197497D01*
X0002867Y0197408D01*
X0002784Y0197317D01*
X0002703Y0197223D01*
X0002626Y0197126D01*
X0002552Y0197027D01*
X0002481Y0196926D01*
X0002413Y0196823D01*
X0002348Y0196717D01*
X0002287Y0196610D01*
X0002229Y0196500D01*
X0002175Y0196389D01*
X0002124Y0196277D01*
X0002076Y0196162D01*
X0002033Y0196047D01*
X0001993Y0195930D01*
X0001956Y0195811D01*
X0001924Y0195692D01*
X0001895Y0195572D01*
X0001870Y0195451D01*
X0001848Y0195329D01*
X0001831Y0195206D01*
X0001817Y0195084D01*
X0001808Y0194960D01*
X0001802Y0194837D01*
X0001800Y0194713D01*
X0004600Y0193621D02*
X0009794Y0193621D01*
X0009711Y0193594D02*
X0009711Y0193594D01*
X0007301Y0191424D01*
X0005981Y0188461D01*
X0005981Y0185218D01*
X0007301Y0182255D01*
X0007301Y0182255D01*
X0009711Y0180084D01*
X0012796Y0179082D01*
X0016021Y0179421D01*
X0016021Y0179421D01*
X0018830Y0181043D01*
X0020737Y0183667D01*
X0021411Y0186839D01*
X0020737Y0190012D01*
X0020737Y0190012D01*
X0018830Y0192636D01*
X0016021Y0194258D01*
X0012796Y0194597D01*
X0012796Y0194597D01*
X0009711Y0193594D01*
X0007966Y0192023D02*
X0004600Y0192023D01*
X0004600Y0190424D02*
X0006856Y0190424D01*
X0007301Y0191424D02*
X0007301Y0191424D01*
X0006144Y0188826D02*
X0004600Y0188826D01*
X0004600Y0187227D02*
X0005981Y0187227D01*
X0005981Y0185629D02*
X0004600Y0185629D01*
X0004600Y0184030D02*
X0006510Y0184030D01*
X0007222Y0182432D02*
X0004600Y0182432D01*
X0004600Y0180833D02*
X0008879Y0180833D01*
X0009711Y0180084D02*
X0009711Y0180084D01*
X0012326Y0179235D02*
X0004600Y0179235D01*
X0004600Y0177636D02*
X0057750Y0177636D01*
X0057750Y0176038D02*
X0004600Y0176038D01*
X0004600Y0174439D02*
X0057750Y0174439D01*
X0054428Y0172841D02*
X0004600Y0172841D01*
X0004600Y0171242D02*
X0053079Y0171242D01*
X0052619Y0169644D02*
X0004600Y0169644D01*
X0004600Y0168045D02*
X0052794Y0168045D01*
X0053740Y0166447D02*
X0004600Y0166447D01*
X0004600Y0164848D02*
X0083542Y0164848D01*
X0085141Y0163250D02*
X0004600Y0163250D01*
X0004600Y0161651D02*
X0086739Y0161651D01*
X0088338Y0160053D02*
X0004600Y0160053D01*
X0004600Y0158454D02*
X0089936Y0158454D01*
X0091635Y0156856D02*
X0037288Y0156856D01*
X0039161Y0155257D02*
X0108135Y0155257D01*
X0105831Y0156856D02*
X0104465Y0156856D01*
X0109300Y0159300D02*
X0150550Y0159300D01*
X0153050Y0156800D01*
X0155710Y0160053D02*
X0195850Y0160053D01*
X0195850Y0161651D02*
X0152159Y0161651D01*
X0156890Y0158454D02*
X0157541Y0158454D01*
X0160550Y0155550D02*
X0151800Y0146800D01*
X0135550Y0146800D01*
X0132370Y0144068D02*
X0129968Y0144068D01*
X0131494Y0145666D02*
X0127993Y0145666D01*
X0131369Y0147265D02*
X0034600Y0147265D01*
X0034600Y0145666D02*
X0113048Y0145666D01*
X0111073Y0144068D02*
X0034600Y0144068D01*
X0034600Y0142469D02*
X0110285Y0142469D01*
X0110020Y0140870D02*
X0076649Y0140870D01*
X0074451Y0140870D02*
X0034600Y0140870D01*
X0034600Y0139272D02*
X0072109Y0139272D01*
X0071386Y0137673D02*
X0034600Y0137673D01*
X0034600Y0136075D02*
X0071369Y0136075D01*
X0071987Y0134476D02*
X0034600Y0134476D01*
X0034600Y0132878D02*
X0074093Y0132878D01*
X0076486Y0131279D02*
X0110020Y0131279D01*
X0110020Y0129681D02*
X0076968Y0129681D01*
X0076968Y0128082D02*
X0110667Y0128082D01*
X0111995Y0126484D02*
X0076968Y0126484D01*
X0076968Y0124885D02*
X0111891Y0124885D01*
X0110624Y0123287D02*
X0076968Y0123287D01*
X0075854Y0121688D02*
X0110020Y0121688D01*
X0110020Y0120090D02*
X0075537Y0120090D01*
X0076475Y0118491D02*
X0110498Y0118491D01*
X0111586Y0116893D02*
X0071984Y0116893D01*
X0071616Y0116893D02*
X0061984Y0116893D01*
X0061616Y0116893D02*
X0051984Y0116893D01*
X0051616Y0116893D02*
X0041984Y0116893D01*
X0041616Y0116893D02*
X0031984Y0116893D01*
X0031616Y0116893D02*
X0020770Y0116893D01*
X0021109Y0118491D02*
X0027125Y0118491D01*
X0028063Y0120090D02*
X0021373Y0120090D01*
X0019688Y0115294D02*
X0027065Y0115294D01*
X0027914Y0113696D02*
X0018106Y0113696D01*
X0031616Y0113696D02*
X0031984Y0113696D01*
X0031984Y0115294D02*
X0031616Y0115294D01*
X0035686Y0113696D02*
X0037914Y0113696D01*
X0037065Y0115294D02*
X0036535Y0115294D01*
X0036475Y0118491D02*
X0037125Y0118491D01*
X0038063Y0120090D02*
X0035537Y0120090D01*
X0035596Y0123287D02*
X0038004Y0123287D01*
X0036999Y0124885D02*
X0036601Y0124885D01*
X0036201Y0129681D02*
X0037399Y0129681D01*
X0039108Y0131279D02*
X0034600Y0131279D01*
X0031800Y0126800D02*
X0031800Y0149300D01*
X0035550Y0153050D01*
X0033812Y0156856D02*
X0004600Y0156856D01*
X0004600Y0155257D02*
X0031939Y0155257D01*
X0031369Y0153659D02*
X0004600Y0153659D01*
X0004600Y0152060D02*
X0030600Y0152060D01*
X0029250Y0150462D02*
X0004600Y0150462D01*
X0004600Y0148863D02*
X0029000Y0148863D01*
X0029000Y0147265D02*
X0004600Y0147265D01*
X0004600Y0145666D02*
X0029000Y0145666D01*
X0029000Y0144068D02*
X0004600Y0144068D01*
X0004600Y0142469D02*
X0029000Y0142469D01*
X0029000Y0140870D02*
X0004600Y0140870D01*
X0004600Y0139272D02*
X0029000Y0139272D01*
X0029000Y0137673D02*
X0004600Y0137673D01*
X0004600Y0136075D02*
X0029000Y0136075D01*
X0029000Y0134476D02*
X0004600Y0134476D01*
X0004600Y0132878D02*
X0029000Y0132878D01*
X0029000Y0131279D02*
X0004600Y0131279D01*
X0004600Y0129681D02*
X0027399Y0129681D01*
X0041616Y0115294D02*
X0041984Y0115294D01*
X0041984Y0113696D02*
X0041616Y0113696D01*
X0051616Y0113696D02*
X0051984Y0113696D01*
X0051984Y0115294D02*
X0051616Y0115294D01*
X0055686Y0113696D02*
X0057914Y0113696D01*
X0057065Y0115294D02*
X0056535Y0115294D01*
X0056475Y0118491D02*
X0057125Y0118491D01*
X0058063Y0120090D02*
X0055537Y0120090D01*
X0052965Y0121688D02*
X0060635Y0121688D01*
X0062965Y0121688D02*
X0067746Y0121688D01*
X0068063Y0120090D02*
X0065537Y0120090D01*
X0066475Y0118491D02*
X0067125Y0118491D01*
X0067065Y0115294D02*
X0066535Y0115294D01*
X0065686Y0113696D02*
X0067914Y0113696D01*
X0071616Y0113696D02*
X0071984Y0113696D01*
X0071984Y0115294D02*
X0071616Y0115294D01*
X0075686Y0113696D02*
X0105560Y0113696D01*
X0106881Y0115294D02*
X0076535Y0115294D01*
X0066631Y0123287D02*
X0065596Y0123287D01*
X0066601Y0124885D02*
X0066631Y0124885D01*
X0066631Y0129681D02*
X0066201Y0129681D01*
X0067114Y0131279D02*
X0064492Y0131279D01*
X0059108Y0131279D02*
X0054492Y0131279D01*
X0056201Y0129681D02*
X0057399Y0129681D01*
X0056999Y0124885D02*
X0056601Y0124885D01*
X0055596Y0123287D02*
X0058004Y0123287D01*
X0061616Y0115294D02*
X0061984Y0115294D01*
X0061984Y0113696D02*
X0061616Y0113696D01*
X0048004Y0123287D02*
X0045596Y0123287D01*
X0046601Y0124885D02*
X0046999Y0124885D01*
X0047399Y0129681D02*
X0046201Y0129681D01*
X0044492Y0131279D02*
X0049108Y0131279D01*
X0035323Y0148863D02*
X0131879Y0148863D01*
X0133464Y0150462D02*
X0038875Y0150462D01*
X0039666Y0152060D02*
X0153100Y0152060D01*
X0151502Y0150462D02*
X0137636Y0150462D01*
X0149163Y0155257D02*
X0110465Y0155257D01*
X0101870Y0163250D02*
X0093060Y0163250D01*
X0091462Y0164848D02*
X0103388Y0164848D01*
X0104987Y0166447D02*
X0089863Y0166447D01*
X0081944Y0166447D02*
X0059860Y0166447D01*
X0060806Y0168045D02*
X0080539Y0168045D01*
X0080250Y0169644D02*
X0061103Y0169644D01*
X0060550Y0173050D02*
X0056800Y0169300D01*
X0060550Y0173050D02*
X0060550Y0178050D01*
X0058010Y0179235D02*
X0029996Y0179235D01*
X0028544Y0179082D02*
X0028544Y0179082D01*
X0028074Y0179235D02*
X0014248Y0179235D01*
X0012796Y0179082D02*
X0012796Y0179082D01*
X0018467Y0180833D02*
X0024627Y0180833D01*
X0025459Y0180084D02*
X0025459Y0180084D01*
X0022970Y0182432D02*
X0019839Y0182432D01*
X0020737Y0183667D02*
X0020737Y0183667D01*
X0020814Y0184030D02*
X0022258Y0184030D01*
X0021730Y0185629D02*
X0021154Y0185629D01*
X0021411Y0186839D02*
X0021411Y0186839D01*
X0021329Y0187227D02*
X0021730Y0187227D01*
X0021892Y0188826D02*
X0020989Y0188826D01*
X0020437Y0190424D02*
X0022604Y0190424D01*
X0023049Y0191424D02*
X0023049Y0191424D01*
X0023714Y0192023D02*
X0019276Y0192023D01*
X0018830Y0192636D02*
X0018830Y0192636D01*
X0017123Y0193621D02*
X0025542Y0193621D01*
X0025459Y0193594D02*
X0025459Y0193594D01*
X0024359Y0186839D02*
X0024361Y0186980D01*
X0024367Y0187121D01*
X0024377Y0187261D01*
X0024391Y0187401D01*
X0024409Y0187541D01*
X0024430Y0187680D01*
X0024456Y0187819D01*
X0024485Y0187957D01*
X0024519Y0188093D01*
X0024556Y0188229D01*
X0024597Y0188364D01*
X0024642Y0188498D01*
X0024691Y0188630D01*
X0024743Y0188761D01*
X0024799Y0188890D01*
X0024859Y0189017D01*
X0024922Y0189143D01*
X0024988Y0189267D01*
X0025059Y0189390D01*
X0025132Y0189510D01*
X0025209Y0189628D01*
X0025289Y0189744D01*
X0025373Y0189857D01*
X0025459Y0189968D01*
X0025549Y0190077D01*
X0025642Y0190183D01*
X0025737Y0190286D01*
X0025836Y0190387D01*
X0025937Y0190485D01*
X0026041Y0190580D01*
X0026148Y0190672D01*
X0026257Y0190761D01*
X0026369Y0190846D01*
X0026483Y0190929D01*
X0026599Y0191009D01*
X0026718Y0191085D01*
X0026839Y0191157D01*
X0026961Y0191227D01*
X0027086Y0191292D01*
X0027212Y0191355D01*
X0027340Y0191413D01*
X0027470Y0191468D01*
X0027601Y0191520D01*
X0027734Y0191567D01*
X0027868Y0191611D01*
X0028003Y0191652D01*
X0028139Y0191688D01*
X0028276Y0191720D01*
X0028414Y0191749D01*
X0028552Y0191774D01*
X0028692Y0191794D01*
X0028832Y0191811D01*
X0028972Y0191824D01*
X0029113Y0191833D01*
X0029253Y0191838D01*
X0029394Y0191839D01*
X0029535Y0191836D01*
X0029676Y0191829D01*
X0029816Y0191818D01*
X0029956Y0191803D01*
X0030096Y0191784D01*
X0030235Y0191762D01*
X0030373Y0191735D01*
X0030511Y0191705D01*
X0030647Y0191670D01*
X0030783Y0191632D01*
X0030917Y0191590D01*
X0031051Y0191544D01*
X0031183Y0191495D01*
X0031313Y0191441D01*
X0031442Y0191384D01*
X0031569Y0191324D01*
X0031695Y0191260D01*
X0031818Y0191192D01*
X0031940Y0191121D01*
X0032060Y0191047D01*
X0032177Y0190969D01*
X0032292Y0190888D01*
X0032405Y0190804D01*
X0032516Y0190717D01*
X0032624Y0190626D01*
X0032729Y0190533D01*
X0032832Y0190436D01*
X0032932Y0190337D01*
X0033029Y0190235D01*
X0033123Y0190130D01*
X0033214Y0190023D01*
X0033302Y0189913D01*
X0033387Y0189801D01*
X0033469Y0189686D01*
X0033548Y0189569D01*
X0033623Y0189450D01*
X0033695Y0189329D01*
X0033763Y0189206D01*
X0033828Y0189081D01*
X0033890Y0188954D01*
X0033947Y0188825D01*
X0034002Y0188695D01*
X0034052Y0188564D01*
X0034099Y0188431D01*
X0034142Y0188297D01*
X0034181Y0188161D01*
X0034216Y0188025D01*
X0034248Y0187888D01*
X0034275Y0187750D01*
X0034299Y0187611D01*
X0034319Y0187471D01*
X0034335Y0187331D01*
X0034347Y0187191D01*
X0034355Y0187050D01*
X0034359Y0186909D01*
X0034359Y0186769D01*
X0034355Y0186628D01*
X0034347Y0186487D01*
X0034335Y0186347D01*
X0034319Y0186207D01*
X0034299Y0186067D01*
X0034275Y0185928D01*
X0034248Y0185790D01*
X0034216Y0185653D01*
X0034181Y0185517D01*
X0034142Y0185381D01*
X0034099Y0185247D01*
X0034052Y0185114D01*
X0034002Y0184983D01*
X0033947Y0184853D01*
X0033890Y0184724D01*
X0033828Y0184597D01*
X0033763Y0184472D01*
X0033695Y0184349D01*
X0033623Y0184228D01*
X0033548Y0184109D01*
X0033469Y0183992D01*
X0033387Y0183877D01*
X0033302Y0183765D01*
X0033214Y0183655D01*
X0033123Y0183548D01*
X0033029Y0183443D01*
X0032932Y0183341D01*
X0032832Y0183242D01*
X0032729Y0183145D01*
X0032624Y0183052D01*
X0032516Y0182961D01*
X0032405Y0182874D01*
X0032292Y0182790D01*
X0032177Y0182709D01*
X0032060Y0182631D01*
X0031940Y0182557D01*
X0031818Y0182486D01*
X0031695Y0182418D01*
X0031569Y0182354D01*
X0031442Y0182294D01*
X0031313Y0182237D01*
X0031183Y0182183D01*
X0031051Y0182134D01*
X0030917Y0182088D01*
X0030783Y0182046D01*
X0030647Y0182008D01*
X0030511Y0181973D01*
X0030373Y0181943D01*
X0030235Y0181916D01*
X0030096Y0181894D01*
X0029956Y0181875D01*
X0029816Y0181860D01*
X0029676Y0181849D01*
X0029535Y0181842D01*
X0029394Y0181839D01*
X0029253Y0181840D01*
X0029113Y0181845D01*
X0028972Y0181854D01*
X0028832Y0181867D01*
X0028692Y0181884D01*
X0028552Y0181904D01*
X0028414Y0181929D01*
X0028276Y0181958D01*
X0028139Y0181990D01*
X0028003Y0182026D01*
X0027868Y0182067D01*
X0027734Y0182111D01*
X0027601Y0182158D01*
X0027470Y0182210D01*
X0027340Y0182265D01*
X0027212Y0182323D01*
X0027086Y0182386D01*
X0026961Y0182451D01*
X0026839Y0182521D01*
X0026718Y0182593D01*
X0026599Y0182669D01*
X0026483Y0182749D01*
X0026369Y0182832D01*
X0026257Y0182917D01*
X0026148Y0183006D01*
X0026041Y0183098D01*
X0025937Y0183193D01*
X0025836Y0183291D01*
X0025737Y0183392D01*
X0025642Y0183495D01*
X0025549Y0183601D01*
X0025459Y0183710D01*
X0025373Y0183821D01*
X0025289Y0183934D01*
X0025209Y0184050D01*
X0025132Y0184168D01*
X0025059Y0184288D01*
X0024988Y0184411D01*
X0024922Y0184535D01*
X0024859Y0184661D01*
X0024799Y0184788D01*
X0024743Y0184917D01*
X0024691Y0185048D01*
X0024642Y0185180D01*
X0024597Y0185314D01*
X0024556Y0185449D01*
X0024519Y0185585D01*
X0024485Y0185721D01*
X0024456Y0185859D01*
X0024430Y0185998D01*
X0024409Y0186137D01*
X0024391Y0186277D01*
X0024377Y0186417D01*
X0024367Y0186557D01*
X0024361Y0186698D01*
X0024359Y0186839D01*
X0018830Y0181043D02*
X0018830Y0181043D01*
X0018830Y0181043D01*
X0008611Y0186839D02*
X0008613Y0186980D01*
X0008619Y0187121D01*
X0008629Y0187261D01*
X0008643Y0187401D01*
X0008661Y0187541D01*
X0008682Y0187680D01*
X0008708Y0187819D01*
X0008737Y0187957D01*
X0008771Y0188093D01*
X0008808Y0188229D01*
X0008849Y0188364D01*
X0008894Y0188498D01*
X0008943Y0188630D01*
X0008995Y0188761D01*
X0009051Y0188890D01*
X0009111Y0189017D01*
X0009174Y0189143D01*
X0009240Y0189267D01*
X0009311Y0189390D01*
X0009384Y0189510D01*
X0009461Y0189628D01*
X0009541Y0189744D01*
X0009625Y0189857D01*
X0009711Y0189968D01*
X0009801Y0190077D01*
X0009894Y0190183D01*
X0009989Y0190286D01*
X0010088Y0190387D01*
X0010189Y0190485D01*
X0010293Y0190580D01*
X0010400Y0190672D01*
X0010509Y0190761D01*
X0010621Y0190846D01*
X0010735Y0190929D01*
X0010851Y0191009D01*
X0010970Y0191085D01*
X0011091Y0191157D01*
X0011213Y0191227D01*
X0011338Y0191292D01*
X0011464Y0191355D01*
X0011592Y0191413D01*
X0011722Y0191468D01*
X0011853Y0191520D01*
X0011986Y0191567D01*
X0012120Y0191611D01*
X0012255Y0191652D01*
X0012391Y0191688D01*
X0012528Y0191720D01*
X0012666Y0191749D01*
X0012804Y0191774D01*
X0012944Y0191794D01*
X0013084Y0191811D01*
X0013224Y0191824D01*
X0013365Y0191833D01*
X0013505Y0191838D01*
X0013646Y0191839D01*
X0013787Y0191836D01*
X0013928Y0191829D01*
X0014068Y0191818D01*
X0014208Y0191803D01*
X0014348Y0191784D01*
X0014487Y0191762D01*
X0014625Y0191735D01*
X0014763Y0191705D01*
X0014899Y0191670D01*
X0015035Y0191632D01*
X0015169Y0191590D01*
X0015303Y0191544D01*
X0015435Y0191495D01*
X0015565Y0191441D01*
X0015694Y0191384D01*
X0015821Y0191324D01*
X0015947Y0191260D01*
X0016070Y0191192D01*
X0016192Y0191121D01*
X0016312Y0191047D01*
X0016429Y0190969D01*
X0016544Y0190888D01*
X0016657Y0190804D01*
X0016768Y0190717D01*
X0016876Y0190626D01*
X0016981Y0190533D01*
X0017084Y0190436D01*
X0017184Y0190337D01*
X0017281Y0190235D01*
X0017375Y0190130D01*
X0017466Y0190023D01*
X0017554Y0189913D01*
X0017639Y0189801D01*
X0017721Y0189686D01*
X0017800Y0189569D01*
X0017875Y0189450D01*
X0017947Y0189329D01*
X0018015Y0189206D01*
X0018080Y0189081D01*
X0018142Y0188954D01*
X0018199Y0188825D01*
X0018254Y0188695D01*
X0018304Y0188564D01*
X0018351Y0188431D01*
X0018394Y0188297D01*
X0018433Y0188161D01*
X0018468Y0188025D01*
X0018500Y0187888D01*
X0018527Y0187750D01*
X0018551Y0187611D01*
X0018571Y0187471D01*
X0018587Y0187331D01*
X0018599Y0187191D01*
X0018607Y0187050D01*
X0018611Y0186909D01*
X0018611Y0186769D01*
X0018607Y0186628D01*
X0018599Y0186487D01*
X0018587Y0186347D01*
X0018571Y0186207D01*
X0018551Y0186067D01*
X0018527Y0185928D01*
X0018500Y0185790D01*
X0018468Y0185653D01*
X0018433Y0185517D01*
X0018394Y0185381D01*
X0018351Y0185247D01*
X0018304Y0185114D01*
X0018254Y0184983D01*
X0018199Y0184853D01*
X0018142Y0184724D01*
X0018080Y0184597D01*
X0018015Y0184472D01*
X0017947Y0184349D01*
X0017875Y0184228D01*
X0017800Y0184109D01*
X0017721Y0183992D01*
X0017639Y0183877D01*
X0017554Y0183765D01*
X0017466Y0183655D01*
X0017375Y0183548D01*
X0017281Y0183443D01*
X0017184Y0183341D01*
X0017084Y0183242D01*
X0016981Y0183145D01*
X0016876Y0183052D01*
X0016768Y0182961D01*
X0016657Y0182874D01*
X0016544Y0182790D01*
X0016429Y0182709D01*
X0016312Y0182631D01*
X0016192Y0182557D01*
X0016070Y0182486D01*
X0015947Y0182418D01*
X0015821Y0182354D01*
X0015694Y0182294D01*
X0015565Y0182237D01*
X0015435Y0182183D01*
X0015303Y0182134D01*
X0015169Y0182088D01*
X0015035Y0182046D01*
X0014899Y0182008D01*
X0014763Y0181973D01*
X0014625Y0181943D01*
X0014487Y0181916D01*
X0014348Y0181894D01*
X0014208Y0181875D01*
X0014068Y0181860D01*
X0013928Y0181849D01*
X0013787Y0181842D01*
X0013646Y0181839D01*
X0013505Y0181840D01*
X0013365Y0181845D01*
X0013224Y0181854D01*
X0013084Y0181867D01*
X0012944Y0181884D01*
X0012804Y0181904D01*
X0012666Y0181929D01*
X0012528Y0181958D01*
X0012391Y0181990D01*
X0012255Y0182026D01*
X0012120Y0182067D01*
X0011986Y0182111D01*
X0011853Y0182158D01*
X0011722Y0182210D01*
X0011592Y0182265D01*
X0011464Y0182323D01*
X0011338Y0182386D01*
X0011213Y0182451D01*
X0011091Y0182521D01*
X0010970Y0182593D01*
X0010851Y0182669D01*
X0010735Y0182749D01*
X0010621Y0182832D01*
X0010509Y0182917D01*
X0010400Y0183006D01*
X0010293Y0183098D01*
X0010189Y0183193D01*
X0010088Y0183291D01*
X0009989Y0183392D01*
X0009894Y0183495D01*
X0009801Y0183601D01*
X0009711Y0183710D01*
X0009625Y0183821D01*
X0009541Y0183934D01*
X0009461Y0184050D01*
X0009384Y0184168D01*
X0009311Y0184288D01*
X0009240Y0184411D01*
X0009174Y0184535D01*
X0009111Y0184661D01*
X0009051Y0184788D01*
X0008995Y0184917D01*
X0008943Y0185048D01*
X0008894Y0185180D01*
X0008849Y0185314D01*
X0008808Y0185449D01*
X0008771Y0185585D01*
X0008737Y0185721D01*
X0008708Y0185859D01*
X0008682Y0185998D01*
X0008661Y0186137D01*
X0008643Y0186277D01*
X0008629Y0186417D01*
X0008619Y0186557D01*
X0008613Y0186698D01*
X0008611Y0186839D01*
X0016021Y0194258D02*
X0016021Y0194258D01*
X0034215Y0180833D02*
X0059373Y0180833D01*
X0060972Y0182432D02*
X0035587Y0182432D01*
X0036485Y0183667D02*
X0036485Y0183667D01*
X0036562Y0184030D02*
X0062570Y0184030D01*
X0034578Y0181043D02*
X0034578Y0181043D01*
X0039731Y0153659D02*
X0150278Y0153659D01*
X0156224Y0147265D02*
X0195850Y0147265D01*
X0195850Y0148863D02*
X0157823Y0148863D01*
X0159421Y0150462D02*
X0195850Y0150462D01*
X0195850Y0152060D02*
X0162973Y0152060D01*
X0164292Y0153659D02*
X0195850Y0153659D01*
X0195850Y0155257D02*
X0164731Y0155257D01*
X0164535Y0156856D02*
X0195850Y0156856D01*
X0195850Y0158454D02*
X0163559Y0158454D01*
X0160892Y0145666D02*
X0195850Y0145666D01*
X0195850Y0144068D02*
X0162886Y0144068D01*
X0163481Y0142469D02*
X0195850Y0142469D01*
X0195850Y0140870D02*
X0163441Y0140870D01*
X0162685Y0139272D02*
X0195850Y0139272D01*
X0195850Y0137673D02*
X0160263Y0137673D01*
X0158337Y0137673D02*
X0130205Y0137673D01*
X0128637Y0136075D02*
X0195850Y0136075D01*
X0195850Y0134476D02*
X0129559Y0134476D01*
X0130587Y0132878D02*
X0195850Y0132878D01*
X0195850Y0131279D02*
X0131020Y0131279D01*
X0131020Y0129681D02*
X0195850Y0129681D01*
X0195850Y0128082D02*
X0132135Y0128082D01*
X0133733Y0126484D02*
X0182738Y0126484D01*
X0182939Y0126665D02*
X0180529Y0124495D01*
X0179210Y0121532D01*
X0179210Y0118289D01*
X0180529Y0115326D01*
X0180529Y0115326D01*
X0182939Y0113155D01*
X0186024Y0112153D01*
X0186024Y0112153D01*
X0189250Y0112492D01*
X0192059Y0114114D01*
X0193965Y0116738D01*
X0194639Y0119910D01*
X0193965Y0123083D01*
X0192059Y0125707D01*
X0192059Y0125707D01*
X0189250Y0127328D01*
X0189250Y0127328D01*
X0186024Y0127667D01*
X0182939Y0126665D01*
X0182939Y0126665D01*
X0182939Y0126665D01*
X0180963Y0124885D02*
X0134600Y0124885D01*
X0134600Y0123287D02*
X0179991Y0123287D01*
X0179279Y0121688D02*
X0134600Y0121688D01*
X0134600Y0120090D02*
X0151481Y0120090D01*
X0151258Y0119997D02*
X0150197Y0118936D01*
X0149623Y0117550D01*
X0149623Y0116050D01*
X0150197Y0114664D01*
X0151258Y0113603D01*
X0152644Y0113028D01*
X0154145Y0113028D01*
X0155531Y0113603D01*
X0156592Y0114664D01*
X0157166Y0116050D01*
X0157166Y0117550D01*
X0156592Y0118936D01*
X0155531Y0119997D01*
X0154145Y0120572D01*
X0152644Y0120572D01*
X0151258Y0119997D01*
X0150013Y0118491D02*
X0134600Y0118491D01*
X0134600Y0116893D02*
X0149623Y0116893D01*
X0149936Y0115294D02*
X0134600Y0115294D01*
X0134580Y0113696D02*
X0151165Y0113696D01*
X0155624Y0113696D02*
X0162976Y0113696D01*
X0163069Y0113603D02*
X0164455Y0113028D01*
X0165956Y0113028D01*
X0167342Y0113603D01*
X0168403Y0114664D01*
X0168977Y0116050D01*
X0168977Y0117550D01*
X0168403Y0118936D01*
X0167342Y0119997D01*
X0165956Y0120572D01*
X0164455Y0120572D01*
X0163069Y0119997D01*
X0162008Y0118936D01*
X0161434Y0117550D01*
X0161434Y0116050D01*
X0162008Y0114664D01*
X0163069Y0113603D01*
X0161747Y0115294D02*
X0156853Y0115294D01*
X0157166Y0116893D02*
X0161434Y0116893D01*
X0161824Y0118491D02*
X0156776Y0118491D01*
X0155308Y0120090D02*
X0163292Y0120090D01*
X0167119Y0120090D02*
X0179210Y0120090D01*
X0179210Y0118491D02*
X0168587Y0118491D01*
X0168977Y0116893D02*
X0179831Y0116893D01*
X0180564Y0115294D02*
X0168664Y0115294D01*
X0167435Y0113696D02*
X0182339Y0113696D01*
X0182939Y0113155D02*
X0182939Y0113155D01*
X0189250Y0112492D02*
X0189250Y0112492D01*
X0191335Y0113696D02*
X0195850Y0113696D01*
X0195850Y0115294D02*
X0192916Y0115294D01*
X0192059Y0114114D02*
X0192059Y0114114D01*
X0192059Y0114114D01*
X0193965Y0116738D02*
X0193965Y0116738D01*
X0193998Y0116893D02*
X0195850Y0116893D01*
X0195850Y0118491D02*
X0194338Y0118491D01*
X0194601Y0120090D02*
X0195850Y0120090D01*
X0195850Y0121688D02*
X0194261Y0121688D01*
X0193965Y0123083D02*
X0193965Y0123083D01*
X0193817Y0123287D02*
X0195850Y0123287D01*
X0195850Y0124885D02*
X0192655Y0124885D01*
X0190713Y0126484D02*
X0195850Y0126484D01*
X0181839Y0119910D02*
X0181841Y0120051D01*
X0181847Y0120192D01*
X0181857Y0120332D01*
X0181871Y0120472D01*
X0181889Y0120612D01*
X0181910Y0120751D01*
X0181936Y0120890D01*
X0181965Y0121028D01*
X0181999Y0121164D01*
X0182036Y0121300D01*
X0182077Y0121435D01*
X0182122Y0121569D01*
X0182171Y0121701D01*
X0182223Y0121832D01*
X0182279Y0121961D01*
X0182339Y0122088D01*
X0182402Y0122214D01*
X0182468Y0122338D01*
X0182539Y0122461D01*
X0182612Y0122581D01*
X0182689Y0122699D01*
X0182769Y0122815D01*
X0182853Y0122928D01*
X0182939Y0123039D01*
X0183029Y0123148D01*
X0183122Y0123254D01*
X0183217Y0123357D01*
X0183316Y0123458D01*
X0183417Y0123556D01*
X0183521Y0123651D01*
X0183628Y0123743D01*
X0183737Y0123832D01*
X0183849Y0123917D01*
X0183963Y0124000D01*
X0184079Y0124080D01*
X0184198Y0124156D01*
X0184319Y0124228D01*
X0184441Y0124298D01*
X0184566Y0124363D01*
X0184692Y0124426D01*
X0184820Y0124484D01*
X0184950Y0124539D01*
X0185081Y0124591D01*
X0185214Y0124638D01*
X0185348Y0124682D01*
X0185483Y0124723D01*
X0185619Y0124759D01*
X0185756Y0124791D01*
X0185894Y0124820D01*
X0186032Y0124845D01*
X0186172Y0124865D01*
X0186312Y0124882D01*
X0186452Y0124895D01*
X0186593Y0124904D01*
X0186733Y0124909D01*
X0186874Y0124910D01*
X0187015Y0124907D01*
X0187156Y0124900D01*
X0187296Y0124889D01*
X0187436Y0124874D01*
X0187576Y0124855D01*
X0187715Y0124833D01*
X0187853Y0124806D01*
X0187991Y0124776D01*
X0188127Y0124741D01*
X0188263Y0124703D01*
X0188397Y0124661D01*
X0188531Y0124615D01*
X0188663Y0124566D01*
X0188793Y0124512D01*
X0188922Y0124455D01*
X0189049Y0124395D01*
X0189175Y0124331D01*
X0189298Y0124263D01*
X0189420Y0124192D01*
X0189540Y0124118D01*
X0189657Y0124040D01*
X0189772Y0123959D01*
X0189885Y0123875D01*
X0189996Y0123788D01*
X0190104Y0123697D01*
X0190209Y0123604D01*
X0190312Y0123507D01*
X0190412Y0123408D01*
X0190509Y0123306D01*
X0190603Y0123201D01*
X0190694Y0123094D01*
X0190782Y0122984D01*
X0190867Y0122872D01*
X0190949Y0122757D01*
X0191028Y0122640D01*
X0191103Y0122521D01*
X0191175Y0122400D01*
X0191243Y0122277D01*
X0191308Y0122152D01*
X0191370Y0122025D01*
X0191427Y0121896D01*
X0191482Y0121766D01*
X0191532Y0121635D01*
X0191579Y0121502D01*
X0191622Y0121368D01*
X0191661Y0121232D01*
X0191696Y0121096D01*
X0191728Y0120959D01*
X0191755Y0120821D01*
X0191779Y0120682D01*
X0191799Y0120542D01*
X0191815Y0120402D01*
X0191827Y0120262D01*
X0191835Y0120121D01*
X0191839Y0119980D01*
X0191839Y0119840D01*
X0191835Y0119699D01*
X0191827Y0119558D01*
X0191815Y0119418D01*
X0191799Y0119278D01*
X0191779Y0119138D01*
X0191755Y0118999D01*
X0191728Y0118861D01*
X0191696Y0118724D01*
X0191661Y0118588D01*
X0191622Y0118452D01*
X0191579Y0118318D01*
X0191532Y0118185D01*
X0191482Y0118054D01*
X0191427Y0117924D01*
X0191370Y0117795D01*
X0191308Y0117668D01*
X0191243Y0117543D01*
X0191175Y0117420D01*
X0191103Y0117299D01*
X0191028Y0117180D01*
X0190949Y0117063D01*
X0190867Y0116948D01*
X0190782Y0116836D01*
X0190694Y0116726D01*
X0190603Y0116619D01*
X0190509Y0116514D01*
X0190412Y0116412D01*
X0190312Y0116313D01*
X0190209Y0116216D01*
X0190104Y0116123D01*
X0189996Y0116032D01*
X0189885Y0115945D01*
X0189772Y0115861D01*
X0189657Y0115780D01*
X0189540Y0115702D01*
X0189420Y0115628D01*
X0189298Y0115557D01*
X0189175Y0115489D01*
X0189049Y0115425D01*
X0188922Y0115365D01*
X0188793Y0115308D01*
X0188663Y0115254D01*
X0188531Y0115205D01*
X0188397Y0115159D01*
X0188263Y0115117D01*
X0188127Y0115079D01*
X0187991Y0115044D01*
X0187853Y0115014D01*
X0187715Y0114987D01*
X0187576Y0114965D01*
X0187436Y0114946D01*
X0187296Y0114931D01*
X0187156Y0114920D01*
X0187015Y0114913D01*
X0186874Y0114910D01*
X0186733Y0114911D01*
X0186593Y0114916D01*
X0186452Y0114925D01*
X0186312Y0114938D01*
X0186172Y0114955D01*
X0186032Y0114975D01*
X0185894Y0115000D01*
X0185756Y0115029D01*
X0185619Y0115061D01*
X0185483Y0115097D01*
X0185348Y0115138D01*
X0185214Y0115182D01*
X0185081Y0115229D01*
X0184950Y0115281D01*
X0184820Y0115336D01*
X0184692Y0115394D01*
X0184566Y0115457D01*
X0184441Y0115522D01*
X0184319Y0115592D01*
X0184198Y0115664D01*
X0184079Y0115740D01*
X0183963Y0115820D01*
X0183849Y0115903D01*
X0183737Y0115988D01*
X0183628Y0116077D01*
X0183521Y0116169D01*
X0183417Y0116264D01*
X0183316Y0116362D01*
X0183217Y0116463D01*
X0183122Y0116566D01*
X0183029Y0116672D01*
X0182939Y0116781D01*
X0182853Y0116892D01*
X0182769Y0117005D01*
X0182689Y0117121D01*
X0182612Y0117239D01*
X0182539Y0117359D01*
X0182468Y0117482D01*
X0182402Y0117606D01*
X0182339Y0117732D01*
X0182279Y0117859D01*
X0182223Y0117988D01*
X0182171Y0118119D01*
X0182122Y0118251D01*
X0182077Y0118385D01*
X0182036Y0118520D01*
X0181999Y0118656D01*
X0181965Y0118792D01*
X0181936Y0118930D01*
X0181910Y0119069D01*
X0181889Y0119208D01*
X0181871Y0119348D01*
X0181857Y0119488D01*
X0181847Y0119628D01*
X0181841Y0119769D01*
X0181839Y0119910D01*
X0186024Y0127667D02*
X0186024Y0127667D01*
X0198650Y0112036D02*
X0198650Y0194713D01*
X0181839Y0186839D02*
X0181841Y0186980D01*
X0181847Y0187121D01*
X0181857Y0187261D01*
X0181871Y0187401D01*
X0181889Y0187541D01*
X0181910Y0187680D01*
X0181936Y0187819D01*
X0181965Y0187957D01*
X0181999Y0188093D01*
X0182036Y0188229D01*
X0182077Y0188364D01*
X0182122Y0188498D01*
X0182171Y0188630D01*
X0182223Y0188761D01*
X0182279Y0188890D01*
X0182339Y0189017D01*
X0182402Y0189143D01*
X0182468Y0189267D01*
X0182539Y0189390D01*
X0182612Y0189510D01*
X0182689Y0189628D01*
X0182769Y0189744D01*
X0182853Y0189857D01*
X0182939Y0189968D01*
X0183029Y0190077D01*
X0183122Y0190183D01*
X0183217Y0190286D01*
X0183316Y0190387D01*
X0183417Y0190485D01*
X0183521Y0190580D01*
X0183628Y0190672D01*
X0183737Y0190761D01*
X0183849Y0190846D01*
X0183963Y0190929D01*
X0184079Y0191009D01*
X0184198Y0191085D01*
X0184319Y0191157D01*
X0184441Y0191227D01*
X0184566Y0191292D01*
X0184692Y0191355D01*
X0184820Y0191413D01*
X0184950Y0191468D01*
X0185081Y0191520D01*
X0185214Y0191567D01*
X0185348Y0191611D01*
X0185483Y0191652D01*
X0185619Y0191688D01*
X0185756Y0191720D01*
X0185894Y0191749D01*
X0186032Y0191774D01*
X0186172Y0191794D01*
X0186312Y0191811D01*
X0186452Y0191824D01*
X0186593Y0191833D01*
X0186733Y0191838D01*
X0186874Y0191839D01*
X0187015Y0191836D01*
X0187156Y0191829D01*
X0187296Y0191818D01*
X0187436Y0191803D01*
X0187576Y0191784D01*
X0187715Y0191762D01*
X0187853Y0191735D01*
X0187991Y0191705D01*
X0188127Y0191670D01*
X0188263Y0191632D01*
X0188397Y0191590D01*
X0188531Y0191544D01*
X0188663Y0191495D01*
X0188793Y0191441D01*
X0188922Y0191384D01*
X0189049Y0191324D01*
X0189175Y0191260D01*
X0189298Y0191192D01*
X0189420Y0191121D01*
X0189540Y0191047D01*
X0189657Y0190969D01*
X0189772Y0190888D01*
X0189885Y0190804D01*
X0189996Y0190717D01*
X0190104Y0190626D01*
X0190209Y0190533D01*
X0190312Y0190436D01*
X0190412Y0190337D01*
X0190509Y0190235D01*
X0190603Y0190130D01*
X0190694Y0190023D01*
X0190782Y0189913D01*
X0190867Y0189801D01*
X0190949Y0189686D01*
X0191028Y0189569D01*
X0191103Y0189450D01*
X0191175Y0189329D01*
X0191243Y0189206D01*
X0191308Y0189081D01*
X0191370Y0188954D01*
X0191427Y0188825D01*
X0191482Y0188695D01*
X0191532Y0188564D01*
X0191579Y0188431D01*
X0191622Y0188297D01*
X0191661Y0188161D01*
X0191696Y0188025D01*
X0191728Y0187888D01*
X0191755Y0187750D01*
X0191779Y0187611D01*
X0191799Y0187471D01*
X0191815Y0187331D01*
X0191827Y0187191D01*
X0191835Y0187050D01*
X0191839Y0186909D01*
X0191839Y0186769D01*
X0191835Y0186628D01*
X0191827Y0186487D01*
X0191815Y0186347D01*
X0191799Y0186207D01*
X0191779Y0186067D01*
X0191755Y0185928D01*
X0191728Y0185790D01*
X0191696Y0185653D01*
X0191661Y0185517D01*
X0191622Y0185381D01*
X0191579Y0185247D01*
X0191532Y0185114D01*
X0191482Y0184983D01*
X0191427Y0184853D01*
X0191370Y0184724D01*
X0191308Y0184597D01*
X0191243Y0184472D01*
X0191175Y0184349D01*
X0191103Y0184228D01*
X0191028Y0184109D01*
X0190949Y0183992D01*
X0190867Y0183877D01*
X0190782Y0183765D01*
X0190694Y0183655D01*
X0190603Y0183548D01*
X0190509Y0183443D01*
X0190412Y0183341D01*
X0190312Y0183242D01*
X0190209Y0183145D01*
X0190104Y0183052D01*
X0189996Y0182961D01*
X0189885Y0182874D01*
X0189772Y0182790D01*
X0189657Y0182709D01*
X0189540Y0182631D01*
X0189420Y0182557D01*
X0189298Y0182486D01*
X0189175Y0182418D01*
X0189049Y0182354D01*
X0188922Y0182294D01*
X0188793Y0182237D01*
X0188663Y0182183D01*
X0188531Y0182134D01*
X0188397Y0182088D01*
X0188263Y0182046D01*
X0188127Y0182008D01*
X0187991Y0181973D01*
X0187853Y0181943D01*
X0187715Y0181916D01*
X0187576Y0181894D01*
X0187436Y0181875D01*
X0187296Y0181860D01*
X0187156Y0181849D01*
X0187015Y0181842D01*
X0186874Y0181839D01*
X0186733Y0181840D01*
X0186593Y0181845D01*
X0186452Y0181854D01*
X0186312Y0181867D01*
X0186172Y0181884D01*
X0186032Y0181904D01*
X0185894Y0181929D01*
X0185756Y0181958D01*
X0185619Y0181990D01*
X0185483Y0182026D01*
X0185348Y0182067D01*
X0185214Y0182111D01*
X0185081Y0182158D01*
X0184950Y0182210D01*
X0184820Y0182265D01*
X0184692Y0182323D01*
X0184566Y0182386D01*
X0184441Y0182451D01*
X0184319Y0182521D01*
X0184198Y0182593D01*
X0184079Y0182669D01*
X0183963Y0182749D01*
X0183849Y0182832D01*
X0183737Y0182917D01*
X0183628Y0183006D01*
X0183521Y0183098D01*
X0183417Y0183193D01*
X0183316Y0183291D01*
X0183217Y0183392D01*
X0183122Y0183495D01*
X0183029Y0183601D01*
X0182939Y0183710D01*
X0182853Y0183821D01*
X0182769Y0183934D01*
X0182689Y0184050D01*
X0182612Y0184168D01*
X0182539Y0184288D01*
X0182468Y0184411D01*
X0182402Y0184535D01*
X0182339Y0184661D01*
X0182279Y0184788D01*
X0182223Y0184917D01*
X0182171Y0185048D01*
X0182122Y0185180D01*
X0182077Y0185314D01*
X0182036Y0185449D01*
X0181999Y0185585D01*
X0181965Y0185721D01*
X0181936Y0185859D01*
X0181910Y0185998D01*
X0181889Y0186137D01*
X0181871Y0186277D01*
X0181857Y0186417D01*
X0181847Y0186557D01*
X0181841Y0186698D01*
X0181839Y0186839D01*
X0179210Y0185629D02*
X0099600Y0185629D01*
X0099610Y0187227D02*
X0103990Y0187227D01*
X0102295Y0188826D02*
X0101305Y0188826D01*
X0101029Y0184030D02*
X0179738Y0184030D01*
X0180450Y0182432D02*
X0102628Y0182432D01*
X0104227Y0180833D02*
X0182108Y0180833D01*
X0189250Y0179421D02*
X0189250Y0179421D01*
X0195850Y0174439D02*
X0112000Y0174439D01*
X0112231Y0172841D02*
X0195850Y0172841D01*
X0195850Y0171242D02*
X0111827Y0171242D01*
X0110557Y0169644D02*
X0195850Y0169644D01*
X0182939Y0193594D02*
X0182939Y0193594D01*
X0157708Y0145666D02*
X0154626Y0145666D01*
X0155714Y0144068D02*
X0152520Y0144068D01*
X0158237Y0140737D02*
X0159300Y0141800D01*
X0158237Y0140737D02*
X0125520Y0140737D01*
X0123048Y0145666D02*
X0117993Y0145666D01*
X0119968Y0144068D02*
X0121073Y0144068D01*
X0115520Y0140737D02*
X0109083Y0134300D01*
X0079300Y0134300D01*
X0076800Y0136800D01*
X0075550Y0136800D01*
X0078991Y0139272D02*
X0110096Y0139272D01*
X0108497Y0137673D02*
X0079886Y0137673D01*
X0109300Y0111800D02*
X0129300Y0111800D01*
X0131800Y0114300D01*
X0131800Y0124457D01*
X0125520Y0130737D01*
X0125336Y0120090D02*
X0125705Y0120090D01*
X0125705Y0118491D02*
X0125336Y0118491D01*
X0125336Y0116893D02*
X0125705Y0116893D01*
X0128835Y0115294D02*
X0116753Y0115294D01*
X0114288Y0115294D02*
X0111719Y0115294D01*
X0119454Y0116893D02*
X0121869Y0116893D01*
X0120716Y0118491D02*
X0120543Y0118491D01*
X0113990Y0187227D02*
X0109610Y0187227D01*
X0111305Y0188826D02*
X0112295Y0188826D01*
X0123884Y0020366D02*
X0123884Y0020366D01*
X0122793Y0019384D02*
X0116379Y0019384D01*
X0117168Y0017785D02*
X0121291Y0017785D01*
X0120579Y0016187D02*
X0117231Y0016187D01*
X0116659Y0014588D02*
X0120155Y0014588D01*
X0120155Y0012990D02*
X0114777Y0012990D01*
D11*
X0115520Y0120737D03*
X0115520Y0130737D03*
X0115520Y0140737D03*
X0125520Y0140737D03*
X0125520Y0130737D03*
X0125520Y0120737D03*
D12*
X0126800Y0191800D03*
X0116800Y0191800D03*
X0106800Y0191800D03*
X0096800Y0191800D03*
X0086800Y0191800D03*
X0076800Y0191800D03*
X0056800Y0191800D03*
X0046800Y0191800D03*
D13*
X0071800Y0126800D03*
D14*
X0071800Y0116800D03*
X0061800Y0116800D03*
X0061800Y0126800D03*
X0051800Y0126800D03*
X0051800Y0116800D03*
X0041800Y0116800D03*
X0041800Y0126800D03*
X0031800Y0126800D03*
X0031800Y0116800D03*
D15*
X0151622Y0116800D02*
X0151624Y0116884D01*
X0151630Y0116967D01*
X0151640Y0117050D01*
X0151654Y0117133D01*
X0151671Y0117215D01*
X0151693Y0117296D01*
X0151718Y0117375D01*
X0151747Y0117454D01*
X0151780Y0117531D01*
X0151816Y0117606D01*
X0151856Y0117680D01*
X0151899Y0117752D01*
X0151946Y0117821D01*
X0151996Y0117888D01*
X0152049Y0117953D01*
X0152105Y0118015D01*
X0152163Y0118075D01*
X0152225Y0118132D01*
X0152289Y0118185D01*
X0152356Y0118236D01*
X0152425Y0118283D01*
X0152496Y0118328D01*
X0152569Y0118368D01*
X0152644Y0118405D01*
X0152721Y0118439D01*
X0152799Y0118469D01*
X0152878Y0118495D01*
X0152959Y0118518D01*
X0153041Y0118536D01*
X0153123Y0118551D01*
X0153206Y0118562D01*
X0153289Y0118569D01*
X0153373Y0118572D01*
X0153457Y0118571D01*
X0153540Y0118566D01*
X0153624Y0118557D01*
X0153706Y0118544D01*
X0153788Y0118528D01*
X0153869Y0118507D01*
X0153950Y0118483D01*
X0154028Y0118455D01*
X0154106Y0118423D01*
X0154182Y0118387D01*
X0154256Y0118348D01*
X0154328Y0118306D01*
X0154398Y0118260D01*
X0154466Y0118211D01*
X0154531Y0118159D01*
X0154594Y0118104D01*
X0154654Y0118046D01*
X0154712Y0117985D01*
X0154766Y0117921D01*
X0154818Y0117855D01*
X0154866Y0117787D01*
X0154911Y0117716D01*
X0154952Y0117643D01*
X0154991Y0117569D01*
X0155025Y0117493D01*
X0155056Y0117415D01*
X0155083Y0117336D01*
X0155107Y0117255D01*
X0155126Y0117174D01*
X0155142Y0117092D01*
X0155154Y0117009D01*
X0155162Y0116925D01*
X0155166Y0116842D01*
X0155166Y0116758D01*
X0155162Y0116675D01*
X0155154Y0116591D01*
X0155142Y0116508D01*
X0155126Y0116426D01*
X0155107Y0116345D01*
X0155083Y0116264D01*
X0155056Y0116185D01*
X0155025Y0116107D01*
X0154991Y0116031D01*
X0154952Y0115957D01*
X0154911Y0115884D01*
X0154866Y0115813D01*
X0154818Y0115745D01*
X0154766Y0115679D01*
X0154712Y0115615D01*
X0154654Y0115554D01*
X0154594Y0115496D01*
X0154531Y0115441D01*
X0154466Y0115389D01*
X0154398Y0115340D01*
X0154328Y0115294D01*
X0154256Y0115252D01*
X0154182Y0115213D01*
X0154106Y0115177D01*
X0154028Y0115145D01*
X0153950Y0115117D01*
X0153869Y0115093D01*
X0153788Y0115072D01*
X0153706Y0115056D01*
X0153624Y0115043D01*
X0153540Y0115034D01*
X0153457Y0115029D01*
X0153373Y0115028D01*
X0153289Y0115031D01*
X0153206Y0115038D01*
X0153123Y0115049D01*
X0153041Y0115064D01*
X0152959Y0115082D01*
X0152878Y0115105D01*
X0152799Y0115131D01*
X0152721Y0115161D01*
X0152644Y0115195D01*
X0152569Y0115232D01*
X0152496Y0115272D01*
X0152425Y0115317D01*
X0152356Y0115364D01*
X0152289Y0115415D01*
X0152225Y0115468D01*
X0152163Y0115525D01*
X0152105Y0115585D01*
X0152049Y0115647D01*
X0151996Y0115712D01*
X0151946Y0115779D01*
X0151899Y0115848D01*
X0151856Y0115920D01*
X0151816Y0115994D01*
X0151780Y0116069D01*
X0151747Y0116146D01*
X0151718Y0116225D01*
X0151693Y0116304D01*
X0151671Y0116385D01*
X0151654Y0116467D01*
X0151640Y0116550D01*
X0151630Y0116633D01*
X0151624Y0116716D01*
X0151622Y0116800D01*
X0163434Y0116800D02*
X0163436Y0116884D01*
X0163442Y0116967D01*
X0163452Y0117050D01*
X0163466Y0117133D01*
X0163483Y0117215D01*
X0163505Y0117296D01*
X0163530Y0117375D01*
X0163559Y0117454D01*
X0163592Y0117531D01*
X0163628Y0117606D01*
X0163668Y0117680D01*
X0163711Y0117752D01*
X0163758Y0117821D01*
X0163808Y0117888D01*
X0163861Y0117953D01*
X0163917Y0118015D01*
X0163975Y0118075D01*
X0164037Y0118132D01*
X0164101Y0118185D01*
X0164168Y0118236D01*
X0164237Y0118283D01*
X0164308Y0118328D01*
X0164381Y0118368D01*
X0164456Y0118405D01*
X0164533Y0118439D01*
X0164611Y0118469D01*
X0164690Y0118495D01*
X0164771Y0118518D01*
X0164853Y0118536D01*
X0164935Y0118551D01*
X0165018Y0118562D01*
X0165101Y0118569D01*
X0165185Y0118572D01*
X0165269Y0118571D01*
X0165352Y0118566D01*
X0165436Y0118557D01*
X0165518Y0118544D01*
X0165600Y0118528D01*
X0165681Y0118507D01*
X0165762Y0118483D01*
X0165840Y0118455D01*
X0165918Y0118423D01*
X0165994Y0118387D01*
X0166068Y0118348D01*
X0166140Y0118306D01*
X0166210Y0118260D01*
X0166278Y0118211D01*
X0166343Y0118159D01*
X0166406Y0118104D01*
X0166466Y0118046D01*
X0166524Y0117985D01*
X0166578Y0117921D01*
X0166630Y0117855D01*
X0166678Y0117787D01*
X0166723Y0117716D01*
X0166764Y0117643D01*
X0166803Y0117569D01*
X0166837Y0117493D01*
X0166868Y0117415D01*
X0166895Y0117336D01*
X0166919Y0117255D01*
X0166938Y0117174D01*
X0166954Y0117092D01*
X0166966Y0117009D01*
X0166974Y0116925D01*
X0166978Y0116842D01*
X0166978Y0116758D01*
X0166974Y0116675D01*
X0166966Y0116591D01*
X0166954Y0116508D01*
X0166938Y0116426D01*
X0166919Y0116345D01*
X0166895Y0116264D01*
X0166868Y0116185D01*
X0166837Y0116107D01*
X0166803Y0116031D01*
X0166764Y0115957D01*
X0166723Y0115884D01*
X0166678Y0115813D01*
X0166630Y0115745D01*
X0166578Y0115679D01*
X0166524Y0115615D01*
X0166466Y0115554D01*
X0166406Y0115496D01*
X0166343Y0115441D01*
X0166278Y0115389D01*
X0166210Y0115340D01*
X0166140Y0115294D01*
X0166068Y0115252D01*
X0165994Y0115213D01*
X0165918Y0115177D01*
X0165840Y0115145D01*
X0165762Y0115117D01*
X0165681Y0115093D01*
X0165600Y0115072D01*
X0165518Y0115056D01*
X0165436Y0115043D01*
X0165352Y0115034D01*
X0165269Y0115029D01*
X0165185Y0115028D01*
X0165101Y0115031D01*
X0165018Y0115038D01*
X0164935Y0115049D01*
X0164853Y0115064D01*
X0164771Y0115082D01*
X0164690Y0115105D01*
X0164611Y0115131D01*
X0164533Y0115161D01*
X0164456Y0115195D01*
X0164381Y0115232D01*
X0164308Y0115272D01*
X0164237Y0115317D01*
X0164168Y0115364D01*
X0164101Y0115415D01*
X0164037Y0115468D01*
X0163975Y0115525D01*
X0163917Y0115585D01*
X0163861Y0115647D01*
X0163808Y0115712D01*
X0163758Y0115779D01*
X0163711Y0115848D01*
X0163668Y0115920D01*
X0163628Y0115994D01*
X0163592Y0116069D01*
X0163559Y0116146D01*
X0163530Y0116225D01*
X0163505Y0116304D01*
X0163483Y0116385D01*
X0163466Y0116467D01*
X0163452Y0116550D01*
X0163442Y0116633D01*
X0163436Y0116716D01*
X0163434Y0116800D01*
D16*
X0178050Y0126800D03*
X0159300Y0141800D03*
X0146800Y0154300D03*
X0153050Y0156800D03*
X0160550Y0155550D03*
X0141800Y0164300D03*
X0135550Y0146800D03*
X0118050Y0169300D03*
X0108050Y0173050D03*
X0109300Y0159300D03*
X0106800Y0141800D03*
X0109300Y0111800D03*
X0113050Y0104300D03*
X0128050Y0098050D03*
X0075550Y0136800D03*
X0055550Y0149300D03*
X0071800Y0160550D03*
X0083050Y0174300D03*
X0088050Y0181800D03*
X0056800Y0169300D03*
X0046800Y0180550D03*
X0020550Y0180550D03*
X0020550Y0153050D03*
X0035550Y0153050D03*
X0146800Y0186800D03*
X0161800Y0191800D03*
X0165550Y0184300D03*
X0184300Y0155550D03*
X0121800Y0026800D03*
X0113050Y0016800D03*
X0076800Y0011800D03*
M02*
