%
M48
METRIC,000.000
T01C0.35
T02C0.60
T03C0.81
T04C0.89
T05C1.00
T10C0.50
%
T01
X026222Y034477
X027492Y038287
X029397Y042097
X032698Y045526
X037017Y044002
X038287Y042097
X040192Y045907
X044637Y046796
X046796Y046923
X038922Y038287
X042478Y036763
X044637Y036763
X033842Y038922
X023682Y042732
X022412Y042097
X019237Y040827
X019237Y044002
X017332Y044002
X015427Y041462
X014157Y043367
X014157Y038922
X010601Y040446
X022158Y037017
X063777Y018522
X062507Y014712
X060602Y010902
X057300Y007473
X052982Y008997
X051712Y010902
X049807Y007092
X045362Y006203
X043203Y006076
X051077Y014712
X047521Y016236
X045362Y016236
X056157Y014077
X066317Y010267
X067587Y010902
X070762Y012172
X070762Y008997
X072667Y008997
X074572Y011537
X075842Y009632
X075842Y014077
X079398Y012553
X067841Y015982
T02
X020507Y003997
X029714Y005267
X031937Y007807
X033524Y025904
X029714Y027492
X025904Y043049
X023364Y047177
X015427Y044002
X069492Y049002
X060285Y047732
X058062Y045192
X056475Y027095
X060285Y025507
X064095Y009950
X066635Y005822
X074572Y008997
T03
X039981Y030438
X043029Y030438
X050018Y022561
X046970Y022561
T04
X032903Y031696
X032903Y034236
X032903Y036776
X030363Y036776
X030363Y034236
X030363Y031696
X029402Y049853
X026862Y049853
X024322Y049853
X021782Y049853
X015440Y049860
X012900Y049860
X031942Y049853
X034482Y049853
X039554Y049842
X042094Y049842
X044634Y049842
X057096Y021303
X057096Y018763
X057096Y016222
X059636Y016222
X059636Y018763
X059636Y021303
X060597Y003146
X063137Y003146
X065677Y003146
X068217Y003146
X074559Y003139
X077099Y003139
X058057Y003146
X055517Y003146
X050445Y003157
X047905Y003157
X045365Y003157
T05
X019211Y032648
X019211Y030108
X016671Y030108
X016671Y032648
X014131Y032648
X014131Y030108
X011591Y030108
X011591Y032648
X009051Y032648
X009051Y030108
X070788Y020351
X070788Y022891
X073328Y022891
X073328Y020351
X075868Y020351
X075868Y022891
X078408Y022891
X078408Y020351
X080948Y020351
X080948Y022891
T10
X051707Y040352
X051707Y041352
X051707Y042352
X051707Y043352
X051707Y044352
X051707Y045352
X054292Y045574
X054292Y044574
X054292Y043574
X054292Y042574
X054292Y041574
X054292Y040574
X035707Y006493
X035707Y007493
X035707Y008493
X035707Y009493
X035707Y010493
X035707Y011493
X038292Y010715
X038292Y009715
X038292Y008715
X038292Y007715
X038292Y006715
M30