%MOIN*%
%OFA0B0*%
%FSLAX25Y25*%
%IPPOS*%
%LPD*%
%AMOC8*
5,1,8,0,0,$1,22.5*%
%AMOC80*
5,1,8,0,0,$1,-157.5*%
%AMREC10*
4,1,3,
0.029684999999999996,0.029685000000000007,
-0.029685000000000007,0.029684999999999996,
-0.029684999999999996,-0.029685000000000007,
0.029685000000000007,-0.029684999999999996,
0*%
%AMREC20*
4,1,3,
0.0325,0.032500000000000008,
-0.032500000000000008,0.0325,
-0.0325,-0.032500000000000008,
0.032500000000000008,-0.0325,
0*%
%ADD10R,0.05937X0.05937*%
%ADD11C,0.05937*%
%ADD12R,0.065X0.065*%
%ADD13C,0.065*%
%ADD14C,0.03562*%
%ADD15C,0.016*%
%ADD16C,0.02578*%
%AMCOMP37*
4,1,3,
0.029684999999999996,0.029685000000000007,
-0.029685000000000007,0.029684999999999996,
-0.029684999999999996,-0.029685000000000007,
0.029685000000000007,-0.029684999999999996,
0*%
%ADD27COMP37*%
%ADD28C,0.05937*%
%AMCOMP38*
4,1,3,
0.0325,0.032500000000000008,
-0.032500000000000008,0.0325,
-0.0325,-0.032500000000000008,
0.032500000000000008,-0.0325,
0*%
%ADD29COMP38*%
%ADD30C,0.065*%
%ADD31C,0.03562*%
%ADD32C,0.016*%
%ADD33C,0.02578*%
G75*
%LPD*%
D10*
X0003937Y0003937D02*
X0075637Y0128536D03*
D11*
X0075637Y0118537D03*
X0065637Y0118537D03*
X0065637Y0128536D03*
X0055637Y0128536D03*
X0055637Y0118537D03*
X0045637Y0118537D03*
X0045637Y0128536D03*
X0035637Y0128536D03*
X0035637Y0118537D03*
D12*
X0050791Y0196302D03*
X0085758Y0196274D03*
X0119540Y0144791D03*
X0155727Y0196229D03*
D13*
X0165727Y0196229D03*
X0175727Y0196229D03*
X0135758Y0196274D03*
X0125757Y0196274D03*
X0115758Y0196274D03*
X0105758Y0196274D03*
X0095758Y0196274D03*
X0060790Y0196302D03*
X0119540Y0134791D03*
X0129540Y0134791D03*
X0129540Y0144791D03*
X0129540Y0124791D03*
X0119540Y0124791D03*
D14*
X0116987Y0108237D03*
X0131987Y0101987D03*
X0101987Y0169487D03*
X0091987Y0185737D03*
X0060737Y0173237D03*
X0125737Y0030736D03*
X0116987Y0020737D03*
X0080737Y0015737D03*
D15*
X0055781Y0009674D02*
X0055803Y0009452D01*
X0055972Y0009042D01*
X0056286Y0008729D01*
X0056696Y0008559D01*
X0056918Y0008537D01*
X0135658Y0008537D01*
X0135880Y0008559D01*
X0136290Y0008729D01*
X0136604Y0009042D01*
X0136773Y0009452D01*
X0136795Y0009674D01*
X0136795Y0011668D01*
X0134132Y0010130D01*
X0134132Y0010130D01*
X0130905Y0009791D01*
X0130905Y0009791D01*
X0127821Y0010792D01*
X0127821Y0010792D01*
X0125411Y0012963D01*
X0125411Y0012963D01*
X0124092Y0015926D01*
X0124092Y0019170D01*
X0125411Y0022133D01*
X0125411Y0022133D01*
X0127821Y0024302D01*
X0127821Y0024302D01*
X0130905Y0025305D01*
X0130905Y0025305D01*
X0134132Y0024966D01*
X0134132Y0024966D01*
X0136795Y0023428D01*
X0136795Y0109439D01*
X0137821Y0111915D01*
X0137821Y0111915D01*
X0139716Y0113811D01*
X0139716Y0113811D01*
X0142192Y0114836D01*
X0198650Y0114836D01*
X0198871Y0114858D01*
X0199282Y0115028D01*
X0199596Y0115341D01*
X0199766Y0115751D01*
X0199787Y0115973D01*
X0199787Y0198650D01*
X0199766Y0198871D01*
X0199596Y0199282D01*
X0199282Y0199596D01*
X0198871Y0199766D01*
X0198650Y0199787D01*
X0179593Y0199787D01*
X0180177Y0199203D01*
X0180977Y0197273D01*
X0180977Y0195185D01*
X0180177Y0193255D01*
X0178701Y0191777D01*
X0176770Y0190979D01*
X0174682Y0190979D01*
X0172753Y0191777D01*
X0171276Y0193255D01*
X0170727Y0194580D01*
X0170177Y0193255D01*
X0168701Y0191777D01*
X0168527Y0191706D01*
X0168527Y0178818D01*
X0168537Y0178794D01*
X0168537Y0177680D01*
X0168111Y0176651D01*
X0167323Y0175863D01*
X0162323Y0170863D01*
X0161294Y0170437D01*
X0147572Y0170437D01*
X0146390Y0169948D01*
X0145083Y0169948D01*
X0143874Y0170449D01*
X0142949Y0171374D01*
X0142448Y0172583D01*
X0142448Y0173891D01*
X0142949Y0175100D01*
X0143874Y0176025D01*
X0145083Y0176526D01*
X0146390Y0176526D01*
X0147572Y0176037D01*
X0159577Y0176037D01*
X0162927Y0179387D01*
X0162927Y0191706D01*
X0162753Y0191777D01*
X0161276Y0193255D01*
X0160777Y0194461D01*
X0160777Y0192742D01*
X0160654Y0192284D01*
X0160417Y0191874D01*
X0160082Y0191538D01*
X0159672Y0191302D01*
X0159214Y0191179D01*
X0155802Y0191179D01*
X0155802Y0196154D01*
X0155652Y0196154D01*
X0155652Y0191179D01*
X0152240Y0191179D01*
X0151782Y0191302D01*
X0151372Y0191538D01*
X0151036Y0191874D01*
X0150799Y0192284D01*
X0150677Y0192742D01*
X0150677Y0196154D01*
X0155652Y0196154D01*
X0155652Y0196304D01*
X0150677Y0196304D01*
X0150677Y0199716D01*
X0150696Y0199787D01*
X0139670Y0199787D01*
X0140209Y0199249D01*
X0141008Y0197319D01*
X0141008Y0195229D01*
X0140209Y0193301D01*
X0138732Y0191824D01*
X0136803Y0191025D01*
X0134713Y0191025D01*
X0132784Y0191824D01*
X0131308Y0193301D01*
X0130758Y0194627D01*
X0130209Y0193301D01*
X0128732Y0191824D01*
X0126802Y0191025D01*
X0124713Y0191025D01*
X0122784Y0191824D01*
X0121308Y0193301D01*
X0120758Y0194627D01*
X0120209Y0193301D01*
X0118732Y0191824D01*
X0116802Y0191025D01*
X0114714Y0191025D01*
X0112784Y0191824D01*
X0111308Y0193301D01*
X0110758Y0194627D01*
X0110209Y0193301D01*
X0108732Y0191824D01*
X0106803Y0191025D01*
X0104787Y0191025D01*
X0104787Y0172034D01*
X0105192Y0171629D01*
X0105768Y0170238D01*
X0105768Y0168735D01*
X0105192Y0167345D01*
X0104129Y0166282D01*
X0102739Y0165706D01*
X0101235Y0165706D01*
X0099845Y0166282D01*
X0098782Y0167345D01*
X0098206Y0168735D01*
X0098206Y0170238D01*
X0098782Y0171629D01*
X0099187Y0172034D01*
X0099187Y0192562D01*
X0099048Y0192423D01*
X0098405Y0191956D01*
X0097697Y0191595D01*
X0096941Y0191349D01*
X0096156Y0191225D01*
X0095833Y0191225D01*
X0095833Y0196200D01*
X0095683Y0196200D01*
X0090707Y0196200D01*
X0085833Y0196200D01*
X0085833Y0191225D01*
X0089245Y0191225D01*
X0089703Y0191347D01*
X0090113Y0191584D01*
X0090449Y0191920D01*
X0090686Y0192330D01*
X0090808Y0192788D01*
X0090808Y0195246D01*
X0090833Y0195092D01*
X0091078Y0194336D01*
X0091439Y0193628D01*
X0091906Y0192985D01*
X0092468Y0192423D01*
X0093111Y0191956D01*
X0093820Y0191595D01*
X0094576Y0191349D01*
X0095360Y0191225D01*
X0095683Y0191225D01*
X0095683Y0196200D01*
X0095683Y0196350D01*
X0085833Y0196350D01*
X0085833Y0196200D01*
X0085683Y0196200D01*
X0080707Y0196200D01*
X0080707Y0192788D01*
X0080830Y0192330D01*
X0081068Y0191920D01*
X0081403Y0191584D01*
X0081813Y0191347D01*
X0082271Y0191225D01*
X0085683Y0191225D01*
X0085683Y0196200D01*
X0085683Y0196350D01*
X0080707Y0196350D01*
X0080707Y0199762D01*
X0080715Y0199787D01*
X0064446Y0199787D01*
X0064642Y0199591D01*
X0065110Y0198948D01*
X0065471Y0198240D01*
X0065716Y0197483D01*
X0065841Y0196699D01*
X0065841Y0196377D01*
X0060866Y0196377D01*
X0060866Y0196227D01*
X0065841Y0196227D01*
X0065841Y0195904D01*
X0065716Y0195119D01*
X0065471Y0194363D01*
X0065110Y0193655D01*
X0064642Y0193012D01*
X0064079Y0192450D01*
X0063437Y0191982D01*
X0062729Y0191622D01*
X0061973Y0191376D01*
X0061188Y0191252D01*
X0060866Y0191252D01*
X0060866Y0196226D01*
X0060716Y0196226D01*
X0060716Y0191252D01*
X0060393Y0191252D01*
X0059608Y0191376D01*
X0058852Y0191622D01*
X0058143Y0191982D01*
X0057501Y0192450D01*
X0056938Y0193012D01*
X0056471Y0193655D01*
X0056111Y0194363D01*
X0056041Y0194578D01*
X0056041Y0192223D01*
X0054869Y0191052D01*
X0046712Y0191052D01*
X0045541Y0192223D01*
X0045541Y0199787D01*
X0009674Y0199787D01*
X0009452Y0199766D01*
X0009042Y0199596D01*
X0008729Y0199282D01*
X0008559Y0198871D01*
X0008537Y0198650D01*
X0008537Y0115973D01*
X0008559Y0115751D01*
X0008729Y0115341D01*
X0009042Y0115028D01*
X0009452Y0114858D01*
X0009674Y0114836D01*
X0032618Y0114836D01*
X0032531Y0114900D01*
X0032000Y0115431D01*
X0031559Y0116038D01*
X0031218Y0116707D01*
X0030986Y0117419D01*
X0030868Y0118161D01*
X0030868Y0118353D01*
X0035453Y0118353D01*
X0035453Y0118721D01*
X0030868Y0118721D01*
X0030868Y0118912D01*
X0030986Y0119654D01*
X0031218Y0120367D01*
X0031559Y0121036D01*
X0032000Y0121642D01*
X0032531Y0122174D01*
X0033138Y0122615D01*
X0033807Y0122956D01*
X0034520Y0123188D01*
X0035262Y0123305D01*
X0035453Y0123305D01*
X0035453Y0118721D01*
X0035821Y0118721D01*
X0035821Y0123305D01*
X0036012Y0123305D01*
X0036754Y0123188D01*
X0037467Y0122956D01*
X0038136Y0122615D01*
X0038743Y0122174D01*
X0039274Y0121642D01*
X0039715Y0121036D01*
X0040056Y0120367D01*
X0040288Y0119654D01*
X0040405Y0118912D01*
X0040405Y0118721D01*
X0035821Y0118721D01*
X0035821Y0118353D01*
X0040405Y0118353D01*
X0040405Y0118161D01*
X0040288Y0117419D01*
X0040056Y0116707D01*
X0039715Y0116038D01*
X0039274Y0115431D01*
X0038743Y0114900D01*
X0038656Y0114836D01*
X0042618Y0114836D01*
X0042531Y0114900D01*
X0042000Y0115431D01*
X0041558Y0116038D01*
X0041218Y0116707D01*
X0040986Y0117419D01*
X0040868Y0118161D01*
X0040868Y0118353D01*
X0045453Y0118353D01*
X0045453Y0118721D01*
X0040868Y0118721D01*
X0040868Y0118912D01*
X0040986Y0119654D01*
X0041218Y0120367D01*
X0041558Y0121036D01*
X0042000Y0121642D01*
X0042531Y0122174D01*
X0043138Y0122615D01*
X0043807Y0122956D01*
X0044520Y0123188D01*
X0045262Y0123305D01*
X0045453Y0123305D01*
X0045453Y0118721D01*
X0045821Y0118721D01*
X0045821Y0123305D01*
X0046012Y0123305D01*
X0046754Y0123188D01*
X0047467Y0122956D01*
X0048135Y0122615D01*
X0048743Y0122174D01*
X0049274Y0121642D01*
X0049715Y0121036D01*
X0050056Y0120367D01*
X0050288Y0119654D01*
X0050405Y0118912D01*
X0050405Y0118721D01*
X0045821Y0118721D01*
X0045821Y0118353D01*
X0050405Y0118353D01*
X0050405Y0118161D01*
X0050288Y0117419D01*
X0050056Y0116707D01*
X0049715Y0116038D01*
X0049274Y0115431D01*
X0048743Y0114900D01*
X0048656Y0114836D01*
X0050383Y0114836D01*
X0052859Y0113811D01*
X0052859Y0113811D01*
X0054755Y0111915D01*
X0054755Y0111915D01*
X0055781Y0109439D01*
X0055781Y0023246D01*
X0056955Y0024302D01*
X0056955Y0024302D01*
X0060040Y0025305D01*
X0060040Y0025305D01*
X0063265Y0024966D01*
X0063265Y0024966D01*
X0066074Y0023345D01*
X0066074Y0023345D01*
X0066074Y0023345D01*
X0067981Y0020721D01*
X0067981Y0020721D01*
X0068655Y0017548D01*
X0068655Y0017548D01*
X0067981Y0014374D01*
X0066074Y0011752D01*
X0066074Y0011751D01*
X0063265Y0010130D01*
X0060040Y0009791D01*
X0060040Y0009791D01*
X0056955Y0010792D01*
X0056955Y0010792D01*
X0055781Y0011850D01*
X0055781Y0009674D01*
X0056081Y0008934D02*
X0136495Y0008934D01*
X0136795Y0010532D02*
X0134828Y0010532D01*
X0128622Y0010532D02*
X0063963Y0010532D01*
X0066350Y0012131D02*
X0126335Y0012131D01*
X0125069Y0013730D02*
X0067511Y0013730D01*
X0068183Y0015328D02*
X0124357Y0015328D01*
X0124092Y0016927D02*
X0068523Y0016927D01*
X0068447Y0018524D02*
X0113852Y0018524D01*
X0113782Y0018595D02*
X0114845Y0017532D01*
X0116235Y0016956D01*
X0117739Y0016956D01*
X0119129Y0017532D01*
X0120192Y0018595D01*
X0120768Y0019985D01*
X0120768Y0021489D01*
X0120192Y0022879D01*
X0119787Y0023284D01*
X0119787Y0105690D01*
X0120192Y0106095D01*
X0120768Y0107485D01*
X0120768Y0108989D01*
X0120192Y0110379D01*
X0119129Y0111442D01*
X0117739Y0112018D01*
X0116235Y0112018D01*
X0114845Y0111442D01*
X0113782Y0110379D01*
X0113206Y0108989D01*
X0113206Y0107485D01*
X0113782Y0106095D01*
X0114187Y0105690D01*
X0114187Y0023284D01*
X0113782Y0022879D01*
X0113206Y0021489D01*
X0113206Y0019985D01*
X0113782Y0018595D01*
X0113206Y0020124D02*
X0068108Y0020124D01*
X0067252Y0021722D02*
X0113301Y0021722D01*
X0114187Y0023321D02*
X0066092Y0023321D01*
X0063347Y0024919D02*
X0114187Y0024919D01*
X0114187Y0026518D02*
X0055781Y0026518D01*
X0055781Y0028116D02*
X0114187Y0028116D01*
X0114187Y0029715D02*
X0055781Y0029715D01*
X0055781Y0031313D02*
X0114187Y0031313D01*
X0114187Y0032912D02*
X0055781Y0032912D01*
X0055781Y0034510D02*
X0114187Y0034510D01*
X0114187Y0036109D02*
X0055781Y0036109D01*
X0055781Y0037706D02*
X0114187Y0037706D01*
X0114187Y0039306D02*
X0055781Y0039306D01*
X0055781Y0040904D02*
X0114187Y0040904D01*
X0114187Y0042503D02*
X0055781Y0042503D01*
X0055781Y0044101D02*
X0114187Y0044101D01*
X0114187Y0045700D02*
X0055781Y0045700D01*
X0055781Y0047298D02*
X0114187Y0047298D01*
X0114187Y0048897D02*
X0055781Y0048897D01*
X0055781Y0050495D02*
X0114187Y0050495D01*
X0114187Y0052093D02*
X0055781Y0052093D01*
X0055781Y0053691D02*
X0114187Y0053691D01*
X0114187Y0055291D02*
X0055781Y0055291D01*
X0055781Y0056889D02*
X0114187Y0056889D01*
X0114187Y0058487D02*
X0055781Y0058487D01*
X0055781Y0060085D02*
X0114187Y0060085D01*
X0114187Y0061685D02*
X0055781Y0061685D01*
X0055781Y0063282D02*
X0114187Y0063282D01*
X0114187Y0064881D02*
X0055781Y0064881D01*
X0055781Y0066480D02*
X0114187Y0066480D01*
X0114187Y0068079D02*
X0055781Y0068079D01*
X0055781Y0069677D02*
X0114187Y0069677D01*
X0114187Y0071275D02*
X0055781Y0071275D01*
X0055781Y0072874D02*
X0114187Y0072874D01*
X0114187Y0074473D02*
X0055781Y0074473D01*
X0055781Y0076071D02*
X0114187Y0076071D01*
X0114187Y0077670D02*
X0055781Y0077670D01*
X0055781Y0079269D02*
X0114187Y0079269D01*
X0114187Y0080867D02*
X0055781Y0080867D01*
X0055781Y0082466D02*
X0114187Y0082466D01*
X0114187Y0084064D02*
X0055781Y0084064D01*
X0055781Y0085663D02*
X0114187Y0085663D01*
X0114187Y0087261D02*
X0055781Y0087261D01*
X0055781Y0088860D02*
X0114187Y0088860D01*
X0114187Y0090458D02*
X0055781Y0090458D01*
X0055781Y0092057D02*
X0114187Y0092057D01*
X0114187Y0093654D02*
X0055781Y0093654D01*
X0055781Y0095254D02*
X0114187Y0095254D01*
X0114187Y0096852D02*
X0055781Y0096852D01*
X0055781Y0098451D02*
X0114187Y0098451D01*
X0114187Y0100049D02*
X0055781Y0100049D01*
X0055781Y0101648D02*
X0114187Y0101648D01*
X0114187Y0103246D02*
X0055781Y0103246D01*
X0055781Y0104845D02*
X0114187Y0104845D01*
X0113637Y0106443D02*
X0055781Y0106443D01*
X0055781Y0108042D02*
X0113206Y0108042D01*
X0113476Y0109640D02*
X0055698Y0109640D01*
X0055035Y0111239D02*
X0114641Y0111239D01*
X0116987Y0108237D02*
X0116987Y0020737D01*
X0119787Y0023321D02*
X0126730Y0023321D01*
X0125228Y0021722D02*
X0120672Y0021722D01*
X0120768Y0020124D02*
X0124516Y0020124D01*
X0124092Y0018524D02*
X0120122Y0018524D01*
X0119787Y0024919D02*
X0129717Y0024919D01*
X0134213Y0024919D02*
X0136795Y0024919D01*
X0136795Y0026518D02*
X0119787Y0026518D01*
X0119787Y0028116D02*
X0136795Y0028116D01*
X0136795Y0029715D02*
X0119787Y0029715D01*
X0119787Y0031313D02*
X0136795Y0031313D01*
X0136795Y0032912D02*
X0119787Y0032912D01*
X0119787Y0034510D02*
X0136795Y0034510D01*
X0136795Y0036109D02*
X0119787Y0036109D01*
X0119787Y0037706D02*
X0136795Y0037706D01*
X0136795Y0039306D02*
X0119787Y0039306D01*
X0119787Y0040904D02*
X0136795Y0040904D01*
X0136795Y0042503D02*
X0119787Y0042503D01*
X0119787Y0044101D02*
X0136795Y0044101D01*
X0136795Y0045700D02*
X0119787Y0045700D01*
X0119787Y0047298D02*
X0136795Y0047298D01*
X0136795Y0048897D02*
X0119787Y0048897D01*
X0119787Y0050495D02*
X0136795Y0050495D01*
X0136795Y0052093D02*
X0119787Y0052093D01*
X0119787Y0053691D02*
X0136795Y0053691D01*
X0136795Y0055291D02*
X0119787Y0055291D01*
X0119787Y0056889D02*
X0136795Y0056889D01*
X0136795Y0058487D02*
X0119787Y0058487D01*
X0119787Y0060085D02*
X0136795Y0060085D01*
X0136795Y0061685D02*
X0119787Y0061685D01*
X0119787Y0063282D02*
X0136795Y0063282D01*
X0136795Y0064881D02*
X0119787Y0064881D01*
X0119787Y0066480D02*
X0136795Y0066480D01*
X0136795Y0068079D02*
X0119787Y0068079D01*
X0119787Y0069677D02*
X0136795Y0069677D01*
X0136795Y0071275D02*
X0119787Y0071275D01*
X0119787Y0072874D02*
X0136795Y0072874D01*
X0136795Y0074473D02*
X0119787Y0074473D01*
X0119787Y0076071D02*
X0136795Y0076071D01*
X0136795Y0077670D02*
X0119787Y0077670D01*
X0119787Y0079269D02*
X0136795Y0079269D01*
X0136795Y0080867D02*
X0119787Y0080867D01*
X0119787Y0082466D02*
X0136795Y0082466D01*
X0136795Y0084064D02*
X0119787Y0084064D01*
X0119787Y0085663D02*
X0136795Y0085663D01*
X0136795Y0087261D02*
X0119787Y0087261D01*
X0119787Y0088860D02*
X0136795Y0088860D01*
X0136795Y0090458D02*
X0119787Y0090458D01*
X0119787Y0092057D02*
X0136795Y0092057D01*
X0136795Y0093654D02*
X0119787Y0093654D01*
X0119787Y0095254D02*
X0136795Y0095254D01*
X0136795Y0096852D02*
X0119787Y0096852D01*
X0119787Y0098451D02*
X0136795Y0098451D01*
X0136795Y0100049D02*
X0119787Y0100049D01*
X0119787Y0101648D02*
X0136795Y0101648D01*
X0136795Y0103246D02*
X0119787Y0103246D01*
X0119787Y0104845D02*
X0136795Y0104845D01*
X0136795Y0106443D02*
X0120337Y0106443D01*
X0120768Y0108042D02*
X0136795Y0108042D01*
X0136879Y0109640D02*
X0120498Y0109640D01*
X0119333Y0111239D02*
X0137541Y0111239D01*
X0138743Y0112837D02*
X0053834Y0112837D01*
X0054520Y0113886D02*
X0053807Y0114118D01*
X0053137Y0114459D01*
X0052531Y0114900D01*
X0052000Y0115431D01*
X0051559Y0116038D01*
X0051218Y0116707D01*
X0050986Y0117419D01*
X0050868Y0118161D01*
X0050868Y0118353D01*
X0055453Y0118353D01*
X0055821Y0118353D01*
X0055821Y0113768D01*
X0056011Y0113768D01*
X0056754Y0113886D01*
X0057467Y0114118D01*
X0058136Y0114459D01*
X0058743Y0114900D01*
X0059274Y0115431D01*
X0059714Y0116038D01*
X0060056Y0116707D01*
X0060288Y0117419D01*
X0060405Y0118161D01*
X0060405Y0118353D01*
X0055821Y0118353D01*
X0055821Y0118721D01*
X0060405Y0118721D01*
X0060405Y0118912D01*
X0060288Y0119654D01*
X0060056Y0120367D01*
X0059714Y0121036D01*
X0059274Y0121642D01*
X0058743Y0122174D01*
X0058136Y0122615D01*
X0057467Y0122956D01*
X0056754Y0123188D01*
X0056011Y0123305D01*
X0055821Y0123305D01*
X0055821Y0118721D01*
X0055453Y0118721D01*
X0055453Y0118353D01*
X0055453Y0113768D01*
X0055262Y0113768D01*
X0054520Y0113886D01*
X0055453Y0114436D02*
X0055821Y0114436D01*
X0055821Y0116033D02*
X0055453Y0116033D01*
X0055453Y0117633D02*
X0055821Y0117633D01*
X0055453Y0118721D02*
X0050868Y0118721D01*
X0050868Y0118912D01*
X0050986Y0119654D01*
X0051218Y0120367D01*
X0051559Y0121036D01*
X0052000Y0121642D01*
X0052531Y0122174D01*
X0053137Y0122615D01*
X0053807Y0122956D01*
X0054520Y0123188D01*
X0055262Y0123305D01*
X0055453Y0123305D01*
X0055453Y0118721D01*
X0055453Y0119231D02*
X0055821Y0119231D01*
X0055821Y0120830D02*
X0055453Y0120830D01*
X0055453Y0122428D02*
X0055821Y0122428D01*
X0056625Y0123567D02*
X0054649Y0123567D01*
X0052823Y0124325D01*
X0051425Y0125723D01*
X0050668Y0127548D01*
X0050668Y0129525D01*
X0051425Y0131351D01*
X0052823Y0132749D01*
X0054649Y0133504D01*
X0056625Y0133504D01*
X0058451Y0132749D01*
X0059849Y0131351D01*
X0060605Y0129525D01*
X0060605Y0127548D01*
X0059849Y0125723D01*
X0058451Y0124325D01*
X0056625Y0123567D01*
X0057732Y0124027D02*
X0063542Y0124027D01*
X0062822Y0124325D02*
X0064649Y0123567D01*
X0066625Y0123567D01*
X0068451Y0124325D01*
X0069849Y0125723D01*
X0070605Y0127548D01*
X0070605Y0129525D01*
X0069849Y0131351D01*
X0068451Y0132749D01*
X0066625Y0133504D01*
X0064649Y0133504D01*
X0062822Y0132749D01*
X0061424Y0131351D01*
X0060668Y0129525D01*
X0060668Y0127548D01*
X0061424Y0125723D01*
X0062822Y0124325D01*
X0063807Y0122956D02*
X0063138Y0122615D01*
X0062531Y0122174D01*
X0062000Y0121642D01*
X0061559Y0121036D01*
X0061217Y0120367D01*
X0060985Y0119654D01*
X0060868Y0118912D01*
X0060868Y0118721D01*
X0065452Y0118721D01*
X0065452Y0118353D01*
X0065821Y0118353D01*
X0065821Y0113768D01*
X0066012Y0113768D01*
X0066754Y0113886D01*
X0067467Y0114118D01*
X0068136Y0114459D01*
X0068742Y0114900D01*
X0069274Y0115431D01*
X0069715Y0116038D01*
X0070055Y0116707D01*
X0070288Y0117419D01*
X0070405Y0118161D01*
X0070405Y0118353D01*
X0065821Y0118353D01*
X0065821Y0118721D01*
X0070405Y0118721D01*
X0070405Y0118912D01*
X0070288Y0119654D01*
X0070055Y0120367D01*
X0069715Y0121036D01*
X0069274Y0121642D01*
X0068742Y0122174D01*
X0068136Y0122615D01*
X0067467Y0122956D01*
X0066754Y0123188D01*
X0066012Y0123305D01*
X0065821Y0123305D01*
X0065821Y0118721D01*
X0065452Y0118721D01*
X0065452Y0123305D01*
X0065262Y0123305D01*
X0064520Y0123188D01*
X0063807Y0122956D01*
X0062880Y0122428D02*
X0058394Y0122428D01*
X0059821Y0120830D02*
X0061453Y0120830D01*
X0060919Y0119231D02*
X0060355Y0119231D01*
X0060868Y0118353D02*
X0060868Y0118161D01*
X0060985Y0117419D01*
X0061217Y0116707D01*
X0061559Y0116038D01*
X0062000Y0115431D01*
X0062531Y0114900D01*
X0063138Y0114459D01*
X0063807Y0114118D01*
X0064520Y0113886D01*
X0065262Y0113768D01*
X0065452Y0113768D01*
X0065452Y0118353D01*
X0060868Y0118353D01*
X0060951Y0117633D02*
X0060322Y0117633D01*
X0059713Y0116033D02*
X0061561Y0116033D01*
X0063183Y0114436D02*
X0058091Y0114436D01*
X0053183Y0114436D02*
X0051351Y0114436D01*
X0051561Y0116033D02*
X0049712Y0116033D01*
X0050322Y0117633D02*
X0050952Y0117633D01*
X0050919Y0119231D02*
X0050355Y0119231D01*
X0049820Y0120830D02*
X0051453Y0120830D01*
X0052880Y0122428D02*
X0048393Y0122428D01*
X0047732Y0124027D02*
X0053542Y0124027D01*
X0051522Y0125625D02*
X0049752Y0125625D01*
X0049849Y0125723D02*
X0050605Y0127548D01*
X0050605Y0129525D01*
X0049849Y0131351D01*
X0048450Y0132749D01*
X0046625Y0133504D01*
X0044649Y0133504D01*
X0042823Y0132749D01*
X0041425Y0131351D01*
X0040668Y0129525D01*
X0040668Y0127548D01*
X0041425Y0125723D01*
X0042823Y0124325D01*
X0044649Y0123567D01*
X0046625Y0123567D01*
X0048450Y0124325D01*
X0049849Y0125723D01*
X0050471Y0127224D02*
X0050803Y0127224D01*
X0050668Y0128821D02*
X0050605Y0128821D01*
X0050234Y0130421D02*
X0051039Y0130421D01*
X0052093Y0132019D02*
X0049181Y0132019D01*
X0042093Y0132019D02*
X0039181Y0132019D01*
X0039849Y0131351D02*
X0038451Y0132749D01*
X0036625Y0133504D01*
X0034649Y0133504D01*
X0032823Y0132749D01*
X0031424Y0131351D01*
X0030668Y0129525D01*
X0030668Y0127548D01*
X0031424Y0125723D01*
X0032823Y0124325D01*
X0034649Y0123567D01*
X0036625Y0123567D01*
X0038451Y0124325D01*
X0039849Y0125723D01*
X0040605Y0127548D01*
X0040605Y0129525D01*
X0039849Y0131351D01*
X0040235Y0130421D02*
X0041039Y0130421D01*
X0040668Y0128821D02*
X0040605Y0128821D01*
X0040471Y0127224D02*
X0040803Y0127224D01*
X0041521Y0125625D02*
X0039752Y0125625D01*
X0037731Y0124027D02*
X0043542Y0124027D01*
X0042880Y0122428D02*
X0038394Y0122428D01*
X0039821Y0120830D02*
X0041453Y0120830D01*
X0040919Y0119231D02*
X0040355Y0119231D01*
X0040322Y0117633D02*
X0040952Y0117633D01*
X0041561Y0116033D02*
X0039713Y0116033D01*
X0035821Y0119231D02*
X0035453Y0119231D01*
X0035453Y0120830D02*
X0035821Y0120830D01*
X0035821Y0122428D02*
X0035453Y0122428D01*
X0033542Y0124027D02*
X0025310Y0124027D01*
X0025348Y0123847D02*
X0025348Y0123847D01*
X0024674Y0127019D01*
X0022767Y0129644D01*
X0019958Y0131265D01*
X0016733Y0131604D01*
X0016733Y0131604D01*
X0013647Y0130602D01*
X0011238Y0128431D01*
X0009918Y0125469D01*
X0009918Y0122225D01*
X0011238Y0119263D01*
X0013647Y0117092D01*
X0016733Y0116090D01*
X0019958Y0116429D01*
X0019958Y0116429D01*
X0022767Y0118051D01*
X0024674Y0120675D01*
X0025348Y0123847D01*
X0025046Y0122428D02*
X0032880Y0122428D01*
X0031452Y0120830D02*
X0024707Y0120830D01*
X0024674Y0120675D02*
X0024674Y0120675D01*
X0023625Y0119231D02*
X0030919Y0119231D01*
X0030952Y0117633D02*
X0022043Y0117633D01*
X0022767Y0118051D02*
X0022767Y0118051D01*
X0022767Y0118051D01*
X0016733Y0116090D02*
X0016733Y0116090D01*
X0013647Y0117092D02*
X0013647Y0117092D01*
X0013048Y0117633D02*
X0008537Y0117633D01*
X0008537Y0119231D02*
X0011272Y0119231D01*
X0011238Y0119263D02*
X0011238Y0119263D01*
X0011238Y0119263D01*
X0010540Y0120830D02*
X0008537Y0120830D01*
X0008537Y0122428D02*
X0009918Y0122428D01*
X0009918Y0124027D02*
X0008537Y0124027D01*
X0008537Y0125625D02*
X0009988Y0125625D01*
X0010700Y0127224D02*
X0008537Y0127224D01*
X0008537Y0128821D02*
X0011671Y0128821D01*
X0011238Y0128431D02*
X0011238Y0128431D01*
X0013447Y0130421D02*
X0008537Y0130421D01*
X0008537Y0132019D02*
X0032093Y0132019D01*
X0031039Y0130421D02*
X0021421Y0130421D01*
X0022767Y0129644D02*
X0022767Y0129644D01*
X0022767Y0129644D01*
X0023364Y0128821D02*
X0030668Y0128821D01*
X0030803Y0127224D02*
X0024525Y0127224D01*
X0024674Y0127019D02*
X0024674Y0127019D01*
X0024970Y0125625D02*
X0031522Y0125625D01*
X0031561Y0116033D02*
X0008537Y0116033D01*
X0013647Y0130602D02*
X0013647Y0130602D01*
X0008537Y0133618D02*
X0083896Y0133618D01*
X0084150Y0133363D02*
X0085180Y0132937D01*
X0101401Y0132937D01*
X0102583Y0132448D01*
X0103891Y0132448D01*
X0105100Y0132949D01*
X0106024Y0133874D01*
X0106526Y0135083D01*
X0106526Y0136391D01*
X0106024Y0137600D01*
X0105100Y0138525D01*
X0103891Y0139026D01*
X0102583Y0139026D01*
X0101401Y0138537D01*
X0086897Y0138537D01*
X0083537Y0141897D01*
X0083537Y0157937D01*
X0083794Y0157937D01*
X0084823Y0158363D01*
X0088920Y0162460D01*
X0090100Y0162949D01*
X0091025Y0163874D01*
X0091526Y0165083D01*
X0091526Y0166391D01*
X0091025Y0167600D01*
X0090100Y0168525D01*
X0088891Y0169026D01*
X0087583Y0169026D01*
X0086373Y0168525D01*
X0085449Y0167600D01*
X0084960Y0166419D01*
X0082077Y0163537D01*
X0080179Y0163537D01*
X0079151Y0163111D01*
X0078363Y0162323D01*
X0077936Y0161294D01*
X0077936Y0140180D01*
X0078363Y0139150D01*
X0079151Y0138362D01*
X0084150Y0133363D01*
X0082298Y0135216D02*
X0008537Y0135216D01*
X0008537Y0136815D02*
X0080699Y0136815D01*
X0079101Y0138413D02*
X0008537Y0138413D01*
X0008537Y0140012D02*
X0078007Y0140012D01*
X0077936Y0141610D02*
X0008537Y0141610D01*
X0008537Y0143209D02*
X0077936Y0143209D01*
X0077936Y0144807D02*
X0008537Y0144807D01*
X0008537Y0146406D02*
X0077936Y0146406D01*
X0077936Y0148005D02*
X0008537Y0148005D01*
X0008537Y0149603D02*
X0077936Y0149603D01*
X0077936Y0151202D02*
X0008537Y0151202D01*
X0008537Y0152800D02*
X0077936Y0152800D01*
X0077936Y0154399D02*
X0008537Y0154399D01*
X0008537Y0155997D02*
X0077936Y0155997D01*
X0077936Y0157596D02*
X0008537Y0157596D01*
X0008537Y0159194D02*
X0077936Y0159194D01*
X0077936Y0160793D02*
X0008537Y0160793D01*
X0008537Y0162391D02*
X0078431Y0162391D01*
X0080737Y0160737D02*
X0080737Y0140737D01*
X0085737Y0135736D01*
X0103237Y0135736D01*
X0105769Y0133618D02*
X0114343Y0133618D01*
X0114290Y0133746D02*
X0115089Y0131817D01*
X0116565Y0130339D01*
X0117892Y0129790D01*
X0116565Y0129241D01*
X0115089Y0127764D01*
X0114290Y0125835D01*
X0114290Y0123746D01*
X0115089Y0121817D01*
X0116565Y0120340D01*
X0118496Y0119541D01*
X0120584Y0119541D01*
X0122513Y0120340D01*
X0123991Y0121817D01*
X0124667Y0123448D01*
X0124860Y0122852D01*
X0125221Y0122144D01*
X0125688Y0121500D01*
X0126250Y0120939D01*
X0126892Y0120471D01*
X0127602Y0120110D01*
X0128358Y0119865D01*
X0129142Y0119741D01*
X0129465Y0119741D01*
X0129465Y0124715D01*
X0129614Y0124715D01*
X0129614Y0119741D01*
X0129938Y0119741D01*
X0130722Y0119865D01*
X0131479Y0120110D01*
X0132187Y0120471D01*
X0132830Y0120939D01*
X0133392Y0121500D01*
X0133859Y0122144D01*
X0134219Y0122852D01*
X0134465Y0123608D01*
X0134590Y0124393D01*
X0134590Y0124716D01*
X0129614Y0124716D01*
X0129614Y0124866D01*
X0134590Y0124866D01*
X0134590Y0125188D01*
X0134465Y0125973D01*
X0134219Y0126729D01*
X0133859Y0127437D01*
X0133392Y0128080D01*
X0132830Y0128641D01*
X0132187Y0129110D01*
X0131479Y0129470D01*
X0130883Y0129664D01*
X0132514Y0130339D01*
X0133991Y0131817D01*
X0134790Y0133746D01*
X0134790Y0135835D01*
X0133991Y0137764D01*
X0132514Y0139241D01*
X0131188Y0139790D01*
X0132514Y0140339D01*
X0133991Y0141816D01*
X0134790Y0143746D01*
X0134790Y0145835D01*
X0133991Y0147764D01*
X0132514Y0149241D01*
X0130583Y0150041D01*
X0129500Y0150041D01*
X0129897Y0150437D01*
X0131402Y0150437D01*
X0132583Y0149948D01*
X0133891Y0149948D01*
X0135100Y0150449D01*
X0136025Y0151374D01*
X0136526Y0152583D01*
X0136526Y0153891D01*
X0136037Y0155072D01*
X0136037Y0176294D01*
X0135611Y0177323D01*
X0132322Y0180611D01*
X0131605Y0180908D01*
X0131525Y0181100D01*
X0130599Y0182024D01*
X0129390Y0182526D01*
X0128082Y0182526D01*
X0126874Y0182024D01*
X0125949Y0181100D01*
X0125448Y0179891D01*
X0125448Y0178583D01*
X0125949Y0177374D01*
X0126874Y0176449D01*
X0128053Y0175960D01*
X0128150Y0175863D01*
X0129180Y0175437D01*
X0129576Y0175437D01*
X0130437Y0174577D01*
X0130437Y0156037D01*
X0128179Y0156037D01*
X0127150Y0155611D01*
X0126363Y0154823D01*
X0123151Y0151611D01*
X0122363Y0150823D01*
X0122039Y0150041D01*
X0115462Y0150041D01*
X0114290Y0148869D01*
X0114290Y0148537D01*
X0089072Y0148537D01*
X0087891Y0149025D01*
X0086583Y0149025D01*
X0085374Y0148525D01*
X0084449Y0147599D01*
X0083948Y0146390D01*
X0083948Y0145083D01*
X0084449Y0143874D01*
X0085374Y0142949D01*
X0086583Y0142448D01*
X0087891Y0142448D01*
X0089072Y0142936D01*
X0114290Y0142936D01*
X0114290Y0140711D01*
X0115462Y0139541D01*
X0117289Y0139541D01*
X0116565Y0139241D01*
X0115089Y0137764D01*
X0114290Y0135835D01*
X0114290Y0133746D01*
X0114290Y0135216D02*
X0106526Y0135216D01*
X0106349Y0136815D02*
X0114696Y0136815D01*
X0115738Y0138413D02*
X0105212Y0138413D01*
X0114290Y0141610D02*
X0083823Y0141610D01*
X0083537Y0143209D02*
X0085114Y0143209D01*
X0084062Y0144807D02*
X0083537Y0144807D01*
X0083537Y0146406D02*
X0083953Y0146406D01*
X0083537Y0148005D02*
X0084853Y0148005D01*
X0083537Y0149603D02*
X0115024Y0149603D01*
X0118594Y0145737D02*
X0119540Y0144791D01*
X0118594Y0145737D02*
X0087237Y0145737D01*
X0085422Y0140012D02*
X0114989Y0140012D01*
X0115005Y0132019D02*
X0080605Y0132019D01*
X0080605Y0132334D02*
X0079434Y0133504D01*
X0071840Y0133504D01*
X0070668Y0132334D01*
X0070668Y0124740D01*
X0071840Y0123567D01*
X0079434Y0123567D01*
X0080605Y0124740D01*
X0080605Y0132334D01*
X0080605Y0130421D02*
X0116485Y0130421D01*
X0116147Y0128821D02*
X0080605Y0128821D01*
X0080605Y0127224D02*
X0114866Y0127224D01*
X0114290Y0125625D02*
X0080605Y0125625D01*
X0079892Y0124027D02*
X0114290Y0124027D01*
X0114836Y0122428D02*
X0078394Y0122428D01*
X0078136Y0122615D02*
X0077467Y0122956D01*
X0076754Y0123188D01*
X0076012Y0123305D01*
X0075821Y0123305D01*
X0075821Y0118721D01*
X0080405Y0118721D01*
X0080405Y0118912D01*
X0080288Y0119654D01*
X0080056Y0120367D01*
X0079715Y0121036D01*
X0079274Y0121642D01*
X0078743Y0122174D01*
X0078136Y0122615D01*
X0079821Y0120830D02*
X0116076Y0120830D01*
X0119540Y0124791D02*
X0122987Y0128237D01*
X0123237Y0128237D01*
X0124737Y0129736D01*
X0124737Y0149237D01*
X0128736Y0153236D01*
X0133236Y0153236D01*
X0133236Y0175737D01*
X0130736Y0178237D01*
X0129736Y0178237D01*
X0128736Y0179237D01*
X0126422Y0181572D02*
X0104787Y0181572D01*
X0104787Y0179975D02*
X0125482Y0179975D01*
X0125533Y0178375D02*
X0104787Y0178375D01*
X0104787Y0176778D02*
X0126545Y0176778D01*
X0129834Y0175178D02*
X0104787Y0175178D01*
X0104787Y0173581D02*
X0130437Y0173581D01*
X0130437Y0171981D02*
X0104839Y0171981D01*
X0105708Y0170384D02*
X0130437Y0170384D01*
X0130437Y0168785D02*
X0105768Y0168785D01*
X0105034Y0167187D02*
X0130437Y0167187D01*
X0130437Y0165588D02*
X0091526Y0165588D01*
X0091196Y0167187D02*
X0098940Y0167187D01*
X0098206Y0168785D02*
X0089473Y0168785D01*
X0087001Y0168785D02*
X0008537Y0168785D01*
X0008537Y0167187D02*
X0085277Y0167187D01*
X0084128Y0165588D02*
X0008537Y0165588D01*
X0008537Y0163990D02*
X0082530Y0163990D01*
X0083237Y0160737D02*
X0080737Y0160737D01*
X0083237Y0160737D02*
X0088237Y0165737D01*
X0091073Y0163990D02*
X0130437Y0163990D01*
X0130437Y0162391D02*
X0088851Y0162391D01*
X0087252Y0160793D02*
X0130437Y0160793D01*
X0130437Y0159194D02*
X0085654Y0159194D01*
X0083537Y0157596D02*
X0130437Y0157596D01*
X0128084Y0155997D02*
X0083537Y0155997D01*
X0083537Y0154399D02*
X0125939Y0154399D01*
X0124340Y0152800D02*
X0083537Y0152800D01*
X0083537Y0151202D02*
X0122742Y0151202D01*
X0131641Y0149603D02*
X0199787Y0149603D01*
X0199787Y0148005D02*
X0133751Y0148005D01*
X0134554Y0146406D02*
X0199787Y0146406D01*
X0199787Y0144807D02*
X0134790Y0144807D01*
X0134568Y0143209D02*
X0199787Y0143209D01*
X0199787Y0141610D02*
X0133785Y0141610D01*
X0131722Y0140012D02*
X0199787Y0140012D01*
X0199787Y0138413D02*
X0133342Y0138413D01*
X0134384Y0136815D02*
X0199787Y0136815D01*
X0199787Y0135216D02*
X0134790Y0135216D01*
X0134737Y0133618D02*
X0199787Y0133618D01*
X0199787Y0132019D02*
X0134075Y0132019D01*
X0132595Y0130421D02*
X0186675Y0130421D01*
X0186875Y0130602D02*
X0184466Y0128431D01*
X0183147Y0125469D01*
X0183147Y0122225D01*
X0184466Y0119263D01*
X0184466Y0119263D01*
X0186875Y0117092D01*
X0189961Y0116090D01*
X0189961Y0116090D01*
X0193187Y0116429D01*
X0195995Y0118051D01*
X0197902Y0120675D01*
X0198576Y0123847D01*
X0197902Y0127019D01*
X0195995Y0129644D01*
X0195995Y0129644D01*
X0193187Y0131265D01*
X0193187Y0131265D01*
X0189961Y0131604D01*
X0186875Y0130602D01*
X0186875Y0130602D01*
X0186875Y0130602D01*
X0184900Y0128821D02*
X0132582Y0128821D01*
X0133968Y0127224D02*
X0183928Y0127224D01*
X0183215Y0125625D02*
X0134521Y0125625D01*
X0134532Y0124027D02*
X0183147Y0124027D01*
X0183147Y0122428D02*
X0171905Y0122428D01*
X0171445Y0122888D02*
X0170121Y0123435D01*
X0168689Y0123435D01*
X0167366Y0122888D01*
X0166354Y0121875D01*
X0165806Y0120551D01*
X0165806Y0119120D01*
X0166354Y0117797D01*
X0167366Y0116784D01*
X0168689Y0116236D01*
X0170121Y0116236D01*
X0171445Y0116784D01*
X0172457Y0117797D01*
X0173005Y0119120D01*
X0173005Y0120551D01*
X0172457Y0121875D01*
X0171445Y0122888D01*
X0172891Y0120830D02*
X0183768Y0120830D01*
X0184501Y0119231D02*
X0173005Y0119231D01*
X0172293Y0117633D02*
X0186275Y0117633D01*
X0186875Y0117092D02*
X0186875Y0117092D01*
X0193187Y0116429D02*
X0193187Y0116429D01*
X0195272Y0117633D02*
X0199787Y0117633D01*
X0199787Y0119231D02*
X0196852Y0119231D01*
X0195995Y0118051D02*
X0195995Y0118051D01*
X0195995Y0118051D01*
X0197902Y0120675D02*
X0197902Y0120675D01*
X0197935Y0120830D02*
X0199787Y0120830D01*
X0199787Y0122428D02*
X0198275Y0122428D01*
X0198538Y0124027D02*
X0199787Y0124027D01*
X0199787Y0125625D02*
X0198198Y0125625D01*
X0197902Y0127019D02*
X0197902Y0127019D01*
X0197754Y0127224D02*
X0199787Y0127224D01*
X0199787Y0128821D02*
X0196592Y0128821D01*
X0194649Y0130421D02*
X0199787Y0130421D01*
X0189961Y0131604D02*
X0189961Y0131604D01*
X0199787Y0116033D02*
X0079713Y0116033D01*
X0079715Y0116038D02*
X0080056Y0116707D01*
X0080288Y0117419D01*
X0080405Y0118161D01*
X0080405Y0118353D01*
X0075821Y0118353D01*
X0075821Y0113768D01*
X0076012Y0113768D01*
X0076754Y0113886D01*
X0077467Y0114118D01*
X0078136Y0114459D01*
X0078743Y0114900D01*
X0079274Y0115431D01*
X0079715Y0116038D01*
X0080322Y0117633D02*
X0154518Y0117633D01*
X0154354Y0117797D02*
X0155366Y0116784D01*
X0156689Y0116236D01*
X0158122Y0116236D01*
X0159445Y0116784D01*
X0160457Y0117797D01*
X0161005Y0119120D01*
X0161005Y0120551D01*
X0160457Y0121875D01*
X0159445Y0122888D01*
X0158122Y0123435D01*
X0156689Y0123435D01*
X0155366Y0122888D01*
X0154354Y0121875D01*
X0153806Y0120551D01*
X0153806Y0119120D01*
X0154354Y0117797D01*
X0153806Y0119231D02*
X0080355Y0119231D01*
X0078090Y0114436D02*
X0141225Y0114436D01*
X0132680Y0120830D02*
X0153920Y0120830D01*
X0154906Y0122428D02*
X0134004Y0122428D01*
X0129614Y0122428D02*
X0129465Y0122428D01*
X0129465Y0120830D02*
X0129614Y0120830D01*
X0129614Y0124027D02*
X0129465Y0124027D01*
X0126399Y0120830D02*
X0123004Y0120830D01*
X0124244Y0122428D02*
X0125076Y0122428D01*
X0135853Y0151202D02*
X0199787Y0151202D01*
X0199787Y0152800D02*
X0136526Y0152800D01*
X0136316Y0154399D02*
X0199787Y0154399D01*
X0199787Y0155997D02*
X0136037Y0155997D01*
X0136037Y0157596D02*
X0199787Y0157596D01*
X0199787Y0159194D02*
X0136037Y0159194D01*
X0136037Y0160793D02*
X0199787Y0160793D01*
X0199787Y0162391D02*
X0136037Y0162391D01*
X0136037Y0163990D02*
X0199787Y0163990D01*
X0199787Y0165588D02*
X0136037Y0165588D01*
X0136037Y0167187D02*
X0199787Y0167187D01*
X0199787Y0168785D02*
X0136037Y0168785D01*
X0136037Y0170384D02*
X0144030Y0170384D01*
X0142697Y0171981D02*
X0136037Y0171981D01*
X0136037Y0173581D02*
X0142448Y0173581D01*
X0143027Y0175178D02*
X0136037Y0175178D01*
X0135837Y0176778D02*
X0160318Y0176778D01*
X0161916Y0178375D02*
X0134558Y0178375D01*
X0132959Y0179975D02*
X0162927Y0179975D01*
X0162927Y0181572D02*
X0131051Y0181572D01*
X0134377Y0191164D02*
X0127139Y0191164D01*
X0124377Y0191164D02*
X0117139Y0191164D01*
X0114377Y0191164D02*
X0107139Y0191164D01*
X0104787Y0189566D02*
X0162927Y0189566D01*
X0162927Y0191164D02*
X0137139Y0191164D01*
X0139671Y0192763D02*
X0150677Y0192763D01*
X0150677Y0194361D02*
X0140648Y0194361D01*
X0141008Y0195960D02*
X0150677Y0195960D01*
X0150677Y0197558D02*
X0140908Y0197558D01*
X0140247Y0199157D02*
X0150677Y0199157D01*
X0155652Y0195960D02*
X0155802Y0195960D01*
X0155802Y0194361D02*
X0155652Y0194361D01*
X0155652Y0192763D02*
X0155802Y0192763D01*
X0160777Y0192763D02*
X0161767Y0192763D01*
X0160818Y0194361D02*
X0160777Y0194361D01*
X0165727Y0196229D02*
X0165727Y0178247D01*
X0165737Y0178237D01*
X0160737Y0173237D01*
X0145737Y0173237D01*
X0147442Y0170384D02*
X0199787Y0170384D01*
X0199787Y0171981D02*
X0163441Y0171981D01*
X0165040Y0173581D02*
X0199787Y0173581D01*
X0199787Y0175178D02*
X0166638Y0175178D01*
X0168163Y0176778D02*
X0199787Y0176778D01*
X0199787Y0178375D02*
X0168537Y0178375D01*
X0168527Y0179975D02*
X0199787Y0179975D01*
X0199787Y0181572D02*
X0168527Y0181572D01*
X0168527Y0183172D02*
X0189491Y0183172D01*
X0189961Y0183018D02*
X0189961Y0183018D01*
X0193187Y0183358D01*
X0195995Y0184980D01*
X0197902Y0187604D01*
X0198576Y0190776D01*
X0197902Y0193949D01*
X0195995Y0196573D01*
X0195995Y0196573D01*
X0195995Y0196573D01*
X0193187Y0198195D01*
X0189961Y0198534D01*
X0186875Y0197531D01*
X0184466Y0195361D01*
X0183147Y0192397D01*
X0183147Y0189155D01*
X0184466Y0186192D01*
X0184466Y0186192D01*
X0186875Y0184021D01*
X0186875Y0184021D01*
X0189961Y0183018D01*
X0191414Y0183172D02*
X0199787Y0183172D01*
X0199787Y0184770D02*
X0195632Y0184770D01*
X0195995Y0184980D02*
X0195995Y0184980D01*
X0195995Y0184980D01*
X0197005Y0186369D02*
X0199787Y0186369D01*
X0199787Y0187967D02*
X0197979Y0187967D01*
X0197902Y0187604D02*
X0197902Y0187604D01*
X0198319Y0189566D02*
X0199787Y0189566D01*
X0199787Y0191164D02*
X0198494Y0191164D01*
X0198154Y0192763D02*
X0199787Y0192763D01*
X0199787Y0194361D02*
X0197602Y0194361D01*
X0197902Y0193949D02*
X0197902Y0193949D01*
X0196440Y0195960D02*
X0199787Y0195960D01*
X0199787Y0197558D02*
X0194289Y0197558D01*
X0193187Y0198195D02*
X0193187Y0198195D01*
X0189961Y0198534D02*
X0189961Y0198534D01*
X0186960Y0197558D02*
X0180859Y0197558D01*
X0180977Y0195960D02*
X0185131Y0195960D01*
X0184466Y0195361D02*
X0184466Y0195361D01*
X0184021Y0194361D02*
X0180636Y0194361D01*
X0179685Y0192763D02*
X0183309Y0192763D01*
X0183147Y0191164D02*
X0177218Y0191164D01*
X0174235Y0191164D02*
X0168527Y0191164D01*
X0168527Y0189566D02*
X0183147Y0189566D01*
X0183675Y0187967D02*
X0168527Y0187967D01*
X0168527Y0186369D02*
X0184387Y0186369D01*
X0186045Y0184770D02*
X0168527Y0184770D01*
X0162927Y0184770D02*
X0104787Y0184770D01*
X0104787Y0183172D02*
X0162927Y0183172D01*
X0162927Y0186369D02*
X0104787Y0186369D01*
X0104787Y0187967D02*
X0162927Y0187967D01*
X0169685Y0192763D02*
X0171768Y0192763D01*
X0170818Y0194361D02*
X0170636Y0194361D01*
X0180197Y0199157D02*
X0199648Y0199157D01*
X0186875Y0197531D02*
X0186875Y0197531D01*
X0193187Y0183358D02*
X0193187Y0183358D01*
X0166906Y0122428D02*
X0159905Y0122428D01*
X0160891Y0120830D02*
X0165920Y0120830D01*
X0165806Y0119231D02*
X0161005Y0119231D01*
X0160293Y0117633D02*
X0166518Y0117633D01*
X0131846Y0192763D02*
X0129671Y0192763D01*
X0130648Y0194361D02*
X0130867Y0194361D01*
X0121846Y0192763D02*
X0119671Y0192763D01*
X0120648Y0194361D02*
X0120868Y0194361D01*
X0111846Y0192763D02*
X0109671Y0192763D01*
X0110647Y0194361D02*
X0110868Y0194361D01*
X0105758Y0196274D02*
X0101987Y0192504D01*
X0101987Y0169487D01*
X0098266Y0170384D02*
X0063231Y0170384D01*
X0062878Y0170032D02*
X0063942Y0171095D01*
X0064518Y0172485D01*
X0064518Y0173058D01*
X0066861Y0175401D01*
X0067287Y0176429D01*
X0067287Y0180826D01*
X0069397Y0182937D01*
X0089440Y0182937D01*
X0089845Y0182532D01*
X0091234Y0181956D01*
X0092739Y0181956D01*
X0094129Y0182532D01*
X0095192Y0183595D01*
X0095768Y0184985D01*
X0095768Y0186489D01*
X0095192Y0187878D01*
X0094129Y0188942D01*
X0092739Y0189518D01*
X0091234Y0189518D01*
X0089845Y0188942D01*
X0089440Y0188537D01*
X0067680Y0188537D01*
X0066651Y0188111D01*
X0062112Y0183573D01*
X0061687Y0182544D01*
X0061687Y0178147D01*
X0060558Y0177018D01*
X0059985Y0177018D01*
X0058595Y0176442D01*
X0057532Y0175379D01*
X0056955Y0173989D01*
X0056955Y0172485D01*
X0057532Y0171095D01*
X0058595Y0170032D01*
X0059985Y0169456D01*
X0061489Y0169456D01*
X0062878Y0170032D01*
X0064310Y0171981D02*
X0099134Y0171981D01*
X0099187Y0173581D02*
X0065039Y0173581D01*
X0066639Y0175178D02*
X0099187Y0175178D01*
X0099187Y0176778D02*
X0067287Y0176778D01*
X0067287Y0178375D02*
X0099187Y0178375D01*
X0099187Y0179975D02*
X0067287Y0179975D01*
X0068033Y0181572D02*
X0099187Y0181572D01*
X0099187Y0183172D02*
X0094769Y0183172D01*
X0095679Y0184770D02*
X0099187Y0184770D01*
X0099187Y0186369D02*
X0095768Y0186369D01*
X0095104Y0187967D02*
X0099187Y0187967D01*
X0099187Y0189566D02*
X0040839Y0189566D01*
X0041096Y0190776D02*
X0040422Y0187604D01*
X0040422Y0187604D01*
X0038515Y0184980D01*
X0038515Y0184980D01*
X0035706Y0183358D01*
X0035706Y0183358D01*
X0032481Y0183018D01*
X0032481Y0183018D01*
X0029396Y0184021D01*
X0029396Y0184021D01*
X0026986Y0186192D01*
X0026986Y0186192D01*
X0025667Y0189155D01*
X0025667Y0192397D01*
X0026986Y0195361D01*
X0026986Y0195361D01*
X0029396Y0197531D01*
X0029396Y0197531D01*
X0032481Y0198534D01*
X0032481Y0198534D01*
X0035706Y0198195D01*
X0035706Y0198195D01*
X0038515Y0196573D01*
X0038515Y0196573D01*
X0038515Y0196573D01*
X0040422Y0193949D01*
X0040422Y0193949D01*
X0041096Y0190776D01*
X0041014Y0191164D02*
X0046599Y0191164D01*
X0045541Y0192763D02*
X0040674Y0192763D01*
X0040122Y0194361D02*
X0045541Y0194361D01*
X0045541Y0195960D02*
X0038961Y0195960D01*
X0036808Y0197558D02*
X0045541Y0197558D01*
X0045541Y0199157D02*
X0008677Y0199157D01*
X0008537Y0197558D02*
X0013730Y0197558D01*
X0013647Y0197531D02*
X0013647Y0197531D01*
X0011238Y0195361D01*
X0009918Y0192397D01*
X0009918Y0189155D01*
X0011238Y0186192D01*
X0011238Y0186192D01*
X0013647Y0184021D01*
X0016733Y0183018D01*
X0019958Y0183358D01*
X0019958Y0183358D01*
X0022767Y0184980D01*
X0024674Y0187604D01*
X0025348Y0190776D01*
X0024674Y0193949D01*
X0024674Y0193949D01*
X0022767Y0196573D01*
X0019958Y0198195D01*
X0016733Y0198534D01*
X0016733Y0198534D01*
X0013647Y0197531D01*
X0011903Y0195960D02*
X0008537Y0195960D01*
X0008537Y0194361D02*
X0010792Y0194361D01*
X0011238Y0195361D02*
X0011238Y0195361D01*
X0010081Y0192763D02*
X0008537Y0192763D01*
X0008537Y0191164D02*
X0009918Y0191164D01*
X0009918Y0189566D02*
X0008537Y0189566D01*
X0008537Y0187967D02*
X0010447Y0187967D01*
X0011159Y0186369D02*
X0008537Y0186369D01*
X0008537Y0184770D02*
X0012816Y0184770D01*
X0013647Y0184021D02*
X0013647Y0184021D01*
X0016263Y0183172D02*
X0008537Y0183172D01*
X0008537Y0181572D02*
X0061687Y0181572D01*
X0061687Y0179975D02*
X0008537Y0179975D01*
X0008537Y0178375D02*
X0061687Y0178375D01*
X0059405Y0176778D02*
X0008537Y0176778D01*
X0008537Y0175178D02*
X0057448Y0175178D01*
X0056955Y0173581D02*
X0008537Y0173581D01*
X0008537Y0171981D02*
X0057164Y0171981D01*
X0058243Y0170384D02*
X0008537Y0170384D01*
X0016733Y0183018D02*
X0016733Y0183018D01*
X0018185Y0183172D02*
X0032011Y0183172D01*
X0033933Y0183172D02*
X0061947Y0183172D01*
X0063310Y0184770D02*
X0038152Y0184770D01*
X0038515Y0184980D02*
X0038515Y0184980D01*
X0039524Y0186369D02*
X0064908Y0186369D01*
X0066507Y0187967D02*
X0040498Y0187967D01*
X0028564Y0184770D02*
X0022404Y0184770D01*
X0022767Y0184980D02*
X0022767Y0184980D01*
X0022767Y0184980D01*
X0023776Y0186369D02*
X0026906Y0186369D01*
X0026195Y0187967D02*
X0024751Y0187967D01*
X0024674Y0187604D02*
X0024674Y0187604D01*
X0025091Y0189566D02*
X0025667Y0189566D01*
X0025348Y0190776D02*
X0025348Y0190776D01*
X0025266Y0191164D02*
X0025667Y0191164D01*
X0025829Y0192763D02*
X0024926Y0192763D01*
X0024374Y0194361D02*
X0026540Y0194361D01*
X0027650Y0195960D02*
X0023213Y0195960D01*
X0022767Y0196573D02*
X0022767Y0196573D01*
X0021060Y0197558D02*
X0029479Y0197558D01*
X0019958Y0198195D02*
X0019958Y0198195D01*
X0054982Y0191164D02*
X0099187Y0191164D01*
X0095833Y0192763D02*
X0095683Y0192763D01*
X0095683Y0194361D02*
X0095833Y0194361D01*
X0095833Y0195960D02*
X0095683Y0195960D01*
X0092128Y0192763D02*
X0090802Y0192763D01*
X0090808Y0194361D02*
X0091070Y0194361D01*
X0085833Y0194361D02*
X0085683Y0194361D01*
X0085683Y0192763D02*
X0085833Y0192763D01*
X0085833Y0195960D02*
X0085683Y0195960D01*
X0080707Y0195960D02*
X0065841Y0195960D01*
X0065692Y0197558D02*
X0080707Y0197558D01*
X0080707Y0199157D02*
X0064958Y0199157D01*
X0065469Y0194361D02*
X0080707Y0194361D01*
X0080715Y0192763D02*
X0064393Y0192763D01*
X0060866Y0192763D02*
X0060716Y0192763D01*
X0060716Y0194361D02*
X0060866Y0194361D01*
X0060866Y0195960D02*
X0060716Y0195960D01*
X0057187Y0192763D02*
X0056041Y0192763D01*
X0056041Y0194361D02*
X0056111Y0194361D01*
X0068236Y0185737D02*
X0064487Y0181987D01*
X0064487Y0176987D01*
X0060737Y0173237D01*
X0068236Y0185737D02*
X0091987Y0185737D01*
X0070668Y0132019D02*
X0069181Y0132019D01*
X0070235Y0130421D02*
X0070668Y0130421D01*
X0070668Y0128821D02*
X0070605Y0128821D01*
X0070668Y0127224D02*
X0070471Y0127224D01*
X0070668Y0125625D02*
X0069752Y0125625D01*
X0071382Y0124027D02*
X0067732Y0124027D01*
X0068394Y0122428D02*
X0072879Y0122428D01*
X0073138Y0122615D02*
X0072531Y0122174D01*
X0071999Y0121642D01*
X0071559Y0121036D01*
X0071218Y0120367D01*
X0070986Y0119654D01*
X0070868Y0118912D01*
X0070868Y0118721D01*
X0075453Y0118721D01*
X0075453Y0118353D01*
X0075821Y0118353D01*
X0075821Y0118721D01*
X0075453Y0118721D01*
X0075453Y0123305D01*
X0075262Y0123305D01*
X0074520Y0123188D01*
X0073807Y0122956D01*
X0073138Y0122615D01*
X0075453Y0122428D02*
X0075821Y0122428D01*
X0075821Y0120830D02*
X0075453Y0120830D01*
X0075453Y0119231D02*
X0075821Y0119231D01*
X0075453Y0118353D02*
X0070868Y0118353D01*
X0070868Y0118161D01*
X0070986Y0117419D01*
X0071218Y0116707D01*
X0071559Y0116038D01*
X0071999Y0115431D01*
X0072531Y0114900D01*
X0073138Y0114459D01*
X0073807Y0114118D01*
X0074520Y0113886D01*
X0075262Y0113768D01*
X0075453Y0113768D01*
X0075453Y0118353D01*
X0075453Y0117633D02*
X0075821Y0117633D01*
X0075821Y0116033D02*
X0075453Y0116033D01*
X0075453Y0114436D02*
X0075821Y0114436D01*
X0073183Y0114436D02*
X0068091Y0114436D01*
X0069713Y0116033D02*
X0071561Y0116033D01*
X0070952Y0117633D02*
X0070322Y0117633D01*
X0070355Y0119231D02*
X0070919Y0119231D01*
X0071453Y0120830D02*
X0069821Y0120830D01*
X0065821Y0120830D02*
X0065452Y0120830D01*
X0065452Y0122428D02*
X0065821Y0122428D01*
X0065821Y0119231D02*
X0065452Y0119231D01*
X0065452Y0117633D02*
X0065821Y0117633D01*
X0065821Y0116033D02*
X0065452Y0116033D01*
X0065452Y0114436D02*
X0065821Y0114436D01*
X0061522Y0125625D02*
X0059752Y0125625D01*
X0060471Y0127224D02*
X0060802Y0127224D01*
X0060668Y0128821D02*
X0060605Y0128821D01*
X0060235Y0130421D02*
X0061039Y0130421D01*
X0062093Y0132019D02*
X0059180Y0132019D01*
X0045821Y0122428D02*
X0045453Y0122428D01*
X0045453Y0120830D02*
X0045821Y0120830D01*
X0045821Y0119231D02*
X0045453Y0119231D01*
X0019958Y0131265D02*
X0019958Y0131265D01*
X0055781Y0024919D02*
X0058851Y0024919D01*
X0055864Y0023321D02*
X0055781Y0023321D01*
X0055781Y0010532D02*
X0057757Y0010532D01*
D16*
X0103237Y0135736D03*
X0108237Y0150737D03*
X0115737Y0165737D03*
X0128736Y0179237D03*
X0145737Y0173237D03*
X0150737Y0165737D03*
X0158237Y0180737D03*
X0175737Y0184237D03*
X0184237Y0184737D03*
X0153236Y0150737D03*
X0167236Y0144736D03*
X0175737Y0144736D03*
X0133236Y0153236D03*
X0093237Y0168237D03*
X0088237Y0165737D03*
X0075737Y0160737D03*
X0075737Y0173237D03*
X0068236Y0173237D03*
X0060737Y0163237D03*
X0055737Y0170737D03*
X0055737Y0153236D03*
X0041737Y0159237D03*
X0087237Y0145737D03*
G04 next file*
%LPD*%
G75*
D27*
X0350393Y0204724D02*
X0278693Y0080124D03*
D28*
X0278693Y0090124D03*
X0288692Y0090124D03*
X0288692Y0080124D03*
X0298693Y0080124D03*
X0298693Y0090124D03*
X0308693Y0090124D03*
X0308693Y0080124D03*
X0318693Y0080124D03*
X0318693Y0090124D03*
D29*
X0303539Y0012359D03*
X0268572Y0012386D03*
X0234790Y0063870D03*
X0198603Y0012432D03*
D30*
X0188603Y0012432D03*
X0178603Y0012432D03*
X0218572Y0012386D03*
X0228572Y0012386D03*
X0238572Y0012386D03*
X0248572Y0012386D03*
X0258571Y0012386D03*
X0293539Y0012359D03*
X0234790Y0073870D03*
X0224790Y0073870D03*
X0224790Y0063870D03*
X0224790Y0083870D03*
X0234790Y0083870D03*
D31*
X0237343Y0100424D03*
X0222343Y0106674D03*
X0252342Y0039174D03*
X0262343Y0022924D03*
X0293593Y0035424D03*
X0228593Y0177924D03*
X0237343Y0187924D03*
X0273593Y0192924D03*
D32*
X0298549Y0198986D02*
X0298527Y0199209D01*
X0298357Y0199619D01*
X0298044Y0199932D01*
X0297634Y0200102D01*
X0297412Y0200124D01*
X0218672Y0200124D01*
X0218450Y0200102D01*
X0218040Y0199932D01*
X0217726Y0199619D01*
X0217557Y0199209D01*
X0217535Y0198986D01*
X0217535Y0196993D01*
X0220197Y0198531D01*
X0220197Y0198531D01*
X0223423Y0198869D01*
X0223423Y0198869D01*
X0226508Y0197868D01*
X0226508Y0197868D01*
X0228919Y0195698D01*
X0228919Y0195698D01*
X0230238Y0192735D01*
X0230238Y0189491D01*
X0228919Y0186528D01*
X0228919Y0186528D01*
X0226508Y0184358D01*
X0226508Y0184358D01*
X0223423Y0183356D01*
X0223423Y0183356D01*
X0220197Y0183695D01*
X0220197Y0183695D01*
X0217535Y0185232D01*
X0217535Y0099222D01*
X0216509Y0096746D01*
X0216509Y0096746D01*
X0214614Y0094850D01*
X0214614Y0094850D01*
X0212137Y0093825D01*
X0155680Y0093825D01*
X0155458Y0093803D01*
X0155048Y0093633D01*
X0154733Y0093319D01*
X0154564Y0092910D01*
X0154543Y0092688D01*
X0154543Y0010010D01*
X0154564Y0009789D01*
X0154733Y0009379D01*
X0155048Y0009065D01*
X0155458Y0008895D01*
X0155680Y0008874D01*
X0174737Y0008874D01*
X0174153Y0009458D01*
X0173353Y0011388D01*
X0173353Y0013476D01*
X0174153Y0015406D01*
X0175629Y0016883D01*
X0177558Y0017682D01*
X0179648Y0017682D01*
X0181577Y0016883D01*
X0183054Y0015406D01*
X0183603Y0014080D01*
X0184152Y0015406D01*
X0185629Y0016883D01*
X0185803Y0016955D01*
X0185803Y0029842D01*
X0185793Y0029867D01*
X0185793Y0030980D01*
X0186219Y0032010D01*
X0187007Y0032798D01*
X0192007Y0037798D01*
X0193036Y0038224D01*
X0206758Y0038224D01*
X0207939Y0038713D01*
X0209247Y0038713D01*
X0210456Y0038212D01*
X0211381Y0037287D01*
X0211882Y0036078D01*
X0211882Y0034769D01*
X0211381Y0033561D01*
X0210456Y0032636D01*
X0209247Y0032135D01*
X0207939Y0032135D01*
X0206758Y0032624D01*
X0194753Y0032624D01*
X0191403Y0029274D01*
X0191403Y0016955D01*
X0191577Y0016883D01*
X0193054Y0015406D01*
X0193553Y0014199D01*
X0193553Y0015918D01*
X0193676Y0016377D01*
X0193913Y0016787D01*
X0194248Y0017122D01*
X0194658Y0017359D01*
X0195116Y0017482D01*
X0198528Y0017482D01*
X0198528Y0012506D01*
X0198678Y0012506D01*
X0198678Y0017482D01*
X0202090Y0017482D01*
X0202548Y0017359D01*
X0202958Y0017122D01*
X0203294Y0016787D01*
X0203531Y0016377D01*
X0203653Y0015918D01*
X0203653Y0012506D01*
X0198678Y0012506D01*
X0198678Y0012357D01*
X0203653Y0012357D01*
X0203653Y0008945D01*
X0203634Y0008874D01*
X0214659Y0008874D01*
X0214121Y0009412D01*
X0213322Y0011342D01*
X0213322Y0013431D01*
X0214121Y0015359D01*
X0215598Y0016837D01*
X0217526Y0017636D01*
X0219616Y0017636D01*
X0221546Y0016837D01*
X0223022Y0015359D01*
X0223572Y0014034D01*
X0224121Y0015359D01*
X0225598Y0016837D01*
X0227527Y0017636D01*
X0229616Y0017636D01*
X0231545Y0016837D01*
X0233022Y0015359D01*
X0233571Y0014034D01*
X0234120Y0015359D01*
X0235598Y0016837D01*
X0237527Y0017636D01*
X0239616Y0017636D01*
X0241546Y0016837D01*
X0243021Y0015359D01*
X0243572Y0014034D01*
X0244121Y0015359D01*
X0245597Y0016837D01*
X0247527Y0017636D01*
X0249542Y0017636D01*
X0249542Y0036627D01*
X0249138Y0037032D01*
X0248562Y0038422D01*
X0248562Y0039926D01*
X0249138Y0041316D01*
X0250200Y0042379D01*
X0251591Y0042955D01*
X0253094Y0042955D01*
X0254485Y0042379D01*
X0255548Y0041316D01*
X0256124Y0039926D01*
X0256124Y0038422D01*
X0255548Y0037032D01*
X0255143Y0036627D01*
X0255143Y0016099D01*
X0255282Y0016238D01*
X0255925Y0016704D01*
X0256632Y0017066D01*
X0257389Y0017312D01*
X0258174Y0017436D01*
X0258497Y0017436D01*
X0258497Y0012461D01*
X0258646Y0012461D01*
X0263622Y0012461D01*
X0268497Y0012461D01*
X0268497Y0017436D01*
X0265085Y0017436D01*
X0264627Y0017314D01*
X0264217Y0017077D01*
X0263881Y0016741D01*
X0263644Y0016331D01*
X0263522Y0015873D01*
X0263522Y0013415D01*
X0263497Y0013569D01*
X0263252Y0014324D01*
X0262891Y0015033D01*
X0262424Y0015676D01*
X0261862Y0016238D01*
X0261219Y0016704D01*
X0260510Y0017066D01*
X0259754Y0017312D01*
X0258969Y0017436D01*
X0258646Y0017436D01*
X0258646Y0012461D01*
X0258646Y0012311D01*
X0268497Y0012311D01*
X0268497Y0012461D01*
X0268647Y0012461D01*
X0273622Y0012461D01*
X0273622Y0015873D01*
X0273499Y0016331D01*
X0273262Y0016741D01*
X0272927Y0017077D01*
X0272516Y0017314D01*
X0272059Y0017436D01*
X0268647Y0017436D01*
X0268647Y0012461D01*
X0268647Y0012311D01*
X0273622Y0012311D01*
X0273622Y0008899D01*
X0273614Y0008874D01*
X0289884Y0008874D01*
X0289688Y0009070D01*
X0289220Y0009713D01*
X0288859Y0010421D01*
X0288614Y0011177D01*
X0288488Y0011962D01*
X0288488Y0012284D01*
X0293464Y0012284D01*
X0293464Y0012434D01*
X0288488Y0012434D01*
X0288488Y0012756D01*
X0288614Y0013542D01*
X0288859Y0014298D01*
X0289220Y0015006D01*
X0289688Y0015648D01*
X0290250Y0016211D01*
X0290893Y0016678D01*
X0291601Y0017039D01*
X0292357Y0017285D01*
X0293142Y0017409D01*
X0293464Y0017409D01*
X0293464Y0012435D01*
X0293614Y0012435D01*
X0293614Y0017409D01*
X0293937Y0017409D01*
X0294722Y0017285D01*
X0295478Y0017039D01*
X0296186Y0016678D01*
X0296829Y0016211D01*
X0297391Y0015648D01*
X0297858Y0015006D01*
X0298219Y0014298D01*
X0298288Y0014083D01*
X0298288Y0016438D01*
X0299461Y0017609D01*
X0307618Y0017609D01*
X0308789Y0016438D01*
X0308789Y0008874D01*
X0344656Y0008874D01*
X0344878Y0008895D01*
X0345288Y0009065D01*
X0345601Y0009379D01*
X0345771Y0009789D01*
X0345793Y0010010D01*
X0345793Y0092688D01*
X0345771Y0092910D01*
X0345601Y0093319D01*
X0345288Y0093633D01*
X0344878Y0093803D01*
X0344656Y0093825D01*
X0321711Y0093825D01*
X0321799Y0093761D01*
X0322330Y0093230D01*
X0322771Y0092623D01*
X0323112Y0091954D01*
X0323344Y0091241D01*
X0323462Y0090499D01*
X0323462Y0090308D01*
X0318877Y0090308D01*
X0318877Y0089940D01*
X0323462Y0089940D01*
X0323462Y0089749D01*
X0323344Y0089007D01*
X0323112Y0088294D01*
X0322771Y0087625D01*
X0322330Y0087018D01*
X0321799Y0086487D01*
X0321192Y0086046D01*
X0320522Y0085705D01*
X0319810Y0085473D01*
X0319067Y0085356D01*
X0318877Y0085356D01*
X0318877Y0089940D01*
X0318509Y0089940D01*
X0318509Y0085356D01*
X0318318Y0085356D01*
X0317575Y0085473D01*
X0316863Y0085705D01*
X0316194Y0086046D01*
X0315587Y0086487D01*
X0315055Y0087018D01*
X0314615Y0087625D01*
X0314274Y0088294D01*
X0314042Y0089007D01*
X0313925Y0089749D01*
X0313925Y0089940D01*
X0318509Y0089940D01*
X0318509Y0090308D01*
X0313925Y0090308D01*
X0313925Y0090499D01*
X0314042Y0091241D01*
X0314274Y0091954D01*
X0314615Y0092623D01*
X0315055Y0093230D01*
X0315587Y0093761D01*
X0315674Y0093825D01*
X0311712Y0093825D01*
X0311799Y0093761D01*
X0312330Y0093230D01*
X0312771Y0092623D01*
X0313111Y0091954D01*
X0313344Y0091241D01*
X0313461Y0090499D01*
X0313461Y0090308D01*
X0308876Y0090308D01*
X0308876Y0089940D01*
X0313461Y0089940D01*
X0313461Y0089749D01*
X0313344Y0089007D01*
X0313111Y0088294D01*
X0312771Y0087625D01*
X0312330Y0087018D01*
X0311799Y0086487D01*
X0311192Y0086046D01*
X0310523Y0085705D01*
X0309810Y0085473D01*
X0309068Y0085356D01*
X0308876Y0085356D01*
X0308876Y0089940D01*
X0308508Y0089940D01*
X0308508Y0085356D01*
X0308318Y0085356D01*
X0307576Y0085473D01*
X0306863Y0085705D01*
X0306194Y0086046D01*
X0305587Y0086487D01*
X0305056Y0087018D01*
X0304615Y0087625D01*
X0304273Y0088294D01*
X0304042Y0089007D01*
X0303925Y0089749D01*
X0303925Y0089940D01*
X0308508Y0089940D01*
X0308508Y0090308D01*
X0303925Y0090308D01*
X0303925Y0090499D01*
X0304042Y0091241D01*
X0304273Y0091954D01*
X0304615Y0092623D01*
X0305056Y0093230D01*
X0305587Y0093761D01*
X0305674Y0093825D01*
X0303946Y0093825D01*
X0301470Y0094850D01*
X0301470Y0094850D01*
X0299575Y0096746D01*
X0299575Y0096746D01*
X0298549Y0099222D01*
X0298549Y0185415D01*
X0297375Y0184358D01*
X0297375Y0184358D01*
X0294290Y0183356D01*
X0294290Y0183356D01*
X0291065Y0183695D01*
X0291065Y0183695D01*
X0288256Y0185316D01*
X0288256Y0185316D01*
X0288256Y0185316D01*
X0286349Y0187940D01*
X0286349Y0187940D01*
X0285675Y0191113D01*
X0285675Y0191113D01*
X0286349Y0194286D01*
X0288256Y0196909D01*
X0288256Y0196910D01*
X0291065Y0198531D01*
X0294290Y0198869D01*
X0294290Y0198869D01*
X0297375Y0197868D01*
X0297375Y0197868D01*
X0298549Y0196811D01*
X0298549Y0198986D01*
X0298248Y0199727D02*
X0217835Y0199727D01*
X0217535Y0198128D02*
X0219501Y0198128D01*
X0225707Y0198128D02*
X0290367Y0198128D01*
X0287980Y0196530D02*
X0227995Y0196530D01*
X0229260Y0194931D02*
X0286819Y0194931D01*
X0286147Y0193333D02*
X0229972Y0193333D01*
X0230238Y0191734D02*
X0285807Y0191734D01*
X0285883Y0190136D02*
X0240478Y0190136D01*
X0240547Y0190066D02*
X0239485Y0191129D01*
X0238095Y0191705D01*
X0236591Y0191705D01*
X0235201Y0191129D01*
X0234138Y0190066D01*
X0233562Y0188675D01*
X0233562Y0187172D01*
X0234138Y0185782D01*
X0234543Y0185377D01*
X0234543Y0102970D01*
X0234138Y0102566D01*
X0233562Y0101176D01*
X0233562Y0099672D01*
X0234138Y0098282D01*
X0235201Y0097219D01*
X0236591Y0096643D01*
X0238095Y0096643D01*
X0239485Y0097219D01*
X0240547Y0098282D01*
X0241123Y0099672D01*
X0241123Y0101176D01*
X0240547Y0102566D01*
X0240143Y0102970D01*
X0240143Y0185377D01*
X0240547Y0185782D01*
X0241123Y0187172D01*
X0241123Y0188675D01*
X0240547Y0190066D01*
X0241123Y0188537D02*
X0286222Y0188537D01*
X0287076Y0186939D02*
X0241028Y0186939D01*
X0240143Y0185340D02*
X0288238Y0185340D01*
X0290983Y0183742D02*
X0240143Y0183742D01*
X0240143Y0182143D02*
X0298549Y0182143D01*
X0298549Y0180545D02*
X0240143Y0180545D01*
X0240143Y0178946D02*
X0298549Y0178946D01*
X0298549Y0177348D02*
X0240143Y0177348D01*
X0240143Y0175749D02*
X0298549Y0175749D01*
X0298549Y0174151D02*
X0240143Y0174151D01*
X0240143Y0172552D02*
X0298549Y0172552D01*
X0298549Y0170954D02*
X0240143Y0170954D01*
X0240143Y0169355D02*
X0298549Y0169355D01*
X0298549Y0167757D02*
X0240143Y0167757D01*
X0240143Y0166158D02*
X0298549Y0166158D01*
X0298549Y0164560D02*
X0240143Y0164560D01*
X0240143Y0162961D02*
X0298549Y0162961D01*
X0298549Y0161362D02*
X0240143Y0161362D01*
X0240143Y0159764D02*
X0298549Y0159764D01*
X0298549Y0158166D02*
X0240143Y0158166D01*
X0240143Y0156567D02*
X0298549Y0156567D01*
X0298549Y0154969D02*
X0240143Y0154969D01*
X0240143Y0153370D02*
X0298549Y0153370D01*
X0298549Y0151772D02*
X0240143Y0151772D01*
X0240143Y0150173D02*
X0298549Y0150173D01*
X0298549Y0148575D02*
X0240143Y0148575D01*
X0240143Y0146976D02*
X0298549Y0146976D01*
X0298549Y0145378D02*
X0240143Y0145378D01*
X0240143Y0143779D02*
X0298549Y0143779D01*
X0298549Y0142181D02*
X0240143Y0142181D01*
X0240143Y0140582D02*
X0298549Y0140582D01*
X0298549Y0138984D02*
X0240143Y0138984D01*
X0240143Y0137385D02*
X0298549Y0137385D01*
X0298549Y0135787D02*
X0240143Y0135787D01*
X0240143Y0134188D02*
X0298549Y0134188D01*
X0298549Y0132590D02*
X0240143Y0132590D01*
X0240143Y0130990D02*
X0298549Y0130990D01*
X0298549Y0129392D02*
X0240143Y0129392D01*
X0240143Y0127794D02*
X0298549Y0127794D01*
X0298549Y0126194D02*
X0240143Y0126194D01*
X0240143Y0124597D02*
X0298549Y0124597D01*
X0298549Y0122998D02*
X0240143Y0122998D01*
X0240143Y0121400D02*
X0298549Y0121400D01*
X0298549Y0119801D02*
X0240143Y0119801D01*
X0240143Y0118202D02*
X0298549Y0118202D01*
X0298549Y0116604D02*
X0240143Y0116604D01*
X0240143Y0115006D02*
X0298549Y0115006D01*
X0298549Y0113406D02*
X0240143Y0113406D01*
X0240143Y0111809D02*
X0298549Y0111809D01*
X0298549Y0110210D02*
X0240143Y0110210D01*
X0240143Y0108612D02*
X0298549Y0108612D01*
X0298549Y0107013D02*
X0240143Y0107013D01*
X0240143Y0105414D02*
X0298549Y0105414D01*
X0298549Y0103816D02*
X0240143Y0103816D01*
X0240693Y0102218D02*
X0298549Y0102218D01*
X0298549Y0100618D02*
X0241123Y0100618D01*
X0240854Y0099021D02*
X0298632Y0099021D01*
X0299294Y0097422D02*
X0239689Y0097422D01*
X0237343Y0100424D02*
X0237343Y0187924D01*
X0234543Y0185340D02*
X0227599Y0185340D01*
X0229102Y0186939D02*
X0233658Y0186939D01*
X0233562Y0188537D02*
X0229814Y0188537D01*
X0230238Y0190136D02*
X0234208Y0190136D01*
X0234543Y0183742D02*
X0224613Y0183742D01*
X0220116Y0183742D02*
X0217535Y0183742D01*
X0217535Y0182143D02*
X0234543Y0182143D01*
X0234543Y0180545D02*
X0217535Y0180545D01*
X0217535Y0178946D02*
X0234543Y0178946D01*
X0234543Y0177348D02*
X0217535Y0177348D01*
X0217535Y0175749D02*
X0234543Y0175749D01*
X0234543Y0174151D02*
X0217535Y0174151D01*
X0217535Y0172552D02*
X0234543Y0172552D01*
X0234543Y0170954D02*
X0217535Y0170954D01*
X0217535Y0169355D02*
X0234543Y0169355D01*
X0234543Y0167757D02*
X0217535Y0167757D01*
X0217535Y0166158D02*
X0234543Y0166158D01*
X0234543Y0164560D02*
X0217535Y0164560D01*
X0217535Y0162961D02*
X0234543Y0162961D01*
X0234543Y0161362D02*
X0217535Y0161362D01*
X0217535Y0159764D02*
X0234543Y0159764D01*
X0234543Y0158166D02*
X0217535Y0158166D01*
X0217535Y0156567D02*
X0234543Y0156567D01*
X0234543Y0154969D02*
X0217535Y0154969D01*
X0217535Y0153370D02*
X0234543Y0153370D01*
X0234543Y0151772D02*
X0217535Y0151772D01*
X0217535Y0150173D02*
X0234543Y0150173D01*
X0234543Y0148575D02*
X0217535Y0148575D01*
X0217535Y0146976D02*
X0234543Y0146976D01*
X0234543Y0145378D02*
X0217535Y0145378D01*
X0217535Y0143779D02*
X0234543Y0143779D01*
X0234543Y0142181D02*
X0217535Y0142181D01*
X0217535Y0140582D02*
X0234543Y0140582D01*
X0234543Y0138984D02*
X0217535Y0138984D01*
X0217535Y0137385D02*
X0234543Y0137385D01*
X0234543Y0135787D02*
X0217535Y0135787D01*
X0217535Y0134188D02*
X0234543Y0134188D01*
X0234543Y0132590D02*
X0217535Y0132590D01*
X0217535Y0130990D02*
X0234543Y0130990D01*
X0234543Y0129392D02*
X0217535Y0129392D01*
X0217535Y0127794D02*
X0234543Y0127794D01*
X0234543Y0126194D02*
X0217535Y0126194D01*
X0217535Y0124597D02*
X0234543Y0124597D01*
X0234543Y0122998D02*
X0217535Y0122998D01*
X0217535Y0121400D02*
X0234543Y0121400D01*
X0234543Y0119801D02*
X0217535Y0119801D01*
X0217535Y0118202D02*
X0234543Y0118202D01*
X0234543Y0116604D02*
X0217535Y0116604D01*
X0217535Y0115006D02*
X0234543Y0115006D01*
X0234543Y0113406D02*
X0217535Y0113406D01*
X0217535Y0111809D02*
X0234543Y0111809D01*
X0234543Y0110210D02*
X0217535Y0110210D01*
X0217535Y0108612D02*
X0234543Y0108612D01*
X0234543Y0107013D02*
X0217535Y0107013D01*
X0217535Y0105414D02*
X0234543Y0105414D01*
X0234543Y0103816D02*
X0217535Y0103816D01*
X0217535Y0102218D02*
X0233992Y0102218D01*
X0233562Y0100618D02*
X0217535Y0100618D01*
X0217451Y0099021D02*
X0233832Y0099021D01*
X0234997Y0097422D02*
X0216789Y0097422D01*
X0215587Y0095824D02*
X0300495Y0095824D01*
X0299809Y0094775D02*
X0300523Y0094543D01*
X0301192Y0094202D01*
X0301799Y0093761D01*
X0302330Y0093230D01*
X0302771Y0092623D01*
X0303112Y0091954D01*
X0303344Y0091241D01*
X0303462Y0090499D01*
X0303462Y0090308D01*
X0298877Y0090308D01*
X0298509Y0090308D01*
X0298509Y0094893D01*
X0298318Y0094893D01*
X0297576Y0094775D01*
X0296863Y0094543D01*
X0296194Y0094202D01*
X0295587Y0093761D01*
X0295056Y0093230D01*
X0294615Y0092623D01*
X0294274Y0091954D01*
X0294042Y0091241D01*
X0293925Y0090499D01*
X0293925Y0090308D01*
X0298509Y0090308D01*
X0298509Y0089940D01*
X0293925Y0089940D01*
X0293925Y0089749D01*
X0294042Y0089007D01*
X0294274Y0088294D01*
X0294615Y0087625D01*
X0295056Y0087018D01*
X0295587Y0086487D01*
X0296194Y0086046D01*
X0296863Y0085705D01*
X0297576Y0085473D01*
X0298318Y0085356D01*
X0298509Y0085356D01*
X0298509Y0089940D01*
X0298877Y0089940D01*
X0298877Y0090308D01*
X0298877Y0094893D01*
X0299068Y0094893D01*
X0299809Y0094775D01*
X0298877Y0094224D02*
X0298509Y0094224D01*
X0298509Y0092627D02*
X0298877Y0092627D01*
X0298877Y0091027D02*
X0298509Y0091027D01*
X0298877Y0089940D02*
X0303462Y0089940D01*
X0303462Y0089749D01*
X0303344Y0089007D01*
X0303112Y0088294D01*
X0302771Y0087625D01*
X0302330Y0087018D01*
X0301799Y0086487D01*
X0301192Y0086046D01*
X0300523Y0085705D01*
X0299809Y0085473D01*
X0299068Y0085356D01*
X0298877Y0085356D01*
X0298877Y0089940D01*
X0298877Y0089430D02*
X0298509Y0089430D01*
X0298509Y0087831D02*
X0298877Y0087831D01*
X0298877Y0086233D02*
X0298509Y0086233D01*
X0297705Y0085093D02*
X0299681Y0085093D01*
X0301507Y0084336D01*
X0302905Y0082938D01*
X0303661Y0081112D01*
X0303661Y0079136D01*
X0302905Y0077310D01*
X0301507Y0075912D01*
X0299681Y0075156D01*
X0297705Y0075156D01*
X0295879Y0075912D01*
X0294481Y0077310D01*
X0293725Y0079136D01*
X0293725Y0081112D01*
X0294481Y0082938D01*
X0295879Y0084336D01*
X0297705Y0085093D01*
X0296598Y0084634D02*
X0290788Y0084634D01*
X0291507Y0084336D02*
X0289681Y0085093D01*
X0287704Y0085093D01*
X0285879Y0084336D01*
X0284481Y0082938D01*
X0283725Y0081112D01*
X0283725Y0079136D01*
X0284481Y0077310D01*
X0285879Y0075912D01*
X0287704Y0075156D01*
X0289681Y0075156D01*
X0291507Y0075912D01*
X0292905Y0077310D01*
X0293662Y0079136D01*
X0293662Y0081112D01*
X0292905Y0082938D01*
X0291507Y0084336D01*
X0290523Y0085705D02*
X0291192Y0086046D01*
X0291799Y0086487D01*
X0292330Y0087018D01*
X0292771Y0087625D01*
X0293112Y0088294D01*
X0293344Y0089007D01*
X0293462Y0089749D01*
X0293462Y0089940D01*
X0288877Y0089940D01*
X0288877Y0090308D01*
X0288509Y0090308D01*
X0288509Y0094893D01*
X0288318Y0094893D01*
X0287576Y0094775D01*
X0286863Y0094543D01*
X0286194Y0094202D01*
X0285587Y0093761D01*
X0285056Y0093230D01*
X0284615Y0092623D01*
X0284274Y0091954D01*
X0284042Y0091241D01*
X0283925Y0090499D01*
X0283925Y0090308D01*
X0288509Y0090308D01*
X0288509Y0089940D01*
X0283925Y0089940D01*
X0283925Y0089749D01*
X0284042Y0089007D01*
X0284274Y0088294D01*
X0284615Y0087625D01*
X0285056Y0087018D01*
X0285587Y0086487D01*
X0286194Y0086046D01*
X0286863Y0085705D01*
X0287576Y0085473D01*
X0288318Y0085356D01*
X0288509Y0085356D01*
X0288509Y0089940D01*
X0288877Y0089940D01*
X0288877Y0085356D01*
X0289068Y0085356D01*
X0289810Y0085473D01*
X0290523Y0085705D01*
X0291450Y0086233D02*
X0295936Y0086233D01*
X0294509Y0087831D02*
X0292877Y0087831D01*
X0293411Y0089430D02*
X0293975Y0089430D01*
X0293462Y0090308D02*
X0293462Y0090499D01*
X0293344Y0091241D01*
X0293112Y0091954D01*
X0292771Y0092623D01*
X0292330Y0093230D01*
X0291799Y0093761D01*
X0291192Y0094202D01*
X0290523Y0094543D01*
X0289810Y0094775D01*
X0289068Y0094893D01*
X0288877Y0094893D01*
X0288877Y0090308D01*
X0293462Y0090308D01*
X0293378Y0091027D02*
X0294008Y0091027D01*
X0294617Y0092627D02*
X0292769Y0092627D01*
X0291147Y0094224D02*
X0296239Y0094224D01*
X0301147Y0094224D02*
X0302979Y0094224D01*
X0302769Y0092627D02*
X0304617Y0092627D01*
X0304008Y0091027D02*
X0303378Y0091027D01*
X0303411Y0089430D02*
X0303975Y0089430D01*
X0304509Y0087831D02*
X0302877Y0087831D01*
X0301450Y0086233D02*
X0305936Y0086233D01*
X0306597Y0084634D02*
X0300787Y0084634D01*
X0302808Y0083036D02*
X0304578Y0083036D01*
X0304481Y0082938D02*
X0303725Y0081112D01*
X0303725Y0079136D01*
X0304481Y0077310D01*
X0305879Y0075912D01*
X0307705Y0075156D01*
X0309681Y0075156D01*
X0311507Y0075912D01*
X0312905Y0077310D01*
X0313662Y0079136D01*
X0313662Y0081112D01*
X0312905Y0082938D01*
X0311507Y0084336D01*
X0309681Y0085093D01*
X0307705Y0085093D01*
X0305879Y0084336D01*
X0304481Y0082938D01*
X0303858Y0081437D02*
X0303526Y0081437D01*
X0303661Y0079839D02*
X0303725Y0079839D01*
X0304095Y0078240D02*
X0303291Y0078240D01*
X0302237Y0076642D02*
X0305149Y0076642D01*
X0312237Y0076642D02*
X0315149Y0076642D01*
X0314481Y0077310D02*
X0315879Y0075912D01*
X0317705Y0075156D01*
X0319680Y0075156D01*
X0321507Y0075912D01*
X0322904Y0077310D01*
X0323662Y0079136D01*
X0323662Y0081112D01*
X0322904Y0082938D01*
X0321507Y0084336D01*
X0319680Y0085093D01*
X0317705Y0085093D01*
X0315879Y0084336D01*
X0314481Y0082938D01*
X0313725Y0081112D01*
X0313725Y0079136D01*
X0314481Y0077310D01*
X0314095Y0078240D02*
X0313291Y0078240D01*
X0313662Y0079839D02*
X0313725Y0079839D01*
X0313859Y0081437D02*
X0313527Y0081437D01*
X0312808Y0083036D02*
X0314578Y0083036D01*
X0316598Y0084634D02*
X0310788Y0084634D01*
X0311450Y0086233D02*
X0315936Y0086233D01*
X0314509Y0087831D02*
X0312877Y0087831D01*
X0313411Y0089430D02*
X0313975Y0089430D01*
X0314008Y0091027D02*
X0313378Y0091027D01*
X0312769Y0092627D02*
X0314617Y0092627D01*
X0318509Y0089430D02*
X0318877Y0089430D01*
X0318877Y0087831D02*
X0318509Y0087831D01*
X0318509Y0086233D02*
X0318877Y0086233D01*
X0320788Y0084634D02*
X0329020Y0084634D01*
X0328982Y0084814D02*
X0328982Y0084814D01*
X0329655Y0081641D01*
X0331563Y0079017D01*
X0334372Y0077396D01*
X0337597Y0077056D01*
X0337597Y0077056D01*
X0340682Y0078059D01*
X0343092Y0080229D01*
X0344412Y0083192D01*
X0344412Y0086435D01*
X0343092Y0089398D01*
X0340682Y0091569D01*
X0337597Y0092571D01*
X0334372Y0092232D01*
X0334372Y0092232D01*
X0331563Y0090610D01*
X0329655Y0087986D01*
X0328982Y0084814D01*
X0329283Y0086233D02*
X0321449Y0086233D01*
X0322877Y0087831D02*
X0329623Y0087831D01*
X0329655Y0087986D02*
X0329655Y0087986D01*
X0330705Y0089430D02*
X0323411Y0089430D01*
X0323378Y0091027D02*
X0332287Y0091027D01*
X0331563Y0090610D02*
X0331563Y0090610D01*
X0331563Y0090610D01*
X0337597Y0092571D02*
X0337597Y0092571D01*
X0340682Y0091569D02*
X0340682Y0091569D01*
X0341282Y0091027D02*
X0345793Y0091027D01*
X0345793Y0089430D02*
X0343058Y0089430D01*
X0343092Y0089398D02*
X0343092Y0089398D01*
X0343092Y0089398D01*
X0343790Y0087831D02*
X0345793Y0087831D01*
X0345793Y0086233D02*
X0344412Y0086233D01*
X0344412Y0084634D02*
X0345793Y0084634D01*
X0345793Y0083036D02*
X0344342Y0083036D01*
X0343630Y0081437D02*
X0345793Y0081437D01*
X0345793Y0079839D02*
X0342659Y0079839D01*
X0343092Y0080229D02*
X0343092Y0080229D01*
X0340883Y0078240D02*
X0345793Y0078240D01*
X0345793Y0076642D02*
X0322237Y0076642D01*
X0323291Y0078240D02*
X0332909Y0078240D01*
X0331563Y0079017D02*
X0331563Y0079017D01*
X0331563Y0079017D01*
X0330966Y0079839D02*
X0323662Y0079839D01*
X0323527Y0081437D02*
X0329805Y0081437D01*
X0329655Y0081641D02*
X0329655Y0081641D01*
X0329360Y0083036D02*
X0322808Y0083036D01*
X0322769Y0092627D02*
X0345793Y0092627D01*
X0340682Y0078059D02*
X0340682Y0078059D01*
X0345793Y0075043D02*
X0270434Y0075043D01*
X0270179Y0075298D02*
X0269150Y0075723D01*
X0252928Y0075723D01*
X0251747Y0076213D01*
X0250439Y0076213D01*
X0249230Y0075712D01*
X0248305Y0074787D01*
X0247804Y0073578D01*
X0247804Y0072269D01*
X0248305Y0071061D01*
X0249230Y0070136D01*
X0250439Y0069635D01*
X0251747Y0069635D01*
X0252928Y0070124D01*
X0267433Y0070124D01*
X0270793Y0066764D01*
X0270793Y0050724D01*
X0270536Y0050724D01*
X0269507Y0050298D01*
X0265410Y0046201D01*
X0264230Y0045712D01*
X0263305Y0044787D01*
X0262804Y0043578D01*
X0262804Y0042270D01*
X0263305Y0041061D01*
X0264230Y0040136D01*
X0265439Y0039634D01*
X0266746Y0039634D01*
X0267956Y0040136D01*
X0268881Y0041061D01*
X0269370Y0042241D01*
X0272253Y0045124D01*
X0274150Y0045124D01*
X0275179Y0045550D01*
X0275967Y0046338D01*
X0276393Y0047367D01*
X0276393Y0068481D01*
X0275967Y0069510D01*
X0275179Y0070298D01*
X0270179Y0075298D01*
X0272032Y0073445D02*
X0345793Y0073445D01*
X0345793Y0071846D02*
X0273631Y0071846D01*
X0275229Y0070248D02*
X0345793Y0070248D01*
X0345793Y0068649D02*
X0276323Y0068649D01*
X0276393Y0067051D02*
X0345793Y0067051D01*
X0345793Y0065452D02*
X0276393Y0065452D01*
X0276393Y0063854D02*
X0345793Y0063854D01*
X0345793Y0062255D02*
X0276393Y0062255D01*
X0276393Y0060656D02*
X0345793Y0060656D01*
X0345793Y0059058D02*
X0276393Y0059058D01*
X0276393Y0057459D02*
X0345793Y0057459D01*
X0345793Y0055861D02*
X0276393Y0055861D01*
X0276393Y0054262D02*
X0345793Y0054262D01*
X0345793Y0052664D02*
X0276393Y0052664D01*
X0276393Y0051065D02*
X0345793Y0051065D01*
X0345793Y0049467D02*
X0276393Y0049467D01*
X0276393Y0047868D02*
X0345793Y0047868D01*
X0345793Y0046270D02*
X0275899Y0046270D01*
X0273593Y0047924D02*
X0273593Y0067924D01*
X0268593Y0072924D01*
X0251093Y0072924D01*
X0248561Y0075043D02*
X0239987Y0075043D01*
X0240040Y0074915D02*
X0239241Y0076844D01*
X0237764Y0078321D01*
X0236438Y0078870D01*
X0237764Y0079420D01*
X0239241Y0080897D01*
X0240040Y0082826D01*
X0240040Y0084915D01*
X0239241Y0086844D01*
X0237764Y0088321D01*
X0235834Y0089120D01*
X0233746Y0089120D01*
X0231816Y0088321D01*
X0230338Y0086844D01*
X0229663Y0085213D01*
X0229470Y0085809D01*
X0229109Y0086517D01*
X0228642Y0087160D01*
X0228080Y0087722D01*
X0227436Y0088190D01*
X0226728Y0088550D01*
X0225972Y0088796D01*
X0225186Y0088920D01*
X0224865Y0088920D01*
X0224865Y0083946D01*
X0224715Y0083946D01*
X0224715Y0088920D01*
X0224392Y0088920D01*
X0223606Y0088796D01*
X0222851Y0088550D01*
X0222142Y0088190D01*
X0221500Y0087722D01*
X0220938Y0087160D01*
X0220471Y0086517D01*
X0220109Y0085809D01*
X0219864Y0085053D01*
X0219740Y0084268D01*
X0219740Y0083944D01*
X0224715Y0083944D01*
X0224715Y0083795D01*
X0219740Y0083795D01*
X0219740Y0083473D01*
X0219864Y0082688D01*
X0220109Y0081932D01*
X0220471Y0081223D01*
X0220938Y0080581D01*
X0221500Y0080019D01*
X0222142Y0079551D01*
X0222851Y0079190D01*
X0223447Y0078997D01*
X0221816Y0078321D01*
X0220339Y0076844D01*
X0219539Y0074915D01*
X0219539Y0072826D01*
X0220339Y0070897D01*
X0221816Y0069420D01*
X0223142Y0068870D01*
X0221816Y0068321D01*
X0220339Y0066844D01*
X0219539Y0064915D01*
X0219539Y0062826D01*
X0220339Y0060897D01*
X0221816Y0059419D01*
X0223746Y0058620D01*
X0224830Y0058620D01*
X0224433Y0058224D01*
X0222928Y0058224D01*
X0221747Y0058713D01*
X0220439Y0058713D01*
X0219230Y0058212D01*
X0218305Y0057287D01*
X0217804Y0056077D01*
X0217804Y0054770D01*
X0218292Y0053589D01*
X0218292Y0032367D01*
X0218719Y0031338D01*
X0222007Y0028050D01*
X0222725Y0027753D01*
X0222805Y0027561D01*
X0223729Y0026636D01*
X0224939Y0026135D01*
X0226247Y0026135D01*
X0227456Y0026636D01*
X0228381Y0027561D01*
X0228882Y0028770D01*
X0228882Y0030078D01*
X0228381Y0031286D01*
X0227456Y0032212D01*
X0226276Y0032701D01*
X0226179Y0032798D01*
X0225150Y0033224D01*
X0224752Y0033224D01*
X0223893Y0034084D01*
X0223893Y0052624D01*
X0226149Y0052624D01*
X0227179Y0053050D01*
X0227967Y0053838D01*
X0231178Y0057050D01*
X0231967Y0057838D01*
X0232290Y0058620D01*
X0238868Y0058620D01*
X0240040Y0059792D01*
X0240040Y0060124D01*
X0265258Y0060124D01*
X0266439Y0059635D01*
X0267747Y0059635D01*
X0268956Y0060136D01*
X0269881Y0061061D01*
X0270382Y0062270D01*
X0270382Y0063578D01*
X0269881Y0064786D01*
X0268956Y0065712D01*
X0267747Y0066213D01*
X0266439Y0066213D01*
X0265258Y0065724D01*
X0240040Y0065724D01*
X0240040Y0067949D01*
X0238868Y0069120D01*
X0237041Y0069120D01*
X0237764Y0069420D01*
X0239241Y0070897D01*
X0240040Y0072826D01*
X0240040Y0074915D01*
X0240040Y0073445D02*
X0247804Y0073445D01*
X0247980Y0071846D02*
X0239634Y0071846D01*
X0238592Y0070248D02*
X0249118Y0070248D01*
X0240040Y0067051D02*
X0270507Y0067051D01*
X0270793Y0065452D02*
X0269216Y0065452D01*
X0270268Y0063854D02*
X0270793Y0063854D01*
X0270793Y0062255D02*
X0270376Y0062255D01*
X0270793Y0060656D02*
X0269477Y0060656D01*
X0270793Y0059058D02*
X0239306Y0059058D01*
X0235736Y0062924D02*
X0234790Y0063870D01*
X0235736Y0062924D02*
X0267093Y0062924D01*
X0268908Y0068649D02*
X0239340Y0068649D01*
X0239325Y0076642D02*
X0273725Y0076642D01*
X0273725Y0076327D02*
X0274896Y0075156D01*
X0282490Y0075156D01*
X0283662Y0076327D01*
X0283662Y0083921D01*
X0282490Y0085093D01*
X0274896Y0085093D01*
X0273725Y0083921D01*
X0273725Y0076327D01*
X0273725Y0078240D02*
X0237845Y0078240D01*
X0238183Y0079839D02*
X0273725Y0079839D01*
X0273725Y0081437D02*
X0239464Y0081437D01*
X0240040Y0083036D02*
X0273725Y0083036D01*
X0274438Y0084634D02*
X0240040Y0084634D01*
X0239494Y0086233D02*
X0275936Y0086233D01*
X0276193Y0086046D02*
X0276863Y0085705D01*
X0277575Y0085473D01*
X0278318Y0085356D01*
X0278509Y0085356D01*
X0278509Y0089940D01*
X0273925Y0089940D01*
X0273925Y0089749D01*
X0274042Y0089007D01*
X0274274Y0088294D01*
X0274615Y0087625D01*
X0275055Y0087018D01*
X0275587Y0086487D01*
X0276193Y0086046D01*
X0274509Y0087831D02*
X0238254Y0087831D01*
X0234790Y0083870D02*
X0231343Y0080424D01*
X0231093Y0080424D01*
X0229592Y0078924D01*
X0229592Y0059424D01*
X0225593Y0055423D01*
X0221092Y0055423D01*
X0221092Y0032924D01*
X0223593Y0030424D01*
X0224593Y0030424D01*
X0225593Y0029424D01*
X0227908Y0027088D02*
X0249542Y0027088D01*
X0249542Y0028686D02*
X0228846Y0028686D01*
X0228796Y0030285D02*
X0249542Y0030285D01*
X0249542Y0031883D02*
X0227785Y0031883D01*
X0224494Y0033482D02*
X0249542Y0033482D01*
X0249542Y0035079D02*
X0223893Y0035079D01*
X0223893Y0036679D02*
X0249491Y0036679D01*
X0248622Y0038277D02*
X0223893Y0038277D01*
X0223893Y0039876D02*
X0248562Y0039876D01*
X0249296Y0041474D02*
X0223893Y0041474D01*
X0223893Y0043073D02*
X0262804Y0043073D01*
X0263134Y0041474D02*
X0255390Y0041474D01*
X0256124Y0039876D02*
X0264857Y0039876D01*
X0267329Y0039876D02*
X0345793Y0039876D01*
X0345793Y0041474D02*
X0269051Y0041474D01*
X0270202Y0043073D02*
X0345793Y0043073D01*
X0345793Y0044671D02*
X0271800Y0044671D01*
X0271093Y0047924D02*
X0273593Y0047924D01*
X0271093Y0047924D02*
X0266093Y0042923D01*
X0263257Y0044671D02*
X0223893Y0044671D01*
X0223893Y0046270D02*
X0265479Y0046270D01*
X0267078Y0047868D02*
X0223893Y0047868D01*
X0223893Y0049467D02*
X0268676Y0049467D01*
X0270793Y0051065D02*
X0223893Y0051065D01*
X0226246Y0052664D02*
X0270793Y0052664D01*
X0270793Y0054262D02*
X0228391Y0054262D01*
X0229990Y0055861D02*
X0270793Y0055861D01*
X0270793Y0057459D02*
X0231588Y0057459D01*
X0222689Y0059058D02*
X0154543Y0059058D01*
X0154543Y0060656D02*
X0220579Y0060656D01*
X0219776Y0062255D02*
X0154543Y0062255D01*
X0154543Y0063854D02*
X0219539Y0063854D01*
X0219762Y0065452D02*
X0154543Y0065452D01*
X0154543Y0067051D02*
X0220545Y0067051D01*
X0222607Y0068649D02*
X0154543Y0068649D01*
X0154543Y0070248D02*
X0220988Y0070248D01*
X0219946Y0071846D02*
X0154543Y0071846D01*
X0154543Y0073445D02*
X0219539Y0073445D01*
X0219593Y0075043D02*
X0154543Y0075043D01*
X0154543Y0076642D02*
X0220255Y0076642D01*
X0221735Y0078240D02*
X0167655Y0078240D01*
X0167453Y0078059D02*
X0169864Y0080229D01*
X0171183Y0083192D01*
X0171183Y0086435D01*
X0169864Y0089398D01*
X0169864Y0089398D01*
X0167453Y0091569D01*
X0164369Y0092571D01*
X0164369Y0092571D01*
X0161143Y0092232D01*
X0158333Y0090610D01*
X0156428Y0087986D01*
X0155754Y0084814D01*
X0156428Y0081641D01*
X0158333Y0079017D01*
X0158333Y0079017D01*
X0161143Y0077396D01*
X0161143Y0077396D01*
X0164369Y0077056D01*
X0167453Y0078059D01*
X0167453Y0078059D01*
X0167453Y0078059D01*
X0169430Y0079839D02*
X0221748Y0079839D01*
X0220362Y0081437D02*
X0170402Y0081437D01*
X0171114Y0083036D02*
X0219809Y0083036D01*
X0219797Y0084634D02*
X0171183Y0084634D01*
X0171183Y0086233D02*
X0182425Y0086233D01*
X0182885Y0085773D02*
X0184208Y0085225D01*
X0185641Y0085225D01*
X0186964Y0085773D01*
X0187976Y0086786D01*
X0188524Y0088109D01*
X0188524Y0089541D01*
X0187976Y0090864D01*
X0186964Y0091877D01*
X0185641Y0092424D01*
X0184208Y0092424D01*
X0182885Y0091877D01*
X0181873Y0090864D01*
X0181325Y0089541D01*
X0181325Y0088109D01*
X0181873Y0086786D01*
X0182885Y0085773D01*
X0181439Y0087831D02*
X0170562Y0087831D01*
X0169829Y0089430D02*
X0181325Y0089430D01*
X0182037Y0091027D02*
X0168053Y0091027D01*
X0167453Y0091569D02*
X0167453Y0091569D01*
X0161143Y0092232D02*
X0161143Y0092232D01*
X0159058Y0091027D02*
X0154543Y0091027D01*
X0154543Y0089430D02*
X0157477Y0089430D01*
X0158333Y0090610D02*
X0158333Y0090610D01*
X0158333Y0090610D01*
X0156428Y0087986D02*
X0156428Y0087986D01*
X0156395Y0087831D02*
X0154543Y0087831D01*
X0154543Y0086233D02*
X0156055Y0086233D01*
X0155792Y0084634D02*
X0154543Y0084634D01*
X0154543Y0083036D02*
X0156132Y0083036D01*
X0156428Y0081641D02*
X0156428Y0081641D01*
X0156575Y0081437D02*
X0154543Y0081437D01*
X0154543Y0079839D02*
X0157738Y0079839D01*
X0159680Y0078240D02*
X0154543Y0078240D01*
X0164369Y0077056D02*
X0164369Y0077056D01*
X0154543Y0092627D02*
X0274617Y0092627D01*
X0274615Y0092623D02*
X0274274Y0091954D01*
X0274042Y0091241D01*
X0273925Y0090499D01*
X0273925Y0090308D01*
X0278509Y0090308D01*
X0278509Y0094893D01*
X0278318Y0094893D01*
X0277575Y0094775D01*
X0276863Y0094543D01*
X0276193Y0094202D01*
X0275587Y0093761D01*
X0275055Y0093230D01*
X0274615Y0092623D01*
X0274008Y0091027D02*
X0199812Y0091027D01*
X0199976Y0090864D02*
X0198964Y0091877D01*
X0197640Y0092424D01*
X0196208Y0092424D01*
X0194885Y0091877D01*
X0193873Y0090864D01*
X0193325Y0089541D01*
X0193325Y0088109D01*
X0193873Y0086786D01*
X0194885Y0085773D01*
X0196208Y0085225D01*
X0197640Y0085225D01*
X0198964Y0085773D01*
X0199976Y0086786D01*
X0200524Y0088109D01*
X0200524Y0089541D01*
X0199976Y0090864D01*
X0200524Y0089430D02*
X0273975Y0089430D01*
X0276239Y0094224D02*
X0213105Y0094224D01*
X0221650Y0087831D02*
X0200410Y0087831D01*
X0199424Y0086233D02*
X0220326Y0086233D01*
X0224715Y0086233D02*
X0224865Y0086233D01*
X0224865Y0087831D02*
X0224715Y0087831D01*
X0224715Y0084634D02*
X0224865Y0084634D01*
X0227930Y0087831D02*
X0231326Y0087831D01*
X0230086Y0086233D02*
X0229253Y0086233D01*
X0218477Y0057459D02*
X0154543Y0057459D01*
X0154543Y0055861D02*
X0217804Y0055861D01*
X0218014Y0054262D02*
X0154543Y0054262D01*
X0154543Y0052664D02*
X0218292Y0052664D01*
X0218292Y0051065D02*
X0154543Y0051065D01*
X0154543Y0049467D02*
X0218292Y0049467D01*
X0218292Y0047868D02*
X0154543Y0047868D01*
X0154543Y0046270D02*
X0218292Y0046270D01*
X0218292Y0044671D02*
X0154543Y0044671D01*
X0154543Y0043073D02*
X0218292Y0043073D01*
X0218292Y0041474D02*
X0154543Y0041474D01*
X0154543Y0039876D02*
X0218292Y0039876D01*
X0218292Y0038277D02*
X0210299Y0038277D01*
X0211633Y0036679D02*
X0218292Y0036679D01*
X0218292Y0035079D02*
X0211882Y0035079D01*
X0211302Y0033482D02*
X0218292Y0033482D01*
X0218493Y0031883D02*
X0194011Y0031883D01*
X0192414Y0030285D02*
X0219772Y0030285D01*
X0221370Y0028686D02*
X0191403Y0028686D01*
X0191403Y0027088D02*
X0223278Y0027088D01*
X0219953Y0017497D02*
X0227191Y0017497D01*
X0229952Y0017497D02*
X0237191Y0017497D01*
X0239953Y0017497D02*
X0247190Y0017497D01*
X0249542Y0019095D02*
X0191403Y0019095D01*
X0191403Y0017497D02*
X0217191Y0017497D01*
X0214659Y0015898D02*
X0203653Y0015898D01*
X0203653Y0014299D02*
X0213682Y0014299D01*
X0213322Y0012701D02*
X0203653Y0012701D01*
X0203653Y0011103D02*
X0213421Y0011103D01*
X0214082Y0009504D02*
X0203653Y0009504D01*
X0198678Y0012701D02*
X0198528Y0012701D01*
X0198528Y0014299D02*
X0198678Y0014299D01*
X0198678Y0015898D02*
X0198528Y0015898D01*
X0193553Y0015898D02*
X0192562Y0015898D01*
X0193512Y0014299D02*
X0193553Y0014299D01*
X0188603Y0012432D02*
X0188603Y0030414D01*
X0188593Y0030424D01*
X0193593Y0035424D01*
X0208592Y0035424D01*
X0206887Y0038277D02*
X0154543Y0038277D01*
X0154543Y0036679D02*
X0190888Y0036679D01*
X0189290Y0035079D02*
X0154543Y0035079D01*
X0154543Y0033482D02*
X0187691Y0033482D01*
X0186167Y0031883D02*
X0154543Y0031883D01*
X0154543Y0030285D02*
X0185793Y0030285D01*
X0185803Y0028686D02*
X0154543Y0028686D01*
X0154543Y0027088D02*
X0185803Y0027088D01*
X0185803Y0025489D02*
X0164838Y0025489D01*
X0164369Y0025641D02*
X0164369Y0025641D01*
X0161143Y0025302D01*
X0158333Y0023681D01*
X0156428Y0021057D01*
X0155754Y0017885D01*
X0156428Y0014712D01*
X0158333Y0012088D01*
X0158333Y0012088D01*
X0158333Y0012088D01*
X0161143Y0010465D01*
X0164369Y0010127D01*
X0167453Y0011130D01*
X0169864Y0013300D01*
X0171183Y0016263D01*
X0171183Y0019506D01*
X0169864Y0022469D01*
X0169864Y0022469D01*
X0167453Y0024640D01*
X0167453Y0024640D01*
X0164369Y0025641D01*
X0162916Y0025489D02*
X0154543Y0025489D01*
X0154543Y0023891D02*
X0158697Y0023891D01*
X0158333Y0023681D02*
X0158333Y0023681D01*
X0158333Y0023681D01*
X0157325Y0022291D02*
X0154543Y0022291D01*
X0154543Y0020694D02*
X0156351Y0020694D01*
X0156428Y0021057D02*
X0156428Y0021057D01*
X0156011Y0019095D02*
X0154543Y0019095D01*
X0154543Y0017497D02*
X0155836Y0017497D01*
X0156176Y0015898D02*
X0154543Y0015898D01*
X0154543Y0014299D02*
X0156728Y0014299D01*
X0156428Y0014712D02*
X0156428Y0014712D01*
X0157889Y0012701D02*
X0154543Y0012701D01*
X0154543Y0011103D02*
X0160041Y0011103D01*
X0161143Y0010465D02*
X0161143Y0010465D01*
X0164369Y0010127D02*
X0164369Y0010127D01*
X0167370Y0011103D02*
X0173471Y0011103D01*
X0173353Y0012701D02*
X0169199Y0012701D01*
X0169864Y0013300D02*
X0169864Y0013300D01*
X0170309Y0014299D02*
X0173694Y0014299D01*
X0174645Y0015898D02*
X0171021Y0015898D01*
X0171183Y0017497D02*
X0177112Y0017497D01*
X0180095Y0017497D02*
X0185803Y0017497D01*
X0185803Y0019095D02*
X0171183Y0019095D01*
X0170655Y0020694D02*
X0185803Y0020694D01*
X0185803Y0022291D02*
X0169943Y0022291D01*
X0168285Y0023891D02*
X0185803Y0023891D01*
X0191403Y0023891D02*
X0249542Y0023891D01*
X0249542Y0025489D02*
X0191403Y0025489D01*
X0191403Y0022291D02*
X0249542Y0022291D01*
X0249542Y0020694D02*
X0191403Y0020694D01*
X0184645Y0015898D02*
X0182562Y0015898D01*
X0183512Y0014299D02*
X0183694Y0014299D01*
X0174133Y0009504D02*
X0154682Y0009504D01*
X0167453Y0011130D02*
X0167453Y0011130D01*
X0161143Y0025302D02*
X0161143Y0025302D01*
X0187424Y0086233D02*
X0194425Y0086233D01*
X0193439Y0087831D02*
X0188410Y0087831D01*
X0188524Y0089430D02*
X0193325Y0089430D01*
X0194037Y0091027D02*
X0187812Y0091027D01*
X0222484Y0015898D02*
X0224659Y0015898D01*
X0223681Y0014299D02*
X0223462Y0014299D01*
X0232484Y0015898D02*
X0234659Y0015898D01*
X0233682Y0014299D02*
X0233462Y0014299D01*
X0242484Y0015898D02*
X0244659Y0015898D01*
X0243682Y0014299D02*
X0243461Y0014299D01*
X0248572Y0012386D02*
X0252342Y0016157D01*
X0252342Y0039174D01*
X0256063Y0038277D02*
X0291099Y0038277D01*
X0291451Y0038629D02*
X0290388Y0037566D01*
X0289812Y0036176D01*
X0289812Y0035603D01*
X0287469Y0033259D01*
X0287043Y0032231D01*
X0287043Y0027833D01*
X0284932Y0025724D01*
X0264890Y0025724D01*
X0264485Y0026129D01*
X0263095Y0026705D01*
X0261591Y0026705D01*
X0260201Y0026129D01*
X0259138Y0025066D01*
X0258562Y0023676D01*
X0258562Y0022172D01*
X0259138Y0020781D01*
X0260201Y0019719D01*
X0261591Y0019143D01*
X0263095Y0019143D01*
X0264485Y0019719D01*
X0264890Y0020124D01*
X0286650Y0020124D01*
X0287679Y0020550D01*
X0292217Y0025088D01*
X0292642Y0026117D01*
X0292642Y0030514D01*
X0293772Y0031643D01*
X0294345Y0031643D01*
X0295735Y0032218D01*
X0296798Y0033282D01*
X0297374Y0034672D01*
X0297374Y0036176D01*
X0296798Y0037566D01*
X0295735Y0038629D01*
X0294345Y0039205D01*
X0292841Y0039205D01*
X0291451Y0038629D01*
X0290020Y0036679D02*
X0255195Y0036679D01*
X0255143Y0035079D02*
X0289290Y0035079D01*
X0287691Y0033482D02*
X0255143Y0033482D01*
X0255143Y0031883D02*
X0287043Y0031883D01*
X0287043Y0030285D02*
X0255143Y0030285D01*
X0255143Y0028686D02*
X0287043Y0028686D01*
X0286297Y0027088D02*
X0255143Y0027088D01*
X0255143Y0025489D02*
X0259561Y0025489D01*
X0258651Y0023891D02*
X0255143Y0023891D01*
X0255143Y0022291D02*
X0258562Y0022291D01*
X0259226Y0020694D02*
X0255143Y0020694D01*
X0255143Y0019095D02*
X0313491Y0019095D01*
X0313234Y0017885D02*
X0313908Y0021057D01*
X0313908Y0021057D01*
X0315815Y0023681D01*
X0315815Y0023681D01*
X0318624Y0025302D01*
X0318624Y0025302D01*
X0321849Y0025641D01*
X0321849Y0025641D01*
X0324934Y0024640D01*
X0324934Y0024640D01*
X0327344Y0022469D01*
X0327344Y0022469D01*
X0328663Y0019506D01*
X0328663Y0016263D01*
X0327344Y0013300D01*
X0327344Y0013300D01*
X0324934Y0011130D01*
X0324934Y0011130D01*
X0321849Y0010127D01*
X0321849Y0010127D01*
X0318624Y0010465D01*
X0318624Y0010465D01*
X0315815Y0012088D01*
X0315815Y0012088D01*
X0315815Y0012088D01*
X0313908Y0014712D01*
X0313908Y0014712D01*
X0313234Y0017885D01*
X0313316Y0017497D02*
X0307731Y0017497D01*
X0308789Y0015898D02*
X0313656Y0015898D01*
X0314208Y0014299D02*
X0308789Y0014299D01*
X0308789Y0012701D02*
X0315369Y0012701D01*
X0317522Y0011103D02*
X0308789Y0011103D01*
X0308789Y0009504D02*
X0345652Y0009504D01*
X0345793Y0011103D02*
X0340599Y0011103D01*
X0340682Y0011130D02*
X0340682Y0011130D01*
X0343092Y0013300D01*
X0344412Y0016263D01*
X0344412Y0019506D01*
X0343092Y0022469D01*
X0343092Y0022469D01*
X0340682Y0024640D01*
X0337597Y0025641D01*
X0334372Y0025302D01*
X0334372Y0025302D01*
X0331563Y0023681D01*
X0329655Y0021057D01*
X0328982Y0017885D01*
X0329655Y0014712D01*
X0329655Y0014712D01*
X0331563Y0012088D01*
X0334372Y0010465D01*
X0337597Y0010127D01*
X0337597Y0010127D01*
X0340682Y0011130D01*
X0342427Y0012701D02*
X0345793Y0012701D01*
X0345793Y0014299D02*
X0343537Y0014299D01*
X0343092Y0013300D02*
X0343092Y0013300D01*
X0344249Y0015898D02*
X0345793Y0015898D01*
X0345793Y0017497D02*
X0344412Y0017497D01*
X0344412Y0019095D02*
X0345793Y0019095D01*
X0345793Y0020694D02*
X0343883Y0020694D01*
X0343171Y0022291D02*
X0345793Y0022291D01*
X0345793Y0023891D02*
X0341514Y0023891D01*
X0340682Y0024640D02*
X0340682Y0024640D01*
X0338067Y0025489D02*
X0345793Y0025489D01*
X0345793Y0027088D02*
X0292642Y0027088D01*
X0292642Y0028686D02*
X0345793Y0028686D01*
X0345793Y0030285D02*
X0292642Y0030285D01*
X0294925Y0031883D02*
X0345793Y0031883D01*
X0345793Y0033482D02*
X0296881Y0033482D01*
X0297374Y0035079D02*
X0345793Y0035079D01*
X0345793Y0036679D02*
X0297166Y0036679D01*
X0296087Y0038277D02*
X0345793Y0038277D01*
X0337597Y0025641D02*
X0337597Y0025641D01*
X0336145Y0025489D02*
X0322319Y0025489D01*
X0320397Y0025489D02*
X0292383Y0025489D01*
X0291020Y0023891D02*
X0316178Y0023891D01*
X0315815Y0023681D02*
X0315815Y0023681D01*
X0314806Y0022291D02*
X0289421Y0022291D01*
X0287823Y0020694D02*
X0313831Y0020694D01*
X0325766Y0023891D02*
X0331926Y0023891D01*
X0331563Y0023681D02*
X0331563Y0023681D01*
X0331563Y0023681D01*
X0330554Y0022291D02*
X0327423Y0022291D01*
X0328135Y0020694D02*
X0329579Y0020694D01*
X0329655Y0021057D02*
X0329655Y0021057D01*
X0329239Y0019095D02*
X0328663Y0019095D01*
X0328982Y0017885D02*
X0328982Y0017885D01*
X0329064Y0017497D02*
X0328663Y0017497D01*
X0328501Y0015898D02*
X0329403Y0015898D01*
X0329956Y0014299D02*
X0327789Y0014299D01*
X0326679Y0012701D02*
X0331117Y0012701D01*
X0331563Y0012088D02*
X0331563Y0012088D01*
X0333270Y0011103D02*
X0324851Y0011103D01*
X0334372Y0010465D02*
X0334372Y0010465D01*
X0299348Y0017497D02*
X0255143Y0017497D01*
X0258497Y0015898D02*
X0258646Y0015898D01*
X0258646Y0014299D02*
X0258497Y0014299D01*
X0258497Y0012701D02*
X0258646Y0012701D01*
X0262202Y0015898D02*
X0263528Y0015898D01*
X0263522Y0014299D02*
X0263260Y0014299D01*
X0268497Y0014299D02*
X0268647Y0014299D01*
X0268647Y0015898D02*
X0268497Y0015898D01*
X0268497Y0012701D02*
X0268647Y0012701D01*
X0273622Y0012701D02*
X0288488Y0012701D01*
X0288638Y0011103D02*
X0273622Y0011103D01*
X0273622Y0009504D02*
X0289372Y0009504D01*
X0288860Y0014299D02*
X0273622Y0014299D01*
X0273614Y0015898D02*
X0289936Y0015898D01*
X0293464Y0015898D02*
X0293614Y0015898D01*
X0293614Y0014299D02*
X0293464Y0014299D01*
X0293464Y0012701D02*
X0293614Y0012701D01*
X0297143Y0015898D02*
X0298288Y0015898D01*
X0298288Y0014299D02*
X0298219Y0014299D01*
X0286093Y0022924D02*
X0289843Y0026673D01*
X0289843Y0031674D01*
X0293593Y0035424D01*
X0286093Y0022924D02*
X0262343Y0022924D01*
X0283662Y0076642D02*
X0285149Y0076642D01*
X0284095Y0078240D02*
X0283662Y0078240D01*
X0283662Y0079839D02*
X0283725Y0079839D01*
X0283662Y0081437D02*
X0283859Y0081437D01*
X0283662Y0083036D02*
X0284578Y0083036D01*
X0282948Y0084634D02*
X0286598Y0084634D01*
X0285935Y0086233D02*
X0281450Y0086233D01*
X0281192Y0086046D02*
X0281799Y0086487D01*
X0282330Y0087018D01*
X0282771Y0087625D01*
X0283112Y0088294D01*
X0283344Y0089007D01*
X0283462Y0089749D01*
X0283462Y0089940D01*
X0278877Y0089940D01*
X0278877Y0090308D01*
X0278509Y0090308D01*
X0278509Y0089940D01*
X0278877Y0089940D01*
X0278877Y0085356D01*
X0279067Y0085356D01*
X0279810Y0085473D01*
X0280522Y0085705D01*
X0281192Y0086046D01*
X0278877Y0086233D02*
X0278509Y0086233D01*
X0278509Y0087831D02*
X0278877Y0087831D01*
X0278877Y0089430D02*
X0278509Y0089430D01*
X0278877Y0090308D02*
X0283462Y0090308D01*
X0283462Y0090499D01*
X0283344Y0091241D01*
X0283112Y0091954D01*
X0282771Y0092623D01*
X0282330Y0093230D01*
X0281799Y0093761D01*
X0281192Y0094202D01*
X0280522Y0094543D01*
X0279810Y0094775D01*
X0279067Y0094893D01*
X0278877Y0094893D01*
X0278877Y0090308D01*
X0278877Y0091027D02*
X0278509Y0091027D01*
X0278509Y0092627D02*
X0278877Y0092627D01*
X0278877Y0094224D02*
X0278509Y0094224D01*
X0281147Y0094224D02*
X0286239Y0094224D01*
X0284617Y0092627D02*
X0282769Y0092627D01*
X0283378Y0091027D02*
X0284008Y0091027D01*
X0283975Y0089430D02*
X0283411Y0089430D01*
X0282877Y0087831D02*
X0284509Y0087831D01*
X0288509Y0087831D02*
X0288877Y0087831D01*
X0288877Y0086233D02*
X0288509Y0086233D01*
X0288509Y0089430D02*
X0288877Y0089430D01*
X0288877Y0091027D02*
X0288509Y0091027D01*
X0288509Y0092627D02*
X0288877Y0092627D01*
X0288877Y0094224D02*
X0288509Y0094224D01*
X0292808Y0083036D02*
X0294578Y0083036D01*
X0293859Y0081437D02*
X0293527Y0081437D01*
X0293662Y0079839D02*
X0293725Y0079839D01*
X0294095Y0078240D02*
X0293291Y0078240D01*
X0292237Y0076642D02*
X0295149Y0076642D01*
X0308508Y0086233D02*
X0308876Y0086233D01*
X0308876Y0087831D02*
X0308508Y0087831D01*
X0308508Y0089430D02*
X0308876Y0089430D01*
X0334372Y0077396D02*
X0334372Y0077396D01*
X0298549Y0183742D02*
X0295479Y0183742D01*
X0298466Y0185340D02*
X0298549Y0185340D01*
X0298549Y0198128D02*
X0296573Y0198128D01*
D33*
X0251093Y0072924D03*
X0246092Y0057924D03*
X0238593Y0042923D03*
X0225593Y0029424D03*
X0208592Y0035424D03*
X0203593Y0042923D03*
X0196093Y0027924D03*
X0178592Y0024424D03*
X0170092Y0023924D03*
X0201093Y0057924D03*
X0187092Y0063924D03*
X0178592Y0063924D03*
X0221092Y0055423D03*
X0261093Y0040424D03*
X0266093Y0042923D03*
X0278593Y0047924D03*
X0278593Y0035424D03*
X0286093Y0035424D03*
X0293593Y0045424D03*
X0298593Y0037924D03*
X0298593Y0055423D03*
X0312593Y0049424D03*
X0267093Y0062924D03*
M02*