%MOIN*%
%OFA0B0*%
%FSLAX25Y25*%
%IPPOS*%
%LPD*%
%AMOC8*
5,1,8,0,0,$1,22.5*%
%AMOC80*
5,1,8,0,0,$1,-157.5*%
%AMREC140*
4,1,3,
0.025,0.011000000000000003,
-0.025,0.010999999999999998,
-0.025,-0.011000000000000003,
0.025,-0.010999999999999998,
0*%
%AMREC150*
4,1,3,
0.010999999999999998,0.025,
-0.011000000000000003,0.025,
-0.010999999999999998,-0.025,
0.011000000000000003,-0.025,
0*%
%AMREC160*
4,1,3,
0.079999999999999988,0.080000000000000029,
-0.080000000000000029,0.079999999999999988,
-0.079999999999999988,-0.080000000000000029,
0.080000000000000029,-0.079999999999999988,
0*%
%AMREC170*
4,1,3,
0.099999999999999992,0.10000000000000002,
-0.10000000000000002,0.099999999999999992,
-0.099999999999999992,-0.10000000000000002,
0.10000000000000002,-0.099999999999999992,
0*%
%AMREC180*
4,1,3,
0.013779999999999995,0.035435,
-0.013780000000000004,0.035435,
-0.013779999999999995,-0.035435,
0.013780000000000004,-0.035435,
0*%
%AMREC190*
4,1,3,
0.02,0.013780000000000002,
-0.02,0.013779999999999999,
-0.02,-0.013780000000000002,
0.02,-0.013779999999999999,
0*%
%AMREC200*
4,1,3,
0.022499999999999992,0.020000000000000007,
-0.022500000000000003,0.019999999999999997,
-0.022499999999999992,-0.020000000000000007,
0.022500000000000003,-0.019999999999999997,
0*%
%AMREC210*
4,1,3,
0.02953,0.017715000000000005,
-0.02953,0.017714999999999998,
-0.02953,-0.017715000000000005,
0.02953,-0.017714999999999998,
0*%
%AMREC220*
4,1,3,
0.027499999999999997,0.027500000000000007,
-0.027500000000000007,0.027499999999999997,
-0.027499999999999997,-0.027500000000000007,
0.027500000000000007,-0.027499999999999997,
0*%
%ADD10R,0.05X0.022*%
%ADD11R,0.022X0.05*%
%ADD12R,0.16X0.16*%
%ADD13R,0.2X0.2*%
%ADD14C,0.01*%
%ADD15C,0.00875*%
%ADD16R,0.02756X0.07087*%
%ADD17R,0.04X0.02756*%
%ADD18R,0.044999999999999991X0.04*%
%ADD19R,0.05906X0.03543*%
%ADD20R,0.055000000000000007X0.055000000000000007*%
%AMCOMP50*
4,1,3,
0.025,0.011000000000000003,
-0.025,0.010999999999999998,
-0.025,-0.011000000000000003,
0.025,-0.010999999999999998,
0*%
%ADD31COMP50*%
%AMCOMP51*
4,1,3,
0.010999999999999998,0.025,
-0.011000000000000003,0.025,
-0.010999999999999998,-0.025,
0.011000000000000003,-0.025,
0*%
%ADD32COMP51*%
%AMCOMP52*
4,1,3,
0.079999999999999988,0.080000000000000029,
-0.080000000000000029,0.079999999999999988,
-0.079999999999999988,-0.080000000000000029,
0.080000000000000029,-0.079999999999999988,
0*%
%ADD33COMP52*%
%AMCOMP53*
4,1,3,
0.099999999999999992,0.10000000000000002,
-0.10000000000000002,0.099999999999999992,
-0.099999999999999992,-0.10000000000000002,
0.10000000000000002,-0.099999999999999992,
0*%
%ADD34COMP53*%
%ADD35C,0.01*%
%ADD36C,0.00875*%
%AMCOMP54*
4,1,3,
0.013779999999999995,0.035435,
-0.013780000000000004,0.035435,
-0.013779999999999995,-0.035435,
0.013780000000000004,-0.035435,
0*%
%ADD37COMP54*%
%AMCOMP55*
4,1,3,
0.02,0.013780000000000002,
-0.02,0.013779999999999999,
-0.02,-0.013780000000000002,
0.02,-0.013779999999999999,
0*%
%ADD38COMP55*%
%AMCOMP56*
4,1,3,
0.022499999999999992,0.020000000000000007,
-0.022500000000000003,0.019999999999999997,
-0.022499999999999992,-0.020000000000000007,
0.022500000000000003,-0.019999999999999997,
0*%
%ADD39COMP56*%
%AMCOMP57*
4,1,3,
0.02953,0.017715000000000005,
-0.02953,0.017714999999999998,
-0.02953,-0.017715000000000005,
0.02953,-0.017714999999999998,
0*%
%ADD40COMP57*%
%AMCOMP58*
4,1,3,
0.027499999999999997,0.027500000000000007,
-0.027500000000000007,0.027499999999999997,
-0.027499999999999997,-0.027500000000000007,
0.027500000000000007,-0.027499999999999997,
0*%
%ADD41COMP58*%
G75*
%LPD*%
D10*
X0003937Y0003937D02*
X0048837Y0152213D03*
X0048837Y0155363D03*
X0048837Y0158513D03*
X0048837Y0161661D03*
X0048837Y0164812D03*
X0048837Y0167961D03*
X0048837Y0171111D03*
X0048837Y0174261D03*
X0082637Y0174261D03*
X0082637Y0171111D03*
X0082637Y0167961D03*
X0082637Y0164812D03*
X0082637Y0161661D03*
X0082637Y0158513D03*
X0082637Y0155363D03*
X0082637Y0152213D03*
D11*
X0076761Y0146337D03*
X0073611Y0146337D03*
X0070461Y0146337D03*
X0067312Y0146337D03*
X0064162Y0146337D03*
X0061012Y0146337D03*
X0057863Y0146337D03*
X0054713Y0146337D03*
X0054713Y0180137D03*
X0057863Y0180137D03*
X0061012Y0180137D03*
X0064162Y0180137D03*
X0067312Y0180137D03*
X0070461Y0180137D03*
X0073611Y0180137D03*
X0076761Y0180137D03*
D12*
X0098237Y0070737D03*
D13*
X0098237Y0020737D03*
X0098237Y0120737D03*
D14*
X0099157Y0153323D02*
X0102157Y0153323D01*
X0102157Y0148823D01*
X0099157Y0148823D01*
X0099157Y0153323D01*
X0099157Y0149822D02*
X0102157Y0149822D01*
X0102157Y0150821D02*
X0099157Y0150821D01*
X0099157Y0151820D02*
X0102157Y0151820D01*
X0102157Y0152819D02*
X0099157Y0152819D01*
X0095157Y0153323D02*
X0092157Y0153323D01*
X0095157Y0153323D02*
X0095157Y0148823D01*
X0092157Y0148823D01*
X0092157Y0153323D01*
X0092157Y0149822D02*
X0095157Y0149822D01*
X0095157Y0150821D02*
X0092157Y0150821D01*
X0092157Y0151820D02*
X0095157Y0151820D01*
X0095157Y0152819D02*
X0092157Y0152819D01*
X0120370Y0159457D02*
X0120370Y0162457D01*
X0124869Y0162457D01*
X0124869Y0159457D01*
X0120370Y0159457D01*
X0120370Y0160456D02*
X0124869Y0160456D01*
X0124869Y0161455D02*
X0120370Y0161455D01*
X0120370Y0162454D02*
X0124869Y0162454D01*
X0120370Y0166457D02*
X0120370Y0169457D01*
X0124869Y0169457D01*
X0124869Y0166457D01*
X0120370Y0166457D01*
X0120370Y0167455D02*
X0124869Y0167455D01*
X0124869Y0168455D02*
X0120370Y0168455D01*
X0120370Y0169454D02*
X0124869Y0169454D01*
X0126947Y0187550D02*
X0129947Y0187550D01*
X0129947Y0183049D01*
X0126947Y0183049D01*
X0126947Y0187550D01*
X0126947Y0184049D02*
X0129947Y0184049D01*
X0129947Y0185048D02*
X0126947Y0185048D01*
X0126947Y0186047D02*
X0129947Y0186047D01*
X0129947Y0187046D02*
X0126947Y0187046D01*
X0133947Y0187550D02*
X0136947Y0187550D01*
X0136947Y0183049D01*
X0133947Y0183049D01*
X0133947Y0187550D01*
X0133947Y0184049D02*
X0136947Y0184049D01*
X0136947Y0185048D02*
X0133947Y0185048D01*
X0133947Y0186047D02*
X0136947Y0186047D01*
X0136947Y0187046D02*
X0133947Y0187046D01*
X0156495Y0165872D02*
X0156495Y0162872D01*
X0156495Y0165872D02*
X0160995Y0165872D01*
X0160995Y0162872D01*
X0156495Y0162872D01*
X0156495Y0163872D02*
X0160995Y0163872D01*
X0160995Y0164871D02*
X0156495Y0164871D01*
X0156495Y0165870D02*
X0160995Y0165870D01*
X0156495Y0158873D02*
X0156495Y0155873D01*
X0156495Y0158873D02*
X0160995Y0158873D01*
X0160995Y0155873D01*
X0156495Y0155873D01*
X0156495Y0156872D02*
X0160995Y0156872D01*
X0160995Y0157871D02*
X0156495Y0157871D01*
X0156495Y0158870D02*
X0160995Y0158870D01*
X0140697Y0154643D02*
X0140697Y0151642D01*
X0140697Y0154643D02*
X0145197Y0154643D01*
X0145197Y0151642D01*
X0140697Y0151642D01*
X0140697Y0152642D02*
X0145197Y0152642D01*
X0145197Y0153641D02*
X0140697Y0153641D01*
X0140697Y0154640D02*
X0145197Y0154640D01*
X0140697Y0147643D02*
X0140697Y0144643D01*
X0140697Y0147643D02*
X0145197Y0147643D01*
X0145197Y0144643D01*
X0140697Y0144643D01*
X0140697Y0145642D02*
X0145197Y0145642D01*
X0145197Y0146641D02*
X0140697Y0146641D01*
X0140697Y0147639D02*
X0145197Y0147639D01*
X0170557Y0141061D02*
X0173557Y0141061D01*
X0173557Y0136561D01*
X0170557Y0136561D01*
X0170557Y0141061D01*
X0170557Y0137560D02*
X0173557Y0137560D01*
X0173557Y0138559D02*
X0170557Y0138559D01*
X0170557Y0139558D02*
X0173557Y0139558D01*
X0173557Y0140556D02*
X0170557Y0140556D01*
X0177557Y0141061D02*
X0180557Y0141061D01*
X0180557Y0136561D01*
X0177557Y0136561D01*
X0177557Y0141061D01*
X0177557Y0137560D02*
X0180557Y0137560D01*
X0180557Y0138559D02*
X0177557Y0138559D01*
X0177557Y0139558D02*
X0180557Y0139558D01*
X0180557Y0140556D02*
X0177557Y0140556D01*
X0037168Y0162761D02*
X0034168Y0162761D01*
X0037168Y0162761D02*
X0037168Y0158262D01*
X0034168Y0158262D01*
X0034168Y0162761D01*
X0034168Y0159261D02*
X0037168Y0159261D01*
X0037168Y0160260D02*
X0034168Y0160260D01*
X0034168Y0161258D02*
X0037168Y0161258D01*
X0037168Y0162258D02*
X0034168Y0162258D01*
X0030168Y0162761D02*
X0027167Y0162761D01*
X0030168Y0162761D02*
X0030168Y0158262D01*
X0027167Y0158262D01*
X0027167Y0162761D01*
X0027167Y0159261D02*
X0030168Y0159261D01*
X0030168Y0160260D02*
X0027167Y0160260D01*
X0027167Y0161258D02*
X0030168Y0161258D01*
X0030168Y0162258D02*
X0027167Y0162258D01*
D15*
X0027687Y0150622D02*
X0030313Y0150622D01*
X0027687Y0150622D02*
X0027687Y0153247D01*
X0030313Y0153247D01*
X0030313Y0150622D01*
X0030313Y0151496D02*
X0027687Y0151496D01*
X0027687Y0152370D02*
X0030313Y0152370D01*
X0030313Y0153244D02*
X0027687Y0153244D01*
X0033687Y0150622D02*
X0036313Y0150622D01*
X0033687Y0150622D02*
X0033687Y0153247D01*
X0036313Y0153247D01*
X0036313Y0150622D01*
X0036313Y0151496D02*
X0033687Y0151496D01*
X0033687Y0152370D02*
X0036313Y0152370D01*
X0036313Y0153244D02*
X0033687Y0153244D01*
X0033741Y0143159D02*
X0036366Y0143159D01*
X0033741Y0143159D02*
X0033741Y0145785D01*
X0036366Y0145785D01*
X0036366Y0143159D01*
X0036366Y0144033D02*
X0033741Y0144033D01*
X0033741Y0144907D02*
X0036366Y0144907D01*
X0036366Y0145781D02*
X0033741Y0145781D01*
X0030367Y0143159D02*
X0027741Y0143159D01*
X0027741Y0145785D01*
X0030367Y0145785D01*
X0030367Y0143159D01*
X0030367Y0144033D02*
X0027741Y0144033D01*
X0027741Y0144907D02*
X0030367Y0144907D01*
X0030367Y0145781D02*
X0027741Y0145781D01*
X0091253Y0135747D02*
X0093879Y0135747D01*
X0091253Y0135747D02*
X0091253Y0138373D01*
X0093879Y0138373D01*
X0093879Y0135747D01*
X0093879Y0136621D02*
X0091253Y0136621D01*
X0091253Y0137494D02*
X0093879Y0137494D01*
X0093879Y0138369D02*
X0091253Y0138369D01*
X0097253Y0135747D02*
X0099879Y0135747D01*
X0097253Y0135747D02*
X0097253Y0138373D01*
X0099879Y0138373D01*
X0099879Y0135747D01*
X0099879Y0136621D02*
X0097253Y0136621D01*
X0097253Y0137494D02*
X0099879Y0137494D01*
X0099879Y0138369D02*
X0097253Y0138369D01*
D16*
X0154406Y0127624D03*
X0166406Y0127624D03*
X0172406Y0127624D03*
D17*
X0177906Y0124364D03*
X0177906Y0115309D03*
X0148906Y0115309D03*
X0148906Y0124364D03*
D18*
X0172038Y0150140D03*
X0172038Y0157140D03*
X0180038Y0153640D03*
D19*
X0112562Y0160261D03*
X0112562Y0173253D03*
X0093271Y0173253D03*
X0093271Y0160261D03*
D20*
X0038621Y0170452D03*
X0038650Y0179403D03*
X0025650Y0179403D03*
X0025621Y0170452D03*
G04 next file*
%LPD*%
G75*
D31*
X0350393Y0204724D02*
X0305492Y0056448D03*
X0305492Y0053298D03*
X0305492Y0050148D03*
X0305492Y0046999D03*
X0305492Y0043848D03*
X0305492Y0040699D03*
X0305492Y0037550D03*
X0305492Y0034400D03*
X0271692Y0034400D03*
X0271692Y0037550D03*
X0271692Y0040699D03*
X0271692Y0043848D03*
X0271692Y0046999D03*
X0271692Y0050148D03*
X0271692Y0053298D03*
X0271692Y0056448D03*
D32*
X0277568Y0062324D03*
X0280719Y0062324D03*
X0283869Y0062324D03*
X0287018Y0062324D03*
X0290168Y0062324D03*
X0293317Y0062324D03*
X0296467Y0062324D03*
X0299617Y0062324D03*
X0299617Y0028524D03*
X0296467Y0028524D03*
X0293317Y0028524D03*
X0290168Y0028524D03*
X0287018Y0028524D03*
X0283869Y0028524D03*
X0280719Y0028524D03*
X0277568Y0028524D03*
D33*
X0256093Y0137924D03*
D34*
X0256093Y0187924D03*
X0256093Y0087924D03*
D35*
X0255173Y0055338D02*
X0252172Y0055338D01*
X0252172Y0059838D01*
X0255173Y0059838D01*
X0255173Y0055338D01*
X0255173Y0058839D02*
X0252172Y0058839D01*
X0252172Y0057840D02*
X0255173Y0057840D01*
X0255173Y0056841D02*
X0252172Y0056841D01*
X0252172Y0055842D02*
X0255173Y0055842D01*
X0259173Y0055338D02*
X0262173Y0055338D01*
X0259173Y0055338D02*
X0259173Y0059838D01*
X0262173Y0059838D01*
X0262173Y0055338D01*
X0262173Y0058839D02*
X0259173Y0058839D01*
X0259173Y0057840D02*
X0262173Y0057840D01*
X0262173Y0056841D02*
X0259173Y0056841D01*
X0259173Y0055842D02*
X0262173Y0055842D01*
X0233960Y0049204D02*
X0233960Y0046204D01*
X0229460Y0046204D01*
X0229460Y0049204D01*
X0233960Y0049204D01*
X0233960Y0048205D02*
X0229460Y0048205D01*
X0229460Y0047206D02*
X0233960Y0047206D01*
X0233960Y0046207D02*
X0229460Y0046207D01*
X0233960Y0042204D02*
X0233960Y0039204D01*
X0229460Y0039204D01*
X0229460Y0042204D01*
X0233960Y0042204D01*
X0233960Y0041205D02*
X0229460Y0041205D01*
X0229460Y0040206D02*
X0233960Y0040206D01*
X0233960Y0039207D02*
X0229460Y0039207D01*
X0227382Y0021111D02*
X0224383Y0021111D01*
X0224383Y0025611D01*
X0227382Y0025611D01*
X0227382Y0021111D01*
X0227382Y0024612D02*
X0224383Y0024612D01*
X0224383Y0023612D02*
X0227382Y0023612D01*
X0227382Y0022614D02*
X0224383Y0022614D01*
X0224383Y0021615D02*
X0227382Y0021615D01*
X0220383Y0021111D02*
X0217383Y0021111D01*
X0217383Y0025611D01*
X0220383Y0025611D01*
X0220383Y0021111D01*
X0220383Y0024612D02*
X0217383Y0024612D01*
X0217383Y0023612D02*
X0220383Y0023612D01*
X0220383Y0022614D02*
X0217383Y0022614D01*
X0217383Y0021615D02*
X0220383Y0021615D01*
X0197835Y0042788D02*
X0197835Y0045788D01*
X0197835Y0042788D02*
X0193335Y0042788D01*
X0193335Y0045788D01*
X0197835Y0045788D01*
X0197835Y0044789D02*
X0193335Y0044789D01*
X0193335Y0043790D02*
X0197835Y0043790D01*
X0197835Y0042791D02*
X0193335Y0042791D01*
X0197835Y0049788D02*
X0197835Y0052788D01*
X0197835Y0049788D02*
X0193335Y0049788D01*
X0193335Y0052788D01*
X0197835Y0052788D01*
X0197835Y0051788D02*
X0193335Y0051788D01*
X0193335Y0050790D02*
X0197835Y0050790D01*
X0197835Y0049791D02*
X0193335Y0049791D01*
X0213633Y0054018D02*
X0213633Y0057018D01*
X0213633Y0054018D02*
X0209133Y0054018D01*
X0209133Y0057018D01*
X0213633Y0057018D01*
X0213633Y0056019D02*
X0209133Y0056019D01*
X0209133Y0055020D02*
X0213633Y0055020D01*
X0213633Y0054021D02*
X0209133Y0054021D01*
X0213633Y0061017D02*
X0213633Y0064018D01*
X0213633Y0061017D02*
X0209133Y0061017D01*
X0209133Y0064018D01*
X0213633Y0064018D01*
X0213633Y0063019D02*
X0209133Y0063019D01*
X0209133Y0062020D02*
X0213633Y0062020D01*
X0213633Y0061021D02*
X0209133Y0061021D01*
X0183773Y0067600D02*
X0180773Y0067600D01*
X0180773Y0072100D01*
X0183773Y0072100D01*
X0183773Y0067600D01*
X0183773Y0071100D02*
X0180773Y0071100D01*
X0180773Y0070102D02*
X0183773Y0070102D01*
X0183773Y0069103D02*
X0180773Y0069103D01*
X0180773Y0068104D02*
X0183773Y0068104D01*
X0176772Y0067600D02*
X0173772Y0067600D01*
X0173772Y0072100D01*
X0176772Y0072100D01*
X0176772Y0067600D01*
X0176772Y0071100D02*
X0173772Y0071100D01*
X0173772Y0070102D02*
X0176772Y0070102D01*
X0176772Y0069103D02*
X0173772Y0069103D01*
X0173772Y0068104D02*
X0176772Y0068104D01*
X0317162Y0045899D02*
X0320162Y0045899D01*
X0317162Y0045899D02*
X0317162Y0050399D01*
X0320162Y0050399D01*
X0320162Y0045899D01*
X0320162Y0049400D02*
X0317162Y0049400D01*
X0317162Y0048401D02*
X0320162Y0048401D01*
X0320162Y0047402D02*
X0317162Y0047402D01*
X0317162Y0046403D02*
X0320162Y0046403D01*
X0324162Y0045899D02*
X0327162Y0045899D01*
X0324162Y0045899D02*
X0324162Y0050399D01*
X0327162Y0050399D01*
X0327162Y0045899D01*
X0327162Y0049400D02*
X0324162Y0049400D01*
X0324162Y0048401D02*
X0327162Y0048401D01*
X0327162Y0047402D02*
X0324162Y0047402D01*
X0324162Y0046403D02*
X0327162Y0046403D01*
D36*
X0326643Y0058038D02*
X0324017Y0058038D01*
X0326643Y0058038D02*
X0326643Y0055413D01*
X0324017Y0055413D01*
X0324017Y0058038D01*
X0324017Y0057165D02*
X0326643Y0057165D01*
X0326643Y0056291D02*
X0324017Y0056291D01*
X0324017Y0055417D02*
X0326643Y0055417D01*
X0320643Y0058038D02*
X0318017Y0058038D01*
X0320643Y0058038D02*
X0320643Y0055413D01*
X0318017Y0055413D01*
X0318017Y0058038D01*
X0318017Y0057165D02*
X0320643Y0057165D01*
X0320643Y0056291D02*
X0318017Y0056291D01*
X0318017Y0055417D02*
X0320643Y0055417D01*
X0320588Y0065502D02*
X0317963Y0065502D01*
X0320588Y0065502D02*
X0320588Y0062876D01*
X0317963Y0062876D01*
X0317963Y0065502D01*
X0317963Y0064628D02*
X0320588Y0064628D01*
X0320588Y0063754D02*
X0317963Y0063754D01*
X0317963Y0062880D02*
X0320588Y0062880D01*
X0323963Y0065502D02*
X0326589Y0065502D01*
X0326589Y0062876D01*
X0323963Y0062876D01*
X0323963Y0065502D01*
X0323963Y0064628D02*
X0326589Y0064628D01*
X0326589Y0063754D02*
X0323963Y0063754D01*
X0323963Y0062880D02*
X0326589Y0062880D01*
X0263077Y0072914D02*
X0260451Y0072914D01*
X0263077Y0072914D02*
X0263077Y0070288D01*
X0260451Y0070288D01*
X0260451Y0072914D01*
X0260451Y0072040D02*
X0263077Y0072040D01*
X0263077Y0071166D02*
X0260451Y0071166D01*
X0260451Y0070292D02*
X0263077Y0070292D01*
X0257077Y0072914D02*
X0254450Y0072914D01*
X0257077Y0072914D02*
X0257077Y0070288D01*
X0254450Y0070288D01*
X0254450Y0072914D01*
X0254450Y0072040D02*
X0257077Y0072040D01*
X0257077Y0071166D02*
X0254450Y0071166D01*
X0254450Y0070292D02*
X0257077Y0070292D01*
D37*
X0199923Y0081037D03*
X0187924Y0081037D03*
X0181924Y0081037D03*
D38*
X0176424Y0084297D03*
X0176424Y0093352D03*
X0205424Y0093352D03*
X0205424Y0084297D03*
D39*
X0182292Y0058521D03*
X0182292Y0051520D03*
X0174292Y0055021D03*
D40*
X0241767Y0048400D03*
X0241767Y0035408D03*
X0261059Y0035408D03*
X0261059Y0048400D03*
D41*
X0315709Y0038209D03*
X0315680Y0029258D03*
X0328680Y0029258D03*
X0328709Y0038209D03*
M02*