%MOIN*%
%OFA0B0*%
%FSLAX25Y25*%
%IPPOS*%
%LPD*%
%AMOC8*
5,1,8,0,0,$1,22.5*%
%AMOC80*
5,1,8,0,0,$1,-157.5*%
%AMREC30*
4,1,3,
0.025,0.011000000000000003,
-0.025,0.010999999999999998,
-0.025,-0.011000000000000003,
0.025,-0.010999999999999998,
0*%
%AMREC40*
4,1,3,
0.010999999999999998,0.025,
-0.011000000000000003,0.025,
-0.010999999999999998,-0.025,
0.011000000000000003,-0.025,
0*%
%AMREC50*
4,1,3,
0.029684999999999996,0.029685000000000007,
-0.029685000000000007,0.029684999999999996,
-0.029684999999999996,-0.029685000000000007,
0.029685000000000007,-0.029684999999999996,
0*%
%AMREC60*
4,1,3,
0.079999999999999988,0.080000000000000029,
-0.080000000000000029,0.079999999999999988,
-0.079999999999999988,-0.080000000000000029,
0.080000000000000029,-0.079999999999999988,
0*%
%AMREC70*
4,1,3,
0.099999999999999992,0.10000000000000002,
-0.10000000000000002,0.099999999999999992,
-0.099999999999999992,-0.10000000000000002,
0.10000000000000002,-0.099999999999999992,
0*%
%AMREC80*
4,1,3,
0.013779999999999995,0.035435,
-0.013780000000000004,0.035435,
-0.013779999999999995,-0.035435,
0.013780000000000004,-0.035435,
0*%
%AMREC90*
4,1,3,
0.02,0.013780000000000002,
-0.02,0.013779999999999999,
-0.02,-0.013780000000000002,
0.02,-0.013779999999999999,
0*%
%AMREC100*
4,1,3,
0.0325,0.032500000000000008,
-0.032500000000000008,0.0325,
-0.0325,-0.032500000000000008,
0.032500000000000008,-0.0325,
0*%
%AMREC110*
4,1,3,
0.022499999999999992,0.020000000000000007,
-0.022500000000000003,0.019999999999999997,
-0.022499999999999992,-0.020000000000000007,
0.022500000000000003,-0.019999999999999997,
0*%
%AMREC120*
4,1,3,
0.02953,0.017715000000000005,
-0.02953,0.017714999999999998,
-0.02953,-0.017715000000000005,
0.02953,-0.017714999999999998,
0*%
%AMREC130*
4,1,3,
0.027499999999999997,0.027500000000000007,
-0.027500000000000007,0.027499999999999997,
-0.027499999999999997,-0.027500000000000007,
0.027500000000000007,-0.027499999999999997,
0*%
%ADD10R,0.05X0.022*%
%ADD11R,0.022X0.05*%
%ADD12R,0.05937X0.05937*%
%ADD13C,0.05937*%
%ADD14R,0.16X0.16*%
%ADD15R,0.2X0.2*%
%ADD16C,0.01*%
%ADD17C,0.00875*%
%ADD18R,0.02756X0.07087*%
%ADD19R,0.04X0.02756*%
%ADD20R,0.065X0.065*%
%ADD21C,0.065*%
%ADD22R,0.044999999999999991X0.04*%
%ADD23R,0.05906X0.03543*%
%ADD24R,0.055000000000000007X0.055000000000000007*%
%ADD25C,0.03562*%
%ADD26C,0.016*%
%ADD27C,0.02578*%
%AMCOMP39*
4,1,3,
0.025,0.011000000000000003,
-0.025,0.010999999999999998,
-0.025,-0.011000000000000003,
0.025,-0.010999999999999998,
0*%
%ADD38COMP39*%
%AMCOMP40*
4,1,3,
0.010999999999999998,0.025,
-0.011000000000000003,0.025,
-0.010999999999999998,-0.025,
0.011000000000000003,-0.025,
0*%
%ADD39COMP40*%
%AMCOMP41*
4,1,3,
0.029684999999999996,0.029685000000000007,
-0.029685000000000007,0.029684999999999996,
-0.029684999999999996,-0.029685000000000007,
0.029685000000000007,-0.029684999999999996,
0*%
%ADD40COMP41*%
%ADD41C,0.05937*%
%AMCOMP42*
4,1,3,
0.079999999999999988,0.080000000000000029,
-0.080000000000000029,0.079999999999999988,
-0.079999999999999988,-0.080000000000000029,
0.080000000000000029,-0.079999999999999988,
0*%
%ADD42COMP42*%
%AMCOMP43*
4,1,3,
0.099999999999999992,0.10000000000000002,
-0.10000000000000002,0.099999999999999992,
-0.099999999999999992,-0.10000000000000002,
0.10000000000000002,-0.099999999999999992,
0*%
%ADD43COMP43*%
%ADD44C,0.01*%
%ADD45C,0.00875*%
%AMCOMP44*
4,1,3,
0.013779999999999995,0.035435,
-0.013780000000000004,0.035435,
-0.013779999999999995,-0.035435,
0.013780000000000004,-0.035435,
0*%
%ADD46COMP44*%
%AMCOMP45*
4,1,3,
0.02,0.013780000000000002,
-0.02,0.013779999999999999,
-0.02,-0.013780000000000002,
0.02,-0.013779999999999999,
0*%
%ADD47COMP45*%
%AMCOMP46*
4,1,3,
0.0325,0.032500000000000008,
-0.032500000000000008,0.0325,
-0.0325,-0.032500000000000008,
0.032500000000000008,-0.0325,
0*%
%ADD48COMP46*%
%ADD49C,0.065*%
%AMCOMP47*
4,1,3,
0.022499999999999992,0.020000000000000007,
-0.022500000000000003,0.019999999999999997,
-0.022499999999999992,-0.020000000000000007,
0.022500000000000003,-0.019999999999999997,
0*%
%ADD50COMP47*%
%AMCOMP48*
4,1,3,
0.02953,0.017715000000000005,
-0.02953,0.017714999999999998,
-0.02953,-0.017715000000000005,
0.02953,-0.017714999999999998,
0*%
%ADD51COMP48*%
%AMCOMP49*
4,1,3,
0.027499999999999997,0.027500000000000007,
-0.027500000000000007,0.027499999999999997,
-0.027499999999999997,-0.027500000000000007,
0.027500000000000007,-0.027499999999999997,
0*%
%ADD52COMP49*%
%ADD53C,0.03562*%
%ADD54C,0.016*%
%ADD55C,0.02578*%
G75*
%LPD*%
D10*
X0003937Y0003937D02*
X0048837Y0152213D03*
X0048837Y0155363D03*
X0048837Y0158513D03*
X0048837Y0161661D03*
X0048837Y0164812D03*
X0048837Y0167961D03*
X0048837Y0171111D03*
X0048837Y0174261D03*
X0082637Y0174261D03*
X0082637Y0171111D03*
X0082637Y0167961D03*
X0082637Y0164812D03*
X0082637Y0161661D03*
X0082637Y0158513D03*
X0082637Y0155363D03*
X0082637Y0152213D03*
D11*
X0076761Y0146337D03*
X0073611Y0146337D03*
X0070461Y0146337D03*
X0067312Y0146337D03*
X0064162Y0146337D03*
X0061012Y0146337D03*
X0057863Y0146337D03*
X0054713Y0146337D03*
X0054713Y0180137D03*
X0057863Y0180137D03*
X0061012Y0180137D03*
X0064162Y0180137D03*
X0067312Y0180137D03*
X0070461Y0180137D03*
X0073611Y0180137D03*
X0076761Y0180137D03*
D12*
X0075637Y0128536D03*
D13*
X0075637Y0118537D03*
X0065637Y0118537D03*
X0065637Y0128536D03*
X0055637Y0128536D03*
X0055637Y0118537D03*
X0045637Y0118537D03*
X0045637Y0128536D03*
X0035637Y0128536D03*
X0035637Y0118537D03*
D14*
X0098237Y0070737D03*
D15*
X0098237Y0020737D03*
X0098237Y0120737D03*
D16*
X0099157Y0153323D02*
X0102157Y0153323D01*
X0102157Y0148823D01*
X0099157Y0148823D01*
X0099157Y0153323D01*
X0099157Y0149822D02*
X0102157Y0149822D01*
X0102157Y0150821D02*
X0099157Y0150821D01*
X0099157Y0151820D02*
X0102157Y0151820D01*
X0102157Y0152819D02*
X0099157Y0152819D01*
X0095157Y0153323D02*
X0092157Y0153323D01*
X0095157Y0153323D02*
X0095157Y0148823D01*
X0092157Y0148823D01*
X0092157Y0153323D01*
X0092157Y0149822D02*
X0095157Y0149822D01*
X0095157Y0150821D02*
X0092157Y0150821D01*
X0092157Y0151820D02*
X0095157Y0151820D01*
X0095157Y0152819D02*
X0092157Y0152819D01*
X0120370Y0159457D02*
X0120370Y0162457D01*
X0124869Y0162457D01*
X0124869Y0159457D01*
X0120370Y0159457D01*
X0120370Y0160456D02*
X0124869Y0160456D01*
X0124869Y0161455D02*
X0120370Y0161455D01*
X0120370Y0162454D02*
X0124869Y0162454D01*
X0120370Y0166457D02*
X0120370Y0169457D01*
X0124869Y0169457D01*
X0124869Y0166457D01*
X0120370Y0166457D01*
X0120370Y0167455D02*
X0124869Y0167455D01*
X0124869Y0168455D02*
X0120370Y0168455D01*
X0120370Y0169454D02*
X0124869Y0169454D01*
X0126947Y0187550D02*
X0129947Y0187550D01*
X0129947Y0183049D01*
X0126947Y0183049D01*
X0126947Y0187550D01*
X0126947Y0184049D02*
X0129947Y0184049D01*
X0129947Y0185048D02*
X0126947Y0185048D01*
X0126947Y0186047D02*
X0129947Y0186047D01*
X0129947Y0187046D02*
X0126947Y0187046D01*
X0133947Y0187550D02*
X0136947Y0187550D01*
X0136947Y0183049D01*
X0133947Y0183049D01*
X0133947Y0187550D01*
X0133947Y0184049D02*
X0136947Y0184049D01*
X0136947Y0185048D02*
X0133947Y0185048D01*
X0133947Y0186047D02*
X0136947Y0186047D01*
X0136947Y0187046D02*
X0133947Y0187046D01*
X0156495Y0165872D02*
X0156495Y0162872D01*
X0156495Y0165872D02*
X0160995Y0165872D01*
X0160995Y0162872D01*
X0156495Y0162872D01*
X0156495Y0163872D02*
X0160995Y0163872D01*
X0160995Y0164871D02*
X0156495Y0164871D01*
X0156495Y0165870D02*
X0160995Y0165870D01*
X0156495Y0158873D02*
X0156495Y0155873D01*
X0156495Y0158873D02*
X0160995Y0158873D01*
X0160995Y0155873D01*
X0156495Y0155873D01*
X0156495Y0156872D02*
X0160995Y0156872D01*
X0160995Y0157871D02*
X0156495Y0157871D01*
X0156495Y0158870D02*
X0160995Y0158870D01*
X0140697Y0154643D02*
X0140697Y0151642D01*
X0140697Y0154643D02*
X0145197Y0154643D01*
X0145197Y0151642D01*
X0140697Y0151642D01*
X0140697Y0152642D02*
X0145197Y0152642D01*
X0145197Y0153641D02*
X0140697Y0153641D01*
X0140697Y0154640D02*
X0145197Y0154640D01*
X0140697Y0147643D02*
X0140697Y0144643D01*
X0140697Y0147643D02*
X0145197Y0147643D01*
X0145197Y0144643D01*
X0140697Y0144643D01*
X0140697Y0145642D02*
X0145197Y0145642D01*
X0145197Y0146641D02*
X0140697Y0146641D01*
X0140697Y0147639D02*
X0145197Y0147639D01*
X0170557Y0141061D02*
X0173557Y0141061D01*
X0173557Y0136561D01*
X0170557Y0136561D01*
X0170557Y0141061D01*
X0170557Y0137560D02*
X0173557Y0137560D01*
X0173557Y0138559D02*
X0170557Y0138559D01*
X0170557Y0139558D02*
X0173557Y0139558D01*
X0173557Y0140556D02*
X0170557Y0140556D01*
X0177557Y0141061D02*
X0180557Y0141061D01*
X0180557Y0136561D01*
X0177557Y0136561D01*
X0177557Y0141061D01*
X0177557Y0137560D02*
X0180557Y0137560D01*
X0180557Y0138559D02*
X0177557Y0138559D01*
X0177557Y0139558D02*
X0180557Y0139558D01*
X0180557Y0140556D02*
X0177557Y0140556D01*
X0037168Y0162761D02*
X0034168Y0162761D01*
X0037168Y0162761D02*
X0037168Y0158262D01*
X0034168Y0158262D01*
X0034168Y0162761D01*
X0034168Y0159261D02*
X0037168Y0159261D01*
X0037168Y0160260D02*
X0034168Y0160260D01*
X0034168Y0161258D02*
X0037168Y0161258D01*
X0037168Y0162258D02*
X0034168Y0162258D01*
X0030168Y0162761D02*
X0027167Y0162761D01*
X0030168Y0162761D02*
X0030168Y0158262D01*
X0027167Y0158262D01*
X0027167Y0162761D01*
X0027167Y0159261D02*
X0030168Y0159261D01*
X0030168Y0160260D02*
X0027167Y0160260D01*
X0027167Y0161258D02*
X0030168Y0161258D01*
X0030168Y0162258D02*
X0027167Y0162258D01*
D17*
X0027687Y0150622D02*
X0030313Y0150622D01*
X0027687Y0150622D02*
X0027687Y0153247D01*
X0030313Y0153247D01*
X0030313Y0150622D01*
X0030313Y0151496D02*
X0027687Y0151496D01*
X0027687Y0152370D02*
X0030313Y0152370D01*
X0030313Y0153244D02*
X0027687Y0153244D01*
X0033687Y0150622D02*
X0036313Y0150622D01*
X0033687Y0150622D02*
X0033687Y0153247D01*
X0036313Y0153247D01*
X0036313Y0150622D01*
X0036313Y0151496D02*
X0033687Y0151496D01*
X0033687Y0152370D02*
X0036313Y0152370D01*
X0036313Y0153244D02*
X0033687Y0153244D01*
X0033741Y0143159D02*
X0036366Y0143159D01*
X0033741Y0143159D02*
X0033741Y0145785D01*
X0036366Y0145785D01*
X0036366Y0143159D01*
X0036366Y0144033D02*
X0033741Y0144033D01*
X0033741Y0144907D02*
X0036366Y0144907D01*
X0036366Y0145781D02*
X0033741Y0145781D01*
X0030367Y0143159D02*
X0027741Y0143159D01*
X0027741Y0145785D01*
X0030367Y0145785D01*
X0030367Y0143159D01*
X0030367Y0144033D02*
X0027741Y0144033D01*
X0027741Y0144907D02*
X0030367Y0144907D01*
X0030367Y0145781D02*
X0027741Y0145781D01*
X0091253Y0135747D02*
X0093879Y0135747D01*
X0091253Y0135747D02*
X0091253Y0138373D01*
X0093879Y0138373D01*
X0093879Y0135747D01*
X0093879Y0136621D02*
X0091253Y0136621D01*
X0091253Y0137494D02*
X0093879Y0137494D01*
X0093879Y0138369D02*
X0091253Y0138369D01*
X0097253Y0135747D02*
X0099879Y0135747D01*
X0097253Y0135747D02*
X0097253Y0138373D01*
X0099879Y0138373D01*
X0099879Y0135747D01*
X0099879Y0136621D02*
X0097253Y0136621D01*
X0097253Y0137494D02*
X0099879Y0137494D01*
X0099879Y0138369D02*
X0097253Y0138369D01*
D18*
X0154406Y0127624D03*
X0166406Y0127624D03*
X0172406Y0127624D03*
D19*
X0177906Y0124364D03*
X0177906Y0115309D03*
X0148906Y0115309D03*
X0148906Y0124364D03*
D20*
X0119540Y0144791D03*
X0085758Y0196274D03*
X0050791Y0196302D03*
X0155727Y0196229D03*
D21*
X0165727Y0196229D03*
X0175727Y0196229D03*
X0135758Y0196274D03*
X0125757Y0196274D03*
X0115758Y0196274D03*
X0105758Y0196274D03*
X0095758Y0196274D03*
X0060790Y0196302D03*
X0119540Y0134791D03*
X0129540Y0134791D03*
X0129540Y0144791D03*
X0129540Y0124791D03*
X0119540Y0124791D03*
D22*
X0172038Y0150140D03*
X0172038Y0157140D03*
X0180038Y0153640D03*
D23*
X0112562Y0160261D03*
X0112562Y0173253D03*
X0093271Y0173253D03*
X0093271Y0160261D03*
D24*
X0038621Y0170452D03*
X0038650Y0179403D03*
X0025650Y0179403D03*
X0025621Y0170452D03*
D25*
X0060737Y0173237D03*
X0091987Y0185737D03*
X0101987Y0169487D03*
X0116987Y0108237D03*
X0131987Y0101987D03*
X0125737Y0030736D03*
X0116987Y0020737D03*
X0080737Y0015737D03*
D26*
X0055781Y0009674D02*
X0055803Y0009452D01*
X0055972Y0009042D01*
X0056286Y0008729D01*
X0056696Y0008559D01*
X0056918Y0008537D01*
X0135658Y0008537D01*
X0135880Y0008559D01*
X0136290Y0008729D01*
X0136604Y0009042D01*
X0136773Y0009452D01*
X0136795Y0009674D01*
X0136795Y0011668D01*
X0134132Y0010130D01*
X0134132Y0010130D01*
X0130905Y0009791D01*
X0130905Y0009791D01*
X0127821Y0010792D01*
X0127821Y0010792D01*
X0125411Y0012963D01*
X0125411Y0012963D01*
X0124092Y0015926D01*
X0124092Y0019170D01*
X0125411Y0022133D01*
X0125411Y0022133D01*
X0127821Y0024302D01*
X0127821Y0024302D01*
X0130905Y0025305D01*
X0130905Y0025305D01*
X0134132Y0024966D01*
X0134132Y0024966D01*
X0136795Y0023428D01*
X0136795Y0109439D01*
X0137821Y0111915D01*
X0137821Y0111915D01*
X0139716Y0113811D01*
X0139716Y0113811D01*
X0142192Y0114836D01*
X0144906Y0114836D01*
X0144906Y0117514D01*
X0146076Y0118687D01*
X0151733Y0118687D01*
X0152904Y0117514D01*
X0152904Y0114836D01*
X0173906Y0114836D01*
X0173906Y0117514D01*
X0175077Y0118687D01*
X0180734Y0118687D01*
X0181905Y0117514D01*
X0181905Y0114836D01*
X0198650Y0114836D01*
X0198871Y0114858D01*
X0199282Y0115028D01*
X0199596Y0115341D01*
X0199766Y0115751D01*
X0199787Y0115973D01*
X0199787Y0198650D01*
X0199766Y0198871D01*
X0199596Y0199282D01*
X0199282Y0199596D01*
X0198871Y0199766D01*
X0198650Y0199787D01*
X0179593Y0199787D01*
X0180177Y0199203D01*
X0180977Y0197273D01*
X0180977Y0195185D01*
X0180177Y0193255D01*
X0178701Y0191777D01*
X0178669Y0191765D01*
X0182412Y0188022D01*
X0182838Y0186993D01*
X0182838Y0157640D01*
X0183116Y0157640D01*
X0184288Y0156469D01*
X0184288Y0150812D01*
X0183116Y0149640D01*
X0176958Y0149640D01*
X0176288Y0150312D01*
X0176288Y0147312D01*
X0175116Y0146140D01*
X0174838Y0146140D01*
X0174838Y0143236D01*
X0174972Y0143180D01*
X0175676Y0142477D01*
X0175698Y0142421D01*
X0175769Y0142527D01*
X0176091Y0142848D01*
X0176467Y0143099D01*
X0176886Y0143273D01*
X0177330Y0143361D01*
X0178857Y0143361D01*
X0178857Y0139011D01*
X0179257Y0139011D01*
X0182857Y0139011D01*
X0182857Y0141288D01*
X0182768Y0141732D01*
X0182595Y0142150D01*
X0182343Y0142527D01*
X0182023Y0142848D01*
X0181646Y0143099D01*
X0181227Y0143273D01*
X0180783Y0143361D01*
X0179257Y0143361D01*
X0179257Y0139011D01*
X0179257Y0138611D01*
X0182857Y0138611D01*
X0182857Y0136334D01*
X0182768Y0135890D01*
X0182595Y0135472D01*
X0182343Y0135095D01*
X0182023Y0134774D01*
X0181646Y0134523D01*
X0181227Y0134349D01*
X0180783Y0134261D01*
X0179257Y0134261D01*
X0179257Y0138611D01*
X0178857Y0138611D01*
X0178857Y0134261D01*
X0177330Y0134261D01*
X0176886Y0134349D01*
X0176467Y0134523D01*
X0176091Y0134774D01*
X0175769Y0135095D01*
X0175698Y0135201D01*
X0175676Y0135145D01*
X0174972Y0134442D01*
X0174857Y0134394D01*
X0174857Y0132922D01*
X0175783Y0131994D01*
X0175783Y0127742D01*
X0180734Y0127742D01*
X0181905Y0126570D01*
X0181905Y0122157D01*
X0180734Y0120986D01*
X0175077Y0120986D01*
X0173983Y0122080D01*
X0172253Y0122080D01*
X0172457Y0121875D01*
X0173005Y0120551D01*
X0173005Y0119120D01*
X0172457Y0117797D01*
X0171445Y0116784D01*
X0170121Y0116236D01*
X0168689Y0116236D01*
X0167366Y0116784D01*
X0166354Y0117797D01*
X0165806Y0119120D01*
X0165806Y0120551D01*
X0166354Y0121875D01*
X0166558Y0122080D01*
X0164198Y0122080D01*
X0163027Y0123252D01*
X0163027Y0127042D01*
X0162901Y0127167D01*
X0162113Y0127956D01*
X0161687Y0128985D01*
X0161687Y0134187D01*
X0144397Y0134187D01*
X0142287Y0132076D01*
X0142287Y0117680D01*
X0141861Y0116651D01*
X0141073Y0115863D01*
X0131073Y0105863D01*
X0130044Y0105437D01*
X0119534Y0105437D01*
X0119129Y0105031D01*
X0117739Y0104456D01*
X0116235Y0104456D01*
X0114845Y0105031D01*
X0114440Y0105437D01*
X0107680Y0105437D01*
X0106651Y0105863D01*
X0104151Y0108363D01*
X0103777Y0108737D01*
X0087409Y0108737D01*
X0086237Y0109908D01*
X0086237Y0131565D01*
X0087409Y0132737D01*
X0101885Y0132737D01*
X0101401Y0132937D01*
X0099331Y0132937D01*
X0098431Y0133310D01*
X0096769Y0133310D01*
X0095873Y0133681D01*
X0095566Y0133988D01*
X0095259Y0133681D01*
X0094363Y0133310D01*
X0092700Y0133310D01*
X0091800Y0132937D01*
X0080002Y0132937D01*
X0080605Y0132334D01*
X0080605Y0124740D01*
X0079434Y0123567D01*
X0071840Y0123567D01*
X0070668Y0124740D01*
X0070668Y0126845D01*
X0070418Y0127096D01*
X0069849Y0125723D01*
X0068451Y0124325D01*
X0066625Y0123567D01*
X0064649Y0123567D01*
X0062822Y0124325D01*
X0061424Y0125723D01*
X0060668Y0127548D01*
X0060668Y0129525D01*
X0060982Y0130282D01*
X0057513Y0133751D01*
X0057513Y0133138D01*
X0058451Y0132749D01*
X0059849Y0131351D01*
X0060605Y0129525D01*
X0060605Y0127548D01*
X0059849Y0125723D01*
X0058451Y0124325D01*
X0056625Y0123567D01*
X0054649Y0123567D01*
X0052823Y0124325D01*
X0051425Y0125723D01*
X0050668Y0127548D01*
X0050668Y0129525D01*
X0051425Y0131351D01*
X0051913Y0131839D01*
X0051913Y0142709D01*
X0051613Y0143009D01*
X0051613Y0149113D01*
X0048537Y0149113D01*
X0048537Y0132664D01*
X0049849Y0131351D01*
X0050605Y0129525D01*
X0050605Y0127548D01*
X0049849Y0125723D01*
X0048450Y0124325D01*
X0046625Y0123567D01*
X0044649Y0123567D01*
X0042823Y0124325D01*
X0041425Y0125723D01*
X0040668Y0127548D01*
X0040668Y0129525D01*
X0041425Y0131351D01*
X0042823Y0132749D01*
X0042937Y0132796D01*
X0042937Y0148977D01*
X0041204Y0147245D01*
X0041204Y0141758D01*
X0040778Y0140729D01*
X0039990Y0139941D01*
X0038437Y0138388D01*
X0038437Y0132755D01*
X0038451Y0132749D01*
X0039849Y0131351D01*
X0040605Y0129525D01*
X0040605Y0127548D01*
X0039849Y0125723D01*
X0038451Y0124325D01*
X0036625Y0123567D01*
X0034649Y0123567D01*
X0032823Y0124325D01*
X0031424Y0125723D01*
X0030668Y0127548D01*
X0030668Y0129525D01*
X0031424Y0131351D01*
X0032823Y0132749D01*
X0032837Y0132755D01*
X0032837Y0140105D01*
X0033117Y0140780D01*
X0032361Y0141093D01*
X0031913Y0141541D01*
X0031741Y0141369D01*
X0031230Y0141074D01*
X0030661Y0140922D01*
X0029129Y0140922D01*
X0029129Y0144397D01*
X0028979Y0144397D01*
X0025504Y0144397D01*
X0025504Y0142865D01*
X0025657Y0142296D01*
X0025951Y0141785D01*
X0026368Y0141369D01*
X0026878Y0141074D01*
X0027447Y0140922D01*
X0028979Y0140922D01*
X0028979Y0144397D01*
X0028979Y0144547D01*
X0028979Y0148022D01*
X0027447Y0148022D01*
X0026878Y0147869D01*
X0026368Y0147575D01*
X0025951Y0147158D01*
X0025657Y0146647D01*
X0025504Y0146079D01*
X0025504Y0144547D01*
X0028979Y0144547D01*
X0029129Y0144547D01*
X0029129Y0148022D01*
X0030661Y0148022D01*
X0031230Y0147869D01*
X0031741Y0147575D01*
X0031913Y0147402D01*
X0032199Y0147689D01*
X0032199Y0148662D01*
X0031859Y0149004D01*
X0031685Y0148832D01*
X0031175Y0148537D01*
X0030607Y0148385D01*
X0029075Y0148385D01*
X0029075Y0151859D01*
X0028925Y0151859D01*
X0025450Y0151859D01*
X0025450Y0150327D01*
X0025602Y0149758D01*
X0025896Y0149248D01*
X0026314Y0148832D01*
X0026823Y0148537D01*
X0027393Y0148385D01*
X0028925Y0148385D01*
X0028925Y0151859D01*
X0028925Y0152010D01*
X0028925Y0155485D01*
X0027393Y0155485D01*
X0026823Y0155332D01*
X0026314Y0155038D01*
X0025896Y0154621D01*
X0025602Y0154111D01*
X0025450Y0153542D01*
X0025450Y0152010D01*
X0028925Y0152010D01*
X0029075Y0152010D01*
X0029075Y0155485D01*
X0030607Y0155485D01*
X0031175Y0155332D01*
X0031685Y0155038D01*
X0031859Y0154865D01*
X0032307Y0155313D01*
X0032868Y0155546D01*
X0032868Y0156094D01*
X0032751Y0156141D01*
X0032168Y0156726D01*
X0031584Y0156141D01*
X0030664Y0155762D01*
X0026670Y0155762D01*
X0025752Y0156141D01*
X0025047Y0156846D01*
X0024668Y0157764D01*
X0024668Y0160552D01*
X0023248Y0161972D01*
X0022821Y0163001D01*
X0022821Y0165702D01*
X0022043Y0165702D01*
X0020871Y0166873D01*
X0020871Y0174030D01*
X0021959Y0175118D01*
X0021794Y0175213D01*
X0021459Y0175548D01*
X0021222Y0175958D01*
X0021100Y0176416D01*
X0021100Y0178828D01*
X0025074Y0178828D01*
X0025074Y0179978D01*
X0025074Y0183953D01*
X0022663Y0183953D01*
X0022205Y0183830D01*
X0021794Y0183593D01*
X0021459Y0183258D01*
X0021222Y0182848D01*
X0021100Y0182390D01*
X0021100Y0179978D01*
X0025074Y0179978D01*
X0026225Y0179978D01*
X0030200Y0179978D01*
X0030200Y0182390D01*
X0030077Y0182848D01*
X0029840Y0183258D01*
X0029504Y0183593D01*
X0029093Y0183830D01*
X0028637Y0183953D01*
X0026225Y0183953D01*
X0026225Y0179978D01*
X0026225Y0178828D01*
X0030037Y0178828D01*
X0033244Y0182034D01*
X0033362Y0182323D01*
X0033900Y0182859D01*
X0033900Y0182982D01*
X0034108Y0183190D01*
X0032481Y0183018D01*
X0032481Y0183018D01*
X0029396Y0184021D01*
X0029396Y0184021D01*
X0026986Y0186192D01*
X0026986Y0186192D01*
X0025667Y0189155D01*
X0025667Y0192397D01*
X0026986Y0195361D01*
X0026986Y0195361D01*
X0029396Y0197531D01*
X0029396Y0197531D01*
X0032481Y0198534D01*
X0032481Y0198534D01*
X0035706Y0198195D01*
X0035706Y0198195D01*
X0038515Y0196573D01*
X0038515Y0196573D01*
X0038515Y0196573D01*
X0040422Y0193949D01*
X0040422Y0193949D01*
X0041096Y0190776D01*
X0040422Y0187604D01*
X0040422Y0187604D01*
X0038515Y0184980D01*
X0038515Y0184980D01*
X0037083Y0184152D01*
X0042228Y0184152D01*
X0042937Y0183443D01*
X0042937Y0191805D01*
X0043363Y0192834D01*
X0044151Y0193622D01*
X0045541Y0195011D01*
X0045541Y0199787D01*
X0009674Y0199787D01*
X0009452Y0199766D01*
X0009042Y0199596D01*
X0008729Y0199282D01*
X0008559Y0198871D01*
X0008537Y0198650D01*
X0008537Y0115973D01*
X0008559Y0115751D01*
X0008729Y0115341D01*
X0009042Y0115028D01*
X0009452Y0114858D01*
X0009674Y0114836D01*
X0032618Y0114836D01*
X0032531Y0114900D01*
X0032000Y0115431D01*
X0031559Y0116038D01*
X0031218Y0116707D01*
X0030986Y0117419D01*
X0030868Y0118161D01*
X0030868Y0118353D01*
X0035453Y0118353D01*
X0035453Y0118721D01*
X0030868Y0118721D01*
X0030868Y0118912D01*
X0030986Y0119654D01*
X0031218Y0120367D01*
X0031559Y0121036D01*
X0032000Y0121642D01*
X0032531Y0122174D01*
X0033138Y0122615D01*
X0033807Y0122956D01*
X0034520Y0123188D01*
X0035262Y0123305D01*
X0035453Y0123305D01*
X0035453Y0118721D01*
X0035821Y0118721D01*
X0035821Y0123305D01*
X0036012Y0123305D01*
X0036754Y0123188D01*
X0037467Y0122956D01*
X0038136Y0122615D01*
X0038743Y0122174D01*
X0039274Y0121642D01*
X0039715Y0121036D01*
X0040056Y0120367D01*
X0040288Y0119654D01*
X0040405Y0118912D01*
X0040405Y0118721D01*
X0035821Y0118721D01*
X0035821Y0118353D01*
X0040405Y0118353D01*
X0040405Y0118161D01*
X0040288Y0117419D01*
X0040056Y0116707D01*
X0039715Y0116038D01*
X0039274Y0115431D01*
X0038743Y0114900D01*
X0038656Y0114836D01*
X0042618Y0114836D01*
X0042531Y0114900D01*
X0042000Y0115431D01*
X0041558Y0116038D01*
X0041218Y0116707D01*
X0040986Y0117419D01*
X0040868Y0118161D01*
X0040868Y0118353D01*
X0045453Y0118353D01*
X0045453Y0118721D01*
X0040868Y0118721D01*
X0040868Y0118912D01*
X0040986Y0119654D01*
X0041218Y0120367D01*
X0041558Y0121036D01*
X0042000Y0121642D01*
X0042531Y0122174D01*
X0043138Y0122615D01*
X0043807Y0122956D01*
X0044520Y0123188D01*
X0045262Y0123305D01*
X0045453Y0123305D01*
X0045453Y0118721D01*
X0045821Y0118721D01*
X0045821Y0123305D01*
X0046012Y0123305D01*
X0046754Y0123188D01*
X0047467Y0122956D01*
X0048135Y0122615D01*
X0048743Y0122174D01*
X0049274Y0121642D01*
X0049715Y0121036D01*
X0050056Y0120367D01*
X0050288Y0119654D01*
X0050405Y0118912D01*
X0050405Y0118721D01*
X0045821Y0118721D01*
X0045821Y0118353D01*
X0050405Y0118353D01*
X0050405Y0118161D01*
X0050288Y0117419D01*
X0050056Y0116707D01*
X0049715Y0116038D01*
X0049274Y0115431D01*
X0048743Y0114900D01*
X0048656Y0114836D01*
X0050383Y0114836D01*
X0052859Y0113811D01*
X0052859Y0113811D01*
X0054755Y0111915D01*
X0054755Y0111915D01*
X0055781Y0109439D01*
X0055781Y0023246D01*
X0056955Y0024302D01*
X0056955Y0024302D01*
X0060040Y0025305D01*
X0060040Y0025305D01*
X0063265Y0024966D01*
X0063265Y0024966D01*
X0066074Y0023345D01*
X0066074Y0023345D01*
X0066074Y0023345D01*
X0067981Y0020721D01*
X0067981Y0020721D01*
X0068655Y0017548D01*
X0068655Y0017548D01*
X0067981Y0014374D01*
X0066074Y0011752D01*
X0066074Y0011751D01*
X0063265Y0010130D01*
X0060040Y0009791D01*
X0060040Y0009791D01*
X0056955Y0010792D01*
X0056955Y0010792D01*
X0055781Y0011850D01*
X0055781Y0009674D01*
X0056081Y0008934D02*
X0087212Y0008934D01*
X0087409Y0008737D02*
X0086237Y0009909D01*
X0086237Y0031565D01*
X0087409Y0032737D01*
X0109064Y0032737D01*
X0110237Y0031565D01*
X0110237Y0023537D01*
X0114440Y0023537D01*
X0114845Y0023942D01*
X0116235Y0024517D01*
X0117739Y0024517D01*
X0119129Y0023942D01*
X0120192Y0022879D01*
X0120768Y0021489D01*
X0120768Y0019985D01*
X0120192Y0018595D01*
X0119129Y0017532D01*
X0117739Y0016956D01*
X0116235Y0016956D01*
X0114845Y0017532D01*
X0114440Y0017937D01*
X0110237Y0017937D01*
X0110237Y0009909D01*
X0109064Y0008737D01*
X0087409Y0008737D01*
X0086237Y0010532D02*
X0063963Y0010532D01*
X0066350Y0012131D02*
X0086237Y0012131D01*
X0086237Y0013730D02*
X0067511Y0013730D01*
X0068183Y0015328D02*
X0086237Y0015328D01*
X0086237Y0016927D02*
X0068523Y0016927D01*
X0068447Y0018524D02*
X0086237Y0018524D01*
X0086237Y0020124D02*
X0068108Y0020124D01*
X0067252Y0021722D02*
X0086237Y0021722D01*
X0086237Y0023321D02*
X0066092Y0023321D01*
X0063347Y0024919D02*
X0086237Y0024919D01*
X0086237Y0026518D02*
X0055781Y0026518D01*
X0055781Y0028116D02*
X0086237Y0028116D01*
X0086237Y0029715D02*
X0055781Y0029715D01*
X0055781Y0031313D02*
X0086237Y0031313D01*
X0098237Y0020737D02*
X0116987Y0020737D01*
X0119751Y0023321D02*
X0126730Y0023321D01*
X0125228Y0021722D02*
X0120672Y0021722D01*
X0120768Y0020124D02*
X0124516Y0020124D01*
X0124092Y0018524D02*
X0120122Y0018524D01*
X0124092Y0016927D02*
X0110237Y0016927D01*
X0110237Y0015328D02*
X0124357Y0015328D01*
X0125069Y0013730D02*
X0110237Y0013730D01*
X0110237Y0012131D02*
X0126335Y0012131D01*
X0128622Y0010532D02*
X0110237Y0010532D01*
X0109261Y0008934D02*
X0136495Y0008934D01*
X0136795Y0010532D02*
X0134828Y0010532D01*
X0134213Y0024919D02*
X0136795Y0024919D01*
X0136795Y0026518D02*
X0110237Y0026518D01*
X0110237Y0028116D02*
X0136795Y0028116D01*
X0136795Y0029715D02*
X0110237Y0029715D01*
X0110237Y0031313D02*
X0136795Y0031313D01*
X0136795Y0032912D02*
X0055781Y0032912D01*
X0055781Y0034510D02*
X0136795Y0034510D01*
X0136795Y0036109D02*
X0055781Y0036109D01*
X0055781Y0037706D02*
X0136795Y0037706D01*
X0136795Y0039306D02*
X0055781Y0039306D01*
X0055781Y0040904D02*
X0136795Y0040904D01*
X0136795Y0042503D02*
X0055781Y0042503D01*
X0055781Y0044101D02*
X0136795Y0044101D01*
X0136795Y0045700D02*
X0055781Y0045700D01*
X0055781Y0047298D02*
X0136795Y0047298D01*
X0136795Y0048897D02*
X0055781Y0048897D01*
X0055781Y0050495D02*
X0136795Y0050495D01*
X0136795Y0052093D02*
X0055781Y0052093D01*
X0055781Y0053691D02*
X0136795Y0053691D01*
X0136795Y0055291D02*
X0055781Y0055291D01*
X0055781Y0056889D02*
X0136795Y0056889D01*
X0136795Y0058487D02*
X0055781Y0058487D01*
X0055781Y0060085D02*
X0136795Y0060085D01*
X0136795Y0061685D02*
X0107708Y0061685D01*
X0107677Y0061632D02*
X0107914Y0062042D01*
X0108037Y0062500D01*
X0108037Y0069937D01*
X0099037Y0069937D01*
X0099037Y0071537D01*
X0097437Y0071537D01*
X0097437Y0080537D01*
X0090000Y0080537D01*
X0089542Y0080414D01*
X0089132Y0080177D01*
X0088797Y0079842D01*
X0088560Y0079432D01*
X0088437Y0078974D01*
X0088437Y0071537D01*
X0097437Y0071537D01*
X0097437Y0069937D01*
X0099037Y0069937D01*
X0099037Y0060937D01*
X0106474Y0060937D01*
X0106932Y0061060D01*
X0107342Y0061297D01*
X0107677Y0061632D01*
X0108037Y0063282D02*
X0136795Y0063282D01*
X0136795Y0064881D02*
X0108037Y0064881D01*
X0108037Y0066480D02*
X0136795Y0066480D01*
X0136795Y0068079D02*
X0108037Y0068079D01*
X0108037Y0069677D02*
X0136795Y0069677D01*
X0136795Y0071275D02*
X0099037Y0071275D01*
X0099037Y0071537D02*
X0108037Y0071537D01*
X0108037Y0078974D01*
X0107914Y0079432D01*
X0107677Y0079842D01*
X0107342Y0080177D01*
X0106932Y0080414D01*
X0106474Y0080537D01*
X0099037Y0080537D01*
X0099037Y0071537D01*
X0099037Y0072874D02*
X0097437Y0072874D01*
X0097437Y0071275D02*
X0055781Y0071275D01*
X0055781Y0072874D02*
X0088437Y0072874D01*
X0088437Y0074473D02*
X0055781Y0074473D01*
X0055781Y0076071D02*
X0088437Y0076071D01*
X0088437Y0077670D02*
X0055781Y0077670D01*
X0055781Y0079269D02*
X0088516Y0079269D01*
X0097437Y0079269D02*
X0099037Y0079269D01*
X0099037Y0077670D02*
X0097437Y0077670D01*
X0097437Y0076071D02*
X0099037Y0076071D01*
X0099037Y0074473D02*
X0097437Y0074473D01*
X0097437Y0069937D02*
X0088437Y0069937D01*
X0088437Y0062500D01*
X0088560Y0062042D01*
X0088797Y0061632D01*
X0089132Y0061297D01*
X0089542Y0061060D01*
X0090000Y0060937D01*
X0097437Y0060937D01*
X0097437Y0069937D01*
X0097437Y0069677D02*
X0099037Y0069677D01*
X0099037Y0068079D02*
X0097437Y0068079D01*
X0097437Y0066480D02*
X0099037Y0066480D01*
X0099037Y0064881D02*
X0097437Y0064881D01*
X0097437Y0063282D02*
X0099037Y0063282D01*
X0099037Y0061685D02*
X0097437Y0061685D01*
X0088766Y0061685D02*
X0055781Y0061685D01*
X0055781Y0063282D02*
X0088437Y0063282D01*
X0088437Y0064881D02*
X0055781Y0064881D01*
X0055781Y0066480D02*
X0088437Y0066480D01*
X0088437Y0068079D02*
X0055781Y0068079D01*
X0055781Y0069677D02*
X0088437Y0069677D01*
X0108037Y0072874D02*
X0136795Y0072874D01*
X0136795Y0074473D02*
X0108037Y0074473D01*
X0108037Y0076071D02*
X0136795Y0076071D01*
X0136795Y0077670D02*
X0108037Y0077670D01*
X0107958Y0079269D02*
X0136795Y0079269D01*
X0136795Y0080867D02*
X0055781Y0080867D01*
X0055781Y0082466D02*
X0136795Y0082466D01*
X0136795Y0084064D02*
X0055781Y0084064D01*
X0055781Y0085663D02*
X0136795Y0085663D01*
X0136795Y0087261D02*
X0055781Y0087261D01*
X0055781Y0088860D02*
X0136795Y0088860D01*
X0136795Y0090458D02*
X0055781Y0090458D01*
X0055781Y0092057D02*
X0136795Y0092057D01*
X0136795Y0093654D02*
X0055781Y0093654D01*
X0055781Y0095254D02*
X0136795Y0095254D01*
X0136795Y0096852D02*
X0055781Y0096852D01*
X0055781Y0098451D02*
X0136795Y0098451D01*
X0136795Y0100049D02*
X0055781Y0100049D01*
X0055781Y0101648D02*
X0136795Y0101648D01*
X0136795Y0103246D02*
X0055781Y0103246D01*
X0055781Y0104845D02*
X0115296Y0104845D01*
X0116987Y0108237D02*
X0129487Y0108237D01*
X0139487Y0118236D01*
X0139487Y0133236D01*
X0143237Y0136987D01*
X0164487Y0136987D01*
X0164487Y0129542D01*
X0166406Y0127624D01*
X0162845Y0127224D02*
X0157783Y0127224D01*
X0157783Y0128821D02*
X0161754Y0128821D01*
X0161687Y0130421D02*
X0157783Y0130421D01*
X0157783Y0131994D02*
X0156612Y0133167D01*
X0152199Y0133167D01*
X0151028Y0131994D01*
X0151028Y0127742D01*
X0146076Y0127742D01*
X0144906Y0126570D01*
X0144906Y0122157D01*
X0146076Y0120986D01*
X0151733Y0120986D01*
X0152828Y0122080D01*
X0154558Y0122080D01*
X0154354Y0121875D01*
X0153806Y0120551D01*
X0153806Y0119120D01*
X0154354Y0117797D01*
X0155366Y0116784D01*
X0156689Y0116236D01*
X0158122Y0116236D01*
X0159445Y0116784D01*
X0160457Y0117797D01*
X0161005Y0119120D01*
X0161005Y0120551D01*
X0160457Y0121875D01*
X0159445Y0122888D01*
X0158122Y0123435D01*
X0157783Y0123435D01*
X0157783Y0131994D01*
X0157759Y0132019D02*
X0161687Y0132019D01*
X0161687Y0133618D02*
X0143828Y0133618D01*
X0142287Y0132019D02*
X0151052Y0132019D01*
X0151028Y0130421D02*
X0142287Y0130421D01*
X0142287Y0128821D02*
X0151028Y0128821D01*
X0145559Y0127224D02*
X0142287Y0127224D01*
X0142287Y0125625D02*
X0144906Y0125625D01*
X0144906Y0124027D02*
X0142287Y0124027D01*
X0142287Y0122428D02*
X0144906Y0122428D01*
X0142287Y0120830D02*
X0153920Y0120830D01*
X0153806Y0119231D02*
X0142287Y0119231D01*
X0142267Y0117633D02*
X0145022Y0117633D01*
X0144906Y0116033D02*
X0141244Y0116033D01*
X0141225Y0114436D02*
X0139646Y0114436D01*
X0138743Y0112837D02*
X0138047Y0112837D01*
X0137541Y0111239D02*
X0136449Y0111239D01*
X0136879Y0109640D02*
X0134850Y0109640D01*
X0133252Y0108042D02*
X0136795Y0108042D01*
X0136795Y0106443D02*
X0131653Y0106443D01*
X0128326Y0111037D02*
X0119534Y0111037D01*
X0119129Y0111442D01*
X0117739Y0112018D01*
X0116235Y0112018D01*
X0114845Y0111442D01*
X0114440Y0111037D01*
X0110237Y0111037D01*
X0110237Y0131565D01*
X0109064Y0132737D01*
X0104589Y0132737D01*
X0105100Y0132949D01*
X0106024Y0133874D01*
X0106526Y0135083D01*
X0106526Y0135988D01*
X0114160Y0128353D01*
X0114947Y0127567D01*
X0114999Y0127546D01*
X0114290Y0125835D01*
X0114290Y0123746D01*
X0115089Y0121817D01*
X0116565Y0120340D01*
X0118496Y0119541D01*
X0120584Y0119541D01*
X0122513Y0120340D01*
X0123991Y0121817D01*
X0124667Y0123448D01*
X0124860Y0122852D01*
X0125221Y0122144D01*
X0125688Y0121500D01*
X0126250Y0120939D01*
X0126892Y0120471D01*
X0127602Y0120110D01*
X0128358Y0119865D01*
X0129142Y0119741D01*
X0129465Y0119741D01*
X0129465Y0124715D01*
X0129614Y0124715D01*
X0129614Y0119741D01*
X0129938Y0119741D01*
X0130722Y0119865D01*
X0131479Y0120110D01*
X0132187Y0120471D01*
X0132830Y0120939D01*
X0133392Y0121500D01*
X0133859Y0122144D01*
X0134219Y0122852D01*
X0134465Y0123608D01*
X0134590Y0124393D01*
X0134590Y0124716D01*
X0129614Y0124716D01*
X0129614Y0124866D01*
X0134590Y0124866D01*
X0134590Y0125188D01*
X0134465Y0125973D01*
X0134219Y0126729D01*
X0133859Y0127437D01*
X0133392Y0128080D01*
X0132830Y0128641D01*
X0132187Y0129110D01*
X0131479Y0129470D01*
X0130883Y0129664D01*
X0132514Y0130339D01*
X0133991Y0131817D01*
X0134790Y0133746D01*
X0134790Y0135835D01*
X0133991Y0137764D01*
X0132514Y0139241D01*
X0131188Y0139790D01*
X0132514Y0140339D01*
X0133991Y0141816D01*
X0134622Y0143343D01*
X0138530Y0143343D01*
X0138578Y0143227D01*
X0139281Y0142524D01*
X0140200Y0142143D01*
X0145695Y0142143D01*
X0146613Y0142524D01*
X0147026Y0142936D01*
X0161294Y0142936D01*
X0162323Y0143363D01*
X0163111Y0144151D01*
X0166300Y0147340D01*
X0167788Y0147340D01*
X0167788Y0147312D01*
X0168959Y0146140D01*
X0169238Y0146140D01*
X0169238Y0143221D01*
X0169141Y0143180D01*
X0168437Y0142477D01*
X0168057Y0141558D01*
X0168057Y0136064D01*
X0168437Y0135145D01*
X0169141Y0134442D01*
X0169257Y0134394D01*
X0169257Y0132522D01*
X0168612Y0133167D01*
X0167287Y0133167D01*
X0167287Y0137544D01*
X0166861Y0138573D01*
X0166073Y0139361D01*
X0165044Y0139787D01*
X0142680Y0139787D01*
X0141651Y0139361D01*
X0140863Y0138573D01*
X0137901Y0135611D01*
X0137113Y0134823D01*
X0136687Y0133794D01*
X0136687Y0119397D01*
X0128326Y0111037D01*
X0128529Y0111239D02*
X0119333Y0111239D01*
X0116987Y0108237D02*
X0108237Y0108237D01*
X0105736Y0110737D01*
X0105736Y0115737D01*
X0100737Y0120737D01*
X0098237Y0120737D01*
X0096025Y0133618D02*
X0095107Y0133618D01*
X0092566Y0137060D02*
X0091243Y0135736D01*
X0073237Y0135736D01*
X0070461Y0138513D01*
X0070461Y0146337D01*
X0073611Y0146337D02*
X0073611Y0142863D01*
X0075737Y0140737D01*
X0105736Y0140737D01*
X0116533Y0129941D01*
X0124689Y0129941D01*
X0129540Y0134791D01*
X0133342Y0138413D02*
X0140704Y0138413D01*
X0139105Y0136815D02*
X0134384Y0136815D01*
X0134790Y0135216D02*
X0137507Y0135216D01*
X0136687Y0133618D02*
X0134737Y0133618D01*
X0134075Y0132019D02*
X0136687Y0132019D01*
X0136687Y0130421D02*
X0132595Y0130421D01*
X0132582Y0128821D02*
X0136687Y0128821D01*
X0136687Y0127224D02*
X0133968Y0127224D01*
X0134521Y0125625D02*
X0136687Y0125625D01*
X0136687Y0124027D02*
X0134532Y0124027D01*
X0134004Y0122428D02*
X0136687Y0122428D01*
X0136687Y0120830D02*
X0132680Y0120830D01*
X0129614Y0120830D02*
X0129465Y0120830D01*
X0129465Y0122428D02*
X0129614Y0122428D01*
X0129614Y0124027D02*
X0129465Y0124027D01*
X0126399Y0120830D02*
X0123004Y0120830D01*
X0124244Y0122428D02*
X0125076Y0122428D01*
X0131726Y0114436D02*
X0110237Y0114436D01*
X0110237Y0116033D02*
X0133324Y0116033D01*
X0134923Y0117633D02*
X0110237Y0117633D01*
X0110237Y0119231D02*
X0136522Y0119231D01*
X0130126Y0112837D02*
X0110237Y0112837D01*
X0110237Y0111239D02*
X0114641Y0111239D01*
X0118678Y0104845D02*
X0136795Y0104845D01*
X0152904Y0116033D02*
X0173906Y0116033D01*
X0174023Y0117633D02*
X0172293Y0117633D01*
X0173005Y0119231D02*
X0184501Y0119231D01*
X0184466Y0119263D02*
X0186875Y0117092D01*
X0189961Y0116090D01*
X0189961Y0116090D01*
X0193187Y0116429D01*
X0195995Y0118051D01*
X0197902Y0120675D01*
X0198576Y0123847D01*
X0197902Y0127019D01*
X0195995Y0129644D01*
X0195995Y0129644D01*
X0193187Y0131265D01*
X0193187Y0131265D01*
X0189961Y0131604D01*
X0186875Y0130602D01*
X0184466Y0128431D01*
X0183147Y0125469D01*
X0183147Y0122225D01*
X0184466Y0119263D01*
X0184466Y0119263D01*
X0183768Y0120830D02*
X0172891Y0120830D01*
X0172406Y0127624D02*
X0172057Y0127971D01*
X0172057Y0138811D01*
X0172038Y0138830D01*
X0172038Y0150140D01*
X0165140Y0150140D01*
X0160737Y0145737D01*
X0143354Y0145737D01*
X0142947Y0146143D01*
X0130892Y0146143D01*
X0129540Y0144791D01*
X0129540Y0149434D01*
X0123237Y0155736D01*
X0103237Y0155736D01*
X0101987Y0156987D01*
X0101987Y0169487D01*
X0099187Y0166940D02*
X0099187Y0158537D01*
X0098224Y0158537D01*
X0098224Y0162861D01*
X0097052Y0164032D01*
X0093458Y0164032D01*
X0091526Y0165965D01*
X0091526Y0166391D01*
X0091025Y0167600D01*
X0090100Y0168525D01*
X0088891Y0169026D01*
X0087583Y0169026D01*
X0087137Y0168841D01*
X0087137Y0171461D01*
X0087318Y0171461D01*
X0088347Y0171887D01*
X0088518Y0172058D01*
X0088518Y0171244D01*
X0088641Y0170786D01*
X0088877Y0170376D01*
X0089213Y0170041D01*
X0089623Y0169804D01*
X0090081Y0169681D01*
X0093185Y0169681D01*
X0093185Y0173167D01*
X0093357Y0173167D01*
X0093357Y0173338D01*
X0098024Y0173338D01*
X0098024Y0175261D01*
X0097977Y0175437D01*
X0107609Y0175437D01*
X0107609Y0170653D01*
X0108781Y0169481D01*
X0116343Y0169481D01*
X0117299Y0170437D01*
X0118287Y0170437D01*
X0118158Y0170128D01*
X0118070Y0169683D01*
X0118070Y0168157D01*
X0122420Y0168157D01*
X0122420Y0167757D01*
X0118070Y0167757D01*
X0118070Y0166230D01*
X0118158Y0165786D01*
X0118332Y0165367D01*
X0118584Y0164991D01*
X0118904Y0164670D01*
X0119010Y0164599D01*
X0118954Y0164576D01*
X0118251Y0163873D01*
X0117914Y0163061D01*
X0117314Y0163061D01*
X0116343Y0164032D01*
X0108781Y0164032D01*
X0107609Y0162861D01*
X0107609Y0158537D01*
X0104787Y0158537D01*
X0104787Y0166940D01*
X0105192Y0167345D01*
X0105768Y0168735D01*
X0105768Y0170238D01*
X0105192Y0171629D01*
X0104129Y0172692D01*
X0102739Y0173268D01*
X0101235Y0173268D01*
X0099845Y0172692D01*
X0098782Y0171629D01*
X0098206Y0170238D01*
X0098206Y0168735D01*
X0098782Y0167345D01*
X0099187Y0166940D01*
X0098940Y0167187D02*
X0091196Y0167187D01*
X0091903Y0165588D02*
X0099187Y0165588D01*
X0099187Y0163990D02*
X0097095Y0163990D01*
X0098224Y0162391D02*
X0099187Y0162391D01*
X0099187Y0160793D02*
X0098224Y0160793D01*
X0098224Y0159194D02*
X0099187Y0159194D01*
X0095737Y0155736D02*
X0103237Y0155736D01*
X0104787Y0159194D02*
X0107609Y0159194D01*
X0107609Y0160793D02*
X0104787Y0160793D01*
X0104787Y0162391D02*
X0107609Y0162391D01*
X0108738Y0163990D02*
X0104787Y0163990D01*
X0104787Y0165588D02*
X0118241Y0165588D01*
X0118368Y0163990D02*
X0116385Y0163990D01*
X0118070Y0167187D02*
X0105034Y0167187D01*
X0105768Y0168785D02*
X0118070Y0168785D01*
X0118265Y0170384D02*
X0117246Y0170384D01*
X0118236Y0175737D02*
X0115737Y0178237D01*
X0090737Y0178237D01*
X0086761Y0174261D01*
X0082637Y0174261D01*
X0083011Y0174261D01*
X0078137Y0173581D02*
X0064518Y0173581D01*
X0064518Y0173989D02*
X0063942Y0175379D01*
X0063683Y0175637D01*
X0078137Y0175637D01*
X0078137Y0166033D01*
X0078337Y0165833D01*
X0078337Y0164812D01*
X0082637Y0164812D01*
X0082637Y0164812D01*
X0078337Y0164812D01*
X0078337Y0163791D01*
X0078137Y0163591D01*
X0078137Y0158537D01*
X0066897Y0158537D01*
X0064547Y0160886D01*
X0063518Y0161313D01*
X0058536Y0161313D01*
X0058536Y0166294D01*
X0058111Y0167323D01*
X0057323Y0168111D01*
X0056294Y0168537D01*
X0055179Y0168537D01*
X0054151Y0168111D01*
X0053652Y0167612D01*
X0053137Y0167612D01*
X0053137Y0167961D01*
X0048837Y0167961D01*
X0048837Y0167961D01*
X0044536Y0167961D01*
X0044536Y0167612D01*
X0043537Y0167612D01*
X0043537Y0168892D01*
X0043371Y0169293D01*
X0043371Y0171461D01*
X0044337Y0171461D01*
X0044337Y0169183D01*
X0044536Y0168983D01*
X0044536Y0167961D01*
X0048837Y0167961D01*
X0048837Y0167961D01*
X0053137Y0167961D01*
X0053137Y0168983D01*
X0053337Y0169183D01*
X0053337Y0175637D01*
X0055062Y0175637D01*
X0055062Y0175554D01*
X0055489Y0174525D01*
X0056955Y0173058D01*
X0056955Y0172485D01*
X0057532Y0171095D01*
X0058595Y0170032D01*
X0059985Y0169456D01*
X0061489Y0169456D01*
X0062878Y0170032D01*
X0063942Y0171095D01*
X0064518Y0172485D01*
X0064518Y0173989D01*
X0064025Y0175178D02*
X0078137Y0175178D01*
X0078137Y0171981D02*
X0064310Y0171981D01*
X0063231Y0170384D02*
X0078137Y0170384D01*
X0078137Y0168785D02*
X0053137Y0168785D01*
X0053337Y0170384D02*
X0058243Y0170384D01*
X0057164Y0171981D02*
X0053337Y0171981D01*
X0053337Y0173581D02*
X0056433Y0173581D01*
X0055218Y0175178D02*
X0053337Y0175178D01*
X0051613Y0177361D02*
X0046320Y0177361D01*
X0046777Y0177817D01*
X0046777Y0177817D01*
X0047323Y0178363D01*
X0048111Y0179151D01*
X0048537Y0180180D01*
X0048537Y0190088D01*
X0049500Y0191052D01*
X0054869Y0191052D01*
X0056041Y0192223D01*
X0056041Y0194578D01*
X0056111Y0194363D01*
X0056471Y0193655D01*
X0056938Y0193012D01*
X0057501Y0192450D01*
X0058143Y0191982D01*
X0058852Y0191622D01*
X0059608Y0191376D01*
X0060393Y0191252D01*
X0060716Y0191252D01*
X0060716Y0196226D01*
X0060866Y0196226D01*
X0060866Y0196227D02*
X0060866Y0196377D01*
X0065841Y0196377D01*
X0065841Y0196699D01*
X0065716Y0197483D01*
X0065471Y0198240D01*
X0065110Y0198948D01*
X0064642Y0199591D01*
X0064446Y0199787D01*
X0080715Y0199787D01*
X0080707Y0199762D01*
X0080707Y0196350D01*
X0085683Y0196350D01*
X0085683Y0196200D01*
X0080707Y0196200D01*
X0080707Y0193537D01*
X0066430Y0193537D01*
X0065401Y0193111D01*
X0064613Y0192323D01*
X0058363Y0186073D01*
X0057937Y0185044D01*
X0057937Y0184637D01*
X0052785Y0184637D01*
X0051613Y0183465D01*
X0051613Y0177361D01*
X0051613Y0178375D02*
X0047336Y0178375D01*
X0047323Y0178363D02*
X0047323Y0178363D01*
X0048452Y0179975D02*
X0051613Y0179975D01*
X0051613Y0181572D02*
X0048537Y0181572D01*
X0048537Y0183172D02*
X0051613Y0183172D01*
X0048537Y0184770D02*
X0057937Y0184770D01*
X0058658Y0186369D02*
X0048537Y0186369D01*
X0048537Y0187967D02*
X0060257Y0187967D01*
X0061856Y0189566D02*
X0048537Y0189566D01*
X0045737Y0191248D02*
X0045737Y0180737D01*
X0044403Y0179403D01*
X0038650Y0179403D01*
X0037316Y0180737D01*
X0035737Y0180737D01*
X0035737Y0180568D01*
X0030736Y0175568D01*
X0030736Y0175737D01*
X0030736Y0175568D02*
X0025621Y0170452D01*
X0025621Y0163558D01*
X0028668Y0160512D01*
X0024668Y0159194D02*
X0008537Y0159194D01*
X0008537Y0157596D02*
X0024738Y0157596D01*
X0026101Y0155997D02*
X0008537Y0155997D01*
X0008537Y0154399D02*
X0025768Y0154399D01*
X0025450Y0152800D02*
X0008537Y0152800D01*
X0008537Y0151202D02*
X0025450Y0151202D01*
X0025691Y0149603D02*
X0008537Y0149603D01*
X0008537Y0148005D02*
X0027383Y0148005D01*
X0028979Y0148005D02*
X0029129Y0148005D01*
X0030725Y0148005D02*
X0032199Y0148005D01*
X0035000Y0144526D02*
X0035054Y0144472D01*
X0035000Y0144526D02*
X0035000Y0151935D01*
X0035668Y0152602D01*
X0035668Y0160512D01*
X0030736Y0165443D01*
X0030736Y0170737D01*
X0035053Y0175053D01*
X0041783Y0175053D01*
X0042575Y0174261D01*
X0048837Y0174261D01*
X0044337Y0170384D02*
X0043371Y0170384D01*
X0043537Y0168785D02*
X0044536Y0168785D01*
X0040736Y0168336D02*
X0040736Y0165737D01*
X0041661Y0164812D01*
X0048837Y0164812D01*
X0054812Y0164812D01*
X0055737Y0165737D01*
X0055737Y0158513D01*
X0062961Y0158513D01*
X0065737Y0155736D01*
X0082263Y0155736D01*
X0082637Y0155363D01*
X0083011Y0155736D01*
X0090737Y0155736D01*
X0093657Y0152817D01*
X0093657Y0151073D01*
X0093657Y0153657D01*
X0095737Y0155736D01*
X0093271Y0160261D02*
X0088237Y0165294D01*
X0088237Y0165737D01*
X0089473Y0168785D02*
X0098206Y0168785D01*
X0097329Y0170041D02*
X0097664Y0170376D01*
X0097901Y0170786D01*
X0098024Y0171244D01*
X0098024Y0173167D01*
X0093357Y0173167D01*
X0093357Y0169681D01*
X0096461Y0169681D01*
X0096918Y0169804D01*
X0097329Y0170041D01*
X0097668Y0170384D02*
X0098266Y0170384D01*
X0098024Y0171981D02*
X0099134Y0171981D01*
X0098024Y0173581D02*
X0107609Y0173581D01*
X0107609Y0175178D02*
X0098024Y0175178D01*
X0093357Y0171981D02*
X0093185Y0171981D01*
X0093185Y0170384D02*
X0093357Y0170384D01*
X0088873Y0170384D02*
X0087137Y0170384D01*
X0088442Y0171981D02*
X0088518Y0171981D01*
X0090737Y0180737D02*
X0085737Y0185737D01*
X0066987Y0185737D01*
X0064487Y0183237D01*
X0064487Y0180461D01*
X0064162Y0180137D01*
X0061012Y0180137D02*
X0060737Y0180412D01*
X0060737Y0184486D01*
X0066987Y0190737D01*
X0113237Y0190737D01*
X0115758Y0193258D01*
X0115758Y0196274D01*
X0125757Y0196274D02*
X0125757Y0195758D01*
X0115737Y0185737D01*
X0091987Y0185737D01*
X0094487Y0181987D02*
X0093237Y0180737D01*
X0090737Y0180737D01*
X0094487Y0181987D02*
X0116987Y0181987D01*
X0120737Y0185737D01*
X0128010Y0185737D01*
X0128447Y0185300D01*
X0128736Y0185010D01*
X0128736Y0179237D01*
X0131991Y0179975D02*
X0141015Y0179975D01*
X0140863Y0179823D02*
X0139577Y0178537D01*
X0132007Y0178537D01*
X0132025Y0178583D01*
X0132025Y0179891D01*
X0131537Y0181072D01*
X0131537Y0181104D01*
X0131947Y0181514D01*
X0132531Y0180931D01*
X0133450Y0180550D01*
X0137445Y0180550D01*
X0138362Y0180931D01*
X0139067Y0181634D01*
X0139447Y0182553D01*
X0139447Y0188047D01*
X0139067Y0188966D01*
X0138537Y0189496D01*
X0138537Y0191743D01*
X0138732Y0191824D01*
X0140209Y0193301D01*
X0141008Y0195229D01*
X0141008Y0197319D01*
X0140209Y0199249D01*
X0139670Y0199787D01*
X0150696Y0199787D01*
X0150677Y0199716D01*
X0150677Y0196304D01*
X0155652Y0196304D01*
X0155652Y0196154D01*
X0155802Y0196154D01*
X0155802Y0191179D01*
X0159214Y0191179D01*
X0159672Y0191302D01*
X0160082Y0191538D01*
X0160417Y0191874D01*
X0160654Y0192284D01*
X0160777Y0192742D01*
X0160777Y0194461D01*
X0161276Y0193255D01*
X0162753Y0191777D01*
X0164681Y0190979D01*
X0166771Y0190979D01*
X0168701Y0191777D01*
X0170177Y0193255D01*
X0170727Y0194580D01*
X0171276Y0193255D01*
X0172753Y0191777D01*
X0172927Y0191706D01*
X0172927Y0190190D01*
X0173353Y0189160D01*
X0177238Y0185276D01*
X0177238Y0163537D01*
X0163495Y0163537D01*
X0163495Y0166371D01*
X0163114Y0167289D01*
X0162411Y0167993D01*
X0161512Y0168365D01*
X0161119Y0169315D01*
X0149822Y0180611D01*
X0148794Y0181037D01*
X0142680Y0181037D01*
X0141651Y0180611D01*
X0140863Y0179823D01*
X0139006Y0181572D02*
X0177238Y0181572D01*
X0177238Y0179975D02*
X0150459Y0179975D01*
X0152058Y0178375D02*
X0177238Y0178375D01*
X0177238Y0176778D02*
X0153656Y0176778D01*
X0155255Y0175178D02*
X0177238Y0175178D01*
X0177238Y0173581D02*
X0156853Y0173581D01*
X0158452Y0171981D02*
X0177238Y0171981D01*
X0177238Y0170384D02*
X0160050Y0170384D01*
X0161338Y0168785D02*
X0177238Y0168785D01*
X0177238Y0167187D02*
X0163157Y0167187D01*
X0163495Y0165588D02*
X0177238Y0165588D01*
X0177238Y0163990D02*
X0163495Y0163990D01*
X0161782Y0160773D02*
X0161818Y0160737D01*
X0180038Y0160737D01*
X0180038Y0186436D01*
X0175727Y0190747D01*
X0175727Y0196229D01*
X0170818Y0194361D02*
X0170636Y0194361D01*
X0169685Y0192763D02*
X0171768Y0192763D01*
X0172927Y0191164D02*
X0167218Y0191164D01*
X0164235Y0191164D02*
X0138537Y0191164D01*
X0138537Y0189566D02*
X0173185Y0189566D01*
X0174547Y0187967D02*
X0139447Y0187967D01*
X0139447Y0186369D02*
X0176145Y0186369D01*
X0177238Y0184770D02*
X0139447Y0184770D01*
X0139447Y0183172D02*
X0177238Y0183172D01*
X0182838Y0183172D02*
X0189491Y0183172D01*
X0189961Y0183018D02*
X0189961Y0183018D01*
X0193187Y0183358D01*
X0195995Y0184980D01*
X0197902Y0187604D01*
X0198576Y0190776D01*
X0197902Y0193949D01*
X0195995Y0196573D01*
X0195995Y0196573D01*
X0195995Y0196573D01*
X0193187Y0198195D01*
X0189961Y0198534D01*
X0186875Y0197531D01*
X0184466Y0195361D01*
X0183147Y0192397D01*
X0183147Y0189155D01*
X0184466Y0186192D01*
X0184466Y0186192D01*
X0186875Y0184021D01*
X0186875Y0184021D01*
X0189961Y0183018D01*
X0191414Y0183172D02*
X0199787Y0183172D01*
X0199787Y0184770D02*
X0195632Y0184770D01*
X0195995Y0184980D02*
X0195995Y0184980D01*
X0195995Y0184980D01*
X0197005Y0186369D02*
X0199787Y0186369D01*
X0199787Y0187967D02*
X0197979Y0187967D01*
X0197902Y0187604D02*
X0197902Y0187604D01*
X0198319Y0189566D02*
X0199787Y0189566D01*
X0199787Y0191164D02*
X0198494Y0191164D01*
X0198154Y0192763D02*
X0199787Y0192763D01*
X0199787Y0194361D02*
X0197602Y0194361D01*
X0197902Y0193949D02*
X0197902Y0193949D01*
X0196440Y0195960D02*
X0199787Y0195960D01*
X0199787Y0197558D02*
X0194289Y0197558D01*
X0193187Y0198195D02*
X0193187Y0198195D01*
X0189961Y0198534D02*
X0189961Y0198534D01*
X0186960Y0197558D02*
X0180859Y0197558D01*
X0180977Y0195960D02*
X0185131Y0195960D01*
X0184466Y0195361D02*
X0184466Y0195361D01*
X0184021Y0194361D02*
X0180636Y0194361D01*
X0179685Y0192763D02*
X0183309Y0192763D01*
X0183147Y0191164D02*
X0179269Y0191164D01*
X0180868Y0189566D02*
X0183147Y0189566D01*
X0183675Y0187967D02*
X0182434Y0187967D01*
X0182838Y0186369D02*
X0184387Y0186369D01*
X0182838Y0184770D02*
X0186045Y0184770D01*
X0182838Y0181572D02*
X0199787Y0181572D01*
X0199787Y0179975D02*
X0182838Y0179975D01*
X0182838Y0178375D02*
X0199787Y0178375D01*
X0199787Y0176778D02*
X0182838Y0176778D01*
X0182838Y0175178D02*
X0199787Y0175178D01*
X0199787Y0173581D02*
X0182838Y0173581D01*
X0182838Y0171981D02*
X0199787Y0171981D01*
X0199787Y0170384D02*
X0182838Y0170384D01*
X0182838Y0168785D02*
X0199787Y0168785D01*
X0199787Y0167187D02*
X0182838Y0167187D01*
X0182838Y0165588D02*
X0199787Y0165588D01*
X0199787Y0163990D02*
X0182838Y0163990D01*
X0182838Y0162391D02*
X0199787Y0162391D01*
X0199787Y0160793D02*
X0182838Y0160793D01*
X0182838Y0159194D02*
X0199787Y0159194D01*
X0199787Y0157596D02*
X0183161Y0157596D01*
X0184288Y0155997D02*
X0199787Y0155997D01*
X0199787Y0154399D02*
X0184288Y0154399D01*
X0184288Y0152800D02*
X0199787Y0152800D01*
X0199787Y0151202D02*
X0184288Y0151202D01*
X0180038Y0153640D02*
X0180038Y0160737D01*
X0172038Y0157140D02*
X0171805Y0157372D01*
X0158745Y0157372D01*
X0161492Y0153373D02*
X0162411Y0153754D01*
X0163114Y0154456D01*
X0163162Y0154573D01*
X0167788Y0154573D01*
X0167788Y0154312D01*
X0168458Y0153640D01*
X0167788Y0152969D01*
X0167788Y0152940D01*
X0164583Y0152940D01*
X0163554Y0152514D01*
X0159577Y0148537D01*
X0147533Y0148537D01*
X0147317Y0149059D01*
X0146733Y0149643D01*
X0147317Y0150227D01*
X0147697Y0151146D01*
X0147697Y0155141D01*
X0147317Y0156059D01*
X0146613Y0156763D01*
X0145695Y0157143D01*
X0140200Y0157143D01*
X0139281Y0156763D01*
X0138578Y0156059D01*
X0138569Y0156037D01*
X0135072Y0156037D01*
X0133891Y0156526D01*
X0132583Y0156526D01*
X0131374Y0156025D01*
X0130449Y0155100D01*
X0129948Y0153891D01*
X0129948Y0152986D01*
X0125799Y0157135D01*
X0126287Y0157337D01*
X0126886Y0157937D01*
X0153995Y0157937D01*
X0153995Y0155375D01*
X0154375Y0154456D01*
X0155079Y0153754D01*
X0155998Y0153373D01*
X0161492Y0153373D01*
X0163056Y0154399D02*
X0167788Y0154399D01*
X0171143Y0156245D02*
X0172038Y0157140D01*
X0176288Y0149603D02*
X0199787Y0149603D01*
X0199787Y0148005D02*
X0176288Y0148005D01*
X0175382Y0146406D02*
X0199787Y0146406D01*
X0199787Y0144807D02*
X0174838Y0144807D01*
X0174904Y0143209D02*
X0176732Y0143209D01*
X0178857Y0143209D02*
X0179257Y0143209D01*
X0179257Y0141610D02*
X0178857Y0141610D01*
X0178857Y0140012D02*
X0179257Y0140012D01*
X0179257Y0138413D02*
X0178857Y0138413D01*
X0178857Y0136815D02*
X0179257Y0136815D01*
X0179257Y0135216D02*
X0178857Y0135216D01*
X0182424Y0135216D02*
X0199787Y0135216D01*
X0199787Y0133618D02*
X0174857Y0133618D01*
X0175758Y0132019D02*
X0199787Y0132019D01*
X0199787Y0130421D02*
X0194649Y0130421D01*
X0196592Y0128821D02*
X0199787Y0128821D01*
X0199787Y0127224D02*
X0197754Y0127224D01*
X0197902Y0127019D02*
X0197902Y0127019D01*
X0198198Y0125625D02*
X0199787Y0125625D01*
X0199787Y0124027D02*
X0198538Y0124027D01*
X0198275Y0122428D02*
X0199787Y0122428D01*
X0199787Y0120830D02*
X0197935Y0120830D01*
X0197902Y0120675D02*
X0197902Y0120675D01*
X0196852Y0119231D02*
X0199787Y0119231D01*
X0199787Y0117633D02*
X0195272Y0117633D01*
X0195995Y0118051D02*
X0195995Y0118051D01*
X0195995Y0118051D01*
X0193187Y0116429D02*
X0193187Y0116429D01*
X0186875Y0117092D02*
X0186875Y0117092D01*
X0186275Y0117633D02*
X0181788Y0117633D01*
X0181905Y0116033D02*
X0199787Y0116033D01*
X0189961Y0131604D02*
X0189961Y0131604D01*
X0186875Y0130602D02*
X0186875Y0130602D01*
X0186875Y0130602D01*
X0186675Y0130421D02*
X0175783Y0130421D01*
X0175783Y0128821D02*
X0184900Y0128821D01*
X0183928Y0127224D02*
X0181252Y0127224D01*
X0181905Y0125625D02*
X0183215Y0125625D01*
X0183147Y0124027D02*
X0181905Y0124027D01*
X0181905Y0122428D02*
X0183147Y0122428D01*
X0182857Y0136815D02*
X0199787Y0136815D01*
X0199787Y0138413D02*
X0182857Y0138413D01*
X0182857Y0140012D02*
X0199787Y0140012D01*
X0199787Y0141610D02*
X0182792Y0141610D01*
X0181381Y0143209D02*
X0199787Y0143209D01*
X0169210Y0143209D02*
X0161951Y0143209D01*
X0163767Y0144807D02*
X0169238Y0144807D01*
X0168694Y0146406D02*
X0165366Y0146406D01*
X0168078Y0141610D02*
X0133785Y0141610D01*
X0134568Y0143209D02*
X0138596Y0143209D01*
X0131722Y0140012D02*
X0168057Y0140012D01*
X0168057Y0138413D02*
X0166927Y0138413D01*
X0167287Y0136815D02*
X0168057Y0136815D01*
X0168408Y0135216D02*
X0167287Y0135216D01*
X0167287Y0133618D02*
X0169257Y0133618D01*
X0163027Y0125625D02*
X0157783Y0125625D01*
X0157783Y0124027D02*
X0163027Y0124027D01*
X0163851Y0122428D02*
X0159905Y0122428D01*
X0160891Y0120830D02*
X0165920Y0120830D01*
X0165806Y0119231D02*
X0161005Y0119231D01*
X0160293Y0117633D02*
X0166518Y0117633D01*
X0154518Y0117633D02*
X0152788Y0117633D01*
X0129540Y0144791D02*
X0129182Y0144791D01*
X0124790Y0147041D02*
X0124790Y0148869D01*
X0123618Y0150041D01*
X0115462Y0150041D01*
X0114290Y0148869D01*
X0114290Y0143999D01*
X0110967Y0147323D01*
X0110179Y0148111D01*
X0109151Y0148537D01*
X0104446Y0148537D01*
X0104457Y0148597D01*
X0104457Y0150873D01*
X0100858Y0150873D01*
X0100858Y0151273D01*
X0104457Y0151273D01*
X0104457Y0152937D01*
X0122076Y0152937D01*
X0126170Y0148845D01*
X0125089Y0147764D01*
X0124790Y0147041D01*
X0124790Y0148005D02*
X0125330Y0148005D01*
X0125411Y0149603D02*
X0124056Y0149603D01*
X0123813Y0151202D02*
X0100858Y0151202D01*
X0104457Y0152800D02*
X0122214Y0152800D01*
X0126937Y0155997D02*
X0131346Y0155997D01*
X0130158Y0154399D02*
X0128535Y0154399D01*
X0126545Y0157596D02*
X0153995Y0157596D01*
X0153995Y0155997D02*
X0147342Y0155997D01*
X0147697Y0154399D02*
X0154434Y0154399D01*
X0155672Y0160737D02*
X0122840Y0160737D01*
X0122620Y0160957D01*
X0121924Y0160261D01*
X0112562Y0160261D01*
X0107878Y0170384D02*
X0105708Y0170384D01*
X0104839Y0171981D02*
X0107609Y0171981D01*
X0112562Y0173253D02*
X0112578Y0173237D01*
X0145737Y0173237D01*
X0144030Y0170384D02*
X0126976Y0170384D01*
X0126953Y0170437D02*
X0143902Y0170437D01*
X0145083Y0169948D01*
X0146390Y0169948D01*
X0147599Y0170449D01*
X0148525Y0171374D01*
X0149025Y0172583D01*
X0149025Y0173488D01*
X0154800Y0167714D01*
X0154375Y0167289D01*
X0153995Y0166371D01*
X0153995Y0163537D01*
X0127129Y0163537D01*
X0126990Y0163873D01*
X0126287Y0164576D01*
X0126231Y0164599D01*
X0126337Y0164670D01*
X0126657Y0164991D01*
X0126909Y0165367D01*
X0127082Y0165786D01*
X0127170Y0166230D01*
X0127170Y0167757D01*
X0122821Y0167757D01*
X0122821Y0168157D01*
X0127170Y0168157D01*
X0127170Y0169683D01*
X0127082Y0170128D01*
X0126953Y0170437D01*
X0127170Y0168785D02*
X0153729Y0168785D01*
X0154333Y0167187D02*
X0127170Y0167187D01*
X0126999Y0165588D02*
X0153995Y0165588D01*
X0153995Y0163990D02*
X0126872Y0163990D01*
X0133236Y0153236D02*
X0142854Y0153236D01*
X0142947Y0153143D01*
X0147697Y0152800D02*
X0164245Y0152800D01*
X0162241Y0151202D02*
X0147697Y0151202D01*
X0146773Y0149603D02*
X0160643Y0149603D01*
X0161782Y0160773D02*
X0155707Y0160773D01*
X0155672Y0160737D01*
X0158745Y0164373D02*
X0158745Y0167729D01*
X0148237Y0178237D01*
X0143237Y0178237D01*
X0140737Y0175737D01*
X0118236Y0175737D01*
X0135447Y0185300D02*
X0135736Y0185590D01*
X0135736Y0196254D01*
X0135758Y0196274D01*
X0139671Y0192763D02*
X0150677Y0192763D01*
X0150677Y0192742D02*
X0150799Y0192284D01*
X0151036Y0191874D01*
X0151372Y0191538D01*
X0151782Y0191302D01*
X0152240Y0191179D01*
X0155652Y0191179D01*
X0155652Y0196154D01*
X0150677Y0196154D01*
X0150677Y0192742D01*
X0150677Y0194361D02*
X0140648Y0194361D01*
X0141008Y0195960D02*
X0150677Y0195960D01*
X0150677Y0197558D02*
X0140908Y0197558D01*
X0140247Y0199157D02*
X0150677Y0199157D01*
X0155652Y0195960D02*
X0155802Y0195960D01*
X0155802Y0194361D02*
X0155652Y0194361D01*
X0155652Y0192763D02*
X0155802Y0192763D01*
X0160777Y0192763D02*
X0161767Y0192763D01*
X0160818Y0194361D02*
X0160777Y0194361D01*
X0180197Y0199157D02*
X0199648Y0199157D01*
X0186875Y0197531D02*
X0186875Y0197531D01*
X0193187Y0183358D02*
X0193187Y0183358D01*
X0152131Y0170384D02*
X0147442Y0170384D01*
X0148777Y0171981D02*
X0150532Y0171981D01*
X0119540Y0134791D02*
X0108593Y0145737D01*
X0092274Y0145737D01*
X0090057Y0147953D01*
X0090057Y0151416D01*
X0089261Y0152213D01*
X0082637Y0152213D01*
X0078137Y0152800D02*
X0053337Y0152800D01*
X0053337Y0151202D02*
X0078137Y0151202D01*
X0078137Y0150836D02*
X0078137Y0152937D01*
X0065180Y0152937D01*
X0064151Y0153363D01*
X0063363Y0154151D01*
X0061802Y0155713D01*
X0053337Y0155713D01*
X0053337Y0150836D01*
X0078137Y0150836D01*
X0076761Y0146337D02*
X0077361Y0145737D01*
X0087237Y0145737D01*
X0086691Y0132019D02*
X0080605Y0132019D01*
X0080605Y0130421D02*
X0086237Y0130421D01*
X0086237Y0128821D02*
X0080605Y0128821D01*
X0080605Y0127224D02*
X0086237Y0127224D01*
X0086237Y0125625D02*
X0080605Y0125625D01*
X0079892Y0124027D02*
X0086237Y0124027D01*
X0086237Y0122428D02*
X0078394Y0122428D01*
X0078136Y0122615D02*
X0077467Y0122956D01*
X0076754Y0123188D01*
X0076012Y0123305D01*
X0075821Y0123305D01*
X0075821Y0118721D01*
X0080405Y0118721D01*
X0080405Y0118912D01*
X0080288Y0119654D01*
X0080056Y0120367D01*
X0079715Y0121036D01*
X0079274Y0121642D01*
X0078743Y0122174D01*
X0078136Y0122615D01*
X0079821Y0120830D02*
X0086237Y0120830D01*
X0086237Y0119231D02*
X0080355Y0119231D01*
X0080405Y0118353D02*
X0075821Y0118353D01*
X0075821Y0113768D01*
X0076012Y0113768D01*
X0076754Y0113886D01*
X0077467Y0114118D01*
X0078136Y0114459D01*
X0078743Y0114900D01*
X0079274Y0115431D01*
X0079715Y0116038D01*
X0080056Y0116707D01*
X0080288Y0117419D01*
X0080405Y0118161D01*
X0080405Y0118353D01*
X0080322Y0117633D02*
X0086237Y0117633D01*
X0086237Y0116033D02*
X0079713Y0116033D01*
X0078090Y0114436D02*
X0086237Y0114436D01*
X0086237Y0112837D02*
X0053834Y0112837D01*
X0054520Y0113886D02*
X0053807Y0114118D01*
X0053137Y0114459D01*
X0052531Y0114900D01*
X0052000Y0115431D01*
X0051559Y0116038D01*
X0051218Y0116707D01*
X0050986Y0117419D01*
X0050868Y0118161D01*
X0050868Y0118353D01*
X0055453Y0118353D01*
X0055821Y0118353D01*
X0055821Y0113768D01*
X0056011Y0113768D01*
X0056754Y0113886D01*
X0057467Y0114118D01*
X0058136Y0114459D01*
X0058743Y0114900D01*
X0059274Y0115431D01*
X0059714Y0116038D01*
X0060056Y0116707D01*
X0060288Y0117419D01*
X0060405Y0118161D01*
X0060405Y0118353D01*
X0055821Y0118353D01*
X0055821Y0118721D01*
X0060405Y0118721D01*
X0060405Y0118912D01*
X0060288Y0119654D01*
X0060056Y0120367D01*
X0059714Y0121036D01*
X0059274Y0121642D01*
X0058743Y0122174D01*
X0058136Y0122615D01*
X0057467Y0122956D01*
X0056754Y0123188D01*
X0056011Y0123305D01*
X0055821Y0123305D01*
X0055821Y0118721D01*
X0055453Y0118721D01*
X0055453Y0118353D01*
X0055453Y0113768D01*
X0055262Y0113768D01*
X0054520Y0113886D01*
X0055453Y0114436D02*
X0055821Y0114436D01*
X0055821Y0116033D02*
X0055453Y0116033D01*
X0055453Y0117633D02*
X0055821Y0117633D01*
X0055453Y0118721D02*
X0050868Y0118721D01*
X0050868Y0118912D01*
X0050986Y0119654D01*
X0051218Y0120367D01*
X0051559Y0121036D01*
X0052000Y0121642D01*
X0052531Y0122174D01*
X0053137Y0122615D01*
X0053807Y0122956D01*
X0054520Y0123188D01*
X0055262Y0123305D01*
X0055453Y0123305D01*
X0055453Y0118721D01*
X0055453Y0119231D02*
X0055821Y0119231D01*
X0055821Y0120830D02*
X0055453Y0120830D01*
X0055453Y0122428D02*
X0055821Y0122428D01*
X0057732Y0124027D02*
X0063542Y0124027D01*
X0063807Y0122956D02*
X0063138Y0122615D01*
X0062531Y0122174D01*
X0062000Y0121642D01*
X0061559Y0121036D01*
X0061217Y0120367D01*
X0060985Y0119654D01*
X0060868Y0118912D01*
X0060868Y0118721D01*
X0065452Y0118721D01*
X0065452Y0118353D01*
X0065821Y0118353D01*
X0065821Y0113768D01*
X0066012Y0113768D01*
X0066754Y0113886D01*
X0067467Y0114118D01*
X0068136Y0114459D01*
X0068742Y0114900D01*
X0069274Y0115431D01*
X0069715Y0116038D01*
X0070055Y0116707D01*
X0070288Y0117419D01*
X0070405Y0118161D01*
X0070405Y0118353D01*
X0065821Y0118353D01*
X0065821Y0118721D01*
X0070405Y0118721D01*
X0070405Y0118912D01*
X0070288Y0119654D01*
X0070055Y0120367D01*
X0069715Y0121036D01*
X0069274Y0121642D01*
X0068742Y0122174D01*
X0068136Y0122615D01*
X0067467Y0122956D01*
X0066754Y0123188D01*
X0066012Y0123305D01*
X0065821Y0123305D01*
X0065821Y0118721D01*
X0065452Y0118721D01*
X0065452Y0123305D01*
X0065262Y0123305D01*
X0064520Y0123188D01*
X0063807Y0122956D01*
X0062880Y0122428D02*
X0058394Y0122428D01*
X0059821Y0120830D02*
X0061453Y0120830D01*
X0060919Y0119231D02*
X0060355Y0119231D01*
X0060868Y0118353D02*
X0060868Y0118161D01*
X0060985Y0117419D01*
X0061217Y0116707D01*
X0061559Y0116038D01*
X0062000Y0115431D01*
X0062531Y0114900D01*
X0063138Y0114459D01*
X0063807Y0114118D01*
X0064520Y0113886D01*
X0065262Y0113768D01*
X0065452Y0113768D01*
X0065452Y0118353D01*
X0060868Y0118353D01*
X0060951Y0117633D02*
X0060322Y0117633D01*
X0059713Y0116033D02*
X0061561Y0116033D01*
X0063183Y0114436D02*
X0058091Y0114436D01*
X0055035Y0111239D02*
X0086237Y0111239D01*
X0086505Y0109640D02*
X0055698Y0109640D01*
X0055781Y0108042D02*
X0104472Y0108042D01*
X0106071Y0106443D02*
X0055781Y0106443D01*
X0053183Y0114436D02*
X0051351Y0114436D01*
X0051561Y0116033D02*
X0049712Y0116033D01*
X0050322Y0117633D02*
X0050952Y0117633D01*
X0050919Y0119231D02*
X0050355Y0119231D01*
X0049820Y0120830D02*
X0051453Y0120830D01*
X0052880Y0122428D02*
X0048393Y0122428D01*
X0047732Y0124027D02*
X0053542Y0124027D01*
X0051522Y0125625D02*
X0049752Y0125625D01*
X0050471Y0127224D02*
X0050803Y0127224D01*
X0050668Y0128821D02*
X0050605Y0128821D01*
X0050234Y0130421D02*
X0051039Y0130421D01*
X0051913Y0132019D02*
X0049181Y0132019D01*
X0048537Y0133618D02*
X0051913Y0133618D01*
X0051913Y0135216D02*
X0048537Y0135216D01*
X0048537Y0136815D02*
X0051913Y0136815D01*
X0051913Y0138413D02*
X0048537Y0138413D01*
X0048537Y0140012D02*
X0051913Y0140012D01*
X0051913Y0141610D02*
X0048537Y0141610D01*
X0048537Y0143209D02*
X0051613Y0143209D01*
X0051613Y0144807D02*
X0048537Y0144807D01*
X0048537Y0146406D02*
X0051613Y0146406D01*
X0051613Y0148005D02*
X0048537Y0148005D01*
X0045737Y0150737D02*
X0047213Y0152213D01*
X0048837Y0152213D01*
X0048837Y0155363D02*
X0046111Y0155363D01*
X0045737Y0155736D01*
X0038404Y0148404D01*
X0038404Y0142315D01*
X0035637Y0139548D01*
X0035637Y0128536D01*
X0032093Y0132019D02*
X0008537Y0132019D01*
X0008537Y0130421D02*
X0013447Y0130421D01*
X0013647Y0130602D02*
X0011238Y0128431D01*
X0009918Y0125469D01*
X0009918Y0122225D01*
X0011238Y0119263D01*
X0013647Y0117092D01*
X0016733Y0116090D01*
X0019958Y0116429D01*
X0019958Y0116429D01*
X0022767Y0118051D01*
X0024674Y0120675D01*
X0025348Y0123847D01*
X0024674Y0127019D01*
X0022767Y0129644D01*
X0019958Y0131265D01*
X0016733Y0131604D01*
X0016733Y0131604D01*
X0013647Y0130602D01*
X0013647Y0130602D01*
X0011671Y0128821D02*
X0008537Y0128821D01*
X0008537Y0127224D02*
X0010700Y0127224D01*
X0011238Y0128431D02*
X0011238Y0128431D01*
X0009988Y0125625D02*
X0008537Y0125625D01*
X0008537Y0124027D02*
X0009918Y0124027D01*
X0009918Y0122428D02*
X0008537Y0122428D01*
X0008537Y0120830D02*
X0010540Y0120830D01*
X0011238Y0119263D02*
X0011238Y0119263D01*
X0011238Y0119263D01*
X0011272Y0119231D02*
X0008537Y0119231D01*
X0008537Y0117633D02*
X0013048Y0117633D01*
X0013647Y0117092D02*
X0013647Y0117092D01*
X0016733Y0116090D02*
X0016733Y0116090D01*
X0022043Y0117633D02*
X0030952Y0117633D01*
X0030919Y0119231D02*
X0023625Y0119231D01*
X0022767Y0118051D02*
X0022767Y0118051D01*
X0022767Y0118051D01*
X0024674Y0120675D02*
X0024674Y0120675D01*
X0024707Y0120830D02*
X0031452Y0120830D01*
X0032880Y0122428D02*
X0025046Y0122428D01*
X0025348Y0123847D02*
X0025348Y0123847D01*
X0025310Y0124027D02*
X0033542Y0124027D01*
X0035453Y0122428D02*
X0035821Y0122428D01*
X0035821Y0120830D02*
X0035453Y0120830D01*
X0035453Y0119231D02*
X0035821Y0119231D01*
X0038394Y0122428D02*
X0042880Y0122428D01*
X0043542Y0124027D02*
X0037731Y0124027D01*
X0039752Y0125625D02*
X0041521Y0125625D01*
X0040803Y0127224D02*
X0040471Y0127224D01*
X0040605Y0128821D02*
X0040668Y0128821D01*
X0041039Y0130421D02*
X0040235Y0130421D01*
X0039181Y0132019D02*
X0042093Y0132019D01*
X0042937Y0133618D02*
X0038437Y0133618D01*
X0038437Y0135216D02*
X0042937Y0135216D01*
X0042937Y0136815D02*
X0038437Y0136815D01*
X0038461Y0138413D02*
X0042937Y0138413D01*
X0042937Y0140012D02*
X0040061Y0140012D01*
X0041143Y0141610D02*
X0042937Y0141610D01*
X0042937Y0143209D02*
X0041204Y0143209D01*
X0041204Y0144807D02*
X0042937Y0144807D01*
X0042937Y0146406D02*
X0041204Y0146406D01*
X0041964Y0148005D02*
X0042937Y0148005D01*
X0045737Y0150737D02*
X0045737Y0128637D01*
X0045637Y0128536D01*
X0045453Y0122428D02*
X0045821Y0122428D01*
X0045821Y0120830D02*
X0045453Y0120830D01*
X0045453Y0119231D02*
X0045821Y0119231D01*
X0041453Y0120830D02*
X0039821Y0120830D01*
X0040355Y0119231D02*
X0040919Y0119231D01*
X0040952Y0117633D02*
X0040322Y0117633D01*
X0039713Y0116033D02*
X0041561Y0116033D01*
X0031561Y0116033D02*
X0008537Y0116033D01*
X0019958Y0131265D02*
X0019958Y0131265D01*
X0021421Y0130421D02*
X0031039Y0130421D01*
X0030668Y0128821D02*
X0023364Y0128821D01*
X0022767Y0129644D02*
X0022767Y0129644D01*
X0022767Y0129644D01*
X0024525Y0127224D02*
X0030803Y0127224D01*
X0031522Y0125625D02*
X0024970Y0125625D01*
X0024674Y0127019D02*
X0024674Y0127019D01*
X0032837Y0133618D02*
X0008537Y0133618D01*
X0008537Y0135216D02*
X0032837Y0135216D01*
X0032837Y0136815D02*
X0008537Y0136815D01*
X0008537Y0138413D02*
X0032837Y0138413D01*
X0032837Y0140012D02*
X0008537Y0140012D01*
X0008537Y0141610D02*
X0026126Y0141610D01*
X0025504Y0143209D02*
X0008537Y0143209D01*
X0008537Y0144807D02*
X0025504Y0144807D01*
X0025591Y0146406D02*
X0008537Y0146406D01*
X0008537Y0160793D02*
X0024426Y0160793D01*
X0023074Y0162391D02*
X0008537Y0162391D01*
X0008537Y0163990D02*
X0022821Y0163990D01*
X0022821Y0165588D02*
X0008537Y0165588D01*
X0008537Y0167187D02*
X0020871Y0167187D01*
X0020871Y0168785D02*
X0008537Y0168785D01*
X0008537Y0170384D02*
X0020871Y0170384D01*
X0020871Y0171981D02*
X0008537Y0171981D01*
X0008537Y0173581D02*
X0020871Y0173581D01*
X0021853Y0175178D02*
X0008537Y0175178D01*
X0008537Y0176778D02*
X0021100Y0176778D01*
X0021100Y0178375D02*
X0008537Y0178375D01*
X0008537Y0179975D02*
X0025074Y0179975D01*
X0026225Y0179975D02*
X0031184Y0179975D01*
X0030200Y0181572D02*
X0032783Y0181572D01*
X0032011Y0183172D02*
X0029890Y0183172D01*
X0028564Y0184770D02*
X0022404Y0184770D01*
X0022767Y0184980D02*
X0022767Y0184980D01*
X0024674Y0187604D01*
X0025348Y0190776D01*
X0024674Y0193949D01*
X0024674Y0193949D01*
X0022767Y0196573D01*
X0019958Y0198195D01*
X0016733Y0198534D01*
X0016733Y0198534D01*
X0013647Y0197531D01*
X0011238Y0195361D01*
X0009918Y0192397D01*
X0009918Y0189155D01*
X0011238Y0186192D01*
X0011238Y0186192D01*
X0013647Y0184021D01*
X0016733Y0183018D01*
X0019958Y0183358D01*
X0019958Y0183358D01*
X0022767Y0184980D01*
X0022767Y0184980D01*
X0023776Y0186369D02*
X0026906Y0186369D01*
X0026195Y0187967D02*
X0024751Y0187967D01*
X0024674Y0187604D02*
X0024674Y0187604D01*
X0025091Y0189566D02*
X0025667Y0189566D01*
X0025348Y0190776D02*
X0025348Y0190776D01*
X0025266Y0191164D02*
X0025667Y0191164D01*
X0025829Y0192763D02*
X0024926Y0192763D01*
X0024374Y0194361D02*
X0026540Y0194361D01*
X0027650Y0195960D02*
X0023213Y0195960D01*
X0022767Y0196573D02*
X0022767Y0196573D01*
X0021060Y0197558D02*
X0029479Y0197558D01*
X0036808Y0197558D02*
X0045541Y0197558D01*
X0045541Y0195960D02*
X0038961Y0195960D01*
X0040122Y0194361D02*
X0044891Y0194361D01*
X0043334Y0192763D02*
X0040674Y0192763D01*
X0041014Y0191164D02*
X0042937Y0191164D01*
X0042937Y0189566D02*
X0040839Y0189566D01*
X0040498Y0187967D02*
X0042937Y0187967D01*
X0042937Y0186369D02*
X0039524Y0186369D01*
X0038515Y0184980D02*
X0038515Y0184980D01*
X0038152Y0184770D02*
X0042937Y0184770D01*
X0038650Y0179403D02*
X0038650Y0178650D01*
X0034090Y0183172D02*
X0033933Y0183172D01*
X0026225Y0183172D02*
X0025074Y0183172D01*
X0025074Y0181572D02*
X0026225Y0181572D01*
X0021409Y0183172D02*
X0018185Y0183172D01*
X0016733Y0183018D02*
X0016733Y0183018D01*
X0016263Y0183172D02*
X0008537Y0183172D01*
X0008537Y0184770D02*
X0012816Y0184770D01*
X0013647Y0184021D02*
X0013647Y0184021D01*
X0011159Y0186369D02*
X0008537Y0186369D01*
X0008537Y0187967D02*
X0010447Y0187967D01*
X0009918Y0189566D02*
X0008537Y0189566D01*
X0008537Y0191164D02*
X0009918Y0191164D01*
X0010081Y0192763D02*
X0008537Y0192763D01*
X0008537Y0194361D02*
X0010792Y0194361D01*
X0011238Y0195361D02*
X0011238Y0195361D01*
X0011903Y0195960D02*
X0008537Y0195960D01*
X0008537Y0197558D02*
X0013730Y0197558D01*
X0013647Y0197531D02*
X0013647Y0197531D01*
X0008677Y0199157D02*
X0045541Y0199157D01*
X0050791Y0196302D02*
X0045737Y0191248D01*
X0054982Y0191164D02*
X0063454Y0191164D01*
X0063437Y0191982D02*
X0064079Y0192450D01*
X0064642Y0193012D01*
X0065110Y0193655D01*
X0065471Y0194363D01*
X0065716Y0195119D01*
X0065841Y0195904D01*
X0065841Y0196227D01*
X0060866Y0196227D01*
X0060866Y0196226D02*
X0060866Y0191252D01*
X0061188Y0191252D01*
X0061973Y0191376D01*
X0062729Y0191622D01*
X0063437Y0191982D01*
X0064393Y0192763D02*
X0065053Y0192763D01*
X0065469Y0194361D02*
X0080707Y0194361D01*
X0080707Y0195960D02*
X0065841Y0195960D01*
X0065692Y0197558D02*
X0080707Y0197558D01*
X0080707Y0199157D02*
X0064958Y0199157D01*
X0060866Y0195960D02*
X0060716Y0195960D01*
X0060716Y0194361D02*
X0060866Y0194361D01*
X0060866Y0192763D02*
X0060716Y0192763D01*
X0057187Y0192763D02*
X0056041Y0192763D01*
X0056041Y0194361D02*
X0056111Y0194361D01*
X0057863Y0180137D02*
X0057863Y0176111D01*
X0060737Y0173237D01*
X0058167Y0167187D02*
X0078137Y0167187D01*
X0078337Y0165588D02*
X0058536Y0165588D01*
X0058536Y0163990D02*
X0078337Y0163990D01*
X0078137Y0162391D02*
X0058536Y0162391D01*
X0055737Y0158513D02*
X0048837Y0158513D01*
X0048561Y0158237D01*
X0048837Y0161661D02*
X0044536Y0161661D01*
X0044536Y0160641D01*
X0044337Y0160441D01*
X0044337Y0158187D01*
X0044151Y0158111D01*
X0043363Y0157323D01*
X0038750Y0152710D01*
X0038750Y0153732D01*
X0038468Y0154413D01*
X0038468Y0156094D01*
X0038584Y0156141D01*
X0039287Y0156846D01*
X0039668Y0157764D01*
X0039668Y0162847D01*
X0040076Y0162438D01*
X0041105Y0162012D01*
X0044536Y0162012D01*
X0044536Y0161661D01*
X0048837Y0161661D01*
X0048837Y0161661D01*
X0044536Y0160793D02*
X0039668Y0160793D01*
X0039668Y0162391D02*
X0040189Y0162391D01*
X0039668Y0159194D02*
X0044337Y0159194D01*
X0043636Y0157596D02*
X0039598Y0157596D01*
X0038468Y0155997D02*
X0042037Y0155997D01*
X0043363Y0157323D02*
X0043363Y0157323D01*
X0040439Y0154399D02*
X0038474Y0154399D01*
X0038750Y0152800D02*
X0038840Y0152800D01*
X0032868Y0155997D02*
X0031233Y0155997D01*
X0029075Y0154399D02*
X0028925Y0154399D01*
X0028925Y0152800D02*
X0029075Y0152800D01*
X0029075Y0151202D02*
X0028925Y0151202D01*
X0028925Y0149603D02*
X0029075Y0149603D01*
X0029129Y0146406D02*
X0028979Y0146406D01*
X0028979Y0144807D02*
X0029129Y0144807D01*
X0029129Y0143209D02*
X0028979Y0143209D01*
X0028979Y0141610D02*
X0029129Y0141610D01*
X0040736Y0168336D02*
X0038621Y0170452D01*
X0053337Y0154399D02*
X0063116Y0154399D01*
X0066239Y0159194D02*
X0078137Y0159194D01*
X0078137Y0160793D02*
X0064641Y0160793D01*
X0064162Y0146337D02*
X0064612Y0145887D01*
X0064612Y0143173D01*
X0065737Y0142049D01*
X0065737Y0135736D01*
X0072937Y0128536D01*
X0075637Y0128536D01*
X0075453Y0123305D02*
X0075262Y0123305D01*
X0074520Y0123188D01*
X0073807Y0122956D01*
X0073138Y0122615D01*
X0072531Y0122174D01*
X0071999Y0121642D01*
X0071559Y0121036D01*
X0071218Y0120367D01*
X0070986Y0119654D01*
X0070868Y0118912D01*
X0070868Y0118721D01*
X0075453Y0118721D01*
X0075453Y0118353D01*
X0075821Y0118353D01*
X0075821Y0118721D01*
X0075453Y0118721D01*
X0075453Y0123305D01*
X0075453Y0122428D02*
X0075821Y0122428D01*
X0075821Y0120830D02*
X0075453Y0120830D01*
X0075453Y0119231D02*
X0075821Y0119231D01*
X0075453Y0118353D02*
X0070868Y0118353D01*
X0070868Y0118161D01*
X0070986Y0117419D01*
X0071218Y0116707D01*
X0071559Y0116038D01*
X0071999Y0115431D01*
X0072531Y0114900D01*
X0073138Y0114459D01*
X0073807Y0114118D01*
X0074520Y0113886D01*
X0075262Y0113768D01*
X0075453Y0113768D01*
X0075453Y0118353D01*
X0075453Y0117633D02*
X0075821Y0117633D01*
X0075821Y0116033D02*
X0075453Y0116033D01*
X0075453Y0114436D02*
X0075821Y0114436D01*
X0073183Y0114436D02*
X0068091Y0114436D01*
X0069713Y0116033D02*
X0071561Y0116033D01*
X0070952Y0117633D02*
X0070322Y0117633D01*
X0070355Y0119231D02*
X0070919Y0119231D01*
X0071453Y0120830D02*
X0069821Y0120830D01*
X0068394Y0122428D02*
X0072879Y0122428D01*
X0071382Y0124027D02*
X0067732Y0124027D01*
X0065821Y0122428D02*
X0065452Y0122428D01*
X0065452Y0120830D02*
X0065821Y0120830D01*
X0065821Y0119231D02*
X0065452Y0119231D01*
X0065452Y0117633D02*
X0065821Y0117633D01*
X0065821Y0116033D02*
X0065452Y0116033D01*
X0065452Y0114436D02*
X0065821Y0114436D01*
X0069752Y0125625D02*
X0070668Y0125625D01*
X0065637Y0128536D02*
X0065637Y0129587D01*
X0057863Y0137361D01*
X0057863Y0146337D01*
X0054713Y0146337D02*
X0054713Y0129461D01*
X0055637Y0128536D01*
X0059180Y0132019D02*
X0059245Y0132019D01*
X0060235Y0130421D02*
X0060843Y0130421D01*
X0060668Y0128821D02*
X0060605Y0128821D01*
X0060471Y0127224D02*
X0060802Y0127224D01*
X0061522Y0125625D02*
X0059752Y0125625D01*
X0057646Y0133618D02*
X0057513Y0133618D01*
X0098566Y0137060D02*
X0099889Y0135736D01*
X0103237Y0135736D01*
X0105769Y0133618D02*
X0108896Y0133618D01*
X0109783Y0132019D02*
X0110495Y0132019D01*
X0110237Y0130421D02*
X0112093Y0130421D01*
X0113692Y0128821D02*
X0110237Y0128821D01*
X0110237Y0127224D02*
X0114866Y0127224D01*
X0114160Y0128353D02*
X0114160Y0128353D01*
X0114290Y0125625D02*
X0110237Y0125625D01*
X0110237Y0124027D02*
X0114290Y0124027D01*
X0114836Y0122428D02*
X0110237Y0122428D01*
X0110237Y0120830D02*
X0116076Y0120830D01*
X0107298Y0135216D02*
X0106526Y0135216D01*
X0113483Y0144807D02*
X0114290Y0144807D01*
X0114290Y0146406D02*
X0111884Y0146406D01*
X0110286Y0148005D02*
X0114290Y0148005D01*
X0115024Y0149603D02*
X0104457Y0149603D01*
X0095683Y0196200D02*
X0090808Y0196200D01*
X0085833Y0196200D01*
X0085833Y0196350D01*
X0095683Y0196350D01*
X0095683Y0196200D01*
X0021100Y0181572D02*
X0008537Y0181572D01*
X0019958Y0198195D02*
X0019958Y0198195D01*
X0055781Y0024919D02*
X0058851Y0024919D01*
X0055864Y0023321D02*
X0055781Y0023321D01*
X0055781Y0010532D02*
X0057757Y0010532D01*
X0110237Y0024919D02*
X0129717Y0024919D01*
D27*
X0103237Y0135736D03*
X0108237Y0150737D03*
X0115737Y0165737D03*
X0128736Y0179237D03*
X0145737Y0173237D03*
X0150737Y0165737D03*
X0158237Y0180737D03*
X0175737Y0184237D03*
X0184237Y0184737D03*
X0153236Y0150737D03*
X0167236Y0144736D03*
X0175737Y0144736D03*
X0133236Y0153236D03*
X0093237Y0168237D03*
X0088237Y0165737D03*
X0075737Y0160737D03*
X0075737Y0173237D03*
X0068236Y0173237D03*
X0060737Y0163237D03*
X0055737Y0170737D03*
X0055737Y0153236D03*
X0041737Y0159237D03*
X0087237Y0145737D03*
G04 next file*
%LPD*%
G75*
D38*
X0350393Y0204724D02*
X0305492Y0056448D03*
X0305492Y0053298D03*
X0305492Y0050148D03*
X0305492Y0046999D03*
X0305492Y0043848D03*
X0305492Y0040699D03*
X0305492Y0037550D03*
X0305492Y0034400D03*
X0271692Y0034400D03*
X0271692Y0037550D03*
X0271692Y0040699D03*
X0271692Y0043848D03*
X0271692Y0046999D03*
X0271692Y0050148D03*
X0271692Y0053298D03*
X0271692Y0056448D03*
D39*
X0277568Y0062324D03*
X0280719Y0062324D03*
X0283869Y0062324D03*
X0287018Y0062324D03*
X0290168Y0062324D03*
X0293317Y0062324D03*
X0296467Y0062324D03*
X0299617Y0062324D03*
X0299617Y0028524D03*
X0296467Y0028524D03*
X0293317Y0028524D03*
X0290168Y0028524D03*
X0287018Y0028524D03*
X0283869Y0028524D03*
X0280719Y0028524D03*
X0277568Y0028524D03*
D40*
X0278693Y0080124D03*
D41*
X0278693Y0090124D03*
X0288692Y0090124D03*
X0288692Y0080124D03*
X0298693Y0080124D03*
X0298693Y0090124D03*
X0308693Y0090124D03*
X0308693Y0080124D03*
X0318693Y0080124D03*
X0318693Y0090124D03*
D42*
X0256093Y0137924D03*
D43*
X0256093Y0187924D03*
X0256093Y0087924D03*
D44*
X0255173Y0055338D02*
X0252172Y0055338D01*
X0252172Y0059838D01*
X0255173Y0059838D01*
X0255173Y0055338D01*
X0255173Y0058839D02*
X0252172Y0058839D01*
X0252172Y0057840D02*
X0255173Y0057840D01*
X0255173Y0056841D02*
X0252172Y0056841D01*
X0252172Y0055842D02*
X0255173Y0055842D01*
X0259173Y0055338D02*
X0262173Y0055338D01*
X0259173Y0055338D02*
X0259173Y0059838D01*
X0262173Y0059838D01*
X0262173Y0055338D01*
X0262173Y0058839D02*
X0259173Y0058839D01*
X0259173Y0057840D02*
X0262173Y0057840D01*
X0262173Y0056841D02*
X0259173Y0056841D01*
X0259173Y0055842D02*
X0262173Y0055842D01*
X0233960Y0049204D02*
X0233960Y0046204D01*
X0229460Y0046204D01*
X0229460Y0049204D01*
X0233960Y0049204D01*
X0233960Y0048205D02*
X0229460Y0048205D01*
X0229460Y0047206D02*
X0233960Y0047206D01*
X0233960Y0046207D02*
X0229460Y0046207D01*
X0233960Y0042204D02*
X0233960Y0039204D01*
X0229460Y0039204D01*
X0229460Y0042204D01*
X0233960Y0042204D01*
X0233960Y0041205D02*
X0229460Y0041205D01*
X0229460Y0040206D02*
X0233960Y0040206D01*
X0233960Y0039207D02*
X0229460Y0039207D01*
X0227382Y0021111D02*
X0224383Y0021111D01*
X0224383Y0025611D01*
X0227382Y0025611D01*
X0227382Y0021111D01*
X0227382Y0024612D02*
X0224383Y0024612D01*
X0224383Y0023612D02*
X0227382Y0023612D01*
X0227382Y0022614D02*
X0224383Y0022614D01*
X0224383Y0021615D02*
X0227382Y0021615D01*
X0220383Y0021111D02*
X0217383Y0021111D01*
X0217383Y0025611D01*
X0220383Y0025611D01*
X0220383Y0021111D01*
X0220383Y0024612D02*
X0217383Y0024612D01*
X0217383Y0023612D02*
X0220383Y0023612D01*
X0220383Y0022614D02*
X0217383Y0022614D01*
X0217383Y0021615D02*
X0220383Y0021615D01*
X0197835Y0042788D02*
X0197835Y0045788D01*
X0197835Y0042788D02*
X0193335Y0042788D01*
X0193335Y0045788D01*
X0197835Y0045788D01*
X0197835Y0044789D02*
X0193335Y0044789D01*
X0193335Y0043790D02*
X0197835Y0043790D01*
X0197835Y0042791D02*
X0193335Y0042791D01*
X0197835Y0049788D02*
X0197835Y0052788D01*
X0197835Y0049788D02*
X0193335Y0049788D01*
X0193335Y0052788D01*
X0197835Y0052788D01*
X0197835Y0051788D02*
X0193335Y0051788D01*
X0193335Y0050790D02*
X0197835Y0050790D01*
X0197835Y0049791D02*
X0193335Y0049791D01*
X0213633Y0054018D02*
X0213633Y0057018D01*
X0213633Y0054018D02*
X0209133Y0054018D01*
X0209133Y0057018D01*
X0213633Y0057018D01*
X0213633Y0056019D02*
X0209133Y0056019D01*
X0209133Y0055020D02*
X0213633Y0055020D01*
X0213633Y0054021D02*
X0209133Y0054021D01*
X0213633Y0061017D02*
X0213633Y0064018D01*
X0213633Y0061017D02*
X0209133Y0061017D01*
X0209133Y0064018D01*
X0213633Y0064018D01*
X0213633Y0063019D02*
X0209133Y0063019D01*
X0209133Y0062020D02*
X0213633Y0062020D01*
X0213633Y0061021D02*
X0209133Y0061021D01*
X0183773Y0067600D02*
X0180773Y0067600D01*
X0180773Y0072100D01*
X0183773Y0072100D01*
X0183773Y0067600D01*
X0183773Y0071100D02*
X0180773Y0071100D01*
X0180773Y0070102D02*
X0183773Y0070102D01*
X0183773Y0069103D02*
X0180773Y0069103D01*
X0180773Y0068104D02*
X0183773Y0068104D01*
X0176772Y0067600D02*
X0173772Y0067600D01*
X0173772Y0072100D01*
X0176772Y0072100D01*
X0176772Y0067600D01*
X0176772Y0071100D02*
X0173772Y0071100D01*
X0173772Y0070102D02*
X0176772Y0070102D01*
X0176772Y0069103D02*
X0173772Y0069103D01*
X0173772Y0068104D02*
X0176772Y0068104D01*
X0317162Y0045899D02*
X0320162Y0045899D01*
X0317162Y0045899D02*
X0317162Y0050399D01*
X0320162Y0050399D01*
X0320162Y0045899D01*
X0320162Y0049400D02*
X0317162Y0049400D01*
X0317162Y0048401D02*
X0320162Y0048401D01*
X0320162Y0047402D02*
X0317162Y0047402D01*
X0317162Y0046403D02*
X0320162Y0046403D01*
X0324162Y0045899D02*
X0327162Y0045899D01*
X0324162Y0045899D02*
X0324162Y0050399D01*
X0327162Y0050399D01*
X0327162Y0045899D01*
X0327162Y0049400D02*
X0324162Y0049400D01*
X0324162Y0048401D02*
X0327162Y0048401D01*
X0327162Y0047402D02*
X0324162Y0047402D01*
X0324162Y0046403D02*
X0327162Y0046403D01*
D45*
X0326643Y0058038D02*
X0324017Y0058038D01*
X0326643Y0058038D02*
X0326643Y0055413D01*
X0324017Y0055413D01*
X0324017Y0058038D01*
X0324017Y0057165D02*
X0326643Y0057165D01*
X0326643Y0056291D02*
X0324017Y0056291D01*
X0324017Y0055417D02*
X0326643Y0055417D01*
X0320643Y0058038D02*
X0318017Y0058038D01*
X0320643Y0058038D02*
X0320643Y0055413D01*
X0318017Y0055413D01*
X0318017Y0058038D01*
X0318017Y0057165D02*
X0320643Y0057165D01*
X0320643Y0056291D02*
X0318017Y0056291D01*
X0318017Y0055417D02*
X0320643Y0055417D01*
X0320588Y0065502D02*
X0317963Y0065502D01*
X0320588Y0065502D02*
X0320588Y0062876D01*
X0317963Y0062876D01*
X0317963Y0065502D01*
X0317963Y0064628D02*
X0320588Y0064628D01*
X0320588Y0063754D02*
X0317963Y0063754D01*
X0317963Y0062880D02*
X0320588Y0062880D01*
X0323963Y0065502D02*
X0326589Y0065502D01*
X0326589Y0062876D01*
X0323963Y0062876D01*
X0323963Y0065502D01*
X0323963Y0064628D02*
X0326589Y0064628D01*
X0326589Y0063754D02*
X0323963Y0063754D01*
X0323963Y0062880D02*
X0326589Y0062880D01*
X0263077Y0072914D02*
X0260451Y0072914D01*
X0263077Y0072914D02*
X0263077Y0070288D01*
X0260451Y0070288D01*
X0260451Y0072914D01*
X0260451Y0072040D02*
X0263077Y0072040D01*
X0263077Y0071166D02*
X0260451Y0071166D01*
X0260451Y0070292D02*
X0263077Y0070292D01*
X0257077Y0072914D02*
X0254450Y0072914D01*
X0257077Y0072914D02*
X0257077Y0070288D01*
X0254450Y0070288D01*
X0254450Y0072914D01*
X0254450Y0072040D02*
X0257077Y0072040D01*
X0257077Y0071166D02*
X0254450Y0071166D01*
X0254450Y0070292D02*
X0257077Y0070292D01*
D46*
X0199923Y0081037D03*
X0187924Y0081037D03*
X0181924Y0081037D03*
D47*
X0176424Y0084297D03*
X0176424Y0093352D03*
X0205424Y0093352D03*
X0205424Y0084297D03*
D48*
X0234790Y0063870D03*
X0268572Y0012386D03*
X0303539Y0012359D03*
X0198603Y0012432D03*
D49*
X0188603Y0012432D03*
X0178603Y0012432D03*
X0218572Y0012386D03*
X0228572Y0012386D03*
X0238572Y0012386D03*
X0248572Y0012386D03*
X0258571Y0012386D03*
X0293539Y0012359D03*
X0234790Y0073870D03*
X0224790Y0073870D03*
X0224790Y0063870D03*
X0224790Y0083870D03*
X0234790Y0083870D03*
D50*
X0182292Y0058521D03*
X0182292Y0051520D03*
X0174292Y0055021D03*
D51*
X0241767Y0048400D03*
X0241767Y0035408D03*
X0261059Y0035408D03*
X0261059Y0048400D03*
D52*
X0315709Y0038209D03*
X0315680Y0029258D03*
X0328680Y0029258D03*
X0328709Y0038209D03*
D53*
X0293593Y0035424D03*
X0262343Y0022924D03*
X0252342Y0039174D03*
X0237343Y0100424D03*
X0222343Y0106674D03*
X0228593Y0177924D03*
X0237343Y0187924D03*
X0273593Y0192924D03*
D54*
X0298549Y0198986D02*
X0298527Y0199209D01*
X0298357Y0199619D01*
X0298044Y0199932D01*
X0297634Y0200102D01*
X0297412Y0200124D01*
X0218672Y0200124D01*
X0218450Y0200102D01*
X0218040Y0199932D01*
X0217726Y0199619D01*
X0217557Y0199209D01*
X0217535Y0198986D01*
X0217535Y0196993D01*
X0220197Y0198531D01*
X0220197Y0198531D01*
X0223423Y0198869D01*
X0223423Y0198869D01*
X0226508Y0197868D01*
X0226508Y0197868D01*
X0228919Y0195698D01*
X0228919Y0195698D01*
X0230238Y0192735D01*
X0230238Y0189491D01*
X0228919Y0186528D01*
X0228919Y0186528D01*
X0226508Y0184358D01*
X0226508Y0184358D01*
X0223423Y0183356D01*
X0223423Y0183356D01*
X0220197Y0183695D01*
X0220197Y0183695D01*
X0217535Y0185232D01*
X0217535Y0099222D01*
X0216509Y0096746D01*
X0216509Y0096746D01*
X0214614Y0094850D01*
X0214614Y0094850D01*
X0212137Y0093825D01*
X0209424Y0093825D01*
X0209424Y0091146D01*
X0208253Y0089974D01*
X0202596Y0089974D01*
X0201425Y0091146D01*
X0201425Y0093825D01*
X0180423Y0093825D01*
X0180423Y0091146D01*
X0179252Y0089974D01*
X0173595Y0089974D01*
X0172425Y0091146D01*
X0172425Y0093825D01*
X0155680Y0093825D01*
X0155458Y0093803D01*
X0155048Y0093633D01*
X0154733Y0093319D01*
X0154564Y0092910D01*
X0154543Y0092688D01*
X0154543Y0010010D01*
X0154564Y0009789D01*
X0154733Y0009379D01*
X0155048Y0009065D01*
X0155458Y0008895D01*
X0155680Y0008874D01*
X0174737Y0008874D01*
X0174153Y0009458D01*
X0173353Y0011388D01*
X0173353Y0013476D01*
X0174153Y0015406D01*
X0175629Y0016883D01*
X0175661Y0016896D01*
X0171918Y0020639D01*
X0171492Y0021668D01*
X0171492Y0051021D01*
X0171214Y0051021D01*
X0170041Y0052192D01*
X0170041Y0057848D01*
X0171214Y0059021D01*
X0177370Y0059021D01*
X0178041Y0058348D01*
X0178041Y0061349D01*
X0179214Y0062521D01*
X0179492Y0062521D01*
X0179492Y0065425D01*
X0179357Y0065481D01*
X0178654Y0066184D01*
X0178631Y0066239D01*
X0178560Y0066134D01*
X0178238Y0065813D01*
X0177863Y0065562D01*
X0177443Y0065388D01*
X0177000Y0065299D01*
X0175473Y0065299D01*
X0175473Y0069650D01*
X0175073Y0069650D01*
X0171473Y0069650D01*
X0171473Y0067373D01*
X0171562Y0066929D01*
X0171735Y0066511D01*
X0171987Y0066134D01*
X0172307Y0065813D01*
X0172684Y0065562D01*
X0173101Y0065388D01*
X0173546Y0065299D01*
X0175073Y0065299D01*
X0175073Y0069650D01*
X0175073Y0070050D01*
X0171473Y0070050D01*
X0171473Y0072327D01*
X0171562Y0072771D01*
X0171735Y0073189D01*
X0171987Y0073566D01*
X0172307Y0073887D01*
X0172684Y0074138D01*
X0173101Y0074312D01*
X0173546Y0074399D01*
X0175073Y0074399D01*
X0175073Y0070050D01*
X0175473Y0070050D01*
X0175473Y0074399D01*
X0177000Y0074399D01*
X0177443Y0074312D01*
X0177863Y0074138D01*
X0178238Y0073887D01*
X0178560Y0073566D01*
X0178631Y0073460D01*
X0178654Y0073516D01*
X0179357Y0074219D01*
X0179473Y0074267D01*
X0179473Y0075739D01*
X0178547Y0076666D01*
X0178547Y0080919D01*
X0173595Y0080919D01*
X0172425Y0082091D01*
X0172425Y0086504D01*
X0173595Y0087675D01*
X0179252Y0087675D01*
X0180347Y0086580D01*
X0182077Y0086580D01*
X0181873Y0086786D01*
X0181325Y0088109D01*
X0181325Y0089541D01*
X0181873Y0090864D01*
X0182885Y0091877D01*
X0184208Y0092424D01*
X0185641Y0092424D01*
X0186964Y0091877D01*
X0187976Y0090864D01*
X0188524Y0089541D01*
X0188524Y0088109D01*
X0187976Y0086786D01*
X0187772Y0086580D01*
X0190131Y0086580D01*
X0191302Y0085409D01*
X0191302Y0081619D01*
X0191429Y0081493D01*
X0192217Y0080705D01*
X0192643Y0079676D01*
X0192643Y0074474D01*
X0209933Y0074474D01*
X0212042Y0076584D01*
X0212042Y0090981D01*
X0212469Y0092010D01*
X0213257Y0092798D01*
X0223257Y0102797D01*
X0224285Y0103224D01*
X0234796Y0103224D01*
X0235201Y0103629D01*
X0236591Y0104204D01*
X0238095Y0104204D01*
X0239485Y0103629D01*
X0239889Y0103224D01*
X0246650Y0103224D01*
X0247678Y0102797D01*
X0250179Y0100298D01*
X0250552Y0099924D01*
X0266921Y0099924D01*
X0268093Y0098751D01*
X0268093Y0077096D01*
X0266921Y0075924D01*
X0252445Y0075924D01*
X0252928Y0075723D01*
X0254998Y0075723D01*
X0255898Y0075350D01*
X0257561Y0075350D01*
X0258457Y0074980D01*
X0258764Y0074673D01*
X0259071Y0074980D01*
X0259967Y0075350D01*
X0261629Y0075350D01*
X0262530Y0075723D01*
X0274328Y0075723D01*
X0273725Y0076327D01*
X0273725Y0083921D01*
X0274896Y0085093D01*
X0282490Y0085093D01*
X0283662Y0083921D01*
X0283662Y0081815D01*
X0283912Y0081565D01*
X0284481Y0082938D01*
X0285879Y0084336D01*
X0287704Y0085093D01*
X0289681Y0085093D01*
X0291507Y0084336D01*
X0292905Y0082938D01*
X0293662Y0081112D01*
X0293662Y0079136D01*
X0293348Y0078379D01*
X0296817Y0074910D01*
X0296817Y0075523D01*
X0295879Y0075912D01*
X0294481Y0077310D01*
X0293725Y0079136D01*
X0293725Y0081112D01*
X0294481Y0082938D01*
X0295879Y0084336D01*
X0297705Y0085093D01*
X0299681Y0085093D01*
X0301507Y0084336D01*
X0302905Y0082938D01*
X0303661Y0081112D01*
X0303661Y0079136D01*
X0302905Y0077310D01*
X0302417Y0076821D01*
X0302417Y0065952D01*
X0302716Y0065652D01*
X0302716Y0059548D01*
X0305793Y0059548D01*
X0305793Y0075997D01*
X0304481Y0077310D01*
X0303725Y0079136D01*
X0303725Y0081112D01*
X0304481Y0082938D01*
X0305879Y0084336D01*
X0307705Y0085093D01*
X0309681Y0085093D01*
X0311507Y0084336D01*
X0312905Y0082938D01*
X0313662Y0081112D01*
X0313662Y0079136D01*
X0312905Y0077310D01*
X0311507Y0075912D01*
X0311393Y0075865D01*
X0311393Y0059684D01*
X0313126Y0061416D01*
X0313126Y0066902D01*
X0313552Y0067932D01*
X0314340Y0068720D01*
X0315893Y0070272D01*
X0315893Y0075906D01*
X0315879Y0075912D01*
X0314481Y0077310D01*
X0313725Y0079136D01*
X0313725Y0081112D01*
X0314481Y0082938D01*
X0315879Y0084336D01*
X0317705Y0085093D01*
X0319680Y0085093D01*
X0321507Y0084336D01*
X0322904Y0082938D01*
X0323662Y0081112D01*
X0323662Y0079136D01*
X0322904Y0077310D01*
X0321507Y0075912D01*
X0321492Y0075906D01*
X0321492Y0068555D01*
X0321213Y0067881D01*
X0321969Y0067568D01*
X0322417Y0067119D01*
X0322589Y0067292D01*
X0323100Y0067587D01*
X0323669Y0067739D01*
X0325201Y0067739D01*
X0325201Y0064264D01*
X0325351Y0064264D01*
X0328826Y0064264D01*
X0328826Y0065795D01*
X0328673Y0066365D01*
X0328379Y0066876D01*
X0327962Y0067292D01*
X0327452Y0067587D01*
X0326883Y0067739D01*
X0325351Y0067739D01*
X0325351Y0064264D01*
X0325351Y0064114D01*
X0325351Y0060639D01*
X0326883Y0060639D01*
X0327452Y0060792D01*
X0327962Y0061085D01*
X0328379Y0061503D01*
X0328673Y0062012D01*
X0328826Y0062582D01*
X0328826Y0064114D01*
X0325351Y0064114D01*
X0325201Y0064114D01*
X0325201Y0060639D01*
X0323669Y0060639D01*
X0323100Y0060792D01*
X0322589Y0061085D01*
X0322417Y0061259D01*
X0322130Y0060972D01*
X0322130Y0059999D01*
X0322471Y0059657D01*
X0322644Y0059829D01*
X0323154Y0060124D01*
X0323723Y0060275D01*
X0325255Y0060275D01*
X0325255Y0056801D01*
X0325405Y0056801D01*
X0328880Y0056801D01*
X0328880Y0058333D01*
X0328728Y0058903D01*
X0328433Y0059413D01*
X0328016Y0059829D01*
X0327506Y0060124D01*
X0326937Y0060275D01*
X0325405Y0060275D01*
X0325405Y0056801D01*
X0325405Y0056650D01*
X0325405Y0053176D01*
X0326937Y0053176D01*
X0327506Y0053329D01*
X0328016Y0053623D01*
X0328433Y0054040D01*
X0328728Y0054550D01*
X0328880Y0055118D01*
X0328880Y0056650D01*
X0325405Y0056650D01*
X0325255Y0056650D01*
X0325255Y0053176D01*
X0323723Y0053176D01*
X0323154Y0053329D01*
X0322644Y0053623D01*
X0322471Y0053796D01*
X0322023Y0053347D01*
X0321462Y0053115D01*
X0321462Y0052567D01*
X0321578Y0052519D01*
X0322162Y0051935D01*
X0322746Y0052519D01*
X0323665Y0052898D01*
X0327660Y0052898D01*
X0328578Y0052519D01*
X0329282Y0051815D01*
X0329662Y0050896D01*
X0329662Y0048109D01*
X0331082Y0046689D01*
X0331508Y0045660D01*
X0331508Y0042959D01*
X0332287Y0042959D01*
X0333459Y0041787D01*
X0333459Y0034631D01*
X0332371Y0033543D01*
X0332536Y0033448D01*
X0332871Y0033113D01*
X0333108Y0032703D01*
X0333230Y0032245D01*
X0333230Y0029833D01*
X0329255Y0029833D01*
X0329255Y0028682D01*
X0329255Y0024708D01*
X0331667Y0024708D01*
X0332125Y0024831D01*
X0332536Y0025068D01*
X0332871Y0025402D01*
X0333108Y0025813D01*
X0333230Y0026271D01*
X0333230Y0028682D01*
X0329255Y0028682D01*
X0328105Y0028682D01*
X0324129Y0028682D01*
X0324129Y0026271D01*
X0324253Y0025813D01*
X0324490Y0025402D01*
X0324825Y0025068D01*
X0325236Y0024831D01*
X0325693Y0024708D01*
X0328105Y0024708D01*
X0328105Y0028682D01*
X0328105Y0029833D01*
X0324292Y0029833D01*
X0321086Y0026627D01*
X0320967Y0026338D01*
X0320430Y0025802D01*
X0320430Y0025679D01*
X0320222Y0025471D01*
X0321849Y0025641D01*
X0321849Y0025641D01*
X0324934Y0024640D01*
X0324934Y0024640D01*
X0327344Y0022469D01*
X0327344Y0022469D01*
X0328663Y0019506D01*
X0328663Y0016263D01*
X0327344Y0013300D01*
X0327344Y0013300D01*
X0324934Y0011130D01*
X0324934Y0011130D01*
X0321849Y0010127D01*
X0321849Y0010127D01*
X0318624Y0010465D01*
X0318624Y0010465D01*
X0315815Y0012088D01*
X0315815Y0012088D01*
X0315815Y0012088D01*
X0313908Y0014712D01*
X0313908Y0014712D01*
X0313234Y0017885D01*
X0313908Y0021057D01*
X0313908Y0021057D01*
X0315815Y0023681D01*
X0315815Y0023681D01*
X0317247Y0024508D01*
X0312102Y0024508D01*
X0311393Y0025217D01*
X0311393Y0016856D01*
X0310966Y0015827D01*
X0310178Y0015039D01*
X0308789Y0013650D01*
X0308789Y0008874D01*
X0344656Y0008874D01*
X0344878Y0008895D01*
X0345288Y0009065D01*
X0345601Y0009379D01*
X0345771Y0009789D01*
X0345793Y0010010D01*
X0345793Y0092688D01*
X0345771Y0092910D01*
X0345601Y0093319D01*
X0345288Y0093633D01*
X0344878Y0093803D01*
X0344656Y0093825D01*
X0321711Y0093825D01*
X0321799Y0093761D01*
X0322330Y0093230D01*
X0322771Y0092623D01*
X0323112Y0091954D01*
X0323344Y0091241D01*
X0323462Y0090499D01*
X0323462Y0090308D01*
X0318877Y0090308D01*
X0318877Y0089940D01*
X0323462Y0089940D01*
X0323462Y0089749D01*
X0323344Y0089007D01*
X0323112Y0088294D01*
X0322771Y0087625D01*
X0322330Y0087018D01*
X0321799Y0086487D01*
X0321192Y0086046D01*
X0320522Y0085705D01*
X0319810Y0085473D01*
X0319067Y0085356D01*
X0318877Y0085356D01*
X0318877Y0089940D01*
X0318509Y0089940D01*
X0318509Y0085356D01*
X0318318Y0085356D01*
X0317575Y0085473D01*
X0316863Y0085705D01*
X0316194Y0086046D01*
X0315587Y0086487D01*
X0315055Y0087018D01*
X0314615Y0087625D01*
X0314274Y0088294D01*
X0314042Y0089007D01*
X0313925Y0089749D01*
X0313925Y0089940D01*
X0318509Y0089940D01*
X0318509Y0090308D01*
X0313925Y0090308D01*
X0313925Y0090499D01*
X0314042Y0091241D01*
X0314274Y0091954D01*
X0314615Y0092623D01*
X0315055Y0093230D01*
X0315587Y0093761D01*
X0315674Y0093825D01*
X0311712Y0093825D01*
X0311799Y0093761D01*
X0312330Y0093230D01*
X0312771Y0092623D01*
X0313111Y0091954D01*
X0313344Y0091241D01*
X0313461Y0090499D01*
X0313461Y0090308D01*
X0308876Y0090308D01*
X0308876Y0089940D01*
X0313461Y0089940D01*
X0313461Y0089749D01*
X0313344Y0089007D01*
X0313111Y0088294D01*
X0312771Y0087625D01*
X0312330Y0087018D01*
X0311799Y0086487D01*
X0311192Y0086046D01*
X0310523Y0085705D01*
X0309810Y0085473D01*
X0309068Y0085356D01*
X0308876Y0085356D01*
X0308876Y0089940D01*
X0308508Y0089940D01*
X0308508Y0085356D01*
X0308318Y0085356D01*
X0307576Y0085473D01*
X0306863Y0085705D01*
X0306194Y0086046D01*
X0305587Y0086487D01*
X0305056Y0087018D01*
X0304615Y0087625D01*
X0304273Y0088294D01*
X0304042Y0089007D01*
X0303925Y0089749D01*
X0303925Y0089940D01*
X0308508Y0089940D01*
X0308508Y0090308D01*
X0303925Y0090308D01*
X0303925Y0090499D01*
X0304042Y0091241D01*
X0304273Y0091954D01*
X0304615Y0092623D01*
X0305056Y0093230D01*
X0305587Y0093761D01*
X0305674Y0093825D01*
X0303946Y0093825D01*
X0301470Y0094850D01*
X0301470Y0094850D01*
X0299575Y0096746D01*
X0299575Y0096746D01*
X0298549Y0099222D01*
X0298549Y0185415D01*
X0297375Y0184358D01*
X0297375Y0184358D01*
X0294290Y0183356D01*
X0294290Y0183356D01*
X0291065Y0183695D01*
X0291065Y0183695D01*
X0288256Y0185316D01*
X0288256Y0185316D01*
X0288256Y0185316D01*
X0286349Y0187940D01*
X0286349Y0187940D01*
X0285675Y0191113D01*
X0285675Y0191113D01*
X0286349Y0194286D01*
X0288256Y0196909D01*
X0288256Y0196910D01*
X0291065Y0198531D01*
X0294290Y0198869D01*
X0294290Y0198869D01*
X0297375Y0197868D01*
X0297375Y0197868D01*
X0298549Y0196811D01*
X0298549Y0198986D01*
X0298248Y0199727D02*
X0267118Y0199727D01*
X0266921Y0199923D02*
X0268093Y0198752D01*
X0268093Y0177096D01*
X0266921Y0175924D01*
X0245265Y0175924D01*
X0244092Y0177096D01*
X0244092Y0185124D01*
X0239889Y0185124D01*
X0239485Y0184719D01*
X0238095Y0184143D01*
X0236591Y0184143D01*
X0235201Y0184719D01*
X0234138Y0185782D01*
X0233562Y0187172D01*
X0233562Y0188675D01*
X0234138Y0190066D01*
X0235201Y0191129D01*
X0236591Y0191705D01*
X0238095Y0191705D01*
X0239485Y0191129D01*
X0239889Y0190723D01*
X0244092Y0190723D01*
X0244092Y0198752D01*
X0245265Y0199923D01*
X0266921Y0199923D01*
X0268093Y0198128D02*
X0290367Y0198128D01*
X0287980Y0196530D02*
X0268093Y0196530D01*
X0268093Y0194931D02*
X0286819Y0194931D01*
X0286147Y0193333D02*
X0268093Y0193333D01*
X0268093Y0191734D02*
X0285807Y0191734D01*
X0285883Y0190136D02*
X0268093Y0190136D01*
X0268093Y0188537D02*
X0286222Y0188537D01*
X0287076Y0186939D02*
X0268093Y0186939D01*
X0268093Y0185340D02*
X0288238Y0185340D01*
X0290983Y0183742D02*
X0268093Y0183742D01*
X0268093Y0182143D02*
X0298549Y0182143D01*
X0298549Y0180545D02*
X0268093Y0180545D01*
X0268093Y0178946D02*
X0298549Y0178946D01*
X0298549Y0177348D02*
X0268093Y0177348D01*
X0256093Y0187924D02*
X0237343Y0187924D01*
X0234579Y0185340D02*
X0227599Y0185340D01*
X0229102Y0186939D02*
X0233658Y0186939D01*
X0233562Y0188537D02*
X0229814Y0188537D01*
X0230238Y0190136D02*
X0234208Y0190136D01*
X0230238Y0191734D02*
X0244092Y0191734D01*
X0244092Y0193333D02*
X0229972Y0193333D01*
X0229260Y0194931D02*
X0244092Y0194931D01*
X0244092Y0196530D02*
X0227995Y0196530D01*
X0225707Y0198128D02*
X0244092Y0198128D01*
X0245068Y0199727D02*
X0217835Y0199727D01*
X0217535Y0198128D02*
X0219501Y0198128D01*
X0220116Y0183742D02*
X0217535Y0183742D01*
X0217535Y0182143D02*
X0244092Y0182143D01*
X0244092Y0180545D02*
X0217535Y0180545D01*
X0217535Y0178946D02*
X0244092Y0178946D01*
X0244092Y0177348D02*
X0217535Y0177348D01*
X0217535Y0175749D02*
X0298549Y0175749D01*
X0298549Y0174151D02*
X0217535Y0174151D01*
X0217535Y0172552D02*
X0298549Y0172552D01*
X0298549Y0170954D02*
X0217535Y0170954D01*
X0217535Y0169355D02*
X0298549Y0169355D01*
X0298549Y0167757D02*
X0217535Y0167757D01*
X0217535Y0166158D02*
X0298549Y0166158D01*
X0298549Y0164560D02*
X0217535Y0164560D01*
X0217535Y0162961D02*
X0298549Y0162961D01*
X0298549Y0161362D02*
X0217535Y0161362D01*
X0217535Y0159764D02*
X0298549Y0159764D01*
X0298549Y0158166D02*
X0217535Y0158166D01*
X0217535Y0156567D02*
X0298549Y0156567D01*
X0298549Y0154969D02*
X0217535Y0154969D01*
X0217535Y0153370D02*
X0298549Y0153370D01*
X0298549Y0151772D02*
X0217535Y0151772D01*
X0217535Y0150173D02*
X0298549Y0150173D01*
X0298549Y0148575D02*
X0217535Y0148575D01*
X0217535Y0146976D02*
X0246622Y0146976D01*
X0246653Y0147029D02*
X0246416Y0146619D01*
X0246293Y0146161D01*
X0246293Y0138724D01*
X0255293Y0138724D01*
X0255293Y0137124D01*
X0256893Y0137124D01*
X0256893Y0128124D01*
X0264330Y0128124D01*
X0264788Y0128247D01*
X0265198Y0128484D01*
X0265533Y0128819D01*
X0265770Y0129229D01*
X0265893Y0129687D01*
X0265893Y0137124D01*
X0256893Y0137124D01*
X0256893Y0138724D01*
X0255293Y0138724D01*
X0255293Y0147724D01*
X0247856Y0147724D01*
X0247398Y0147601D01*
X0246987Y0147364D01*
X0246653Y0147029D01*
X0246293Y0145378D02*
X0217535Y0145378D01*
X0217535Y0143779D02*
X0246293Y0143779D01*
X0246293Y0142181D02*
X0217535Y0142181D01*
X0217535Y0140582D02*
X0246293Y0140582D01*
X0246293Y0138984D02*
X0217535Y0138984D01*
X0217535Y0137385D02*
X0255293Y0137385D01*
X0255293Y0137124D02*
X0246293Y0137124D01*
X0246293Y0129687D01*
X0246416Y0129229D01*
X0246653Y0128819D01*
X0246987Y0128484D01*
X0247398Y0128247D01*
X0247856Y0128124D01*
X0255293Y0128124D01*
X0255293Y0137124D01*
X0255293Y0135787D02*
X0256893Y0135787D01*
X0256893Y0137385D02*
X0298549Y0137385D01*
X0298549Y0135787D02*
X0265893Y0135787D01*
X0265893Y0134188D02*
X0298549Y0134188D01*
X0298549Y0132590D02*
X0265893Y0132590D01*
X0265893Y0130990D02*
X0298549Y0130990D01*
X0298549Y0129392D02*
X0265814Y0129392D01*
X0256893Y0129392D02*
X0255293Y0129392D01*
X0255293Y0130990D02*
X0256893Y0130990D01*
X0256893Y0132590D02*
X0255293Y0132590D01*
X0255293Y0134188D02*
X0256893Y0134188D01*
X0256893Y0138724D02*
X0265893Y0138724D01*
X0265893Y0146161D01*
X0265770Y0146619D01*
X0265533Y0147029D01*
X0265198Y0147364D01*
X0264788Y0147601D01*
X0264330Y0147724D01*
X0256893Y0147724D01*
X0256893Y0138724D01*
X0256893Y0138984D02*
X0255293Y0138984D01*
X0255293Y0140582D02*
X0256893Y0140582D01*
X0256893Y0142181D02*
X0255293Y0142181D01*
X0255293Y0143779D02*
X0256893Y0143779D01*
X0256893Y0145378D02*
X0255293Y0145378D01*
X0255293Y0146976D02*
X0256893Y0146976D01*
X0265564Y0146976D02*
X0298549Y0146976D01*
X0298549Y0145378D02*
X0265893Y0145378D01*
X0265893Y0143779D02*
X0298549Y0143779D01*
X0298549Y0142181D02*
X0265893Y0142181D01*
X0265893Y0140582D02*
X0298549Y0140582D01*
X0298549Y0138984D02*
X0265893Y0138984D01*
X0246293Y0135787D02*
X0217535Y0135787D01*
X0217535Y0134188D02*
X0246293Y0134188D01*
X0246293Y0132590D02*
X0217535Y0132590D01*
X0217535Y0130990D02*
X0246293Y0130990D01*
X0246372Y0129392D02*
X0217535Y0129392D01*
X0217535Y0127794D02*
X0298549Y0127794D01*
X0298549Y0126194D02*
X0217535Y0126194D01*
X0217535Y0124597D02*
X0298549Y0124597D01*
X0298549Y0122998D02*
X0217535Y0122998D01*
X0217535Y0121400D02*
X0298549Y0121400D01*
X0298549Y0119801D02*
X0217535Y0119801D01*
X0217535Y0118202D02*
X0298549Y0118202D01*
X0298549Y0116604D02*
X0217535Y0116604D01*
X0217535Y0115006D02*
X0298549Y0115006D01*
X0298549Y0113406D02*
X0217535Y0113406D01*
X0217535Y0111809D02*
X0298549Y0111809D01*
X0298549Y0110210D02*
X0217535Y0110210D01*
X0217535Y0108612D02*
X0298549Y0108612D01*
X0298549Y0107013D02*
X0217535Y0107013D01*
X0217535Y0105414D02*
X0298549Y0105414D01*
X0298549Y0103816D02*
X0239034Y0103816D01*
X0237343Y0100424D02*
X0224843Y0100424D01*
X0214842Y0090424D01*
X0214842Y0075423D01*
X0211093Y0071674D01*
X0189843Y0071674D01*
X0189843Y0079119D01*
X0187924Y0081037D01*
X0191485Y0081437D02*
X0196547Y0081437D01*
X0196547Y0079839D02*
X0192576Y0079839D01*
X0192643Y0078240D02*
X0196547Y0078240D01*
X0196547Y0076666D02*
X0197718Y0075494D01*
X0202131Y0075494D01*
X0203302Y0076666D01*
X0203302Y0080919D01*
X0208253Y0080919D01*
X0209424Y0082091D01*
X0209424Y0086504D01*
X0208253Y0087675D01*
X0202596Y0087675D01*
X0201501Y0086580D01*
X0199772Y0086580D01*
X0199976Y0086786D01*
X0200524Y0088109D01*
X0200524Y0089541D01*
X0199976Y0090864D01*
X0198964Y0091877D01*
X0197640Y0092424D01*
X0196208Y0092424D01*
X0194885Y0091877D01*
X0193873Y0090864D01*
X0193325Y0089541D01*
X0193325Y0088109D01*
X0193873Y0086786D01*
X0194885Y0085773D01*
X0196208Y0085225D01*
X0196547Y0085225D01*
X0196547Y0076666D01*
X0196571Y0076642D02*
X0192643Y0076642D01*
X0192643Y0075043D02*
X0210502Y0075043D01*
X0212042Y0076642D02*
X0203277Y0076642D01*
X0203302Y0078240D02*
X0212042Y0078240D01*
X0212042Y0079839D02*
X0203302Y0079839D01*
X0208771Y0081437D02*
X0212042Y0081437D01*
X0212042Y0083036D02*
X0209424Y0083036D01*
X0209424Y0084634D02*
X0212042Y0084634D01*
X0212042Y0086233D02*
X0209424Y0086233D01*
X0212042Y0087831D02*
X0200410Y0087831D01*
X0200524Y0089430D02*
X0212042Y0089430D01*
X0212062Y0091027D02*
X0209307Y0091027D01*
X0209424Y0092627D02*
X0213086Y0092627D01*
X0213105Y0094224D02*
X0214684Y0094224D01*
X0215587Y0095824D02*
X0216283Y0095824D01*
X0216789Y0097422D02*
X0217881Y0097422D01*
X0217451Y0099021D02*
X0219480Y0099021D01*
X0221078Y0100618D02*
X0217535Y0100618D01*
X0217535Y0102218D02*
X0222677Y0102218D01*
X0226003Y0097624D02*
X0234796Y0097624D01*
X0235201Y0097219D01*
X0236591Y0096643D01*
X0238095Y0096643D01*
X0239485Y0097219D01*
X0239889Y0097624D01*
X0244092Y0097624D01*
X0244092Y0077096D01*
X0245265Y0075924D01*
X0249741Y0075924D01*
X0249230Y0075712D01*
X0248305Y0074787D01*
X0247804Y0073578D01*
X0247804Y0072673D01*
X0240170Y0080307D01*
X0239383Y0081094D01*
X0239331Y0081115D01*
X0240040Y0082826D01*
X0240040Y0084915D01*
X0239241Y0086844D01*
X0237764Y0088321D01*
X0235834Y0089120D01*
X0233746Y0089120D01*
X0231816Y0088321D01*
X0230338Y0086844D01*
X0229663Y0085213D01*
X0229470Y0085809D01*
X0229109Y0086517D01*
X0228642Y0087160D01*
X0228080Y0087722D01*
X0227436Y0088190D01*
X0226728Y0088550D01*
X0225972Y0088796D01*
X0225186Y0088920D01*
X0224865Y0088920D01*
X0224865Y0083946D01*
X0224715Y0083946D01*
X0224715Y0088920D01*
X0224392Y0088920D01*
X0223606Y0088796D01*
X0222851Y0088550D01*
X0222142Y0088190D01*
X0221500Y0087722D01*
X0220938Y0087160D01*
X0220471Y0086517D01*
X0220109Y0085809D01*
X0219864Y0085053D01*
X0219740Y0084268D01*
X0219740Y0083944D01*
X0224715Y0083944D01*
X0224715Y0083795D01*
X0219740Y0083795D01*
X0219740Y0083473D01*
X0219864Y0082688D01*
X0220109Y0081932D01*
X0220471Y0081223D01*
X0220938Y0080581D01*
X0221500Y0080019D01*
X0222142Y0079551D01*
X0222851Y0079190D01*
X0223447Y0078997D01*
X0221816Y0078321D01*
X0220339Y0076844D01*
X0219539Y0074915D01*
X0219539Y0072826D01*
X0220339Y0070897D01*
X0221816Y0069420D01*
X0223142Y0068870D01*
X0221816Y0068321D01*
X0220339Y0066844D01*
X0219707Y0065318D01*
X0215800Y0065318D01*
X0215752Y0065433D01*
X0215049Y0066136D01*
X0214130Y0066518D01*
X0208635Y0066518D01*
X0207717Y0066136D01*
X0207304Y0065724D01*
X0193036Y0065724D01*
X0192007Y0065298D01*
X0191219Y0064510D01*
X0188030Y0061321D01*
X0186542Y0061321D01*
X0186542Y0061349D01*
X0185371Y0062521D01*
X0185092Y0062521D01*
X0185092Y0065440D01*
X0185189Y0065481D01*
X0185892Y0066184D01*
X0186273Y0067103D01*
X0186273Y0072597D01*
X0185892Y0073516D01*
X0185189Y0074219D01*
X0185073Y0074267D01*
X0185073Y0076139D01*
X0185717Y0075494D01*
X0187043Y0075494D01*
X0187043Y0071117D01*
X0187469Y0070088D01*
X0188257Y0069299D01*
X0189286Y0068874D01*
X0211649Y0068874D01*
X0212679Y0069299D01*
X0213466Y0070088D01*
X0216428Y0073050D01*
X0217217Y0073838D01*
X0217643Y0074867D01*
X0217643Y0089264D01*
X0226003Y0097624D01*
X0225801Y0097422D02*
X0234997Y0097422D01*
X0237343Y0100424D02*
X0246092Y0100424D01*
X0248593Y0097924D01*
X0248593Y0092924D01*
X0253593Y0087924D01*
X0256093Y0087924D01*
X0258305Y0075043D02*
X0259223Y0075043D01*
X0261764Y0071601D02*
X0263087Y0072924D01*
X0281093Y0072924D01*
X0283869Y0070148D01*
X0283869Y0062324D01*
X0280719Y0062324D02*
X0280719Y0065798D01*
X0278593Y0067924D01*
X0248593Y0067924D01*
X0237797Y0078720D01*
X0229640Y0078720D01*
X0224790Y0073870D01*
X0220988Y0070248D02*
X0213626Y0070248D01*
X0215225Y0071846D02*
X0219946Y0071846D01*
X0219539Y0073445D02*
X0216823Y0073445D01*
X0217643Y0075043D02*
X0219593Y0075043D01*
X0220255Y0076642D02*
X0217643Y0076642D01*
X0217643Y0078240D02*
X0221735Y0078240D01*
X0221748Y0079839D02*
X0217643Y0079839D01*
X0217643Y0081437D02*
X0220362Y0081437D01*
X0219809Y0083036D02*
X0217643Y0083036D01*
X0217643Y0084634D02*
X0219797Y0084634D01*
X0220326Y0086233D02*
X0217643Y0086233D01*
X0217643Y0087831D02*
X0221650Y0087831D01*
X0224715Y0087831D02*
X0224865Y0087831D01*
X0224865Y0086233D02*
X0224715Y0086233D01*
X0224715Y0084634D02*
X0224865Y0084634D01*
X0227930Y0087831D02*
X0231326Y0087831D01*
X0230086Y0086233D02*
X0229253Y0086233D01*
X0222603Y0094224D02*
X0244092Y0094224D01*
X0244092Y0092627D02*
X0221006Y0092627D01*
X0219407Y0091027D02*
X0244092Y0091027D01*
X0244092Y0089430D02*
X0217808Y0089430D01*
X0224203Y0095824D02*
X0244092Y0095824D01*
X0244092Y0097422D02*
X0239689Y0097422D01*
X0235652Y0103816D02*
X0217535Y0103816D01*
X0201425Y0092627D02*
X0180423Y0092627D01*
X0180307Y0091027D02*
X0182037Y0091027D01*
X0181325Y0089430D02*
X0169829Y0089430D01*
X0169864Y0089398D02*
X0167453Y0091569D01*
X0164369Y0092571D01*
X0164369Y0092571D01*
X0161143Y0092232D01*
X0158333Y0090610D01*
X0156428Y0087986D01*
X0155754Y0084814D01*
X0156428Y0081641D01*
X0158333Y0079017D01*
X0158333Y0079017D01*
X0161143Y0077396D01*
X0161143Y0077396D01*
X0164369Y0077056D01*
X0167453Y0078059D01*
X0169864Y0080229D01*
X0171183Y0083192D01*
X0171183Y0086435D01*
X0169864Y0089398D01*
X0169864Y0089398D01*
X0170562Y0087831D02*
X0181439Y0087831D01*
X0181924Y0081037D02*
X0182272Y0080689D01*
X0182272Y0069849D01*
X0182292Y0069831D01*
X0182292Y0058521D01*
X0189189Y0058521D01*
X0193593Y0062924D01*
X0210976Y0062924D01*
X0211383Y0062517D01*
X0223437Y0062517D01*
X0224790Y0063870D01*
X0224790Y0059226D01*
X0231093Y0052924D01*
X0251093Y0052924D01*
X0252342Y0051674D01*
X0252342Y0039174D01*
X0255143Y0041721D02*
X0255143Y0050124D01*
X0256106Y0050124D01*
X0256106Y0045800D01*
X0257277Y0044629D01*
X0260871Y0044629D01*
X0262804Y0042696D01*
X0262804Y0042270D01*
X0263305Y0041061D01*
X0264230Y0040136D01*
X0265439Y0039634D01*
X0266746Y0039634D01*
X0267193Y0039820D01*
X0267193Y0037199D01*
X0267012Y0037199D01*
X0265983Y0036774D01*
X0265812Y0036603D01*
X0265812Y0037416D01*
X0265689Y0037875D01*
X0265452Y0038285D01*
X0265116Y0038620D01*
X0264707Y0038857D01*
X0264248Y0038980D01*
X0261144Y0038980D01*
X0261144Y0035494D01*
X0260973Y0035494D01*
X0260973Y0035322D01*
X0256306Y0035322D01*
X0256306Y0033399D01*
X0256353Y0033224D01*
X0246721Y0033224D01*
X0246721Y0038008D01*
X0245549Y0039179D01*
X0237987Y0039179D01*
X0237031Y0038224D01*
X0236043Y0038224D01*
X0236171Y0038533D01*
X0236260Y0038978D01*
X0236260Y0040503D01*
X0231910Y0040503D01*
X0231910Y0040904D01*
X0236260Y0040904D01*
X0236260Y0042431D01*
X0236171Y0042875D01*
X0235998Y0043294D01*
X0235746Y0043670D01*
X0235426Y0043991D01*
X0235320Y0044062D01*
X0235375Y0044085D01*
X0236079Y0044788D01*
X0236415Y0045600D01*
X0237015Y0045600D01*
X0237987Y0044629D01*
X0245549Y0044629D01*
X0246721Y0045800D01*
X0246721Y0050124D01*
X0249542Y0050124D01*
X0249542Y0041721D01*
X0249138Y0041316D01*
X0248562Y0039926D01*
X0248562Y0038422D01*
X0249138Y0037032D01*
X0250200Y0035969D01*
X0251591Y0035393D01*
X0253094Y0035393D01*
X0254485Y0035969D01*
X0255548Y0037032D01*
X0256124Y0038422D01*
X0256124Y0039926D01*
X0255548Y0041316D01*
X0255143Y0041721D01*
X0255390Y0041474D02*
X0263134Y0041474D01*
X0262427Y0043073D02*
X0255143Y0043073D01*
X0255143Y0044671D02*
X0257235Y0044671D01*
X0256106Y0046270D02*
X0255143Y0046270D01*
X0255143Y0047868D02*
X0256106Y0047868D01*
X0256106Y0049467D02*
X0255143Y0049467D01*
X0258592Y0052924D02*
X0251093Y0052924D01*
X0249542Y0049467D02*
X0246721Y0049467D01*
X0246721Y0047868D02*
X0249542Y0047868D01*
X0249542Y0046270D02*
X0246721Y0046270D01*
X0245592Y0044671D02*
X0249542Y0044671D01*
X0249542Y0043073D02*
X0236089Y0043073D01*
X0235962Y0044671D02*
X0237944Y0044671D01*
X0236260Y0041474D02*
X0249296Y0041474D01*
X0248562Y0039876D02*
X0236260Y0039876D01*
X0236065Y0038277D02*
X0237083Y0038277D01*
X0236093Y0032924D02*
X0238593Y0030424D01*
X0263593Y0030424D01*
X0267569Y0034400D01*
X0271692Y0034400D01*
X0271319Y0034400D01*
X0276193Y0035079D02*
X0289812Y0035079D01*
X0289812Y0034672D02*
X0290388Y0033282D01*
X0290646Y0033024D01*
X0276193Y0033024D01*
X0276193Y0042628D01*
X0275993Y0042828D01*
X0275993Y0043848D01*
X0271692Y0043848D01*
X0271692Y0043848D01*
X0275993Y0043848D01*
X0275993Y0044870D01*
X0276193Y0045070D01*
X0276193Y0050124D01*
X0287433Y0050124D01*
X0289783Y0047775D01*
X0290811Y0047348D01*
X0295793Y0047348D01*
X0295793Y0042367D01*
X0296219Y0041338D01*
X0297007Y0040550D01*
X0298036Y0040124D01*
X0299150Y0040124D01*
X0300179Y0040550D01*
X0300678Y0041049D01*
X0301193Y0041049D01*
X0301193Y0040699D01*
X0305492Y0040699D01*
X0305492Y0040699D01*
X0309793Y0040699D01*
X0309793Y0041049D01*
X0310793Y0041049D01*
X0310793Y0039768D01*
X0310959Y0039368D01*
X0310959Y0037199D01*
X0309993Y0037199D01*
X0309993Y0039478D01*
X0309793Y0039678D01*
X0309793Y0040699D01*
X0305492Y0040699D01*
X0305492Y0040699D01*
X0301193Y0040699D01*
X0301193Y0039678D01*
X0300993Y0039478D01*
X0300993Y0033024D01*
X0299267Y0033024D01*
X0299267Y0033107D01*
X0298841Y0034136D01*
X0297374Y0035603D01*
X0297374Y0036176D01*
X0296798Y0037566D01*
X0295735Y0038629D01*
X0294345Y0039205D01*
X0292841Y0039205D01*
X0291451Y0038629D01*
X0290388Y0037566D01*
X0289812Y0036176D01*
X0289812Y0034672D01*
X0290304Y0033482D02*
X0276193Y0033482D01*
X0276193Y0036679D02*
X0290020Y0036679D01*
X0291099Y0038277D02*
X0276193Y0038277D01*
X0276193Y0039876D02*
X0301193Y0039876D01*
X0300993Y0038277D02*
X0296087Y0038277D01*
X0297166Y0036679D02*
X0300993Y0036679D01*
X0300993Y0035079D02*
X0297896Y0035079D01*
X0299112Y0033482D02*
X0300993Y0033482D01*
X0302716Y0031300D02*
X0308010Y0031300D01*
X0307553Y0030844D01*
X0307553Y0030844D01*
X0307007Y0030298D01*
X0306219Y0029509D01*
X0305793Y0028481D01*
X0305793Y0018573D01*
X0304830Y0017609D01*
X0299461Y0017609D01*
X0298288Y0016438D01*
X0298288Y0014083D01*
X0298219Y0014298D01*
X0297858Y0015006D01*
X0297391Y0015648D01*
X0296829Y0016211D01*
X0296186Y0016678D01*
X0295478Y0017039D01*
X0294722Y0017285D01*
X0293937Y0017409D01*
X0293614Y0017409D01*
X0293614Y0012435D01*
X0293464Y0012435D01*
X0293464Y0012434D02*
X0293464Y0012284D01*
X0288488Y0012284D01*
X0288488Y0011962D01*
X0288614Y0011177D01*
X0288859Y0010421D01*
X0289220Y0009713D01*
X0289688Y0009070D01*
X0289884Y0008874D01*
X0273614Y0008874D01*
X0273622Y0008899D01*
X0273622Y0012311D01*
X0268647Y0012311D01*
X0268647Y0012461D01*
X0273622Y0012461D01*
X0273622Y0015124D01*
X0287900Y0015124D01*
X0288929Y0015550D01*
X0289717Y0016338D01*
X0295967Y0022588D01*
X0296393Y0023617D01*
X0296393Y0024023D01*
X0301545Y0024023D01*
X0302716Y0025196D01*
X0302716Y0031300D01*
X0302716Y0030285D02*
X0306994Y0030285D01*
X0307007Y0030298D02*
X0307007Y0030298D01*
X0305878Y0028686D02*
X0302716Y0028686D01*
X0302716Y0027088D02*
X0305793Y0027088D01*
X0305793Y0025489D02*
X0302716Y0025489D01*
X0305793Y0023891D02*
X0296393Y0023891D01*
X0295671Y0022291D02*
X0305793Y0022291D01*
X0305793Y0020694D02*
X0294073Y0020694D01*
X0292474Y0019095D02*
X0305793Y0019095D01*
X0308593Y0017413D02*
X0308593Y0027924D01*
X0309927Y0029258D01*
X0315680Y0029258D01*
X0317014Y0027924D01*
X0318593Y0027924D01*
X0318593Y0028093D01*
X0323593Y0033093D01*
X0323593Y0032924D01*
X0323593Y0033093D02*
X0328709Y0038209D01*
X0328709Y0045103D01*
X0325661Y0048149D01*
X0329662Y0049467D02*
X0345793Y0049467D01*
X0345793Y0051065D02*
X0329592Y0051065D01*
X0328228Y0052664D02*
X0345793Y0052664D01*
X0345793Y0054262D02*
X0328561Y0054262D01*
X0328880Y0055861D02*
X0345793Y0055861D01*
X0345793Y0057459D02*
X0328880Y0057459D01*
X0328638Y0059058D02*
X0345793Y0059058D01*
X0345793Y0060656D02*
X0326947Y0060656D01*
X0325351Y0060656D02*
X0325201Y0060656D01*
X0323605Y0060656D02*
X0322130Y0060656D01*
X0319330Y0064135D02*
X0319276Y0064188D01*
X0319330Y0064135D02*
X0319330Y0056726D01*
X0318662Y0056059D01*
X0318662Y0048149D01*
X0323593Y0043218D01*
X0323593Y0037924D01*
X0319277Y0033608D01*
X0312547Y0033608D01*
X0311754Y0034400D01*
X0305492Y0034400D01*
X0309993Y0038277D02*
X0310959Y0038277D01*
X0310793Y0039876D02*
X0309793Y0039876D01*
X0313593Y0040325D02*
X0313593Y0042923D01*
X0312668Y0043848D01*
X0305492Y0043848D01*
X0299518Y0043848D01*
X0298593Y0042923D01*
X0298593Y0050148D01*
X0291369Y0050148D01*
X0288593Y0052924D01*
X0272067Y0052924D01*
X0271692Y0053298D01*
X0271319Y0052924D01*
X0263593Y0052924D01*
X0260673Y0055844D01*
X0260673Y0057587D01*
X0260673Y0055004D01*
X0258592Y0052924D01*
X0261059Y0048400D02*
X0266093Y0043367D01*
X0266093Y0042923D01*
X0264857Y0039876D02*
X0256124Y0039876D01*
X0257001Y0038620D02*
X0256666Y0038285D01*
X0256429Y0037875D01*
X0256306Y0037416D01*
X0256306Y0035494D01*
X0260973Y0035494D01*
X0260973Y0038980D01*
X0257869Y0038980D01*
X0257412Y0038857D01*
X0257001Y0038620D01*
X0256662Y0038277D02*
X0256063Y0038277D01*
X0256306Y0036679D02*
X0255195Y0036679D01*
X0256306Y0035079D02*
X0246721Y0035079D01*
X0246721Y0033482D02*
X0256306Y0033482D01*
X0260973Y0036679D02*
X0261144Y0036679D01*
X0261144Y0038277D02*
X0260973Y0038277D01*
X0265457Y0038277D02*
X0267193Y0038277D01*
X0265888Y0036679D02*
X0265812Y0036679D01*
X0263593Y0027924D02*
X0268593Y0022924D01*
X0287343Y0022924D01*
X0289843Y0025424D01*
X0289843Y0028199D01*
X0290168Y0028524D01*
X0293317Y0028524D02*
X0293593Y0028248D01*
X0293593Y0024174D01*
X0287343Y0017924D01*
X0241093Y0017924D01*
X0238572Y0015403D01*
X0238572Y0012386D01*
X0228572Y0012386D02*
X0228572Y0012903D01*
X0238593Y0022924D01*
X0262343Y0022924D01*
X0259842Y0026673D02*
X0261093Y0027924D01*
X0263593Y0027924D01*
X0259842Y0026673D02*
X0237343Y0026673D01*
X0233592Y0022924D01*
X0226320Y0022924D01*
X0225883Y0023361D01*
X0225593Y0023651D01*
X0225593Y0029424D01*
X0222339Y0028686D02*
X0213315Y0028686D01*
X0213466Y0028838D02*
X0214753Y0030124D01*
X0222323Y0030124D01*
X0222304Y0030078D01*
X0222304Y0028770D01*
X0222793Y0027589D01*
X0222793Y0027556D01*
X0222383Y0027147D01*
X0221799Y0027730D01*
X0220880Y0028111D01*
X0216885Y0028111D01*
X0215967Y0027730D01*
X0215262Y0027027D01*
X0214882Y0026107D01*
X0214882Y0020614D01*
X0215262Y0019695D01*
X0215793Y0019165D01*
X0215793Y0016918D01*
X0215598Y0016837D01*
X0214121Y0015359D01*
X0213322Y0013431D01*
X0213322Y0011342D01*
X0214121Y0009412D01*
X0214659Y0008874D01*
X0203634Y0008874D01*
X0203653Y0008945D01*
X0203653Y0012357D01*
X0198678Y0012357D01*
X0198678Y0012506D01*
X0198528Y0012506D01*
X0198528Y0017482D01*
X0195116Y0017482D01*
X0194658Y0017359D01*
X0194248Y0017122D01*
X0193913Y0016787D01*
X0193676Y0016377D01*
X0193553Y0015918D01*
X0193553Y0014199D01*
X0193054Y0015406D01*
X0191577Y0016883D01*
X0189648Y0017682D01*
X0187559Y0017682D01*
X0185629Y0016883D01*
X0184152Y0015406D01*
X0183603Y0014080D01*
X0183054Y0015406D01*
X0181577Y0016883D01*
X0181403Y0016955D01*
X0181403Y0018471D01*
X0180977Y0019500D01*
X0177092Y0023385D01*
X0177092Y0045124D01*
X0190835Y0045124D01*
X0190835Y0042290D01*
X0191216Y0041371D01*
X0191919Y0040668D01*
X0192818Y0040296D01*
X0193211Y0039346D01*
X0204507Y0028050D01*
X0205535Y0027624D01*
X0211649Y0027624D01*
X0212679Y0028050D01*
X0213466Y0028838D01*
X0215323Y0027088D02*
X0177092Y0027088D01*
X0177092Y0028686D02*
X0203871Y0028686D01*
X0202272Y0030285D02*
X0177092Y0030285D01*
X0177092Y0031883D02*
X0200674Y0031883D01*
X0199075Y0033482D02*
X0177092Y0033482D01*
X0177092Y0035079D02*
X0197477Y0035079D01*
X0195878Y0036679D02*
X0177092Y0036679D01*
X0177092Y0038277D02*
X0194280Y0038277D01*
X0192992Y0039876D02*
X0177092Y0039876D01*
X0177092Y0041474D02*
X0191173Y0041474D01*
X0190835Y0043073D02*
X0177092Y0043073D01*
X0177092Y0044671D02*
X0190835Y0044671D01*
X0192548Y0047888D02*
X0192512Y0047924D01*
X0174292Y0047924D01*
X0174292Y0022225D01*
X0178603Y0017914D01*
X0178603Y0012432D01*
X0183512Y0014299D02*
X0183694Y0014299D01*
X0184645Y0015898D02*
X0182562Y0015898D01*
X0181403Y0017497D02*
X0187112Y0017497D01*
X0190095Y0017497D02*
X0215793Y0017497D01*
X0215793Y0019095D02*
X0181145Y0019095D01*
X0179783Y0020694D02*
X0214882Y0020694D01*
X0214882Y0022291D02*
X0178185Y0022291D01*
X0177092Y0023891D02*
X0214882Y0023891D01*
X0214882Y0025489D02*
X0177092Y0025489D01*
X0171492Y0025489D02*
X0164838Y0025489D01*
X0164369Y0025641D02*
X0164369Y0025641D01*
X0161143Y0025302D01*
X0158333Y0023681D01*
X0156428Y0021057D01*
X0155754Y0017885D01*
X0156428Y0014712D01*
X0158333Y0012088D01*
X0158333Y0012088D01*
X0158333Y0012088D01*
X0161143Y0010465D01*
X0164369Y0010127D01*
X0167453Y0011130D01*
X0169864Y0013300D01*
X0171183Y0016263D01*
X0171183Y0019506D01*
X0169864Y0022469D01*
X0169864Y0022469D01*
X0167453Y0024640D01*
X0167453Y0024640D01*
X0164369Y0025641D01*
X0162916Y0025489D02*
X0154543Y0025489D01*
X0154543Y0023891D02*
X0158697Y0023891D01*
X0158333Y0023681D02*
X0158333Y0023681D01*
X0158333Y0023681D01*
X0157325Y0022291D02*
X0154543Y0022291D01*
X0154543Y0020694D02*
X0156351Y0020694D01*
X0156428Y0021057D02*
X0156428Y0021057D01*
X0156011Y0019095D02*
X0154543Y0019095D01*
X0154543Y0017497D02*
X0155836Y0017497D01*
X0156176Y0015898D02*
X0154543Y0015898D01*
X0154543Y0014299D02*
X0156728Y0014299D01*
X0156428Y0014712D02*
X0156428Y0014712D01*
X0157889Y0012701D02*
X0154543Y0012701D01*
X0154543Y0011103D02*
X0160041Y0011103D01*
X0161143Y0010465D02*
X0161143Y0010465D01*
X0164369Y0010127D02*
X0164369Y0010127D01*
X0167370Y0011103D02*
X0173471Y0011103D01*
X0173353Y0012701D02*
X0169199Y0012701D01*
X0169864Y0013300D02*
X0169864Y0013300D01*
X0170309Y0014299D02*
X0173694Y0014299D01*
X0174645Y0015898D02*
X0171021Y0015898D01*
X0171183Y0017497D02*
X0175061Y0017497D01*
X0173462Y0019095D02*
X0171183Y0019095D01*
X0170655Y0020694D02*
X0171896Y0020694D01*
X0171492Y0022291D02*
X0169943Y0022291D01*
X0171492Y0023891D02*
X0168285Y0023891D01*
X0171492Y0027088D02*
X0154543Y0027088D01*
X0154543Y0028686D02*
X0171492Y0028686D01*
X0171492Y0030285D02*
X0154543Y0030285D01*
X0154543Y0031883D02*
X0171492Y0031883D01*
X0171492Y0033482D02*
X0154543Y0033482D01*
X0154543Y0035079D02*
X0171492Y0035079D01*
X0171492Y0036679D02*
X0154543Y0036679D01*
X0154543Y0038277D02*
X0171492Y0038277D01*
X0171492Y0039876D02*
X0154543Y0039876D01*
X0154543Y0041474D02*
X0171492Y0041474D01*
X0171492Y0043073D02*
X0154543Y0043073D01*
X0154543Y0044671D02*
X0171492Y0044671D01*
X0171492Y0046270D02*
X0154543Y0046270D01*
X0154543Y0047868D02*
X0171492Y0047868D01*
X0171492Y0049467D02*
X0154543Y0049467D01*
X0154543Y0051065D02*
X0171169Y0051065D01*
X0170041Y0052664D02*
X0154543Y0052664D01*
X0154543Y0054262D02*
X0170041Y0054262D01*
X0170041Y0055861D02*
X0154543Y0055861D01*
X0154543Y0057459D02*
X0170041Y0057459D01*
X0174292Y0055021D02*
X0174292Y0047924D01*
X0182292Y0051520D02*
X0182525Y0051288D01*
X0195585Y0051288D01*
X0192838Y0055288D02*
X0191919Y0054906D01*
X0191216Y0054204D01*
X0191168Y0054088D01*
X0186542Y0054088D01*
X0186542Y0054349D01*
X0185871Y0055021D01*
X0186542Y0055692D01*
X0186542Y0055721D01*
X0189747Y0055721D01*
X0190776Y0056147D01*
X0194753Y0060124D01*
X0206797Y0060124D01*
X0207012Y0059602D01*
X0207597Y0059018D01*
X0207012Y0058434D01*
X0206632Y0057515D01*
X0206632Y0053520D01*
X0207012Y0052602D01*
X0207717Y0051898D01*
X0208635Y0051518D01*
X0214130Y0051518D01*
X0215049Y0051898D01*
X0215752Y0052602D01*
X0215761Y0052624D01*
X0219258Y0052624D01*
X0220439Y0052135D01*
X0221747Y0052135D01*
X0222956Y0052636D01*
X0223881Y0053561D01*
X0224382Y0054770D01*
X0224382Y0055675D01*
X0228531Y0051526D01*
X0228043Y0051324D01*
X0227443Y0050724D01*
X0200335Y0050724D01*
X0200335Y0053285D01*
X0199955Y0054204D01*
X0199251Y0054906D01*
X0198332Y0055288D01*
X0192838Y0055288D01*
X0191274Y0054262D02*
X0186542Y0054262D01*
X0183187Y0052415D02*
X0182292Y0051520D01*
X0178041Y0059058D02*
X0154543Y0059058D01*
X0154543Y0060656D02*
X0178041Y0060656D01*
X0178948Y0062255D02*
X0154543Y0062255D01*
X0154543Y0063854D02*
X0179492Y0063854D01*
X0179426Y0065452D02*
X0177598Y0065452D01*
X0175473Y0065452D02*
X0175073Y0065452D01*
X0175073Y0067051D02*
X0175473Y0067051D01*
X0175473Y0068649D02*
X0175073Y0068649D01*
X0175073Y0070248D02*
X0175473Y0070248D01*
X0175473Y0071846D02*
X0175073Y0071846D01*
X0175073Y0073445D02*
X0175473Y0073445D01*
X0171906Y0073445D02*
X0154543Y0073445D01*
X0154543Y0075043D02*
X0179473Y0075043D01*
X0178570Y0076642D02*
X0154543Y0076642D01*
X0154543Y0078240D02*
X0159680Y0078240D01*
X0157738Y0079839D02*
X0154543Y0079839D01*
X0154543Y0081437D02*
X0156575Y0081437D01*
X0156428Y0081641D02*
X0156428Y0081641D01*
X0156132Y0083036D02*
X0154543Y0083036D01*
X0154543Y0084634D02*
X0155792Y0084634D01*
X0156055Y0086233D02*
X0154543Y0086233D01*
X0154543Y0087831D02*
X0156395Y0087831D01*
X0156428Y0087986D02*
X0156428Y0087986D01*
X0157477Y0089430D02*
X0154543Y0089430D01*
X0154543Y0091027D02*
X0159058Y0091027D01*
X0158333Y0090610D02*
X0158333Y0090610D01*
X0158333Y0090610D01*
X0161143Y0092232D02*
X0161143Y0092232D01*
X0167453Y0091569D02*
X0167453Y0091569D01*
X0168053Y0091027D02*
X0172541Y0091027D01*
X0172425Y0092627D02*
X0154543Y0092627D01*
X0164369Y0077056D02*
X0164369Y0077056D01*
X0167453Y0078059D02*
X0167453Y0078059D01*
X0167453Y0078059D01*
X0167655Y0078240D02*
X0178547Y0078240D01*
X0178547Y0079839D02*
X0169430Y0079839D01*
X0170402Y0081437D02*
X0173078Y0081437D01*
X0172425Y0083036D02*
X0171114Y0083036D01*
X0171183Y0084634D02*
X0172425Y0084634D01*
X0172425Y0086233D02*
X0171183Y0086233D01*
X0171473Y0071846D02*
X0154543Y0071846D01*
X0154543Y0070248D02*
X0171473Y0070248D01*
X0171473Y0068649D02*
X0154543Y0068649D01*
X0154543Y0067051D02*
X0171538Y0067051D01*
X0172949Y0065452D02*
X0154543Y0065452D01*
X0185120Y0065452D02*
X0192379Y0065452D01*
X0190563Y0063854D02*
X0185092Y0063854D01*
X0185635Y0062255D02*
X0188963Y0062255D01*
X0186252Y0067051D02*
X0220545Y0067051D01*
X0219762Y0065452D02*
X0215734Y0065452D01*
X0222607Y0068649D02*
X0186273Y0068649D01*
X0186273Y0070248D02*
X0187403Y0070248D01*
X0187043Y0071846D02*
X0186273Y0071846D01*
X0185922Y0073445D02*
X0187043Y0073445D01*
X0187043Y0075043D02*
X0185073Y0075043D01*
X0191302Y0083036D02*
X0196547Y0083036D01*
X0196547Y0084634D02*
X0191302Y0084634D01*
X0190479Y0086233D02*
X0194425Y0086233D01*
X0193439Y0087831D02*
X0188410Y0087831D01*
X0188524Y0089430D02*
X0193325Y0089430D01*
X0194037Y0091027D02*
X0187812Y0091027D01*
X0199812Y0091027D02*
X0201542Y0091027D01*
X0224790Y0063870D02*
X0225147Y0063870D01*
X0229540Y0061619D02*
X0229540Y0059792D01*
X0230711Y0058620D01*
X0238868Y0058620D01*
X0240040Y0059792D01*
X0240040Y0064661D01*
X0243363Y0061338D01*
X0244150Y0060550D01*
X0245179Y0060124D01*
X0249884Y0060124D01*
X0249873Y0060063D01*
X0249873Y0057787D01*
X0253472Y0057787D01*
X0253472Y0057387D01*
X0249873Y0057387D01*
X0249873Y0055723D01*
X0232253Y0055723D01*
X0228160Y0059816D01*
X0229240Y0060897D01*
X0229540Y0061619D01*
X0229540Y0060656D02*
X0229000Y0060656D01*
X0228919Y0059058D02*
X0230274Y0059058D01*
X0230517Y0057459D02*
X0253472Y0057459D01*
X0249873Y0055861D02*
X0232116Y0055861D01*
X0227393Y0052664D02*
X0222983Y0052664D01*
X0224172Y0054262D02*
X0225795Y0054262D01*
X0227785Y0051065D02*
X0200335Y0051065D01*
X0200335Y0052664D02*
X0206988Y0052664D01*
X0206632Y0054262D02*
X0199896Y0054262D01*
X0198658Y0047924D02*
X0231490Y0047924D01*
X0231710Y0047704D01*
X0232405Y0048400D01*
X0241767Y0048400D01*
X0246451Y0038277D02*
X0248622Y0038277D01*
X0249491Y0036679D02*
X0246721Y0036679D01*
X0241767Y0035408D02*
X0241752Y0035424D01*
X0208592Y0035424D01*
X0210299Y0038277D02*
X0227354Y0038277D01*
X0227375Y0038224D02*
X0210428Y0038224D01*
X0209247Y0038713D01*
X0207939Y0038713D01*
X0206730Y0038212D01*
X0205805Y0037287D01*
X0205304Y0036078D01*
X0205304Y0035173D01*
X0199530Y0040947D01*
X0199955Y0041371D01*
X0200335Y0042290D01*
X0200335Y0045124D01*
X0227201Y0045124D01*
X0227340Y0044788D01*
X0228043Y0044085D01*
X0228099Y0044062D01*
X0227992Y0043991D01*
X0227673Y0043670D01*
X0227421Y0043294D01*
X0227247Y0042875D01*
X0227159Y0042431D01*
X0227159Y0040904D01*
X0231509Y0040904D01*
X0231509Y0040503D01*
X0227159Y0040503D01*
X0227159Y0038978D01*
X0227247Y0038533D01*
X0227375Y0038224D01*
X0227159Y0039876D02*
X0200600Y0039876D01*
X0199997Y0041474D02*
X0227159Y0041474D01*
X0227330Y0043073D02*
X0200335Y0043073D01*
X0200335Y0044671D02*
X0227457Y0044671D01*
X0221092Y0055423D02*
X0211476Y0055423D01*
X0211383Y0055518D01*
X0206632Y0055861D02*
X0190085Y0055861D01*
X0192088Y0057459D02*
X0206632Y0057459D01*
X0207557Y0059058D02*
X0193687Y0059058D01*
X0192548Y0047888D02*
X0198622Y0047888D01*
X0198658Y0047924D01*
X0195585Y0044288D02*
X0195585Y0040932D01*
X0206093Y0030424D01*
X0211093Y0030424D01*
X0213593Y0032924D01*
X0236093Y0032924D01*
X0218882Y0023361D02*
X0218593Y0023071D01*
X0218593Y0012407D01*
X0218572Y0012386D01*
X0214659Y0015898D02*
X0203653Y0015898D01*
X0203653Y0015918D02*
X0203531Y0016377D01*
X0203294Y0016787D01*
X0202958Y0017122D01*
X0202548Y0017359D01*
X0202090Y0017482D01*
X0198678Y0017482D01*
X0198678Y0012506D01*
X0203653Y0012506D01*
X0203653Y0015918D01*
X0203653Y0014299D02*
X0213682Y0014299D01*
X0213322Y0012701D02*
X0203653Y0012701D01*
X0203653Y0011103D02*
X0213421Y0011103D01*
X0214082Y0009504D02*
X0203653Y0009504D01*
X0198678Y0012701D02*
X0198528Y0012701D01*
X0198528Y0014299D02*
X0198678Y0014299D01*
X0198678Y0015898D02*
X0198528Y0015898D01*
X0193553Y0015898D02*
X0192562Y0015898D01*
X0193512Y0014299D02*
X0193553Y0014299D01*
X0174133Y0009504D02*
X0154682Y0009504D01*
X0167453Y0011130D02*
X0167453Y0011130D01*
X0161143Y0025302D02*
X0161143Y0025302D01*
X0202199Y0038277D02*
X0206887Y0038277D01*
X0205553Y0036679D02*
X0203798Y0036679D01*
X0234790Y0073870D02*
X0245736Y0062924D01*
X0262055Y0062924D01*
X0264273Y0060707D01*
X0264273Y0057243D01*
X0265069Y0056448D01*
X0271692Y0056448D01*
X0276193Y0055861D02*
X0300993Y0055861D01*
X0300993Y0057459D02*
X0276193Y0057459D01*
X0276193Y0057824D02*
X0276193Y0055723D01*
X0289150Y0055723D01*
X0290179Y0055298D01*
X0290967Y0054510D01*
X0292528Y0052947D01*
X0300993Y0052947D01*
X0300993Y0057824D01*
X0276193Y0057824D01*
X0277568Y0062324D02*
X0276969Y0062924D01*
X0267093Y0062924D01*
X0267639Y0076642D02*
X0273725Y0076642D01*
X0273725Y0078240D02*
X0268093Y0078240D01*
X0268093Y0079839D02*
X0273725Y0079839D01*
X0273725Y0081437D02*
X0268093Y0081437D01*
X0268093Y0083036D02*
X0273725Y0083036D01*
X0274438Y0084634D02*
X0268093Y0084634D01*
X0268093Y0086233D02*
X0275936Y0086233D01*
X0276193Y0086046D02*
X0276863Y0085705D01*
X0277575Y0085473D01*
X0278318Y0085356D01*
X0278509Y0085356D01*
X0278509Y0089940D01*
X0273925Y0089940D01*
X0273925Y0089749D01*
X0274042Y0089007D01*
X0274274Y0088294D01*
X0274615Y0087625D01*
X0275055Y0087018D01*
X0275587Y0086487D01*
X0276193Y0086046D01*
X0274509Y0087831D02*
X0268093Y0087831D01*
X0268093Y0089430D02*
X0273975Y0089430D01*
X0273925Y0090308D02*
X0278509Y0090308D01*
X0278509Y0094893D01*
X0278318Y0094893D01*
X0277575Y0094775D01*
X0276863Y0094543D01*
X0276193Y0094202D01*
X0275587Y0093761D01*
X0275055Y0093230D01*
X0274615Y0092623D01*
X0274274Y0091954D01*
X0274042Y0091241D01*
X0273925Y0090499D01*
X0273925Y0090308D01*
X0274008Y0091027D02*
X0268093Y0091027D01*
X0268093Y0092627D02*
X0274617Y0092627D01*
X0276239Y0094224D02*
X0268093Y0094224D01*
X0268093Y0095824D02*
X0300495Y0095824D01*
X0299809Y0094775D02*
X0300523Y0094543D01*
X0301192Y0094202D01*
X0301799Y0093761D01*
X0302330Y0093230D01*
X0302771Y0092623D01*
X0303112Y0091954D01*
X0303344Y0091241D01*
X0303462Y0090499D01*
X0303462Y0090308D01*
X0298877Y0090308D01*
X0298509Y0090308D01*
X0298509Y0094893D01*
X0298318Y0094893D01*
X0297576Y0094775D01*
X0296863Y0094543D01*
X0296194Y0094202D01*
X0295587Y0093761D01*
X0295056Y0093230D01*
X0294615Y0092623D01*
X0294274Y0091954D01*
X0294042Y0091241D01*
X0293925Y0090499D01*
X0293925Y0090308D01*
X0298509Y0090308D01*
X0298509Y0089940D01*
X0293925Y0089940D01*
X0293925Y0089749D01*
X0294042Y0089007D01*
X0294274Y0088294D01*
X0294615Y0087625D01*
X0295056Y0087018D01*
X0295587Y0086487D01*
X0296194Y0086046D01*
X0296863Y0085705D01*
X0297576Y0085473D01*
X0298318Y0085356D01*
X0298509Y0085356D01*
X0298509Y0089940D01*
X0298877Y0089940D01*
X0298877Y0090308D01*
X0298877Y0094893D01*
X0299068Y0094893D01*
X0299809Y0094775D01*
X0298877Y0094224D02*
X0298509Y0094224D01*
X0298509Y0092627D02*
X0298877Y0092627D01*
X0298877Y0091027D02*
X0298509Y0091027D01*
X0298877Y0089940D02*
X0303462Y0089940D01*
X0303462Y0089749D01*
X0303344Y0089007D01*
X0303112Y0088294D01*
X0302771Y0087625D01*
X0302330Y0087018D01*
X0301799Y0086487D01*
X0301192Y0086046D01*
X0300523Y0085705D01*
X0299809Y0085473D01*
X0299068Y0085356D01*
X0298877Y0085356D01*
X0298877Y0089940D01*
X0298877Y0089430D02*
X0298509Y0089430D01*
X0298509Y0087831D02*
X0298877Y0087831D01*
X0298877Y0086233D02*
X0298509Y0086233D01*
X0296598Y0084634D02*
X0290788Y0084634D01*
X0290523Y0085705D02*
X0291192Y0086046D01*
X0291799Y0086487D01*
X0292330Y0087018D01*
X0292771Y0087625D01*
X0293112Y0088294D01*
X0293344Y0089007D01*
X0293462Y0089749D01*
X0293462Y0089940D01*
X0288877Y0089940D01*
X0288877Y0090308D01*
X0288509Y0090308D01*
X0288509Y0094893D01*
X0288318Y0094893D01*
X0287576Y0094775D01*
X0286863Y0094543D01*
X0286194Y0094202D01*
X0285587Y0093761D01*
X0285056Y0093230D01*
X0284615Y0092623D01*
X0284274Y0091954D01*
X0284042Y0091241D01*
X0283925Y0090499D01*
X0283925Y0090308D01*
X0288509Y0090308D01*
X0288509Y0089940D01*
X0283925Y0089940D01*
X0283925Y0089749D01*
X0284042Y0089007D01*
X0284274Y0088294D01*
X0284615Y0087625D01*
X0285056Y0087018D01*
X0285587Y0086487D01*
X0286194Y0086046D01*
X0286863Y0085705D01*
X0287576Y0085473D01*
X0288318Y0085356D01*
X0288509Y0085356D01*
X0288509Y0089940D01*
X0288877Y0089940D01*
X0288877Y0085356D01*
X0289068Y0085356D01*
X0289810Y0085473D01*
X0290523Y0085705D01*
X0291450Y0086233D02*
X0295936Y0086233D01*
X0294509Y0087831D02*
X0292877Y0087831D01*
X0293411Y0089430D02*
X0293975Y0089430D01*
X0293462Y0090308D02*
X0293462Y0090499D01*
X0293344Y0091241D01*
X0293112Y0091954D01*
X0292771Y0092623D01*
X0292330Y0093230D01*
X0291799Y0093761D01*
X0291192Y0094202D01*
X0290523Y0094543D01*
X0289810Y0094775D01*
X0289068Y0094893D01*
X0288877Y0094893D01*
X0288877Y0090308D01*
X0293462Y0090308D01*
X0293378Y0091027D02*
X0294008Y0091027D01*
X0294617Y0092627D02*
X0292769Y0092627D01*
X0291147Y0094224D02*
X0296239Y0094224D01*
X0299294Y0097422D02*
X0268093Y0097422D01*
X0267825Y0099021D02*
X0298632Y0099021D01*
X0298549Y0100618D02*
X0249858Y0100618D01*
X0248259Y0102218D02*
X0298549Y0102218D01*
X0301147Y0094224D02*
X0302979Y0094224D01*
X0302769Y0092627D02*
X0304617Y0092627D01*
X0304008Y0091027D02*
X0303378Y0091027D01*
X0303411Y0089430D02*
X0303975Y0089430D01*
X0304509Y0087831D02*
X0302877Y0087831D01*
X0301450Y0086233D02*
X0305936Y0086233D01*
X0306597Y0084634D02*
X0300787Y0084634D01*
X0302808Y0083036D02*
X0304578Y0083036D01*
X0303858Y0081437D02*
X0303526Y0081437D01*
X0303661Y0079839D02*
X0303725Y0079839D01*
X0304095Y0078240D02*
X0303291Y0078240D01*
X0302417Y0076642D02*
X0305149Y0076642D01*
X0305793Y0075043D02*
X0302417Y0075043D01*
X0302417Y0073445D02*
X0305793Y0073445D01*
X0305793Y0071846D02*
X0302417Y0071846D01*
X0302417Y0070248D02*
X0305793Y0070248D01*
X0305793Y0068649D02*
X0302417Y0068649D01*
X0302417Y0067051D02*
X0305793Y0067051D01*
X0305793Y0065452D02*
X0302716Y0065452D01*
X0302716Y0063854D02*
X0305793Y0063854D01*
X0305793Y0062255D02*
X0302716Y0062255D01*
X0302716Y0060656D02*
X0305793Y0060656D01*
X0308593Y0057924D02*
X0307117Y0056448D01*
X0305492Y0056448D01*
X0305492Y0053298D02*
X0308219Y0053298D01*
X0308593Y0052924D01*
X0315926Y0060257D01*
X0315926Y0066346D01*
X0318693Y0069113D01*
X0318693Y0080124D01*
X0322237Y0076642D02*
X0345793Y0076642D01*
X0345793Y0078240D02*
X0340883Y0078240D01*
X0340682Y0078059D02*
X0343092Y0080229D01*
X0344412Y0083192D01*
X0344412Y0086435D01*
X0343092Y0089398D01*
X0340682Y0091569D01*
X0337597Y0092571D01*
X0334372Y0092232D01*
X0334372Y0092232D01*
X0331563Y0090610D01*
X0329655Y0087986D01*
X0328982Y0084814D01*
X0329655Y0081641D01*
X0331563Y0079017D01*
X0334372Y0077396D01*
X0337597Y0077056D01*
X0337597Y0077056D01*
X0340682Y0078059D01*
X0340682Y0078059D01*
X0342659Y0079839D02*
X0345793Y0079839D01*
X0345793Y0081437D02*
X0343630Y0081437D01*
X0343092Y0080229D02*
X0343092Y0080229D01*
X0344342Y0083036D02*
X0345793Y0083036D01*
X0345793Y0084634D02*
X0344412Y0084634D01*
X0344412Y0086233D02*
X0345793Y0086233D01*
X0345793Y0087831D02*
X0343790Y0087831D01*
X0343092Y0089398D02*
X0343092Y0089398D01*
X0343092Y0089398D01*
X0343058Y0089430D02*
X0345793Y0089430D01*
X0345793Y0091027D02*
X0341282Y0091027D01*
X0340682Y0091569D02*
X0340682Y0091569D01*
X0337597Y0092571D02*
X0337597Y0092571D01*
X0332287Y0091027D02*
X0323378Y0091027D01*
X0323411Y0089430D02*
X0330705Y0089430D01*
X0331563Y0090610D02*
X0331563Y0090610D01*
X0331563Y0090610D01*
X0329655Y0087986D02*
X0329655Y0087986D01*
X0329623Y0087831D02*
X0322877Y0087831D01*
X0321449Y0086233D02*
X0329283Y0086233D01*
X0328982Y0084814D02*
X0328982Y0084814D01*
X0329020Y0084634D02*
X0320788Y0084634D01*
X0318877Y0086233D02*
X0318509Y0086233D01*
X0318509Y0087831D02*
X0318877Y0087831D01*
X0318877Y0089430D02*
X0318509Y0089430D01*
X0315936Y0086233D02*
X0311450Y0086233D01*
X0310788Y0084634D02*
X0316598Y0084634D01*
X0314578Y0083036D02*
X0312808Y0083036D01*
X0313527Y0081437D02*
X0313859Y0081437D01*
X0313725Y0079839D02*
X0313662Y0079839D01*
X0313291Y0078240D02*
X0314095Y0078240D01*
X0315149Y0076642D02*
X0312237Y0076642D01*
X0311393Y0075043D02*
X0315893Y0075043D01*
X0315893Y0073445D02*
X0311393Y0073445D01*
X0311393Y0071846D02*
X0315893Y0071846D01*
X0315868Y0070248D02*
X0311393Y0070248D01*
X0311393Y0068649D02*
X0314269Y0068649D01*
X0313187Y0067051D02*
X0311393Y0067051D01*
X0311393Y0065452D02*
X0313126Y0065452D01*
X0313126Y0063854D02*
X0311393Y0063854D01*
X0311393Y0062255D02*
X0313126Y0062255D01*
X0312366Y0060656D02*
X0311393Y0060656D01*
X0308593Y0057924D02*
X0308593Y0080023D01*
X0308693Y0080124D01*
X0308876Y0086233D02*
X0308508Y0086233D01*
X0308508Y0087831D02*
X0308876Y0087831D01*
X0308876Y0089430D02*
X0308508Y0089430D01*
X0312877Y0087831D02*
X0314509Y0087831D01*
X0313975Y0089430D02*
X0313411Y0089430D01*
X0313378Y0091027D02*
X0314008Y0091027D01*
X0314617Y0092627D02*
X0312769Y0092627D01*
X0322769Y0092627D02*
X0345793Y0092627D01*
X0334372Y0077396D02*
X0334372Y0077396D01*
X0332909Y0078240D02*
X0323291Y0078240D01*
X0323662Y0079839D02*
X0330966Y0079839D01*
X0331563Y0079017D02*
X0331563Y0079017D01*
X0331563Y0079017D01*
X0329805Y0081437D02*
X0323527Y0081437D01*
X0322808Y0083036D02*
X0329360Y0083036D01*
X0329655Y0081641D02*
X0329655Y0081641D01*
X0321492Y0075043D02*
X0345793Y0075043D01*
X0345793Y0073445D02*
X0321492Y0073445D01*
X0321492Y0071846D02*
X0345793Y0071846D01*
X0345793Y0070248D02*
X0321492Y0070248D01*
X0321492Y0068649D02*
X0345793Y0068649D01*
X0345793Y0067051D02*
X0328203Y0067051D01*
X0328826Y0065452D02*
X0345793Y0065452D01*
X0345793Y0063854D02*
X0328826Y0063854D01*
X0328738Y0062255D02*
X0345793Y0062255D01*
X0345793Y0047868D02*
X0329903Y0047868D01*
X0331256Y0046270D02*
X0345793Y0046270D01*
X0345793Y0044671D02*
X0331508Y0044671D01*
X0331508Y0043073D02*
X0345793Y0043073D01*
X0345793Y0041474D02*
X0333459Y0041474D01*
X0333459Y0039876D02*
X0345793Y0039876D01*
X0345793Y0038277D02*
X0333459Y0038277D01*
X0333459Y0036679D02*
X0345793Y0036679D01*
X0345793Y0035079D02*
X0333459Y0035079D01*
X0332477Y0033482D02*
X0345793Y0033482D01*
X0345793Y0031883D02*
X0333230Y0031883D01*
X0333230Y0030285D02*
X0345793Y0030285D01*
X0345793Y0028686D02*
X0329255Y0028686D01*
X0328105Y0028686D02*
X0323146Y0028686D01*
X0324129Y0027088D02*
X0321547Y0027088D01*
X0322319Y0025489D02*
X0324440Y0025489D01*
X0325766Y0023891D02*
X0331926Y0023891D01*
X0331563Y0023681D02*
X0331563Y0023681D01*
X0329655Y0021057D01*
X0328982Y0017885D01*
X0329655Y0014712D01*
X0329655Y0014712D01*
X0331563Y0012088D01*
X0334372Y0010465D01*
X0337597Y0010127D01*
X0337597Y0010127D01*
X0340682Y0011130D01*
X0343092Y0013300D01*
X0344412Y0016263D01*
X0344412Y0019506D01*
X0343092Y0022469D01*
X0343092Y0022469D01*
X0340682Y0024640D01*
X0337597Y0025641D01*
X0334372Y0025302D01*
X0334372Y0025302D01*
X0331563Y0023681D01*
X0331563Y0023681D01*
X0330554Y0022291D02*
X0327423Y0022291D01*
X0328135Y0020694D02*
X0329579Y0020694D01*
X0329655Y0021057D02*
X0329655Y0021057D01*
X0329239Y0019095D02*
X0328663Y0019095D01*
X0328982Y0017885D02*
X0328982Y0017885D01*
X0329064Y0017497D02*
X0328663Y0017497D01*
X0328501Y0015898D02*
X0329403Y0015898D01*
X0329956Y0014299D02*
X0327789Y0014299D01*
X0326679Y0012701D02*
X0331117Y0012701D01*
X0331563Y0012088D02*
X0331563Y0012088D01*
X0333270Y0011103D02*
X0324851Y0011103D01*
X0317522Y0011103D02*
X0308789Y0011103D01*
X0308789Y0012701D02*
X0315369Y0012701D01*
X0314208Y0014299D02*
X0309439Y0014299D01*
X0310996Y0015898D02*
X0313656Y0015898D01*
X0313316Y0017497D02*
X0311393Y0017497D01*
X0311393Y0019095D02*
X0313491Y0019095D01*
X0313831Y0020694D02*
X0311393Y0020694D01*
X0311393Y0022291D02*
X0314806Y0022291D01*
X0315815Y0023681D02*
X0315815Y0023681D01*
X0316178Y0023891D02*
X0311393Y0023891D01*
X0315680Y0029258D02*
X0315680Y0030011D01*
X0320240Y0025489D02*
X0320397Y0025489D01*
X0328105Y0025489D02*
X0329255Y0025489D01*
X0329255Y0027088D02*
X0328105Y0027088D01*
X0332921Y0025489D02*
X0336145Y0025489D01*
X0337597Y0025641D02*
X0337597Y0025641D01*
X0338067Y0025489D02*
X0345793Y0025489D01*
X0345793Y0023891D02*
X0341514Y0023891D01*
X0340682Y0024640D02*
X0340682Y0024640D01*
X0343171Y0022291D02*
X0345793Y0022291D01*
X0345793Y0020694D02*
X0343883Y0020694D01*
X0344412Y0019095D02*
X0345793Y0019095D01*
X0345793Y0017497D02*
X0344412Y0017497D01*
X0344249Y0015898D02*
X0345793Y0015898D01*
X0345793Y0014299D02*
X0343537Y0014299D01*
X0343092Y0013300D02*
X0343092Y0013300D01*
X0342427Y0012701D02*
X0345793Y0012701D01*
X0345793Y0011103D02*
X0340599Y0011103D01*
X0340682Y0011130D02*
X0340682Y0011130D01*
X0345652Y0009504D02*
X0308789Y0009504D01*
X0303539Y0012359D02*
X0308593Y0017413D01*
X0299348Y0017497D02*
X0290875Y0017497D01*
X0290893Y0016678D02*
X0290250Y0016211D01*
X0289688Y0015648D01*
X0289220Y0015006D01*
X0288859Y0014298D01*
X0288614Y0013542D01*
X0288488Y0012756D01*
X0288488Y0012434D01*
X0293464Y0012434D01*
X0293464Y0012435D02*
X0293464Y0017409D01*
X0293142Y0017409D01*
X0292357Y0017285D01*
X0291601Y0017039D01*
X0290893Y0016678D01*
X0289936Y0015898D02*
X0289276Y0015898D01*
X0288860Y0014299D02*
X0273622Y0014299D01*
X0273622Y0012701D02*
X0288488Y0012701D01*
X0288638Y0011103D02*
X0273622Y0011103D01*
X0273622Y0009504D02*
X0289372Y0009504D01*
X0293464Y0012701D02*
X0293614Y0012701D01*
X0293614Y0014299D02*
X0293464Y0014299D01*
X0293464Y0015898D02*
X0293614Y0015898D01*
X0297143Y0015898D02*
X0298288Y0015898D01*
X0298288Y0014299D02*
X0298219Y0014299D01*
X0296467Y0028524D02*
X0296467Y0032550D01*
X0293593Y0035424D01*
X0296162Y0041474D02*
X0276193Y0041474D01*
X0275993Y0043073D02*
X0295793Y0043073D01*
X0295793Y0044671D02*
X0275993Y0044671D01*
X0276193Y0046270D02*
X0295793Y0046270D01*
X0298593Y0050148D02*
X0305492Y0050148D01*
X0305769Y0050424D01*
X0305492Y0046999D02*
X0309793Y0046999D01*
X0309793Y0048020D01*
X0309993Y0048220D01*
X0309993Y0050473D01*
X0310178Y0050549D01*
X0310966Y0051337D01*
X0315580Y0055950D01*
X0315580Y0054928D01*
X0315861Y0054247D01*
X0315861Y0052567D01*
X0315746Y0052519D01*
X0315043Y0051815D01*
X0314661Y0050896D01*
X0314661Y0045813D01*
X0314254Y0046223D01*
X0313224Y0046649D01*
X0309793Y0046649D01*
X0309793Y0046999D01*
X0305492Y0046999D01*
X0305492Y0046999D01*
X0309793Y0047868D02*
X0314661Y0047868D01*
X0314661Y0046270D02*
X0314141Y0046270D01*
X0314661Y0049467D02*
X0309993Y0049467D01*
X0310694Y0051065D02*
X0314732Y0051065D01*
X0315861Y0052664D02*
X0312293Y0052664D01*
X0310966Y0051337D02*
X0310966Y0051337D01*
X0313891Y0054262D02*
X0315856Y0054262D01*
X0315580Y0055861D02*
X0315489Y0055861D01*
X0321462Y0052664D02*
X0323097Y0052664D01*
X0325255Y0054262D02*
X0325405Y0054262D01*
X0325405Y0055861D02*
X0325255Y0055861D01*
X0325255Y0057459D02*
X0325405Y0057459D01*
X0325405Y0059058D02*
X0325255Y0059058D01*
X0325201Y0062255D02*
X0325351Y0062255D01*
X0325351Y0063854D02*
X0325201Y0063854D01*
X0325201Y0065452D02*
X0325351Y0065452D01*
X0325351Y0067051D02*
X0325201Y0067051D01*
X0313593Y0040325D02*
X0315709Y0038209D01*
X0300993Y0054262D02*
X0291214Y0054262D01*
X0288090Y0049467D02*
X0276193Y0049467D01*
X0276193Y0047868D02*
X0289688Y0047868D01*
X0290168Y0062324D02*
X0289718Y0062774D01*
X0289718Y0065486D01*
X0288593Y0066612D01*
X0288593Y0072924D01*
X0281393Y0080124D01*
X0278693Y0080124D01*
X0278877Y0085356D02*
X0279067Y0085356D01*
X0279810Y0085473D01*
X0280522Y0085705D01*
X0281192Y0086046D01*
X0281799Y0086487D01*
X0282330Y0087018D01*
X0282771Y0087625D01*
X0283112Y0088294D01*
X0283344Y0089007D01*
X0283462Y0089749D01*
X0283462Y0089940D01*
X0278877Y0089940D01*
X0278877Y0090308D01*
X0278509Y0090308D01*
X0278509Y0089940D01*
X0278877Y0089940D01*
X0278877Y0085356D01*
X0278877Y0086233D02*
X0278509Y0086233D01*
X0278509Y0087831D02*
X0278877Y0087831D01*
X0278877Y0089430D02*
X0278509Y0089430D01*
X0278877Y0090308D02*
X0283462Y0090308D01*
X0283462Y0090499D01*
X0283344Y0091241D01*
X0283112Y0091954D01*
X0282771Y0092623D01*
X0282330Y0093230D01*
X0281799Y0093761D01*
X0281192Y0094202D01*
X0280522Y0094543D01*
X0279810Y0094775D01*
X0279067Y0094893D01*
X0278877Y0094893D01*
X0278877Y0090308D01*
X0278877Y0091027D02*
X0278509Y0091027D01*
X0278509Y0092627D02*
X0278877Y0092627D01*
X0278877Y0094224D02*
X0278509Y0094224D01*
X0281147Y0094224D02*
X0286239Y0094224D01*
X0284617Y0092627D02*
X0282769Y0092627D01*
X0283378Y0091027D02*
X0284008Y0091027D01*
X0283975Y0089430D02*
X0283411Y0089430D01*
X0282877Y0087831D02*
X0284509Y0087831D01*
X0285935Y0086233D02*
X0281450Y0086233D01*
X0282948Y0084634D02*
X0286598Y0084634D01*
X0288509Y0086233D02*
X0288877Y0086233D01*
X0288877Y0087831D02*
X0288509Y0087831D01*
X0288509Y0089430D02*
X0288877Y0089430D01*
X0288877Y0091027D02*
X0288509Y0091027D01*
X0288509Y0092627D02*
X0288877Y0092627D01*
X0288877Y0094224D02*
X0288509Y0094224D01*
X0284578Y0083036D02*
X0283662Y0083036D01*
X0288692Y0080124D02*
X0288692Y0079073D01*
X0296467Y0071300D01*
X0296467Y0062324D01*
X0299617Y0062324D02*
X0299617Y0079200D01*
X0298693Y0080124D01*
X0295149Y0076642D02*
X0295085Y0076642D01*
X0294095Y0078240D02*
X0293487Y0078240D01*
X0293662Y0079839D02*
X0293725Y0079839D01*
X0293859Y0081437D02*
X0293527Y0081437D01*
X0292808Y0083036D02*
X0294578Y0083036D01*
X0296684Y0075043D02*
X0296817Y0075043D01*
X0255764Y0071601D02*
X0254441Y0072924D01*
X0251093Y0072924D01*
X0248561Y0075043D02*
X0245434Y0075043D01*
X0244546Y0076642D02*
X0243834Y0076642D01*
X0244092Y0078240D02*
X0242237Y0078240D01*
X0240638Y0079839D02*
X0244092Y0079839D01*
X0244092Y0081437D02*
X0239464Y0081437D01*
X0240170Y0080307D02*
X0240170Y0080307D01*
X0240040Y0083036D02*
X0244092Y0083036D01*
X0244092Y0084634D02*
X0240040Y0084634D01*
X0239494Y0086233D02*
X0244092Y0086233D01*
X0244092Y0087831D02*
X0238254Y0087831D01*
X0247032Y0073445D02*
X0247804Y0073445D01*
X0240847Y0063854D02*
X0240040Y0063854D01*
X0240040Y0062255D02*
X0242445Y0062255D01*
X0244044Y0060656D02*
X0240040Y0060656D01*
X0239306Y0059058D02*
X0249873Y0059058D01*
X0258646Y0012461D02*
X0263522Y0012461D01*
X0268497Y0012461D01*
X0268497Y0012311D01*
X0258646Y0012311D01*
X0258646Y0012461D01*
X0333230Y0027088D02*
X0345793Y0027088D01*
X0334372Y0010465D02*
X0334372Y0010465D01*
X0298549Y0183742D02*
X0295479Y0183742D01*
X0298466Y0185340D02*
X0298549Y0185340D01*
X0298549Y0198128D02*
X0296573Y0198128D01*
X0244092Y0183742D02*
X0224613Y0183742D01*
D55*
X0251093Y0072924D03*
X0246092Y0057924D03*
X0238593Y0042923D03*
X0225593Y0029424D03*
X0208592Y0035424D03*
X0203593Y0042923D03*
X0196093Y0027924D03*
X0178592Y0024424D03*
X0170092Y0023924D03*
X0201093Y0057924D03*
X0187092Y0063924D03*
X0178592Y0063924D03*
X0221092Y0055423D03*
X0261093Y0040424D03*
X0266093Y0042923D03*
X0278593Y0047924D03*
X0278593Y0035424D03*
X0286093Y0035424D03*
X0293593Y0045424D03*
X0298593Y0037924D03*
X0298593Y0055423D03*
X0312593Y0049424D03*
X0267093Y0062924D03*
M02*